<svg width="1443" height="3524" viewBox="0 0 1443 3524" fill="none" xmlns="http://www.w3.org/2000/svg">
<path d="M1331 760C1535 87.4984 901.922 -37.9072 689.877 -25.6392" stroke="#FFF5BA" stroke-width="30"/>
<path d="M961.999 -142.683C456.574 -160.315 -298 475.999 204 1273.99" stroke="#A0C4FF" stroke-width="27"/>
<path d="M-540.75 1115.86C-208.762 1031.46 1341.68 2354.33 1357.91 2947.3C1368.31 3327.16 1133.92 3471.52 1008.93 3463.7" stroke="#B8EBCD" stroke-width="30"/>
<path d="M1610.25 1024C1249.25 1441.98 -339.737 2100.25 -38.239 2938.44L-99.7377 3066.41C-156.737 3192.7 147.46 3385.93 316.259 3199.96" stroke="#F7A6A6" stroke-width="30"/>
<path d="M1330.94 756.255L1330.86 756.116" stroke="white" stroke-width="45" stroke-linecap="round"/>
<path d="M1335.28 740.449L1335 740.621" stroke="white" stroke-width="45" stroke-linecap="round"/>
<path d="M1306.39 755.732C1304.11 757.528 1301.6 758.89 1300.93 759.011C1300.63 759.067 1300.4 759.242 1300.64 759.89C1301.87 763.258 1303.27 763.376 1304.28 764.743C1304.88 765.553 1305.68 765.811 1306.57 766.159C1307.7 766.6 1307.76 767.61 1307.96 768.094C1308.23 768.737 1307.75 769.355 1307.74 769.456C1307.73 769.94 1307.37 766.272 1306.69 762.677C1306.28 760.519 1305.54 759.349 1304.68 757.702C1302.28 753.087 1301.2 752.33 1300.75 751.347C1300.41 750.605 1300.4 749.794 1300.47 749.396C1300.77 747.754 1302.12 747.38 1302.94 746.326C1303.93 745.064 1304.82 744.362 1306.32 743.272C1307.07 742.729 1308.38 741.964 1308.93 741.625C1309.48 741.285 1309.25 741.428 1308.92 741.727C1307.42 743.088 1306.14 744.501 1304.98 745.643C1303.88 746.715 1302.96 747.888 1302.21 748.546C1301.08 749.538 1300.1 750.428 1299.42 751.009C1298.65 751.669 1297.77 752.704 1297.2 753.284C1296.71 753.775 1296.22 754.244 1295.77 754.776C1295.33 755.308 1294.85 755.986 1294.27 756.666C1293.8 757.229 1293.45 757.882 1292.29 760.202C1291.6 761.572 1291.23 762.598 1290.88 763.393C1290.58 764.09 1290.05 764.744 1289.51 765.237C1289.01 765.701 1288.01 766.524 1287.22 767.199C1286.53 767.798 1285.77 768.422 1285.14 769.069C1284.53 769.69 1284.2 770.357 1283.77 770.912C1283.31 771.502 1283.01 772.182 1282.55 772.948C1282.36 773.275 1282.1 773.518 1282.05 773.646C1282.03 773.701 1282.34 773.501 1282.44 773.344C1282.78 772.803 1282.74 771.969 1283.12 770.707C1283.42 769.687 1283.44 768.834 1283.39 768.226C1283.3 767.186 1284.06 766.202 1284.59 765.392C1285.11 764.6 1285.66 763.798 1286.36 763.206C1287.15 762.531 1287.73 761.745 1288.49 760.572C1289 759.777 1289.76 759.205 1290.9 758.34C1291.73 757.703 1292.4 757.123 1293.06 756.168C1293.49 755.549 1294.22 754.777 1294.95 753.971C1295.8 753.026 1296.67 752.292 1297.18 751.756C1297.71 751.194 1298.31 750.574 1299.55 749.578C1300.93 748.479 1302.15 747.552 1303.44 747.014C1304.81 746.438 1305.77 746.215 1306.69 745.677C1307.48 745.218 1308.07 744.535 1311.9 742.07C1313.29 741.178 1315.26 739.448 1316.57 738.473C1316.73 738.358 1316.91 738.235 1317 738.079C1317.45 737.373 1317.24 736.171 1316.77 735.143C1316.59 734.763 1316.21 734.614 1315.87 734.413C1314.99 733.909 1313.94 734.157 1313.22 734.185C1313.06 734.191 1312.93 733.884 1312.86 733.668C1312.58 732.802 1313.24 731.889 1313.59 731.159C1314.09 730.127 1313.67 729.053 1313.98 728.251C1314.22 727.631 1314.29 726.935 1314.61 726.315C1314.98 725.609 1315.36 724.923 1315.79 724.171C1316.29 723.302 1316.58 722.629 1317 721.754C1317.47 720.784 1317.92 719.927 1318.6 719.35C1319.48 718.59 1320.37 717.644 1321.07 717.113C1321.84 716.532 1322.36 715.768 1323.31 715.022C1325.46 713.327 1326.38 713.536 1327.25 713.385C1328.27 713.207 1329.31 713.393 1330.94 713.321C1332.05 713.271 1332.8 713.619 1333.64 713.677C1334.78 713.757 1335.85 713.98 1336.55 714.284C1337.35 714.629 1338.37 714.733 1339.16 714.859C1339.95 714.987 1340.44 715.577 1341.15 716.003C1342.07 716.552 1342.41 717.628 1342.96 718.257C1343.4 718.763 1344.13 719.462 1344.77 720.192C1345.29 720.784 1346.13 721.247 1346.96 721.701C1348.03 722.288 1348.47 722.951 1349.05 723.366C1349.19 723.467 1349.31 723.587 1349.14 723.252C1348 721.069 1347.1 720.212 1346.41 719.411C1346.26 719.239 1346.09 719.097 1346.03 719.1C1344.85 719.158 1347.78 721.836 1348.6 722.9C1349.09 723.54 1349.81 723.983 1350.35 724.487C1350.89 724.989 1351.63 725.562 1352.14 726.081C1352.68 726.62 1353.44 726.822 1354.2 727.694C1356.26 730.041 1356.41 731.53 1356.81 732.482C1357.15 733.29 1359.09 736.788 1360.13 739.043C1360.44 739.722 1360.21 740.57 1360.18 741.359C1360.15 742.119 1360.27 742.848 1360.37 743.588C1360.5 744.499 1360.36 745.294 1360.2 746.01C1359.91 747.251 1359.5 748.982 1359.36 749.804C1359.19 750.818 1358.74 751.504 1358.43 752.246C1358.14 752.934 1357.79 753.703 1357.44 754.435C1357.02 755.295 1356.53 756.026 1356.27 756.86C1356.04 757.601 1355.39 758.143 1354.79 758.775C1354.28 759.307 1353.96 759.991 1353.33 760.479C1352.77 760.913 1352.41 761.531 1351.97 762.063C1351.52 762.595 1351.14 763.216 1350.74 763.819C1350.31 764.464 1350.07 765.228 1349.68 765.853C1349.21 766.617 1348.89 767.374 1348.4 768.093C1347.99 768.695 1347.5 769.193 1347.02 769.716C1346.45 770.343 1345.66 770.784 1345.01 771.346C1344.49 771.797 1342.5 773.125 1340.97 773.593C1340.35 773.783 1339.63 773.614 1339.05 773.399C1338.9 773.345 1338.73 773.402 1338.6 773.353C1338.14 772.868 1337.4 772.298 1336.6 771.989C1336.4 771.824 1336.2 771.502 1336 771.17" stroke="white" stroke-width="13" stroke-linecap="round"/>
<path d="M1350.16 722.708C1345.09 725.624 1335.92 733.935 1339.88 743.847" stroke="black" stroke-width="2"/>
<path d="M1315.96 740.983C1313.3 739.785 1300.58 756.532 1297.24 763.115C1301.82 782.334 1312.91 777.796 1313.79 772.925C1308.11 758.608 1316.96 750.587 1318.68 745.786C1320.13 741.736 1316.65 741.108 1315.96 740.983Z" fill="white"/>
<path d="M1346.14 774.807C1343.11 773.662 1345.27 765.669 1348.24 761.174C1356.57 748.543 1344.01 742.807 1335.38 748.797C1326.76 754.786 1324.66 768.419 1329.67 776.507C1333.67 782.977 1342.58 781.948 1346.53 780.625C1350.71 776.708 1360.23 765.995 1364.9 754.477C1370.72 740.081 1362.04 728.456 1360.87 725.011C1359.93 722.255 1349.42 712.874 1343.52 709.667C1337.06 705.63 1319.62 704.712 1311.75 716.513C1303.87 728.313 1306.86 734.313 1309.34 735.838M1309.34 735.838C1302.59 738.093 1298 743.003 1284.91 755.013C1280.83 758.925 1271.28 773.408 1278.42 779.506C1286.07 786.03 1294.5 768.501 1297.24 763.115M1309.34 735.838C1314.48 738.561 1326.97 742.466 1335.84 736.305C1344.71 730.145 1330.37 723.464 1322.09 720.893M1297.24 763.115C1300.58 756.532 1313.3 739.785 1315.96 740.983C1316.65 741.108 1320.13 741.736 1318.68 745.786C1316.96 750.587 1308.11 758.608 1313.79 772.925C1312.91 777.796 1301.82 782.334 1297.24 763.115Z" stroke="black" stroke-width="2"/>
<path d="M1318.69 745.777C1323.56 741.385 1333.52 737.31 1332.4 751.479" stroke="black" stroke-width="2"/>
<path d="M1329.4 776.085C1327.32 778.344 1321.28 780.872 1313.81 772.914" stroke="black" stroke-width="2"/>
<path d="M196.135 1262.11L196.22 1261.97" stroke="white" stroke-width="45" stroke-linecap="round"/>
<path d="M191.622 1246.35L191.903 1246.52" stroke="white" stroke-width="45" stroke-linecap="round"/>
<path d="M220.681 1261.3C222.983 1263.07 225.509 1264.4 226.174 1264.52C226.483 1264.57 226.708 1264.74 226.478 1265.39C225.284 1268.77 223.886 1268.91 222.893 1270.29C222.305 1271.1 221.509 1271.37 220.621 1271.73C219.496 1272.18 219.449 1273.19 219.251 1273.68C218.987 1274.33 219.481 1274.94 219.486 1275.04C219.508 1275.52 219.822 1271.85 220.461 1268.25C220.845 1266.09 221.57 1264.91 222.411 1263.25C224.763 1258.61 225.831 1257.84 226.268 1256.85C226.597 1256.11 226.599 1255.29 226.522 1254.9C226.205 1253.26 224.855 1252.9 224.018 1251.86C223.016 1250.6 222.124 1249.91 220.607 1248.84C219.852 1248.31 218.531 1247.56 217.979 1247.22C217.426 1246.89 217.658 1247.03 217.99 1247.33C219.504 1248.67 220.798 1250.07 221.977 1251.2C223.084 1252.26 224.023 1253.42 224.78 1254.07C225.921 1255.05 226.912 1255.92 227.594 1256.5C228.369 1257.15 229.264 1258.17 229.844 1258.75C230.335 1259.23 230.836 1259.7 231.286 1260.22C231.736 1260.75 232.22 1261.42 232.805 1262.1C233.289 1262.65 233.642 1263.3 234.83 1265.61C235.532 1266.97 235.921 1267.99 236.276 1268.78C236.588 1269.48 237.125 1270.12 237.664 1270.61C238.172 1271.07 239.188 1271.88 239.976 1272.55C240.677 1273.14 241.449 1273.75 242.086 1274.39C242.698 1275.01 243.04 1275.67 243.476 1276.22C243.94 1276.8 244.247 1277.48 244.714 1278.24C244.913 1278.57 245.173 1278.81 245.226 1278.93C245.248 1278.99 244.935 1278.79 244.834 1278.64C244.487 1278.1 244.511 1277.26 244.122 1276.01C243.807 1274.99 243.779 1274.14 243.825 1273.53C243.903 1272.49 243.129 1271.51 242.591 1270.71C242.065 1269.92 241.503 1269.13 240.8 1268.54C239.997 1267.88 239.408 1267.1 238.639 1265.93C238.118 1265.15 237.348 1264.58 236.203 1263.73C235.36 1263.1 234.689 1262.53 234.016 1261.58C233.58 1260.97 232.839 1260.21 232.103 1259.41C231.241 1258.47 230.359 1257.75 229.847 1257.22C229.31 1256.66 228.702 1256.05 227.446 1255.07C226.058 1253.98 224.824 1253.07 223.535 1252.55C222.154 1251.99 221.193 1251.78 220.264 1251.25C219.468 1250.8 218.869 1250.12 215.013 1247.7C213.619 1246.83 211.628 1245.12 210.3 1244.16C210.143 1244.05 209.965 1243.93 209.865 1243.77C209.414 1243.07 209.61 1241.86 210.068 1240.83C210.238 1240.45 210.614 1240.3 210.96 1240.09C211.826 1239.58 212.88 1239.81 213.605 1239.83C213.764 1239.84 213.887 1239.53 213.954 1239.31C214.225 1238.44 213.558 1237.54 213.198 1236.81C212.689 1235.79 213.093 1234.71 212.777 1233.91C212.532 1233.29 212.45 1232.6 212.12 1231.98C211.744 1231.28 211.357 1230.6 210.915 1229.85C210.404 1228.99 210.116 1228.32 209.682 1227.45C209.201 1226.48 208.735 1225.63 208.056 1225.06C207.161 1224.31 206.265 1223.38 205.557 1222.85C204.784 1222.28 204.252 1221.52 203.295 1220.79C201.124 1219.12 200.207 1219.34 199.335 1219.2C198.316 1219.03 197.274 1219.23 195.648 1219.17C194.534 1219.14 193.793 1219.49 192.954 1219.56C191.815 1219.65 190.747 1219.89 190.044 1220.2C189.248 1220.56 188.23 1220.67 187.447 1220.81C186.658 1220.94 186.175 1221.54 185.466 1221.97C184.55 1222.53 184.221 1223.61 183.679 1224.25C183.243 1224.76 182.529 1225.47 181.894 1226.2C181.38 1226.8 180.547 1227.27 179.726 1227.74C178.663 1228.34 178.228 1229.01 177.654 1229.43C177.513 1229.53 177.391 1229.65 177.562 1229.31C178.673 1227.12 179.567 1226.25 180.245 1225.44C180.391 1225.27 180.564 1225.12 180.626 1225.13C181.802 1225.17 178.905 1227.88 178.096 1228.96C177.61 1229.6 176.896 1230.05 176.362 1230.56C175.829 1231.07 175.101 1231.65 174.591 1232.18C174.062 1232.72 173.306 1232.93 172.551 1233.81C170.519 1236.18 170.383 1237.67 169.997 1238.63C169.669 1239.44 167.77 1242.96 166.753 1245.23C166.447 1245.91 166.693 1246.76 166.729 1247.55C166.764 1248.31 166.66 1249.04 166.566 1249.78C166.45 1250.69 166.591 1251.48 166.766 1252.2C167.07 1253.43 167.5 1255.16 167.645 1255.98C167.824 1256.99 168.283 1257.67 168.605 1258.41C168.903 1259.1 169.263 1259.86 169.622 1260.59C170.045 1261.45 170.552 1262.17 170.818 1263C171.055 1263.74 171.709 1264.27 172.323 1264.9C172.839 1265.43 173.159 1266.11 173.796 1266.59C174.363 1267.01 174.732 1267.63 175.181 1268.15C175.631 1268.68 176.023 1269.3 176.429 1269.9C176.865 1270.54 177.116 1271.3 177.509 1271.92C177.988 1272.68 178.32 1273.43 178.816 1274.14C179.232 1274.74 179.723 1275.23 180.21 1275.75C180.794 1276.37 181.584 1276.8 182.241 1277.36C182.768 1277.8 184.772 1279.11 186.31 1279.56C186.935 1279.74 187.646 1279.56 188.229 1279.34C188.374 1279.29 188.546 1279.34 188.674 1279.29C189.13 1278.8 189.86 1278.22 190.659 1277.9C190.857 1277.74 191.053 1277.41 191.255 1277.08" stroke="white" stroke-width="13" stroke-linecap="round"/>
<path d="M176.532 1228.78C181.641 1231.64 190.899 1239.84 187.052 1249.8" stroke="black" stroke-width="2"/>
<path d="M181.152 1280.83C184.165 1279.65 181.914 1271.68 178.896 1267.22C170.417 1254.69 182.918 1248.81 191.61 1254.7C200.303 1260.59 202.558 1274.2 197.643 1282.34C193.711 1288.86 184.796 1287.93 180.83 1286.65C176.607 1282.78 166.96 1272.18 162.165 1260.72C156.171 1246.39 164.718 1234.67 165.853 1231.21C166.762 1228.44 177.161 1218.94 183.028 1215.67C189.437 1211.55 206.864 1210.44 214.875 1222.15C222.886 1233.85 219.966 1239.89 217.504 1241.44M217.504 1241.44C224.283 1243.62 228.926 1248.48 242.15 1260.34C246.28 1264.2 255.995 1278.57 248.92 1284.75C241.351 1291.36 232.717 1273.93 229.92 1268.58M217.504 1241.44C212.398 1244.22 199.951 1248.27 191.01 1242.21C182.069 1236.16 196.331 1229.31 204.579 1226.64M229.92 1268.58C226.502 1262.03 213.591 1245.43 210.947 1246.66C210.252 1246.8 206.78 1247.46 208.275 1251.5C210.048 1256.28 218.997 1264.2 213.48 1278.58C214.415 1283.44 225.559 1287.85 229.92 1268.58Z" stroke="black" stroke-width="2"/>
<path d="M208.262 1251.49C203.349 1247.15 193.343 1243.19 194.623 1257.35" stroke="black" stroke-width="2"/>
<path d="M197.905 1281.92C200.015 1284.15 206.08 1286.61 213.463 1278.57" stroke="black" stroke-width="2"/>
<path d="M337.924 3188.45L337.786 3188.35" stroke="white" stroke-width="45" stroke-linecap="round"/>
<path d="M322.06 3193.05L322.237 3192.74" stroke="white" stroke-width="45" stroke-linecap="round"/>
<path d="M337.736 3161.01C339.564 3158.49 340.96 3155.71 341.09 3154.97C341.15 3154.62 341.327 3154.38 341.973 3154.65C345.324 3156.08 345.422 3157.65 346.775 3158.79C347.577 3159.47 347.824 3160.37 348.16 3161.37C348.585 3162.64 349.595 3162.72 350.076 3162.96C350.715 3163.27 351.34 3162.73 351.44 3162.73C351.925 3162.72 348.262 3162.27 344.677 3161.45C342.525 3160.96 341.365 3160.12 339.729 3159.13C335.148 3156.38 334.406 3155.16 333.429 3154.65C332.691 3154.26 331.88 3154.23 331.482 3154.31C329.836 3154.62 329.444 3156.11 328.378 3157.02C327.103 3158.1 326.389 3159.08 325.278 3160.74C324.725 3161.57 323.943 3163.03 323.596 3163.64C323.249 3164.24 323.394 3163.99 323.698 3163.63C325.08 3161.97 326.51 3160.57 327.668 3159.28C328.755 3158.07 329.94 3157.06 330.608 3156.23C331.615 3154.98 332.519 3153.9 333.109 3153.15C333.779 3152.31 334.826 3151.34 335.414 3150.7C335.912 3150.17 336.387 3149.62 336.925 3149.14C337.463 3148.65 338.148 3148.13 338.836 3147.49C339.405 3146.97 340.063 3146.59 342.399 3145.33C343.778 3144.58 344.809 3144.18 345.609 3143.8C346.31 3143.47 346.97 3142.89 347.47 3142.3C347.942 3141.75 348.778 3140.64 349.464 3139.77C350.073 3139.01 350.707 3138.16 351.362 3137.47C351.991 3136.8 352.663 3136.44 353.223 3135.97C353.821 3135.47 354.504 3135.14 355.276 3134.64C355.606 3134.43 355.853 3134.15 355.981 3134.09C356.036 3134.07 355.832 3134.41 355.674 3134.52C355.129 3134.89 354.294 3134.84 353.028 3135.24C352.004 3135.56 351.151 3135.57 350.543 3135.5C349.504 3135.39 348.51 3136.22 347.693 3136.8C346.895 3137.37 346.084 3137.97 345.483 3138.74C344.797 3139.62 344.004 3140.26 342.821 3141.08C342.018 3141.64 341.436 3142.49 340.555 3143.74C339.907 3144.67 339.319 3145.4 338.355 3146.12C337.73 3146.59 336.947 3147.4 336.132 3148.2C335.175 3149.14 334.43 3150.1 333.886 3150.66C333.317 3151.24 332.689 3151.9 331.676 3153.28C330.558 3154.8 329.616 3156.15 329.06 3157.58C328.465 3159.1 328.228 3160.17 327.679 3161.2C327.208 3162.07 326.517 3162.72 324 3166.96C323.09 3168.49 321.332 3170.67 320.34 3172.13C320.223 3172.3 320.097 3172.49 319.94 3172.6C319.229 3173.09 318.029 3172.83 317.008 3172.29C316.63 3172.09 316.486 3171.67 316.29 3171.27C315.798 3170.29 316.061 3169.12 316.098 3168.31C316.106 3168.14 315.801 3167.99 315.586 3167.91C314.724 3167.58 313.803 3168.3 313.067 3168.68C312.029 3169.22 310.961 3168.74 310.154 3169.07C309.532 3169.33 308.834 3169.4 308.209 3169.75C307.499 3170.15 306.808 3170.56 306.05 3171.04C305.174 3171.58 304.497 3171.89 303.617 3172.35C302.64 3172.86 301.777 3173.35 301.191 3174.1C300.419 3175.07 299.461 3176.05 298.92 3176.83C298.329 3177.67 297.558 3178.25 296.799 3179.29C295.075 3181.67 295.272 3182.7 295.108 3183.67C294.917 3184.81 295.089 3185.98 294.994 3187.79C294.929 3189.03 295.266 3189.87 295.314 3190.81C295.378 3192.09 295.586 3193.29 295.881 3194.08C296.214 3194.98 296.304 3196.12 296.42 3197C296.537 3197.88 297.12 3198.44 297.536 3199.24C298.073 3200.28 299.144 3200.68 299.766 3201.3C300.265 3201.8 300.954 3202.62 301.676 3203.35C302.26 3203.94 302.712 3204.89 303.154 3205.82C303.727 3207.02 304.384 3207.53 304.791 3208.18C304.89 3208.34 305.008 3208.48 304.675 3208.28C302.508 3206.98 301.664 3205.95 300.872 3205.17C300.702 3205.01 300.563 3204.81 300.567 3204.74C300.641 3203.43 303.278 3206.74 304.331 3207.67C304.964 3208.23 305.398 3209.04 305.894 3209.65C306.389 3210.26 306.951 3211.09 307.463 3211.68C307.995 3212.28 308.187 3213.13 309.049 3214C311.367 3216.34 312.854 3216.53 313.8 3216.99C314.604 3217.38 318.075 3219.6 320.315 3220.8C320.99 3221.16 321.841 3220.91 322.63 3220.89C323.391 3220.87 324.118 3221.01 324.857 3221.14C325.766 3221.29 326.563 3221.16 327.281 3220.98C328.525 3220.68 330.262 3220.24 331.086 3220.11C332.102 3219.93 332.794 3219.44 333.541 3219.1C334.232 3218.79 335.005 3218.41 335.742 3218.03C336.608 3217.58 337.346 3217.03 338.184 3216.76C338.927 3216.51 339.478 3215.8 340.119 3215.13C340.658 3214.57 341.345 3214.23 341.842 3213.53C342.284 3212.91 342.907 3212.52 343.444 3212.03C343.982 3211.54 344.609 3211.12 345.217 3210.68C345.868 3210.22 346.635 3209.96 347.266 3209.54C348.036 3209.02 348.797 3208.67 349.523 3208.14C350.131 3207.69 350.635 3207.15 351.164 3206.63C351.799 3205.99 352.251 3205.12 352.822 3204.4C353.28 3203.83 354.635 3201.62 355.123 3199.92C355.322 3199.23 355.163 3198.43 354.956 3197.77C354.904 3197.61 354.963 3197.41 354.916 3197.27C354.437 3196.75 353.877 3195.91 353.579 3195.01C353.417 3194.79 353.098 3194.56 352.769 3194.33" stroke="white" stroke-width="13" stroke-linecap="round"/>
<path d="M304.117 3209.41C307.103 3203.79 315.539 3193.68 325.395 3198.25" stroke="black" stroke-width="2"/>
<path d="M322.858 3171.47C321.697 3168.49 338.616 3154.53 345.243 3150.9C364.399 3156.31 359.709 3168.63 354.827 3169.54C340.589 3162.97 332.447 3172.75 327.623 3174.59C323.554 3176.15 322.974 3172.25 322.858 3171.47Z" fill="white"/>
<path d="M356.266 3205.72C355.163 3202.32 347.141 3204.61 342.607 3207.85C329.863 3216.97 324.299 3202.84 330.406 3193.3C336.512 3183.76 350.172 3181.62 358.191 3187.34C364.606 3191.91 363.456 3201.84 362.079 3206.24C358.105 3210.85 347.263 3221.33 335.683 3226.36C321.208 3232.65 309.703 3222.78 306.274 3221.41C303.531 3220.32 294.295 3208.44 291.169 3201.79C287.221 3194.52 286.541 3175.02 298.448 3166.4C310.354 3157.78 316.313 3161.21 317.804 3164M317.804 3164C320.151 3156.49 325.123 3151.44 337.311 3137C341.278 3132.5 355.89 3122.05 361.89 3130.13C368.309 3138.77 350.667 3147.92 345.243 3150.9M317.804 3164C320.456 3169.78 324.19 3183.8 317.909 3193.62C311.628 3203.44 305.144 3187.31 302.687 3178.02M345.243 3150.9C338.616 3154.53 321.697 3168.49 322.858 3171.47C322.974 3172.25 323.554 3176.15 327.623 3174.59C332.447 3172.75 340.589 3162.97 354.827 3169.54C359.709 3168.63 364.399 3156.31 345.243 3150.9Z" stroke="black" stroke-width="2"/>
<path d="M327.614 3174.61C323.156 3179.98 318.946 3191.04 333.128 3190.01" stroke="black" stroke-width="2"/>
<path d="M357.774 3187.03C360.061 3184.74 362.671 3178.03 354.816 3169.56" stroke="black" stroke-width="2"/>
<path d="M1008.18 3483.93L1008.19 3483.74" stroke="white" stroke-width="45" stroke-linecap="round"/>
<path d="M1021.17 3472.77L1020.85 3472.73" stroke="white" stroke-width="45" stroke-linecap="round"/>
<path d="M988.919 3466.9C986.016 3466.96 983.191 3466.48 982.59 3466.14C982.31 3465.99 982.027 3465.99 981.825 3466.73C980.774 3470.56 981.819 3471.61 981.798 3473.51C981.786 3474.63 982.267 3475.4 982.768 3476.31C983.403 3477.47 982.84 3478.41 982.711 3478.98C982.539 3479.73 981.777 3479.95 981.714 3480.04C981.408 3480.46 983.339 3476.95 984.966 3473.29C985.942 3471.09 986.059 3469.55 986.369 3467.5C987.236 3461.77 986.834 3460.37 987.07 3459.19C987.249 3458.3 987.729 3457.57 988.027 3457.27C989.256 3456.01 990.555 3456.58 991.849 3456.2C993.398 3455.74 994.526 3455.71 996.384 3455.75C997.309 3455.78 998.816 3455.98 999.459 3456.05C1000.1 3456.11 999.832 3456.09 999.389 3456.13C997.373 3456.33 995.501 3456.73 993.882 3456.96C992.362 3457.18 990.917 3457.6 989.921 3457.68C988.422 3457.8 987.103 3457.93 986.214 3457.99C985.204 3458.06 983.875 3458.39 983.067 3458.52C982.384 3458.63 981.705 3458.71 981.031 3458.89C980.356 3459.06 979.566 3459.35 978.696 3459.56C977.976 3459.74 977.306 3460.09 974.979 3461.38C973.605 3462.13 972.686 3462.79 971.93 3463.27C971.266 3463.68 970.45 3463.91 969.727 3463.99C969.046 3464.06 967.747 3464.12 966.717 3464.19C965.802 3464.26 964.816 3464.3 963.923 3464.45C963.067 3464.59 962.397 3464.96 961.72 3465.17C960.999 3465.39 960.35 3465.79 959.522 3466.16C959.169 3466.32 958.817 3466.37 958.699 3466.45C958.649 3466.48 959.017 3466.51 959.191 3466.44C959.789 3466.19 960.266 3465.42 961.326 3464.55C962.183 3463.84 962.713 3463.1 963.038 3462.52C963.594 3461.53 964.796 3461.17 965.707 3460.8C966.596 3460.45 967.522 3460.11 968.434 3460.05C969.475 3459.98 970.412 3459.67 971.722 3459.14C972.611 3458.78 973.565 3458.78 974.992 3458.78C976.042 3458.77 976.922 3458.7 978.026 3458.3C978.742 3458.04 979.792 3457.84 980.858 3457.61C982.107 3457.35 983.246 3457.28 983.974 3457.15C984.736 3457 985.589 3456.86 987.183 3456.81C988.942 3456.76 990.477 3456.76 991.825 3457.14C993.268 3457.56 994.168 3458 995.228 3458.15C996.135 3458.27 997.019 3458.06 1001.56 3458.45C1003.2 3458.59 1005.82 3458.37 1007.45 3458.39C1007.65 3458.4 1007.86 3458.41 1008.04 3458.33C1008.82 3458 1009.37 3456.79 1009.62 3455.56C1009.71 3455.1 1009.5 3454.71 1009.34 3454.3C1008.95 3453.26 1007.96 3452.78 1007.37 3452.31C1007.24 3452.21 1007.32 3451.85 1007.4 3451.61C1007.7 3450.65 1008.77 3450.28 1009.49 3449.87C1010.51 3449.28 1010.83 3448.04 1011.56 3447.54C1012.12 3447.14 1012.6 3446.57 1013.23 3446.24C1013.95 3445.86 1014.67 3445.5 1015.47 3445.13C1016.39 3444.69 1017.02 3444.28 1017.89 3443.79C1018.85 3443.24 1019.73 3442.78 1020.61 3442.72C1021.78 3442.64 1023.05 3442.4 1023.93 3442.4C1024.9 3442.4 1025.77 3442.07 1026.98 3442.04C1029.72 3441.99 1030.33 3442.79 1031.11 3443.24C1032.03 3443.77 1032.75 3444.64 1034.09 3445.67C1035.01 3446.38 1035.39 3447.19 1036.03 3447.81C1036.89 3448.65 1037.6 3449.57 1037.98 3450.32C1038.41 3451.16 1039.16 3451.94 1039.71 3452.59C1040.27 3453.23 1040.3 3454.09 1040.61 3454.95C1041.02 3456.06 1040.64 3457.25 1040.7 3458.18C1040.74 3458.93 1040.9 3460.04 1040.97 3461.12C1041.03 3462 1041.42 3462.98 1041.8 3463.94C1042.3 3465.19 1042.25 3466.08 1042.47 3466.84C1042.52 3467.02 1042.54 3467.21 1042.61 3466.8C1043.02 3464.08 1042.81 3462.71 1042.75 3461.53C1042.74 3461.28 1042.68 3461.04 1042.63 3461C1041.66 3460.26 1042.38 3464.62 1042.39 3466.12C1042.4 3467.02 1042.7 3467.9 1042.83 3468.72C1042.96 3469.53 1043.2 3470.53 1043.29 3471.34C1043.4 3472.18 1043.88 3472.88 1043.96 3474.17C1044.19 3477.65 1043.41 3479.08 1043.15 3480.19C1042.93 3481.14 1042.37 3485.57 1041.84 3488.28C1041.68 3489.09 1040.98 3489.69 1040.48 3490.37C1040 3491.03 1039.65 3491.76 1039.29 3492.49C1038.84 3493.38 1038.25 3494 1037.69 3494.53C1036.71 3495.44 1035.34 3496.7 1034.73 3497.35C1033.99 3498.14 1033.21 3498.44 1032.51 3498.89C1031.87 3499.31 1031.12 3499.76 1030.4 3500.17C1029.55 3500.66 1028.71 3500.98 1028.01 3501.55C1027.38 3502.05 1026.53 3502.1 1025.67 3502.25C1024.94 3502.38 1024.28 3502.78 1023.48 3502.79C1022.77 3502.8 1022.11 3503.1 1021.44 3503.28C1020.76 3503.45 1020.08 3503.75 1019.4 3504.02C1018.67 3504.3 1018.01 3504.82 1017.33 3505.12C1016.49 3505.48 1015.78 3505.93 1014.95 3506.25C1014.26 3506.51 1013.58 3506.62 1012.88 3506.76C1012.04 3506.93 1011.15 3506.8 1010.29 3506.86C1009.6 3506.91 1007.21 3506.75 1005.71 3506.13C1005.1 3505.88 1004.63 3505.25 1004.29 3504.67C1004.21 3504.52 1004.04 3504.45 1003.97 3504.32C1003.89 3503.58 1003.65 3502.58 1003.19 3501.76C1003.13 3501.48 1003.17 3501.06 1003.21 3500.62" stroke="white" stroke-width="13" stroke-linecap="round"/>
<path d="M1043.75 3467C1037.94 3466.18 1025.62 3467.4 1022.8 3478.9" stroke="black" stroke-width="2"/>
<path d="M1005.45 3460.21C1004.05 3457.35 983.802 3463.69 977.164 3467.3C969.216 3487.52 980.8 3490.96 984.44 3487.21C988.552 3470.62 1000.46 3469.45 1004.72 3466.33C1008.32 3463.7 1005.93 3460.79 1005.45 3460.21Z" fill="white"/>
<path d="M1009.1 3510.7C1007.38 3507.64 1013.92 3501.98 1019 3499.97C1033.27 3494.34 1026.71 3480.76 1016.22 3480.28C1005.73 3479.8 995.828 3490.53 994.939 3501.11C994.228 3509.58 1001.95 3514.66 1005.9 3516.15C1011.59 3515.48 1025.65 3512.36 1036.32 3505.24C1049.66 3496.35 1049.75 3480.14 1050.9 3476.27C1051.81 3473.18 1049.1 3457.74 1046.32 3450.9C1043.61 3442.95 1030.26 3430.37 1016.86 3435.57C1003.46 3440.77 1002.22 3448.14 1003.28 3451.17M1003.28 3451.17C996.532 3448.62 989.911 3449.9 972.227 3451.78C966.609 3452.51 950.254 3458.97 952.27 3469.22C954.427 3480.19 971.732 3470.26 977.164 3467.3M1003.28 3451.17C1005.73 3457.06 1013.33 3468.96 1024.12 3469.46C1034.92 3469.95 1027.52 3454.33 1022.47 3446.45M977.164 3467.3C983.802 3463.69 1004.05 3457.35 1005.45 3460.21C1005.93 3460.79 1008.32 3463.7 1004.72 3466.33C1000.46 3469.45 988.552 3470.62 984.44 3487.21C980.8 3490.96 969.216 3487.52 977.164 3467.3Z" stroke="black" stroke-width="2"/>
<path d="M1004.74 3466.33C1011.27 3465.7 1021.67 3468.79 1012.22 3480.65" stroke="black" stroke-width="2"/>
<path d="M994.981 3500.55C991.956 3501.16 985.617 3499.34 984.461 3487.21" stroke="black" stroke-width="2"/>
</svg>
