<svg width="1443" height="3262" viewBox="0 0 1443 3262" fill="none" xmlns="http://www.w3.org/2000/svg">
<path d="M1331 760C1535 87.4984 901.922 -37.9072 689.877 -25.6392" stroke="#FFF5BA" stroke-width="30"/>
<path d="M961.999 -142.683C456.574 -160.315 -298 475.999 204 1273.99" stroke="#A0C4FF" stroke-width="27"/>
<path d="M-541 1107C-209 1031.5 1341.5 2215 1357.73 2745.5C1368.13 3085.34 1133.73 3214.5 1008.73 3207.5" stroke="#B8EBCD" stroke-width="30"/>
<path d="M1610.5 1024C1249.5 1398 -339.5 1987 -37.9998 2737L-99.4989 2851.5C-156.499 2964.5 147.701 3137.4 316.501 2971" stroke="#F7A6A6" stroke-width="30"/>
<path d="M1330.94 756.255L1330.86 756.116" stroke="white" stroke-width="45" stroke-linecap="round"/>
<path d="M1335.28 740.449L1335 740.621" stroke="white" stroke-width="45" stroke-linecap="round"/>
<path d="M1306.39 755.732C1304.11 757.528 1301.6 758.89 1300.93 759.011C1300.63 759.067 1300.4 759.242 1300.64 759.89C1301.87 763.258 1303.27 763.376 1304.28 764.743C1304.88 765.553 1305.68 765.811 1306.57 766.159C1307.7 766.6 1307.76 767.61 1307.96 768.094C1308.23 768.737 1307.75 769.355 1307.74 769.456C1307.73 769.94 1307.37 766.272 1306.69 762.677C1306.28 760.519 1305.54 759.349 1304.68 757.702C1302.28 753.087 1301.2 752.33 1300.75 751.347C1300.41 750.605 1300.4 749.794 1300.47 749.396C1300.77 747.754 1302.12 747.38 1302.94 746.326C1303.93 745.064 1304.82 744.362 1306.32 743.272C1307.07 742.729 1308.38 741.964 1308.93 741.625C1309.48 741.285 1309.25 741.428 1308.92 741.727C1307.42 743.088 1306.14 744.501 1304.98 745.643C1303.88 746.715 1302.96 747.888 1302.21 748.546C1301.08 749.538 1300.1 750.428 1299.42 751.009C1298.65 751.669 1297.77 752.704 1297.2 753.284C1296.71 753.775 1296.22 754.244 1295.77 754.776C1295.33 755.308 1294.85 755.986 1294.27 756.666C1293.8 757.229 1293.45 757.882 1292.29 760.202C1291.6 761.572 1291.23 762.598 1290.88 763.393C1290.58 764.09 1290.05 764.744 1289.51 765.237C1289.01 765.701 1288.01 766.524 1287.22 767.199C1286.53 767.798 1285.77 768.422 1285.14 769.069C1284.53 769.69 1284.2 770.357 1283.77 770.912C1283.31 771.502 1283.01 772.182 1282.55 772.948C1282.36 773.275 1282.1 773.518 1282.05 773.646C1282.03 773.701 1282.34 773.501 1282.44 773.344C1282.78 772.803 1282.74 771.969 1283.12 770.707C1283.42 769.687 1283.44 768.834 1283.39 768.226C1283.3 767.186 1284.06 766.202 1284.59 765.392C1285.11 764.6 1285.66 763.798 1286.36 763.206C1287.15 762.531 1287.73 761.745 1288.49 760.572C1289 759.777 1289.76 759.205 1290.9 758.34C1291.73 757.703 1292.4 757.123 1293.06 756.168C1293.49 755.549 1294.22 754.777 1294.95 753.971C1295.8 753.026 1296.67 752.292 1297.18 751.756C1297.71 751.194 1298.31 750.574 1299.55 749.578C1300.93 748.479 1302.15 747.552 1303.44 747.014C1304.81 746.438 1305.77 746.215 1306.69 745.677C1307.48 745.218 1308.07 744.535 1311.9 742.07C1313.29 741.178 1315.26 739.448 1316.57 738.473C1316.73 738.358 1316.91 738.235 1317 738.079C1317.45 737.373 1317.24 736.171 1316.77 735.143C1316.59 734.763 1316.21 734.614 1315.87 734.413C1314.99 733.909 1313.94 734.157 1313.22 734.185C1313.06 734.191 1312.93 733.884 1312.86 733.668C1312.58 732.802 1313.24 731.889 1313.59 731.159C1314.09 730.127 1313.67 729.053 1313.98 728.251C1314.22 727.631 1314.29 726.935 1314.61 726.315C1314.98 725.609 1315.36 724.923 1315.79 724.171C1316.29 723.302 1316.58 722.629 1317 721.754C1317.47 720.784 1317.92 719.927 1318.6 719.35C1319.48 718.59 1320.37 717.644 1321.07 717.113C1321.84 716.532 1322.36 715.768 1323.31 715.022C1325.46 713.327 1326.38 713.536 1327.25 713.385C1328.27 713.207 1329.31 713.393 1330.94 713.321C1332.05 713.271 1332.8 713.619 1333.64 713.677C1334.78 713.757 1335.85 713.98 1336.55 714.284C1337.35 714.629 1338.37 714.733 1339.16 714.859C1339.95 714.987 1340.44 715.577 1341.15 716.003C1342.07 716.552 1342.41 717.628 1342.96 718.257C1343.4 718.763 1344.13 719.462 1344.77 720.192C1345.29 720.784 1346.13 721.247 1346.96 721.701C1348.03 722.288 1348.47 722.951 1349.05 723.366C1349.19 723.467 1349.31 723.587 1349.14 723.252C1348 721.069 1347.1 720.212 1346.41 719.411C1346.26 719.239 1346.09 719.097 1346.03 719.1C1344.85 719.158 1347.78 721.836 1348.6 722.9C1349.09 723.54 1349.81 723.983 1350.35 724.487C1350.89 724.989 1351.63 725.562 1352.14 726.081C1352.68 726.62 1353.44 726.822 1354.2 727.694C1356.26 730.041 1356.41 731.53 1356.81 732.482C1357.15 733.29 1359.09 736.788 1360.13 739.043C1360.44 739.722 1360.21 740.57 1360.18 741.359C1360.15 742.119 1360.27 742.848 1360.37 743.588C1360.5 744.499 1360.36 745.294 1360.2 746.01C1359.91 747.251 1359.5 748.982 1359.36 749.804C1359.19 750.818 1358.74 751.504 1358.43 752.246C1358.14 752.934 1357.79 753.703 1357.44 754.435C1357.02 755.295 1356.53 756.026 1356.27 756.86C1356.04 757.601 1355.39 758.143 1354.79 758.775C1354.28 759.307 1353.96 759.991 1353.33 760.479C1352.77 760.913 1352.41 761.531 1351.97 762.063C1351.52 762.595 1351.14 763.216 1350.74 763.819C1350.31 764.464 1350.07 765.228 1349.68 765.853C1349.21 766.617 1348.89 767.374 1348.4 768.093C1347.99 768.695 1347.5 769.193 1347.02 769.716C1346.45 770.343 1345.66 770.784 1345.01 771.346C1344.49 771.797 1342.5 773.125 1340.97 773.593C1340.35 773.783 1339.63 773.614 1339.05 773.399C1338.9 773.345 1338.73 773.402 1338.6 773.353C1338.14 772.868 1337.4 772.298 1336.6 771.989C1336.4 771.824 1336.2 771.502 1336 771.17" stroke="white" stroke-width="13" stroke-linecap="round"/>
<path d="M1350.16 722.708C1345.09 725.624 1335.92 733.935 1339.88 743.847" stroke="black" stroke-width="2"/>
<path d="M1315.96 740.983C1313.3 739.785 1300.58 756.532 1297.24 763.115C1301.82 782.334 1312.91 777.796 1313.79 772.925C1308.11 758.608 1316.96 750.587 1318.68 745.786C1320.13 741.736 1316.65 741.108 1315.96 740.983Z" fill="white"/>
<path d="M1346.14 774.807C1343.11 773.662 1345.27 765.669 1348.24 761.174C1356.57 748.543 1344.01 742.807 1335.38 748.797C1326.76 754.786 1324.66 768.419 1329.67 776.507C1333.67 782.977 1342.58 781.948 1346.53 780.625C1350.71 776.708 1360.23 765.995 1364.9 754.477C1370.72 740.081 1362.04 728.456 1360.87 725.011C1359.93 722.255 1349.42 712.874 1343.52 709.667C1337.06 705.63 1319.62 704.712 1311.75 716.513C1303.87 728.313 1306.86 734.313 1309.34 735.838M1309.34 735.838C1302.59 738.093 1298 743.003 1284.91 755.013C1280.83 758.925 1271.28 773.408 1278.42 779.506C1286.07 786.03 1294.5 768.501 1297.24 763.115M1309.34 735.838C1314.48 738.561 1326.97 742.466 1335.84 736.305C1344.71 730.145 1330.37 723.464 1322.09 720.893M1297.24 763.115C1300.58 756.532 1313.3 739.785 1315.96 740.983C1316.65 741.108 1320.13 741.736 1318.68 745.786C1316.96 750.587 1308.11 758.608 1313.79 772.925C1312.91 777.796 1301.82 782.334 1297.24 763.115Z" stroke="black" stroke-width="2"/>
<path d="M1318.69 745.777C1323.56 741.385 1333.52 737.31 1332.4 751.479" stroke="black" stroke-width="2"/>
<path d="M1329.4 776.085C1327.32 778.344 1321.28 780.872 1313.81 772.914" stroke="black" stroke-width="2"/>
<path d="M196.135 1262.11L196.22 1261.97" stroke="white" stroke-width="45" stroke-linecap="round"/>
<path d="M191.622 1246.35L191.903 1246.52" stroke="white" stroke-width="45" stroke-linecap="round"/>
<path d="M220.681 1261.3C222.983 1263.07 225.509 1264.4 226.174 1264.52C226.483 1264.57 226.708 1264.74 226.478 1265.39C225.284 1268.77 223.886 1268.91 222.893 1270.29C222.305 1271.1 221.509 1271.37 220.621 1271.73C219.496 1272.18 219.449 1273.19 219.251 1273.68C218.987 1274.33 219.481 1274.94 219.486 1275.04C219.508 1275.52 219.822 1271.85 220.461 1268.25C220.845 1266.09 221.57 1264.91 222.411 1263.25C224.763 1258.61 225.831 1257.84 226.268 1256.85C226.597 1256.11 226.599 1255.29 226.522 1254.9C226.205 1253.26 224.855 1252.9 224.018 1251.86C223.016 1250.6 222.124 1249.91 220.607 1248.84C219.852 1248.31 218.531 1247.56 217.979 1247.22C217.426 1246.89 217.658 1247.03 217.99 1247.33C219.504 1248.67 220.798 1250.07 221.977 1251.2C223.084 1252.26 224.023 1253.42 224.78 1254.07C225.921 1255.05 226.912 1255.92 227.594 1256.5C228.369 1257.15 229.264 1258.17 229.844 1258.75C230.335 1259.23 230.836 1259.7 231.286 1260.22C231.736 1260.75 232.22 1261.42 232.805 1262.1C233.289 1262.65 233.642 1263.3 234.83 1265.61C235.532 1266.97 235.921 1267.99 236.276 1268.78C236.588 1269.48 237.125 1270.12 237.664 1270.61C238.172 1271.07 239.188 1271.88 239.976 1272.55C240.677 1273.14 241.449 1273.75 242.086 1274.39C242.698 1275.01 243.04 1275.67 243.476 1276.22C243.94 1276.8 244.247 1277.48 244.714 1278.24C244.913 1278.57 245.173 1278.81 245.226 1278.93C245.248 1278.99 244.935 1278.79 244.834 1278.64C244.487 1278.1 244.511 1277.26 244.122 1276.01C243.807 1274.99 243.779 1274.14 243.825 1273.53C243.903 1272.49 243.129 1271.51 242.591 1270.71C242.065 1269.92 241.503 1269.13 240.8 1268.54C239.997 1267.88 239.408 1267.1 238.639 1265.93C238.118 1265.15 237.348 1264.58 236.203 1263.73C235.36 1263.1 234.689 1262.53 234.016 1261.58C233.58 1260.97 232.839 1260.21 232.103 1259.41C231.241 1258.47 230.359 1257.75 229.847 1257.22C229.31 1256.66 228.702 1256.05 227.446 1255.07C226.058 1253.98 224.824 1253.07 223.535 1252.55C222.154 1251.99 221.193 1251.78 220.264 1251.25C219.468 1250.8 218.869 1250.12 215.013 1247.7C213.619 1246.83 211.628 1245.12 210.3 1244.16C210.143 1244.05 209.965 1243.93 209.865 1243.77C209.414 1243.07 209.61 1241.86 210.068 1240.83C210.238 1240.45 210.614 1240.3 210.96 1240.09C211.826 1239.58 212.88 1239.81 213.605 1239.83C213.764 1239.84 213.887 1239.53 213.954 1239.31C214.225 1238.44 213.558 1237.54 213.198 1236.81C212.689 1235.79 213.093 1234.71 212.777 1233.91C212.532 1233.29 212.45 1232.6 212.12 1231.98C211.744 1231.28 211.357 1230.6 210.915 1229.85C210.404 1228.99 210.116 1228.32 209.682 1227.45C209.201 1226.48 208.735 1225.63 208.056 1225.06C207.161 1224.31 206.265 1223.38 205.557 1222.85C204.784 1222.28 204.252 1221.52 203.295 1220.79C201.124 1219.12 200.207 1219.34 199.335 1219.2C198.316 1219.03 197.274 1219.23 195.648 1219.17C194.534 1219.14 193.793 1219.49 192.954 1219.56C191.815 1219.65 190.747 1219.89 190.044 1220.2C189.248 1220.56 188.23 1220.67 187.447 1220.81C186.658 1220.94 186.175 1221.54 185.466 1221.97C184.55 1222.53 184.221 1223.61 183.679 1224.25C183.243 1224.76 182.529 1225.47 181.894 1226.2C181.38 1226.8 180.547 1227.27 179.726 1227.74C178.663 1228.34 178.228 1229.01 177.654 1229.43C177.513 1229.53 177.391 1229.65 177.562 1229.31C178.673 1227.12 179.567 1226.25 180.245 1225.44C180.391 1225.27 180.564 1225.12 180.626 1225.13C181.802 1225.17 178.905 1227.88 178.096 1228.96C177.61 1229.6 176.896 1230.05 176.362 1230.56C175.829 1231.07 175.101 1231.65 174.591 1232.18C174.062 1232.72 173.306 1232.93 172.551 1233.81C170.519 1236.18 170.383 1237.67 169.997 1238.63C169.669 1239.44 167.77 1242.96 166.753 1245.23C166.447 1245.91 166.693 1246.76 166.729 1247.55C166.764 1248.31 166.66 1249.04 166.566 1249.78C166.45 1250.69 166.591 1251.48 166.766 1252.2C167.07 1253.43 167.5 1255.16 167.645 1255.98C167.824 1256.99 168.283 1257.67 168.605 1258.41C168.903 1259.1 169.263 1259.86 169.622 1260.59C170.045 1261.45 170.552 1262.17 170.818 1263C171.055 1263.74 171.709 1264.27 172.323 1264.9C172.839 1265.43 173.159 1266.11 173.796 1266.59C174.363 1267.01 174.732 1267.63 175.181 1268.15C175.631 1268.68 176.023 1269.3 176.429 1269.9C176.865 1270.54 177.116 1271.3 177.509 1271.92C177.988 1272.68 178.32 1273.43 178.816 1274.14C179.232 1274.74 179.723 1275.23 180.21 1275.75C180.794 1276.37 181.584 1276.8 182.241 1277.36C182.768 1277.8 184.772 1279.11 186.31 1279.56C186.935 1279.74 187.646 1279.56 188.229 1279.34C188.374 1279.29 188.546 1279.34 188.674 1279.29C189.13 1278.8 189.86 1278.22 190.659 1277.9C190.857 1277.74 191.053 1277.41 191.255 1277.08" stroke="white" stroke-width="13" stroke-linecap="round"/>
<path d="M176.532 1228.78C181.641 1231.64 190.899 1239.84 187.052 1249.8" stroke="black" stroke-width="2"/>
<path d="M181.152 1280.83C184.165 1279.65 181.914 1271.68 178.896 1267.22C170.417 1254.69 182.918 1248.81 191.61 1254.7C200.303 1260.59 202.558 1274.2 197.643 1282.34C193.711 1288.86 184.796 1287.93 180.83 1286.65C176.607 1282.78 166.96 1272.18 162.165 1260.72C156.171 1246.39 164.718 1234.67 165.853 1231.21C166.762 1228.44 177.161 1218.94 183.028 1215.67C189.437 1211.55 206.864 1210.44 214.875 1222.15C222.886 1233.85 219.966 1239.89 217.504 1241.44M217.504 1241.44C224.283 1243.62 228.926 1248.48 242.15 1260.34C246.28 1264.2 255.995 1278.57 248.92 1284.75C241.351 1291.36 232.717 1273.93 229.92 1268.58M217.504 1241.44C212.398 1244.22 199.951 1248.27 191.01 1242.21C182.069 1236.16 196.331 1229.31 204.579 1226.64M229.92 1268.58C226.502 1262.03 213.591 1245.43 210.947 1246.66C210.252 1246.8 206.78 1247.46 208.275 1251.5C210.048 1256.28 218.997 1264.2 213.48 1278.58C214.415 1283.44 225.559 1287.85 229.92 1268.58Z" stroke="black" stroke-width="2"/>
<path d="M208.262 1251.49C203.349 1247.15 193.343 1243.19 194.623 1257.35" stroke="black" stroke-width="2"/>
<path d="M197.905 1281.92C200.015 1284.15 206.08 1286.61 213.463 1278.57" stroke="black" stroke-width="2"/>
<path d="M337.425 2961.06L337.286 2960.97" stroke="white" stroke-width="45" stroke-linecap="round"/>
<path d="M321.561 2965.18L321.737 2964.9" stroke="white" stroke-width="45" stroke-linecap="round"/>
<path d="M337.236 2936.5C339.064 2934.24 340.46 2931.75 340.59 2931.09C340.651 2930.78 340.828 2930.56 341.473 2930.81C344.824 2932.09 344.923 2933.49 346.275 2934.52C347.078 2935.12 347.325 2935.93 347.66 2936.82C348.086 2937.96 349.095 2938.03 349.576 2938.24C350.216 2938.52 350.84 2938.04 350.941 2938.04C351.425 2938.03 347.763 2937.63 344.177 2936.9C342.025 2936.46 340.866 2935.7 339.23 2934.82C334.648 2932.35 333.906 2931.27 332.929 2930.8C332.192 2930.46 331.381 2930.43 330.982 2930.5C329.336 2930.78 328.944 2932.12 327.879 2932.93C326.603 2933.9 325.89 2934.77 324.779 2936.26C324.225 2937 323.443 2938.3 323.096 2938.85C322.749 2939.39 322.895 2939.16 323.198 2938.84C324.58 2937.36 326.011 2936.1 327.168 2934.95C328.255 2933.87 329.44 2932.96 330.109 2932.22C331.116 2931.11 332.02 2930.14 332.609 2929.47C333.28 2928.71 334.327 2927.84 334.915 2927.28C335.412 2926.8 335.888 2926.31 336.426 2925.87C336.964 2925.44 337.649 2924.97 338.337 2924.4C338.905 2923.93 339.564 2923.59 341.899 2922.46C343.279 2921.8 344.31 2921.43 345.109 2921.1C345.811 2920.8 346.471 2920.28 346.971 2919.76C347.442 2919.26 348.279 2918.27 348.964 2917.49C349.573 2916.81 350.207 2916.05 350.863 2915.43C351.492 2914.84 352.163 2914.51 352.724 2914.09C353.321 2913.64 354.004 2913.35 354.777 2912.9C355.106 2912.71 355.353 2912.46 355.482 2912.41C355.537 2912.39 355.332 2912.69 355.174 2912.79C354.629 2913.13 353.795 2913.08 352.528 2913.44C351.504 2913.73 350.651 2913.73 350.043 2913.67C349.005 2913.57 348.011 2914.32 347.193 2914.83C346.395 2915.34 345.585 2915.88 344.984 2916.57C344.298 2917.36 343.504 2917.93 342.321 2918.67C341.519 2919.17 340.936 2919.92 340.056 2921.05C339.408 2921.87 338.819 2922.53 337.855 2923.18C337.23 2923.6 336.448 2924.32 335.632 2925.03C334.675 2925.87 333.93 2926.74 333.387 2927.24C332.818 2927.76 332.19 2928.35 331.177 2929.58C330.059 2930.94 329.116 2932.15 328.56 2933.43C327.965 2934.79 327.729 2935.75 327.179 2936.67C326.709 2937.45 326.017 2938.03 323.501 2941.83C322.59 2943.2 320.833 2945.14 319.841 2946.45C319.723 2946.6 319.598 2946.78 319.44 2946.87C318.729 2947.31 317.529 2947.08 316.509 2946.6C316.13 2946.42 315.987 2946.04 315.79 2945.69C315.298 2944.81 315.561 2943.76 315.599 2943.03C315.607 2942.88 315.301 2942.75 315.086 2942.67C314.224 2942.38 313.303 2943.02 312.568 2943.37C311.529 2943.85 310.461 2943.42 309.655 2943.71C309.032 2943.94 308.335 2944.01 307.71 2944.32C307 2944.68 306.308 2945.05 305.55 2945.47C304.674 2945.96 303.998 2946.23 303.118 2946.65C302.141 2947.1 301.278 2947.55 300.692 2948.21C299.92 2949.09 298.961 2949.96 298.421 2950.65C297.83 2951.41 297.059 2951.92 296.299 2952.86C294.576 2954.99 294.772 2955.91 294.609 2956.78C294.418 2957.8 294.589 2958.84 294.494 2960.47C294.429 2961.58 294.767 2962.33 294.814 2963.17C294.878 2964.31 295.087 2965.38 295.381 2966.09C295.715 2966.9 295.805 2967.92 295.921 2968.71C296.037 2969.5 296.621 2970 297.037 2970.72C297.574 2971.65 298.645 2972 299.266 2972.56C299.766 2973.01 300.455 2973.74 301.177 2974.39C301.761 2974.92 302.212 2975.77 302.655 2976.6C303.228 2977.68 303.885 2978.13 304.291 2978.71C304.39 2978.86 304.508 2978.98 304.176 2978.8C302.009 2977.64 301.164 2976.72 300.372 2976.02C300.203 2975.87 300.063 2975.7 300.067 2975.63C300.141 2974.46 302.778 2977.42 303.832 2978.26C304.465 2978.76 304.898 2979.49 305.395 2980.03C305.889 2980.58 306.452 2981.32 306.964 2981.84C307.495 2982.39 307.688 2983.15 308.549 2983.92C310.868 2986.02 312.354 2986.19 313.301 2986.6C314.104 2986.95 317.575 2988.93 319.816 2990.01C320.49 2990.33 321.341 2990.11 322.131 2990.09C322.891 2990.07 323.618 2990.2 324.357 2990.31C325.266 2990.45 326.063 2990.33 326.781 2990.17C328.026 2989.9 329.762 2989.51 330.586 2989.39C331.603 2989.23 332.294 2988.79 333.041 2988.49C333.733 2988.21 334.506 2987.87 335.243 2987.53C336.109 2987.12 336.847 2986.64 337.684 2986.39C338.428 2986.17 338.978 2985.53 339.619 2984.93C340.158 2984.43 340.846 2984.13 341.342 2983.5C341.785 2982.95 342.407 2982.6 342.945 2982.16C343.483 2981.72 344.11 2981.35 344.717 2980.95C345.368 2980.54 346.136 2980.3 346.766 2979.93C347.536 2979.47 348.297 2979.15 349.023 2978.68C349.631 2978.28 350.135 2977.8 350.665 2977.32C351.3 2976.75 351.751 2975.98 352.322 2975.33C352.781 2974.82 354.135 2972.85 354.624 2971.32C354.822 2970.7 354.664 2969.99 354.456 2969.4C354.405 2969.25 354.463 2969.08 354.416 2968.95C353.938 2968.48 353.377 2967.74 353.08 2966.93C352.918 2966.73 352.598 2966.52 352.269 2966.31" stroke="white" stroke-width="13" stroke-linecap="round"/>
<path d="M303.618 2979.82C306.604 2974.78 315.039 2965.73 324.895 2969.83" stroke="black" stroke-width="2"/>
<path d="M322.358 2945.86C321.197 2943.19 338.116 2930.7 344.744 2927.45C363.899 2932.29 359.21 2943.32 354.327 2944.13C340.089 2938.26 331.948 2947 327.123 2948.66C323.054 2950.05 322.474 2946.56 322.358 2945.86Z" fill="white"/>
<path d="M355.767 2976.51C354.664 2973.47 346.642 2975.52 342.107 2978.42C329.364 2986.58 323.8 2973.94 329.906 2965.4C336.013 2956.86 349.673 2954.94 357.692 2960.06C364.107 2964.16 362.956 2973.04 361.579 2976.98C357.606 2981.1 346.764 2990.48 335.184 2994.98C320.708 3000.62 309.203 2991.78 305.775 2990.55C303.031 2989.58 293.795 2978.94 290.67 2973C286.721 2966.48 286.041 2949.03 297.948 2941.32C309.855 2933.61 315.813 2936.68 317.304 2939.18M317.304 2939.18C319.651 2932.46 324.624 2927.94 336.812 2915.01C340.779 2910.98 355.39 2901.63 361.391 2908.86C367.81 2916.59 350.167 2924.79 344.744 2927.45M317.304 2939.18C319.957 2944.35 323.691 2956.9 317.41 2965.68C311.129 2974.47 304.644 2960.04 302.187 2951.73M344.744 2927.45C338.116 2930.7 321.197 2943.19 322.358 2945.86C322.474 2946.56 323.054 2950.05 327.123 2948.66C331.948 2947 340.089 2938.26 354.327 2944.13C359.21 2943.32 363.899 2932.29 344.744 2927.45Z" stroke="black" stroke-width="2"/>
<path d="M327.115 2948.67C322.656 2953.47 318.446 2963.38 332.629 2962.45" stroke="black" stroke-width="2"/>
<path d="M357.274 2959.79C359.561 2957.74 362.171 2951.73 354.316 2944.15" stroke="black" stroke-width="2"/>
<path d="M1007.68 3225.49L1007.7 3225.33" stroke="white" stroke-width="45" stroke-linecap="round"/>
<path d="M1020.67 3215.5L1020.35 3215.47" stroke="white" stroke-width="45" stroke-linecap="round"/>
<path d="M988.419 3210.25C985.516 3210.31 982.692 3209.88 982.09 3209.58C981.81 3209.43 981.527 3209.44 981.325 3210.1C980.275 3213.53 981.32 3214.47 981.299 3216.17C981.286 3217.17 981.768 3217.86 982.269 3218.68C982.904 3219.71 982.341 3220.55 982.211 3221.06C982.039 3221.74 981.278 3221.93 981.214 3222.01C980.909 3222.39 982.839 3219.25 984.466 3215.97C985.443 3214.01 985.56 3212.63 985.869 3210.79C986.736 3205.66 986.335 3204.41 986.571 3203.36C986.749 3202.56 987.23 3201.91 987.528 3201.63C988.757 3200.5 990.055 3201.02 991.349 3200.68C992.899 3200.27 994.026 3200.24 995.884 3200.28C996.81 3200.3 998.317 3200.48 998.959 3200.54C999.602 3200.6 999.333 3200.58 998.89 3200.62C996.873 3200.8 995.001 3201.15 993.382 3201.36C991.862 3201.55 990.417 3201.93 989.422 3202C987.923 3202.11 986.603 3202.23 985.714 3202.28C984.704 3202.35 983.375 3202.64 982.567 3202.75C981.885 3202.85 981.206 3202.93 980.531 3203.08C979.857 3203.24 979.067 3203.49 978.196 3203.69C977.476 3203.85 976.806 3204.16 974.48 3205.31C973.106 3205.99 972.186 3206.58 971.43 3207C970.767 3207.37 969.95 3207.58 969.228 3207.65C968.547 3207.71 967.247 3207.76 966.218 3207.83C965.303 3207.89 964.316 3207.92 963.423 3208.06C962.567 3208.19 961.897 3208.52 961.22 3208.7C960.499 3208.9 959.851 3209.26 959.023 3209.59C958.67 3209.74 958.318 3209.78 958.2 3209.85C958.149 3209.88 958.518 3209.9 958.691 3209.84C959.29 3209.61 959.767 3208.93 960.827 3208.15C961.684 3207.52 962.213 3206.85 962.539 3206.33C963.095 3205.45 964.297 3205.12 965.207 3204.8C966.097 3204.48 967.022 3204.17 967.934 3204.12C968.976 3204.06 969.912 3203.79 971.223 3203.31C972.111 3202.98 973.065 3202.99 974.492 3202.98C975.543 3202.98 976.423 3202.92 977.527 3202.56C978.243 3202.32 979.293 3202.15 980.358 3201.94C981.608 3201.7 982.747 3201.65 983.474 3201.52C984.236 3201.4 985.089 3201.26 986.683 3201.22C988.443 3201.18 989.978 3201.18 991.326 3201.52C992.769 3201.89 993.668 3202.29 994.728 3202.42C995.636 3202.53 996.52 3202.34 1001.06 3202.69C1002.7 3202.81 1005.32 3202.62 1006.95 3202.64C1007.15 3202.64 1007.36 3202.65 1007.54 3202.59C1008.32 3202.29 1008.87 3201.21 1009.12 3200.1C1009.21 3199.69 1009 3199.35 1008.84 3198.98C1008.45 3198.05 1007.46 3197.61 1006.87 3197.2C1006.74 3197.11 1006.82 3196.78 1006.9 3196.57C1007.2 3195.71 1008.27 3195.38 1008.99 3195.01C1010.01 3194.49 1010.33 3193.38 1011.06 3192.92C1011.62 3192.57 1012.1 3192.06 1012.73 3191.76C1013.45 3191.42 1014.17 3191.1 1014.97 3190.77C1015.89 3190.38 1016.52 3190.01 1017.39 3189.57C1018.35 3189.08 1019.23 3188.67 1020.11 3188.62C1021.28 3188.54 1022.55 3188.32 1023.43 3188.32C1024.4 3188.32 1025.27 3188.03 1026.48 3188.01C1029.22 3187.96 1029.83 3188.68 1030.61 3189.08C1031.53 3189.55 1032.25 3190.33 1033.59 3191.26C1034.51 3191.89 1034.89 3192.62 1035.53 3193.17C1036.39 3193.92 1037.11 3194.74 1037.48 3195.41C1037.91 3196.17 1038.66 3196.87 1039.21 3197.44C1039.77 3198.02 1039.8 3198.79 1040.11 3199.56C1040.52 3200.55 1040.14 3201.62 1040.2 3202.45C1040.25 3203.12 1040.4 3204.11 1040.47 3205.08C1040.53 3205.87 1040.92 3206.75 1041.3 3207.61C1041.8 3208.72 1041.75 3209.52 1041.97 3210.2C1042.02 3210.36 1042.04 3210.53 1042.11 3210.16C1042.52 3207.73 1042.32 3206.51 1042.25 3205.45C1042.24 3205.23 1042.18 3205.01 1042.13 3204.97C1041.16 3204.31 1041.88 3208.21 1041.89 3209.55C1041.9 3210.36 1042.2 3211.15 1042.33 3211.88C1042.46 3212.6 1042.7 3213.5 1042.79 3214.23C1042.9 3214.98 1043.38 3215.6 1043.46 3216.76C1043.69 3219.87 1042.91 3221.15 1042.65 3222.15C1042.43 3223 1041.87 3226.96 1041.34 3229.38C1041.18 3230.12 1040.48 3230.65 1039.98 3231.26C1039.5 3231.85 1039.15 3232.5 1038.79 3233.15C1038.34 3233.96 1037.75 3234.51 1037.19 3234.98C1036.21 3235.79 1034.84 3236.93 1034.23 3237.5C1033.49 3238.21 1032.71 3238.48 1032.01 3238.89C1031.37 3239.26 1030.62 3239.66 1029.9 3240.03C1029.05 3240.47 1028.21 3240.75 1027.51 3241.26C1026.88 3241.71 1026.03 3241.75 1025.17 3241.89C1024.44 3242.01 1023.78 3242.36 1022.98 3242.37C1022.27 3242.38 1021.61 3242.65 1020.94 3242.81C1020.26 3242.97 1019.58 3243.23 1018.9 3243.47C1018.17 3243.72 1017.51 3244.19 1016.83 3244.45C1015.99 3244.78 1015.28 3245.19 1014.45 3245.47C1013.76 3245.7 1013.08 3245.8 1012.38 3245.93C1011.54 3246.08 1010.65 3245.96 1009.79 3246.02C1009.1 3246.06 1006.71 3245.92 1005.21 3245.37C1004.6 3245.14 1004.13 3244.58 1003.79 3244.05C1003.71 3243.92 1003.54 3243.86 1003.47 3243.75C1003.39 3243.08 1003.15 3242.18 1002.69 3241.45C1002.63 3241.2 1002.67 3240.82 1002.71 3240.43" stroke="white" stroke-width="13" stroke-linecap="round"/>
<path d="M1043.25 3210.34C1037.44 3209.61 1025.12 3210.7 1022.3 3220.99" stroke="black" stroke-width="2"/>
<path d="M1004.95 3204.27C1003.55 3201.71 983.302 3207.38 976.664 3210.62C968.717 3228.7 980.3 3231.78 983.941 3228.43C988.052 3213.58 999.956 3212.53 1004.22 3209.74C1007.82 3207.39 1005.43 3204.79 1004.95 3204.27Z" fill="white"/>
<path d="M1008.6 3249.46C1006.88 3246.72 1013.42 3241.65 1018.5 3239.85C1032.77 3234.81 1026.21 3222.65 1015.72 3222.22C1005.23 3221.79 995.329 3231.4 994.44 3240.87C993.729 3248.45 1001.45 3253 1005.4 3254.33C1011.09 3253.73 1025.15 3250.94 1035.82 3244.57C1049.16 3236.61 1049.26 3222.1 1050.4 3218.64C1051.31 3215.88 1048.6 3202.06 1045.82 3195.94C1043.11 3188.82 1029.76 3177.56 1016.36 3182.22C1002.96 3186.87 1001.72 3193.46 1002.78 3196.17M1002.78 3196.17C996.032 3193.89 989.411 3195.04 971.728 3196.72C966.11 3197.37 949.754 3203.15 951.771 3212.33C953.928 3222.14 971.232 3213.26 976.664 3210.62M1002.78 3196.17C1005.23 3201.44 1012.83 3212.1 1023.62 3212.54C1034.42 3212.98 1027.02 3199 1021.97 3191.96M976.664 3210.62C983.302 3207.38 1003.55 3201.71 1004.95 3204.27C1005.43 3204.79 1007.82 3207.39 1004.22 3209.74C999.956 3212.53 988.052 3213.58 983.941 3228.43C980.3 3231.78 968.717 3228.7 976.664 3210.62Z" stroke="black" stroke-width="2"/>
<path d="M1004.24 3209.74C1010.77 3209.18 1021.17 3211.94 1011.72 3222.56" stroke="black" stroke-width="2"/>
<path d="M994.481 3240.37C991.456 3240.91 985.118 3239.29 983.962 3228.43" stroke="black" stroke-width="2"/>
</svg>
