<svg width="1440" height="1106" viewBox="0 0 1440 1106" fill="none" xmlns="http://www.w3.org/2000/svg">
<path d="M1525 438.909C1412.33 570.006 1097.23 918.345 902.454 703.763C677.311 517.816 474.102 530.737 318 497.5C-89.0747 410.825 -61.9999 184 261.491 184" stroke="#FFF5BA" stroke-width="27"/>
<path d="M149.956 877.472C340.23 917.301 457.435 583.601 806.598 686.438C1188.67 798.969 1409.02 364.766 1169 172.792" stroke="#B8EBCD" stroke-width="27"/>
<path d="M-277.5 949C-346.337 975.398 -200.128 946 -79 765.5C-17.4373 673.762 195 63.5 417 428C903.217 1226.32 362 -186 681 -93.5002" stroke="#A0C4FF" stroke-width="30"/>
<path d="M1481.5 794.5C1402.8 770.981 1090.81 204.943 775.5 438C659.287 523.896 251.757 750.675 207.5 540C163.243 329.325 382.874 24.7275 -80.0001 136" stroke="#F7A6A6" stroke-width="27"/>
<path d="M1148.91 153.509L1148.91 153.685" stroke="white" stroke-width="45" stroke-linecap="round"/>
<path d="M1160.61 165.605L1160.29 165.602" stroke="white" stroke-width="45" stroke-linecap="round"/>
<path d="M1128.59 167.721C1125.76 167.347 1122.96 167.5 1122.34 167.76C1122.05 167.881 1121.78 167.846 1121.64 167.117C1120.96 163.334 1122.07 162.443 1122.22 160.624C1122.31 159.545 1122.85 158.862 1123.42 158.043C1124.14 157.007 1123.67 156.046 1123.6 155.487C1123.49 154.744 1122.77 154.45 1122.72 154.359C1122.45 153.923 1124.03 157.491 1125.29 161.174C1126.05 163.385 1126.03 164.873 1126.15 166.867C1126.49 172.451 1125.97 173.748 1126.1 174.901C1126.19 175.772 1126.6 176.524 1126.86 176.848C1127.95 178.19 1129.27 177.781 1130.5 178.287C1131.97 178.894 1133.07 179.044 1134.89 179.205C1135.8 179.285 1137.29 179.253 1137.92 179.258C1138.55 179.263 1138.29 179.261 1137.86 179.17C1135.91 178.758 1134.11 178.174 1132.55 177.778C1131.09 177.405 1129.71 176.846 1128.75 176.66C1127.3 176.381 1126.02 176.112 1125.16 175.956C1124.18 175.779 1122.91 175.322 1122.13 175.11C1121.47 174.931 1120.82 174.777 1120.17 174.537C1119.53 174.296 1118.78 173.94 1117.95 173.638C1117.27 173.388 1116.64 172.981 1114.48 171.5C1113.21 170.625 1112.37 169.894 1111.67 169.357C1111.06 168.887 1110.29 168.583 1109.59 168.428C1108.93 168.283 1107.66 168.09 1106.67 167.907C1105.78 167.744 1104.82 167.599 1103.96 167.357C1103.14 167.125 1102.51 166.699 1101.87 166.43C1101.19 166.143 1100.59 165.686 1099.81 165.238C1099.48 165.048 1099.14 164.968 1099.03 164.879C1098.99 164.841 1099.35 164.851 1099.51 164.94C1100.08 165.246 1100.47 166.031 1101.43 166.98C1102.21 167.747 1102.66 168.521 1102.92 169.109C1103.38 170.115 1104.52 170.592 1105.38 171.04C1106.21 171.478 1107.09 171.906 1107.97 172.06C1108.99 172.236 1109.87 172.633 1111.11 173.288C1111.94 173.732 1112.87 173.831 1114.27 173.991C1115.29 174.108 1116.15 174.269 1117.19 174.776C1117.86 175.105 1118.87 175.404 1119.89 175.738C1121.09 176.13 1122.2 176.315 1122.89 176.525C1123.63 176.745 1124.45 176.978 1126 177.196C1127.71 177.437 1129.21 177.604 1130.56 177.38C1132.01 177.141 1132.93 176.81 1133.97 176.787C1134.87 176.768 1135.72 177.065 1140.18 177.188C1141.8 177.233 1144.34 177.72 1145.94 177.878C1146.13 177.897 1146.34 177.912 1146.5 178C1147.23 178.4 1147.67 179.622 1147.8 180.829C1147.85 181.276 1147.61 181.624 1147.42 182.003C1146.94 182.954 1145.94 183.313 1145.31 183.694C1145.18 183.777 1145.23 184.129 1145.28 184.367C1145.49 185.319 1146.5 185.79 1147.17 186.265C1148.11 186.934 1148.31 188.154 1148.98 188.719C1149.5 189.155 1149.91 189.753 1150.5 190.142C1151.17 190.585 1151.84 191.003 1152.59 191.451C1153.45 191.97 1154.03 192.431 1154.83 192.997C1155.72 193.625 1156.54 194.157 1157.4 194.311C1158.53 194.514 1159.75 194.888 1160.61 194.983C1161.55 195.088 1162.38 195.497 1163.56 195.652C1166.23 196.005 1166.89 195.299 1167.7 194.951C1168.64 194.545 1169.42 193.791 1170.82 192.948C1171.78 192.372 1172.23 191.635 1172.9 191.111C1173.82 190.401 1174.6 189.597 1175.04 188.923C1175.53 188.159 1176.33 187.494 1176.93 186.938C1177.53 186.379 1177.63 185.563 1178.02 184.773C1178.51 183.752 1178.25 182.573 1178.39 181.688C1178.5 180.977 1178.75 179.931 1178.91 178.9C1179.05 178.066 1179.51 177.171 1179.98 176.292C1180.57 175.155 1180.6 174.298 1180.88 173.593C1180.95 173.421 1180.99 173.242 1181.01 173.647C1181.17 176.288 1180.85 177.58 1180.69 178.701C1180.65 178.941 1180.58 179.169 1180.52 179.201C1179.51 179.805 1180.6 175.709 1180.74 174.271C1180.83 173.408 1181.2 172.598 1181.4 171.833C1181.6 171.071 1181.92 170.134 1182.09 169.369C1182.26 168.574 1182.79 167.964 1182.99 166.736C1183.52 163.428 1182.89 161.975 1182.73 160.879C1182.6 159.948 1182.44 155.65 1182.17 152.996C1182.08 152.197 1181.45 151.55 1181.03 150.841C1180.62 150.157 1180.34 149.425 1180.05 148.687C1179.69 147.78 1179.17 147.123 1178.67 146.559C1177.79 145.581 1176.56 144.221 1176.03 143.541C1175.37 142.703 1174.64 142.326 1174 141.819C1173.41 141.35 1172.72 140.84 1172.05 140.364C1171.27 139.805 1170.47 139.412 1169.83 138.79C1169.26 138.237 1168.44 138.102 1167.61 137.86C1166.91 137.656 1166.3 137.203 1165.52 137.108C1164.83 137.023 1164.21 136.658 1163.57 136.418C1162.93 136.177 1162.29 135.821 1161.64 135.492C1160.95 135.139 1160.36 134.572 1159.72 134.213C1158.93 133.775 1158.28 133.261 1157.5 132.873C1156.85 132.548 1156.19 132.363 1155.52 132.152C1154.72 131.898 1153.83 131.932 1153 131.78C1152.33 131.657 1149.99 131.55 1148.46 131.978C1147.84 132.151 1147.33 132.704 1146.95 133.23C1146.86 133.361 1146.68 133.405 1146.6 133.522C1146.46 134.225 1146.13 135.161 1145.62 135.894C1145.54 136.157 1145.53 136.564 1145.53 136.984" stroke="white" stroke-width="13" stroke-linecap="round"/>
<path d="M1182.15 173.574C1176.4 173.734 1164.48 171.225 1162.74 159.906" stroke="black" stroke-width="2"/>
<path d="M1144.14 175.919C1142.52 178.506 1123.31 170.237 1117.14 166.06C1111.17 145.844 1122.79 143.808 1126.01 147.791C1128.56 164.119 1140.08 166.533 1143.97 169.983C1147.25 172.892 1144.66 175.414 1144.14 175.919Z" fill="white"/>
<path d="M1152.18 127.97C1150.23 130.714 1156.12 136.848 1160.9 139.318C1174.34 146.258 1166.73 158.555 1156.44 157.877C1146.15 157.199 1137.43 145.851 1137.5 135.621C1137.56 127.437 1145.55 123.403 1149.54 122.409C1155.04 123.669 1168.49 128.183 1178.28 136.154C1190.52 146.118 1189.18 161.65 1189.95 165.472C1190.57 168.529 1186.55 183.022 1183.23 189.269C1179.88 196.588 1165.73 207.184 1153.1 200.75C1140.47 194.315 1139.92 187.132 1141.22 184.345M1141.22 184.345C1134.4 186.051 1128.05 184.106 1110.95 180.393C1105.52 179.085 1090.12 171.123 1093 161.525C1096.08 151.258 1112.1 162.642 1117.14 166.06M1141.22 184.345C1144.13 178.971 1152.62 168.398 1163.2 169.095C1173.78 169.793 1165.17 183.948 1159.54 190.939M1117.14 166.06C1123.31 170.237 1142.52 178.506 1144.14 175.919C1144.66 175.414 1147.25 172.892 1143.97 169.983C1140.08 166.533 1128.56 164.119 1126.01 147.791C1122.79 143.808 1111.17 145.844 1117.14 166.06Z" stroke="black" stroke-width="2"/>
<path d="M1143.99 169.983C1150.31 171.297 1160.74 169.47 1152.57 157.081" stroke="black" stroke-width="2"/>
<path d="M1137.49 136.157C1134.59 135.248 1128.24 136.302 1126.03 147.791" stroke="black" stroke-width="2"/>
<path d="M270.004 153.509L270.005 153.685" stroke="white" stroke-width="45" stroke-linecap="round"/>
<path d="M258.302 165.605L258.624 165.602" stroke="white" stroke-width="45" stroke-linecap="round"/>
<path d="M290.324 167.721C293.154 167.347 295.955 167.5 296.572 167.76C296.86 167.881 297.135 167.846 297.268 167.117C297.954 163.334 296.84 162.443 296.692 160.624C296.605 159.545 296.067 158.862 295.496 158.043C294.774 157.007 295.24 156.046 295.317 155.487C295.418 154.744 296.142 154.45 296.196 154.359C296.457 153.923 294.883 157.491 293.618 161.174C292.859 163.385 292.882 164.873 292.761 166.867C292.422 172.451 292.938 173.748 292.812 174.901C292.717 175.772 292.312 176.524 292.049 176.848C290.96 178.19 289.641 177.781 288.411 178.287C286.938 178.894 285.839 179.044 284.021 179.205C283.115 179.285 281.625 179.253 280.992 179.258C280.358 179.263 280.624 179.261 281.053 179.17C283.004 178.758 284.797 178.174 286.358 177.778C287.823 177.405 289.197 176.846 290.162 176.66C291.615 176.381 292.892 176.112 293.755 175.956C294.735 175.779 296.005 175.322 296.782 175.11C297.439 174.931 298.094 174.777 298.738 174.537C299.381 174.296 300.127 173.94 300.959 173.638C301.646 173.388 302.269 172.981 304.428 171.5C305.702 170.625 306.542 169.894 307.238 169.357C307.849 168.887 308.627 168.583 309.325 168.428C309.984 168.283 311.248 168.09 312.247 167.907C313.135 167.744 314.095 167.599 314.953 167.357C315.776 167.125 316.398 166.699 317.041 166.43C317.726 166.143 318.324 165.686 319.099 165.238C319.43 165.048 319.77 164.968 319.878 164.879C319.924 164.841 319.561 164.851 319.399 164.94C318.836 165.246 318.439 166.031 317.48 166.98C316.706 167.747 316.255 168.521 315.988 169.109C315.533 170.115 314.391 170.592 313.534 171.04C312.697 171.478 311.823 171.906 310.938 172.06C309.927 172.236 309.039 172.633 307.807 173.288C306.971 173.732 306.039 173.831 304.646 173.991C303.62 174.108 302.767 174.269 301.724 174.776C301.048 175.105 300.04 175.404 299.02 175.738C297.823 176.13 296.716 176.315 296.018 176.525C295.287 176.745 294.466 176.978 292.914 177.196C291.2 177.437 289.701 177.604 288.35 177.38C286.904 177.141 285.986 176.81 284.938 176.787C284.041 176.768 283.196 177.065 278.729 177.188C277.112 177.233 274.576 177.72 272.975 177.878C272.786 177.897 272.574 177.912 272.412 178C271.681 178.4 271.242 179.622 271.113 180.829C271.064 181.276 271.305 181.624 271.494 182.003C271.968 182.954 272.976 183.313 273.598 183.694C273.735 183.777 273.683 184.129 273.632 184.367C273.425 185.319 272.409 185.79 271.741 186.265C270.797 186.934 270.598 188.154 269.931 188.719C269.416 189.155 268.998 189.753 268.411 190.142C267.743 190.585 267.074 191.003 266.327 191.451C265.463 191.97 264.884 192.431 264.082 192.997C263.193 193.625 262.373 194.157 261.515 194.311C260.384 194.514 259.158 194.888 258.299 194.983C257.359 195.088 256.531 195.497 255.355 195.652C252.685 196.005 252.021 195.299 251.214 194.951C250.27 194.545 249.49 193.791 248.09 192.948C247.131 192.372 246.684 191.635 246.01 191.111C245.094 190.401 244.311 189.597 243.874 188.923C243.379 188.159 242.578 187.494 241.984 186.938C241.387 186.379 241.277 185.563 240.895 184.773C240.403 183.752 240.666 182.573 240.526 181.688C240.414 180.977 240.166 179.931 239.999 178.9C239.864 178.066 239.398 177.171 238.936 176.292C238.34 175.155 238.307 174.298 238.033 173.593C237.966 173.421 237.924 173.242 237.899 173.647C237.737 176.288 238.058 177.58 238.225 178.701C238.261 178.941 238.335 179.169 238.389 179.201C239.404 179.805 238.316 175.709 238.171 174.271C238.084 173.408 237.707 172.598 237.511 171.833C237.316 171.071 236.992 170.134 236.825 169.369C236.651 168.574 236.119 167.964 235.922 166.736C235.394 163.428 236.026 161.975 236.179 160.879C236.309 159.948 236.468 155.65 236.745 152.996C236.828 152.197 237.46 151.55 237.885 150.841C238.295 150.157 238.573 149.425 238.865 148.687C239.223 147.78 239.74 147.123 240.245 146.559C241.121 145.581 242.349 144.221 242.883 143.541C243.541 142.703 244.269 142.326 244.911 141.819C245.506 141.35 246.192 140.84 246.86 140.364C247.646 139.805 248.437 139.412 249.078 138.79C249.648 138.237 250.467 138.102 251.299 137.86C251.998 137.656 252.609 137.203 253.387 137.108C254.081 137.023 254.699 136.658 255.342 136.418C255.986 136.177 256.626 135.821 257.269 135.492C257.957 135.139 258.55 134.572 259.193 134.213C259.977 133.775 260.635 133.261 261.411 132.873C262.061 132.548 262.722 132.363 263.392 132.152C264.196 131.898 265.08 131.932 265.912 131.78C266.58 131.657 268.926 131.55 270.449 131.978C271.068 132.151 271.58 132.704 271.961 133.23C272.056 133.361 272.229 133.405 272.312 133.522C272.451 134.225 272.778 135.161 273.293 135.894C273.377 136.157 273.379 136.564 273.382 136.984" stroke="white" stroke-width="13" stroke-linecap="round"/>
<path d="M236.763 173.574C242.508 173.734 254.434 171.225 256.172 159.906" stroke="black" stroke-width="2"/>
<path d="M274.774 175.919C276.391 178.506 295.606 170.237 301.769 166.06C307.739 145.844 296.121 143.808 292.898 147.791C290.353 164.119 278.831 166.533 274.94 169.983C271.657 172.892 274.255 175.414 274.774 175.919Z" fill="white"/>
<path d="M266.732 127.97C268.685 130.714 262.794 136.848 258.012 139.318C244.576 146.258 252.185 158.555 262.474 157.877C272.762 157.199 281.482 145.851 281.412 135.621C281.356 127.437 273.365 123.403 269.377 122.409C263.873 123.669 250.419 128.183 240.629 136.154C228.391 146.118 229.736 161.65 228.962 165.472C228.343 168.529 232.364 183.022 235.678 189.269C239.03 196.588 253.184 207.184 265.812 200.75C278.44 194.315 278.996 187.132 277.695 184.345M277.695 184.345C284.509 186.051 290.862 184.106 307.967 180.393C313.389 179.085 328.789 171.123 325.911 161.525C322.832 151.258 306.812 162.642 301.769 166.06M277.695 184.345C274.778 178.971 266.297 168.398 255.714 169.095C245.131 169.793 253.743 183.948 259.372 190.939M301.769 166.06C295.606 170.237 276.391 178.506 274.774 175.919C274.255 175.414 271.657 172.892 274.94 169.983C278.831 166.533 290.353 164.119 292.898 147.791C296.121 143.808 307.739 145.844 301.769 166.06Z" stroke="black" stroke-width="2"/>
<path d="M274.924 169.983C268.604 171.297 258.174 169.47 266.344 157.081" stroke="black" stroke-width="2"/>
<path d="M281.421 136.157C284.321 135.248 290.673 136.302 292.877 147.791" stroke="black" stroke-width="2"/>
</svg>
