<svg width="1440" height="1816" viewBox="0 0 1440 1816" fill="none" xmlns="http://www.w3.org/2000/svg">
<path d="M1067 1596C998.163 1622.4 305.872 1577.5 427 1397C488.563 1305.26 1424 1138.33 884.5 916.502C20 561.036 1424.5 38.0016 1743.5 130.502" stroke="#B8EBCD" stroke-width="30"/>
<path d="M-115.25 1199.5C250.286 1104.43 1310.99 1214.08 1327.41 694.37C1337.93 361.438 1100.79 234.905 974.32 241.763" stroke="#A0C4FF" stroke-width="30"/>
<path d="M973.13 224.602L973.146 224.762" stroke="white" stroke-width="45" stroke-linecap="round"/>
<path d="M986.281 234.38L985.952 234.41" stroke="white" stroke-width="45" stroke-linecap="round"/>
<path d="M953.637 239.519C950.699 239.464 947.84 239.885 947.232 240.182C946.948 240.321 946.662 240.316 946.457 239.67C945.394 236.313 946.452 235.394 946.431 233.732C946.418 232.746 946.905 232.072 947.412 231.274C948.055 230.262 947.485 229.439 947.354 228.941C947.18 228.278 946.409 228.084 946.345 228.008C946.036 227.639 947.989 230.712 949.636 233.921C950.625 235.846 950.743 237.196 951.056 238.99C951.934 244.013 951.527 245.24 951.766 246.272C951.947 247.051 952.433 247.691 952.734 247.958C953.978 249.064 955.293 248.56 956.602 248.895C958.171 249.297 959.312 249.322 961.192 249.285C962.129 249.266 963.654 249.087 964.304 249.028C964.955 248.969 964.682 248.994 964.234 248.955C962.193 248.777 960.298 248.429 958.66 248.227C957.122 248.037 955.659 247.669 954.652 247.598C953.135 247.491 951.799 247.376 950.899 247.322C949.877 247.26 948.532 246.974 947.714 246.86C947.024 246.763 946.337 246.691 945.654 246.538C944.971 246.385 944.172 246.137 943.29 245.947C942.562 245.79 941.884 245.484 939.529 244.36C938.139 243.696 937.208 243.118 936.443 242.702C935.771 242.337 934.945 242.14 934.214 242.071C933.525 242.005 932.209 241.958 931.168 241.892C930.241 241.834 929.243 241.799 928.339 241.667C927.473 241.539 926.795 241.216 926.11 241.037C925.38 240.846 924.723 240.493 923.885 240.165C923.528 240.026 923.172 239.988 923.052 239.918C923.002 239.888 923.375 239.861 923.55 239.925C924.156 240.145 924.638 240.817 925.711 241.58C926.579 242.197 927.114 242.852 927.444 243.358C928.007 244.223 929.223 244.54 930.145 244.86C931.045 245.172 931.982 245.472 932.905 245.522C933.959 245.58 934.907 245.85 936.233 246.319C937.132 246.637 938.098 246.633 939.542 246.637C940.605 246.641 941.495 246.7 942.613 247.055C943.337 247.284 944.4 247.454 945.478 247.654C946.743 247.889 947.896 247.945 948.632 248.065C949.403 248.19 950.267 248.319 951.88 248.36C953.661 248.406 955.214 248.406 956.578 248.068C958.039 247.706 958.949 247.314 960.022 247.187C960.941 247.08 961.835 247.263 966.429 246.925C968.092 246.803 970.739 246.989 972.396 246.972C972.593 246.97 972.811 246.962 972.985 247.025C973.774 247.314 974.339 248.377 974.587 249.456C974.679 249.857 974.465 250.196 974.307 250.559C973.911 251.467 972.911 251.894 972.309 252.301C972.177 252.39 972.264 252.704 972.339 252.914C972.642 253.756 973.728 254.08 974.459 254.443C975.49 254.954 975.81 256.039 976.548 256.483C977.118 256.827 977.603 257.326 978.243 257.62C978.97 257.953 979.695 258.264 980.505 258.595C981.44 258.978 982.078 259.337 982.953 259.769C983.926 260.249 984.817 260.648 985.712 260.701C986.891 260.771 988.184 260.986 989.075 260.986C990.048 260.987 990.937 261.274 992.158 261.296C994.93 261.347 995.544 260.64 996.339 260.244C997.268 259.782 997.997 259.02 999.352 258.116C1000.28 257.498 1000.67 256.786 1001.31 256.243C1002.18 255.508 1002.91 254.701 1003.29 254.047C1003.73 253.305 1004.49 252.622 1005.04 252.059C1005.6 251.493 1005.64 250.743 1005.96 249.988C1006.36 249.014 1005.98 247.973 1006.04 247.157C1006.09 246.502 1006.24 245.53 1006.32 244.579C1006.38 243.81 1006.77 242.953 1007.16 242.11C1007.66 241.02 1007.62 240.241 1007.83 239.575C1007.88 239.413 1007.91 239.246 1007.97 239.611C1008.39 241.986 1008.18 243.189 1008.12 244.22C1008.1 244.442 1008.05 244.656 1008 244.69C1007.01 245.339 1007.74 241.52 1007.75 240.203C1007.76 239.412 1008.07 238.641 1008.2 237.929C1008.33 237.219 1008.57 236.338 1008.67 235.628C1008.77 234.891 1009.26 234.285 1009.34 233.152C1009.57 230.104 1008.79 228.851 1008.53 227.874C1008.3 227.044 1007.73 223.167 1007.2 220.792C1007.03 220.076 1006.33 219.554 1005.82 218.954C1005.34 218.376 1004.98 217.742 1004.61 217.103C1004.16 216.317 1003.57 215.774 1002.99 215.314C1002 214.517 1000.61 213.408 1000 212.846C999.248 212.154 998.465 211.885 997.758 211.491C997.104 211.125 996.351 210.733 995.621 210.369C994.762 209.942 993.913 209.665 993.197 209.166C992.56 208.723 991.706 208.683 990.83 208.548C990.093 208.434 989.424 208.085 988.617 208.077C987.897 208.07 987.229 207.801 986.546 207.648C985.863 207.495 985.173 207.238 984.482 207.004C983.742 206.753 983.08 206.3 982.387 206.039C981.541 205.722 980.818 205.322 979.985 205.049C979.287 204.82 978.591 204.719 977.884 204.595C977.035 204.446 976.132 204.566 975.264 204.511C974.567 204.468 972.151 204.607 970.629 205.147C970.01 205.367 969.538 205.919 969.197 206.433C969.112 206.562 968.939 206.619 968.865 206.733C968.789 207.384 968.543 208.265 968.084 208.98C968.023 209.227 968.059 209.596 968.096 209.976" stroke="white" stroke-width="13" stroke-linecap="round"/>
<path d="M1009.13 239.43C1003.25 240.153 990.783 239.08 987.925 229.004" stroke="black" stroke-width="2"/>
<path d="M970.366 245.38C968.953 247.885 948.459 242.331 941.742 239.168C933.699 221.46 945.422 218.448 949.107 221.73C953.267 236.261 965.314 237.288 969.633 240.02C973.276 242.325 970.851 244.871 970.366 245.38Z" fill="white"/>
<path d="M974.065 201.145C972.321 203.827 978.946 208.789 984.085 210.544C998.526 215.477 991.889 227.38 981.271 227.802C970.653 228.223 960.632 218.824 959.733 209.552C959.014 202.134 966.827 197.676 970.824 196.375C976.589 196.962 990.818 199.696 1001.62 205.929C1015.11 213.721 1015.21 227.924 1016.37 231.307C1017.29 234.014 1014.54 247.544 1011.74 253.535C1008.99 260.501 995.479 271.522 981.916 266.966C968.352 262.41 967.1 255.96 968.17 253.305M968.17 253.305C961.342 255.536 954.641 254.414 936.744 252.774C931.059 252.134 914.506 246.474 916.548 237.492C918.731 227.883 936.244 236.58 941.742 239.168M968.17 253.305C970.652 248.145 978.348 237.715 989.269 237.281C1000.19 236.848 992.7 250.535 987.59 257.433M941.742 239.168C948.459 242.331 968.953 247.885 970.366 245.38C970.851 244.871 973.276 242.325 969.633 240.02C965.314 237.288 953.267 236.261 949.107 221.73C945.422 218.448 933.699 221.46 941.742 239.168Z" stroke="black" stroke-width="2"/>
<path d="M969.647 240.017C976.255 240.572 986.78 237.867 977.224 227.469" stroke="black" stroke-width="2"/>
<path d="M959.772 210.036C956.71 209.505 950.295 211.098 949.125 221.726" stroke="black" stroke-width="2"/>
<path d="M1458.98 1514C1382.45 1454.12 1198.46 611.421 830.902 778.483C695.435 840.056 162.956 851.931 156.684 572.721C150.412 293.51 348.582 135.826 -148 94.0001" stroke="#F7A6A6" stroke-width="27"/>
<path d="M624 -73C-95.5911 125.227 -324.894 868.809 425.417 1038" stroke="#FFF5BA" stroke-width="27"/>
<path d="M446.43 1056.84L446.431 1056.66" stroke="white" stroke-width="45" stroke-linecap="round"/>
<path d="M434.509 1044.59L434.837 1044.59" stroke="white" stroke-width="45" stroke-linecap="round"/>
<path d="M467.129 1042.45C470.012 1042.83 472.866 1042.67 473.495 1042.41C473.788 1042.29 474.068 1042.32 474.203 1043.06C474.902 1046.89 473.768 1047.79 473.617 1049.64C473.528 1050.73 472.98 1051.42 472.399 1052.25C471.663 1053.3 472.138 1054.27 472.216 1054.84C472.319 1055.59 473.056 1055.89 473.111 1055.98C473.377 1056.42 471.774 1052.81 470.485 1049.08C469.712 1046.84 469.735 1045.33 469.612 1043.31C469.267 1037.66 469.793 1036.34 469.664 1035.18C469.567 1034.29 469.155 1033.53 468.887 1033.2C467.778 1031.85 466.434 1032.26 465.181 1031.75C463.681 1031.13 462.561 1030.98 460.709 1030.82C459.786 1030.74 458.269 1030.77 457.623 1030.76C456.978 1030.76 457.248 1030.76 457.685 1030.85C459.673 1031.27 461.499 1031.86 463.089 1032.26C464.582 1032.64 465.982 1033.21 466.965 1033.39C468.445 1033.68 469.746 1033.95 470.625 1034.11C471.623 1034.29 472.916 1034.75 473.708 1034.96C474.377 1035.15 475.045 1035.3 475.701 1035.55C476.356 1035.79 477.116 1036.15 477.963 1036.46C478.663 1036.71 479.298 1037.12 481.497 1038.62C482.795 1039.51 483.651 1040.25 484.36 1040.79C484.982 1041.27 485.775 1041.58 486.486 1041.73C487.157 1041.88 488.445 1042.07 489.462 1042.26C490.367 1042.42 491.345 1042.57 492.219 1042.82C493.058 1043.05 493.691 1043.48 494.346 1043.76C495.044 1044.05 495.653 1044.51 496.443 1044.96C496.78 1045.16 497.126 1045.24 497.236 1045.33C497.283 1045.36 496.914 1045.35 496.748 1045.26C496.175 1044.95 495.77 1044.16 494.793 1043.2C494.004 1042.42 493.545 1041.64 493.274 1041.04C492.81 1040.02 491.646 1039.54 490.773 1039.09C489.921 1038.64 489.031 1038.21 488.129 1038.05C487.099 1037.88 486.195 1037.47 484.939 1036.81C484.088 1036.36 483.138 1036.26 481.719 1036.1C480.674 1035.98 479.805 1035.82 478.743 1035.3C478.055 1034.97 477.027 1034.67 475.988 1034.33C474.769 1033.93 473.641 1033.74 472.93 1033.53C472.185 1033.31 471.349 1033.07 469.768 1032.85C468.022 1032.61 466.495 1032.44 465.119 1032.67C463.646 1032.91 462.711 1033.24 461.643 1033.27C460.729 1033.29 459.868 1032.99 455.318 1032.86C453.671 1032.82 451.088 1032.32 449.457 1032.16C449.264 1032.14 449.048 1032.13 448.883 1032.04C448.138 1031.63 447.692 1030.4 447.559 1029.17C447.51 1028.72 447.756 1028.37 447.948 1027.98C448.431 1027.02 449.458 1026.66 450.092 1026.27C450.23 1026.19 450.178 1025.83 450.125 1025.59C449.915 1024.63 448.88 1024.15 448.199 1023.67C447.238 1022.99 447.035 1021.76 446.356 1021.18C445.831 1020.74 445.406 1020.13 444.807 1019.74C444.126 1019.29 443.445 1018.87 442.684 1018.42C441.804 1017.89 441.214 1017.42 440.398 1016.85C439.492 1016.21 438.657 1015.67 437.782 1015.52C436.63 1015.31 435.381 1014.94 434.506 1014.84C433.549 1014.73 432.705 1014.32 431.507 1014.16C428.788 1013.8 428.111 1014.52 427.289 1014.87C426.328 1015.28 425.533 1016.05 424.107 1016.9C423.13 1017.48 422.675 1018.23 421.987 1018.76C421.055 1019.48 420.257 1020.29 419.812 1020.98C419.308 1021.75 418.491 1022.42 417.887 1022.99C417.278 1023.55 417.167 1024.38 416.778 1025.18C416.276 1026.21 416.543 1027.41 416.402 1028.3C416.288 1029.02 416.034 1030.08 415.864 1031.13C415.727 1031.97 415.252 1032.88 414.782 1033.77C414.174 1034.92 414.141 1035.79 413.861 1036.5C413.793 1036.67 413.75 1036.86 413.725 1036.45C413.56 1033.77 413.887 1032.46 414.057 1031.33C414.094 1031.08 414.169 1030.85 414.224 1030.82C415.259 1030.21 414.15 1034.36 414.002 1035.81C413.913 1036.69 413.529 1037.51 413.33 1038.28C413.131 1039.06 412.801 1040 412.631 1040.78C412.454 1041.58 411.911 1042.2 411.712 1043.45C411.174 1046.8 411.817 1048.27 411.973 1049.38C412.105 1050.32 412.268 1054.67 412.55 1057.36C412.635 1058.17 413.277 1058.82 413.711 1059.54C414.128 1060.24 414.412 1060.98 414.709 1061.72C415.074 1062.64 415.601 1063.31 416.115 1063.88C417.008 1064.87 418.259 1066.25 418.802 1066.94C419.472 1067.78 420.215 1068.17 420.868 1068.68C421.474 1069.16 422.173 1069.67 422.854 1070.15C423.654 1070.72 424.46 1071.12 425.113 1071.75C425.693 1072.31 426.528 1072.44 427.375 1072.69C428.088 1072.9 428.71 1073.35 429.503 1073.45C430.209 1073.54 430.839 1073.91 431.494 1074.15C432.15 1074.39 432.802 1074.75 433.457 1075.09C434.158 1075.44 434.762 1076.02 435.417 1076.38C436.216 1076.83 436.886 1077.35 437.676 1077.74C438.339 1078.07 439.012 1078.26 439.695 1078.47C440.513 1078.73 441.414 1078.69 442.262 1078.85C442.942 1078.97 445.332 1079.08 446.884 1078.65C447.514 1078.47 448.036 1077.91 448.424 1077.38C448.52 1077.25 448.696 1077.2 448.781 1077.08C448.923 1076.37 449.256 1075.42 449.78 1074.68C449.866 1074.41 449.868 1074 449.871 1073.58" stroke="white" stroke-width="13" stroke-linecap="round"/>
<path d="M412.567 1036.52C418.42 1036.36 430.569 1038.9 432.34 1050.36" stroke="black" stroke-width="2"/>
<path d="M451.289 1034.15C452.936 1031.53 472.51 1039.9 478.788 1044.13C484.87 1064.6 473.035 1066.67 469.752 1062.63C467.159 1046.1 455.422 1043.65 451.458 1040.16C448.114 1037.21 450.76 1034.66 451.289 1034.15Z" fill="white"/>
<path d="M443.097 1082.71C445.087 1079.93 439.085 1073.71 434.214 1071.21C420.527 1064.18 428.278 1051.73 438.759 1052.42C449.24 1053.1 458.122 1064.6 458.051 1074.96C457.994 1083.25 449.854 1087.33 445.791 1088.34C440.184 1087.06 426.478 1082.49 416.506 1074.42C404.039 1064.33 405.409 1048.6 404.621 1044.73C403.991 1041.63 408.087 1026.95 411.462 1020.63C414.878 1013.21 429.295 1002.48 442.159 1009C455.023 1015.51 455.59 1022.79 454.265 1025.61M454.265 1025.61C461.206 1023.88 467.678 1025.85 485.102 1029.61C490.625 1030.94 506.314 1039 503.382 1048.72C500.245 1059.12 483.926 1047.59 478.788 1044.13M454.265 1025.61C451.293 1031.05 442.653 1041.76 431.873 1041.06C421.092 1040.35 429.865 1026.01 435.599 1018.93M478.788 1044.13C472.51 1039.9 452.936 1031.53 451.289 1034.15C450.76 1034.66 448.114 1037.21 451.458 1040.16C455.422 1043.65 467.159 1046.1 469.752 1062.63C473.035 1066.67 484.87 1064.6 478.788 1044.13Z" stroke="black" stroke-width="2"/>
<path d="M451.442 1040.16C445.004 1038.83 434.379 1040.68 442.701 1053.22" stroke="black" stroke-width="2"/>
<path d="M458.06 1074.41C461.015 1075.33 467.485 1074.27 469.731 1062.63" stroke="black" stroke-width="2"/>
</svg>
