<svg width="393" height="2652" viewBox="0 0 393 2652" fill="none" xmlns="http://www.w3.org/2000/svg">
<path d="M164.111 -23.8157C199.495 -30.0852 392.999 132.864 392.999 451.5C392.999 610.938 270.259 758.336 204.204 828.076C3.47066 1040.01 360.14 1514.64 327.925 1614.56C305.288 1678.66 249.343 1670.4 246.999 1816.5C245.17 1930.41 100.001 1884 20.5015 2088.5C-15.5018 2265 420.5 2407.5 430.5 2487" stroke="#FFF5BA" stroke-width="30"/>
<path d="M246.5 -39.0002C116 -18.0002 -110.836 190.245 27.5 592.5C98 797.5 488.43 1085.66 496.767 1108.55C514.69 1174.71 591.031 1885.64 433.369 1575.67C275.707 1265.7 11.1912 1346.33 -7.73285 1506C-35.9455 1744.05 360.873 1585.32 415.71 1792.34C488.322 2066.47 247.596 1945.05 235.112 2108.25L330 2167.5C365 2269.5 -47.5 2364.5 -47.5 2484.5" stroke="#A0C4FF" stroke-width="27"/>
<path d="M-182 847.5C-121.733 897.108 388.94 1064.85 398.5 1310C410.45 1616.44 -192.451 1686.71 -100.5 1929.5C-43.8948 2078.96 -42.3476 2323.59 41 2385C126.5 2448 198.114 2346.92 288 2479C337 2551 378.937 2636.5 357.5 2636.5" stroke="#B8EBCD" stroke-width="30"/>
</svg>
