<?xml version="1.0" encoding="UTF-8"?>
<svg id="Calque_1" data-name="Calque 1" xmlns="http://www.w3.org/2000/svg" viewBox="0 0 154.63 134.54">
  <defs>
    <style>
      .cls-1 {
        fill: #ff6969;
      }
    </style>
  </defs>
  <path class="cls-1" d="M20.11,47.97c1.11,0,1.67-.64,1.67-1.91v-1.21c0-1.27-.56-1.91-1.67-1.91h-3.17c-1,.02-1.99-.19-2.91-.61-.92-.43-1.76-1.07-2.46-1.88l-1.61-1.81c-1.32-1.49-1.98-3.37-1.98-5.64v-4.69c0-2.49.62-4.42,1.86-5.78,1.24-1.36,2.96-2.04,5.14-2.04h13.47c1.11,0,1.67.64,1.67,1.91v5.98c0,1.27-.56,1.91-1.67,1.91h-8.5c-1.11,0-1.67.64-1.67,1.91v.71c0,1.27.56,1.91,1.67,1.91h2.66c1.98,0,3.57.53,4.78,1.6l.99.87c1.28,1.13,1.92,2.89,1.92,5.27v7.63c0,2.35-.78,4.2-2.33,5.53-1.57,1.34-3.5,2.05-5.46,2h-13.68c-.56,0-.84-.32-.84-.97v-7.82c0-.65.28-.97.84-.97h11.29Z"/>
  <path class="cls-1" d="M43.57,55.91c-.06,1.2-.6,1.81-1.61,1.81h-4.36c-1.06,0-1.59-.62-1.61-1.86l-.38-38.51c-.02-.72-.32-1.08-.92-1.08h-5.79c-1.2,0-1.81-.71-1.81-2.12V3.31c0-1.38.59-2.11,1.76-2.18l22.79-1.14h.09c.58,0,.87.36.87,1.08v14.21c0,.72-.3,1.08-.89,1.08h-.02l-6.13-.05h-.02c-.56,0-.86.34-.89,1.02l-1.08,38.57Z"/>
  <path class="cls-1" d="M58.67,42.78c0,1.12.49,1.79,1.48,2.01l3.11.71c.2.05.41.07.61.08.88,0,1.33-.56,1.36-1.67l.89-29.85c.01-.68.33-1.02.94-1.02h6.13c.61,0,.92.34.94,1.02l.79,34.26v.29c0,2.63-.86,4.74-2.59,6.32l-.34.31c-1.79,1.65-4.02,2.53-6.32,2.48h-9.8c-1.09.03-2.17-.23-3.16-.77-.99-.54-1.85-1.33-2.52-2.31l-.2-.29c-1.4-1.88-2.16-4.27-2.16-6.74v-.31l.75-23.02c.03-1.36.64-2.04,1.84-2.04h6.41c1.23,0,1.84.71,1.84,2.12v18.43Z"/>
  <path class="cls-1" d="M93.12,44.06v-23.6c0-1.21-.52-2-1.57-2.38l-2.98-1.09c-.1-.04-.21-.05-.31-.05-.58,0-.87.35-.87,1.07v.05l.36,27.72c.01.73.28,1.09.81,1.09.1,0,.19,0,.29-.03l2.82-.59c.97-.22,1.46-.95,1.46-2.18ZM103.62,45.17c.02,1.27-.19,2.54-.62,3.72-.42,1.18-1.05,2.24-1.85,3.12l-2.49,2.85c-.77.91-1.69,1.64-2.7,2.13-1.02.49-2.11.74-3.21.72h-12.61c-1.36,0-2.04-.79-2.04-2.36V8.88c0-1.35.6-2.07,1.79-2.18l12.99-1.09c.21-.02.43-.03.65-.03.99-.02,1.97.2,2.89.65.91.45,1.74,1.11,2.41,1.94l2.26,2.67c1.67,1.97,2.51,4.24,2.51,6.81v27.51Z"/>
  <path class="cls-1" d="M106.81,16.3v-.05c0-1.42.59-1.96,1.82-2.13l7.55-1.08c1.2,0,1.79.67,1.79,2v.18l-1.48,40.43c-.06,1.38-.68,2.08-1.85,2.08h-5.61c-1.2,0-1.8-.71-1.82-2.13l-.4-39.29Z"/>
  <path class="cls-1" d="M138.54,45v-16.69c0-1.38-.56-2.13-1.67-2.25l-3.96-.48c-.09-.02-.18-.03-.27-.03-1.02,0-1.57.69-1.62,2.07l-.62,17.09v.3c0,1.61.63,2.41,1.89,2.41.1,0,.21,0,.31-.02l4.43-.48c1.01-.09,1.51-.73,1.52-1.91ZM148.25,44.49c-.01,2.72-.64,5.38-1.8,7.7l-.96,1.96c-1.16,2.38-2.9,3.57-5.23,3.57h-10.5c-2.14,0-4.06-1.03-5.77-3.08l-.23-.28c-1.53-1.84-2.31-4.27-2.34-7.3l-.27-22.69v-.14c0-2.58.88-4.78,2.65-6.6l.16-.16c1.66-1.72,3.71-2.58,6.15-2.58h8.58c1.1-.03,2.19.22,3.21.73,1.02.51,1.93,1.26,2.7,2.22l1.2,1.48c.79.92,1.41,2.03,1.83,3.25.42,1.22.63,2.53.62,3.86v18.06Z"/>
  <path class="cls-1" d="M18.08,106.94h.2c.6,0,.91-.47.93-1.41l.06-5.38-1.59-.47c-.58-.18-.86-.67-.84-1.45l.23-12.18c.02-.85.34-1.27.96-1.27h10.59c1.13,0,1.69.77,1.69,2.32v13.32c0,3.54-.85,8.75-2.54,11.44l-2.3,3.66c-1.74,2.75-3.9,4.13-6.47,4.13h-9.6c-2.63,0-4.84-1.24-6.61-3.71l-.3-.42c-1.8-2.51-2.62-5.53-2.44-9.04l1.35-29.76c.11-3.1,1.07-6.07,2.73-8.45l.64-.92c1.67-2.38,3.67-3.56,6.02-3.56h17.9c1.08,0,1.62.71,1.62,2.14v10.63c0,1.49-.56,2.23-1.67,2.23h-12.65c-2.52,0-3.83,1.7-3.94,5.14l-.52,19.3c-.05,1.75.55,2.74,1.8,2.94l4.78.77Z"/>
  <path class="cls-1" d="M43.75,63.78c.76,0,1.16.45,1.2,1.35l1.62,49.82h10.04c1.59,0,2.38.94,2.38,2.82v13.95c0,1.88-.79,2.82-2.38,2.82h-19.21c-1.55,0-2.32-.89-2.32-2.68v-.21l1.8-66.5c.02-.9.42-1.35,1.2-1.35l5.68-.02Z"/>
  <path class="cls-1" d="M71.13,94.78v-16.32c0-1.63-.67-2.52-2.02-2.67l-5.54-.57c-.11-.02-.21-.03-.32-.03-1.24,0-1.9.81-1.97,2.44l-.75,16.79v.35c0,1.9.76,2.86,2.29,2.86.13,0,.25-.01.38-.03l6.1-.57c1.23-.11,1.85-.86,1.85-2.25M82.89,96.54c-.01,3.21-.77,6.36-2.18,9.11l-1.15,2.32c-1.4,2.81-3.52,4.22-6.34,4.22h-14.99c-2.59,0-4.92-1.22-6.99-3.65l-.27-.32c-1.85-2.17-2.79-5.05-2.83-8.64l-.32-24.6v-.14c0-3.05,1.07-5.65,3.21-7.81l.19-.19c2.01-2.03,4.5-3.05,7.44-3.05h12.65c1.33-.03,2.66.26,3.89.86s2.34,1.5,3.26,2.63l1.46,1.75c1.98,2.37,2.97,5.18,2.97,8.42v19.09Z"/>
  <path class="cls-1" d="M108.44,80.5v-4.25c0-1.39-.62-2.09-1.87-2.09h-6.8c-.57,0-.88.33-.92.97l-.49,8.59c-.02.14-.03.28-.03.42,0,1.14.43,1.71,1.29,1.7.24,0,.48-.04.71-.1l5.2-1.32c1.94-.49,2.91-1.8,2.91-3.93M107.93,99.49c.02-.17.03-.35.03-.52,0-2.04-.98-3.06-2.94-3.06h-6.8c-.61,0-.92.36-.92,1.08v9.05c0,.63.31.97.92,1.04l5.45.55c.24.02.44.03.64.03,2,0,3.08-1.08,3.24-3.24l.38-4.94ZM122.75,105.5c0,3.53-1.09,6.62-3.27,9.29l-2.32,2.85c-2.1,2.57-4.68,3.86-7.74,3.86h-.27l-20.26-.52c-1.86-.04-2.79-1.11-2.79-3.2v-50.52c0-2.32,1.03-3.48,3.09-3.48l18.33.07c3.43,0,8.12.69,10.41,2.05,2.9,1.74,4.35,4.37,4.35,7.9v5.25c0,3.57-1.12,8.72-3.37,11.27l-1.47,1.67,1.9,2.05c1.1,1.16,1.98,2.57,2.57,4.14.59,1.57.88,3.27.86,4.97v2.33Z"/>
  <path class="cls-1" d="M135.11,77.13v22.3c0,1.67.71,2.58,2.12,2.73l3.44.58c.11.02.23.03.34.03,1.3,0,1.99-.83,2.06-2.5l.79-22.79v-.36c0-1.95-.8-2.93-2.4-2.93-.13,0-.26.01-.4.03l-4.03.59c-1.28.11-1.92.88-1.92,2.31M124.34,79.83c.01-3.29.8-6.52,2.29-9.34l1.22-2.38c1.47-2.88,3.68-4.33,6.64-4.33h9.23c2.71,0,5.15,1.25,7.32,3.74l.28.32c1.94,2.23,2.93,5.18,2.97,8.85l.34,29.58v.16c0,3.12-1.12,5.79-3.36,8l-.2.2c-2.11,2.08-4.71,3.12-7.81,3.12h-6.79c-2.96,0-5.46-1.19-7.49-3.58l-1.53-1.79c-2.07-2.43-3.11-5.3-3.11-8.62v-23.96Z"/>
</svg>