<svg width="737" height="2705" viewBox="0 0 737 2705" fill="none" xmlns="http://www.w3.org/2000/svg">
<path d="M356.111 29.1843C391.494 22.9148 584.999 185.864 584.999 504.5C584.999 663.938 462.259 811.336 396.203 881.076C195.47 1093.01 552.139 1567.64 519.925 1667.56C497.287 1731.66 441.343 1723.4 438.998 1869.5C437.17 1983.41 292 1937 212.501 2141.5C176.498 2318 612.5 2460.5 622.5 2540" stroke="#FFF5BA" stroke-width="30"/>
<path d="M438.5 13.9998C308 34.9998 81.1637 243.245 219.5 645.5C290 850.5 680.43 1138.66 688.767 1161.55C706.69 1227.71 783.031 1938.64 625.369 1628.67C467.707 1318.7 203.191 1399.33 184.267 1559C156.054 1797.05 552.873 1638.32 607.71 1845.34C680.322 2119.47 439.596 1998.05 427.112 2161.25L522 2220.5C557 2322.5 144.5 2417.5 144.5 2537.5" stroke="#F7A6A6" stroke-width="27"/>
<path d="M10 900.5C70.2667 950.108 580.94 1117.85 590.5 1363C602.45 1669.44 -0.450867 1739.71 91.5 1982.5C148.105 2131.96 149.652 2376.59 233 2438C318.5 2501 390.114 2399.92 480 2532C529 2604 570.937 2689.5 549.5 2689.5" stroke="#F7A6A6" stroke-width="30"/>
</svg>
