<svg width="462" height="349" viewBox="0 0 462 349" fill="none" xmlns="http://www.w3.org/2000/svg">
<g clip-path="url(#clip0_317_5683)">
<path d="M16.0001 122.046C16 98.4421 34.6249 79.0431 58.2092 78.0824L432.703 62.8268C443.686 62.3794 452.757 71.3181 452.47 82.3071L445.973 331.076C445.714 340.986 437.49 348.822 427.579 348.601L40.4447 339.991C26.8576 339.689 16.0006 328.588 16.0006 314.998L16.0001 122.046Z" fill="#A7D8FF"/>
<path d="M84.4797 138.92V167H77.6397V155.44H66.9997V167H60.1597V138.92H66.9997V149.92H77.6397V138.92H84.4797ZM99.5775 167.32C97.3908 167.32 95.4175 166.853 93.6575 165.92C91.9242 164.987 90.5508 163.653 89.5375 161.92C88.5508 160.187 88.0575 158.16 88.0575 155.84C88.0575 153.547 88.5642 151.533 89.5775 149.8C90.5908 148.04 91.9775 146.693 93.7375 145.76C95.4975 144.827 97.4708 144.36 99.6575 144.36C101.844 144.36 103.818 144.827 105.578 145.76C107.338 146.693 108.724 148.04 109.738 149.8C110.751 151.533 111.258 153.547 111.258 155.84C111.258 158.133 110.738 160.16 109.698 161.92C108.684 163.653 107.284 164.987 105.498 165.92C103.738 166.853 101.764 167.32 99.5775 167.32ZM99.5775 161.4C100.884 161.4 101.991 160.92 102.898 159.96C103.831 159 104.298 157.627 104.298 155.84C104.298 154.053 103.844 152.68 102.938 151.72C102.058 150.76 100.964 150.28 99.6575 150.28C98.3242 150.28 97.2175 150.76 96.3375 151.72C95.4575 152.653 95.0175 154.027 95.0175 155.84C95.0175 157.627 95.4442 159 96.2975 159.96C97.1775 160.92 98.2708 161.4 99.5775 161.4ZM135.926 155.48C135.926 156.12 135.886 156.787 135.806 157.48H120.326C120.433 158.867 120.873 159.933 121.646 160.68C122.446 161.4 123.42 161.76 124.566 161.76C126.273 161.76 127.46 161.04 128.126 159.6H135.406C135.033 161.067 134.353 162.387 133.366 163.56C132.406 164.733 131.193 165.653 129.726 166.32C128.26 166.987 126.62 167.32 124.806 167.32C122.62 167.32 120.673 166.853 118.966 165.92C117.26 164.987 115.926 163.653 114.966 161.92C114.006 160.187 113.526 158.16 113.526 155.84C113.526 153.52 113.993 151.493 114.926 149.76C115.886 148.027 117.22 146.693 118.926 145.76C120.633 144.827 122.593 144.36 124.806 144.36C126.966 144.36 128.886 144.813 130.566 145.72C132.246 146.627 133.553 147.92 134.486 149.6C135.446 151.28 135.926 153.24 135.926 155.48ZM128.926 153.68C128.926 152.507 128.526 151.573 127.726 150.88C126.926 150.187 125.926 149.84 124.726 149.84C123.58 149.84 122.606 150.173 121.806 150.84C121.033 151.507 120.553 152.453 120.366 153.68H128.926ZM146.651 155.8C146.651 153.507 147.078 151.493 147.931 149.76C148.811 148.027 149.998 146.693 151.491 145.76C152.985 144.827 154.651 144.36 156.491 144.36C157.958 144.36 159.291 144.667 160.491 145.28C161.718 145.893 162.678 146.72 163.371 147.76V137.4H170.211V167H163.371V163.8C162.731 164.867 161.811 165.72 160.611 166.36C159.438 167 158.065 167.32 156.491 167.32C154.651 167.32 152.985 166.853 151.491 165.92C149.998 164.96 148.811 163.613 147.931 161.88C147.078 160.12 146.651 158.093 146.651 155.8ZM163.371 155.84C163.371 154.133 162.891 152.787 161.931 151.8C160.998 150.813 159.851 150.32 158.491 150.32C157.131 150.32 155.971 150.813 155.011 151.8C154.078 152.76 153.611 154.093 153.611 155.8C153.611 157.507 154.078 158.867 155.011 159.88C155.971 160.867 157.131 161.36 158.491 161.36C159.851 161.36 160.998 160.867 161.931 159.88C162.891 158.893 163.371 157.547 163.371 155.84ZM185.32 167.32C183.133 167.32 181.16 166.853 179.4 165.92C177.666 164.987 176.293 163.653 175.28 161.92C174.293 160.187 173.8 158.16 173.8 155.84C173.8 153.547 174.306 151.533 175.32 149.8C176.333 148.04 177.72 146.693 179.48 145.76C181.24 144.827 183.213 144.36 185.4 144.36C187.586 144.36 189.56 144.827 191.32 145.76C193.08 146.693 194.466 148.04 195.48 149.8C196.493 151.533 197 153.547 197 155.84C197 158.133 196.48 160.16 195.44 161.92C194.426 163.653 193.026 164.987 191.24 165.92C189.48 166.853 187.506 167.32 185.32 167.32ZM185.32 161.4C186.626 161.4 187.733 160.92 188.64 159.96C189.573 159 190.04 157.627 190.04 155.84C190.04 154.053 189.586 152.68 188.68 151.72C187.8 150.76 186.706 150.28 185.4 150.28C184.066 150.28 182.96 150.76 182.08 151.72C181.2 152.653 180.76 154.027 180.76 155.84C180.76 157.627 181.186 159 182.04 159.96C182.92 160.92 184.013 161.4 185.32 161.4ZM221.668 155.48C221.668 156.12 221.628 156.787 221.548 157.48H206.068C206.175 158.867 206.615 159.933 207.388 160.68C208.188 161.4 209.162 161.76 210.308 161.76C212.015 161.76 213.202 161.04 213.868 159.6H221.148C220.775 161.067 220.095 162.387 219.108 163.56C218.148 164.733 216.935 165.653 215.468 166.32C214.002 166.987 212.362 167.32 210.548 167.32C208.362 167.32 206.415 166.853 204.708 165.92C203.002 164.987 201.668 163.653 200.708 161.92C199.748 160.187 199.268 158.16 199.268 155.84C199.268 153.52 199.735 151.493 200.668 149.76C201.628 148.027 202.962 146.693 204.668 145.76C206.375 144.827 208.335 144.36 210.548 144.36C212.708 144.36 214.628 144.813 216.308 145.72C217.988 146.627 219.295 147.92 220.228 149.6C221.188 151.28 221.668 153.24 221.668 155.48ZM214.668 153.68C214.668 152.507 214.268 151.573 213.468 150.88C212.668 150.187 211.668 149.84 210.468 149.84C209.322 149.84 208.348 150.173 207.548 150.84C206.775 151.507 206.295 152.453 206.108 153.68H214.668ZM237.153 142.36C235.953 142.36 234.967 142.013 234.193 141.32C233.447 140.6 233.073 139.72 233.073 138.68C233.073 137.613 233.447 136.733 234.193 136.04C234.967 135.32 235.953 134.96 237.153 134.96C238.327 134.96 239.287 135.32 240.033 136.04C240.807 136.733 241.193 137.613 241.193 138.68C241.193 139.72 240.807 140.6 240.033 141.32C239.287 142.013 238.327 142.36 237.153 142.36ZM240.593 169.88C240.593 172.627 239.9 174.6 238.513 175.8C237.127 177.027 235.193 177.64 232.713 177.64H230.033V171.84H231.673C232.42 171.84 232.953 171.693 233.273 171.4C233.593 171.107 233.753 170.627 233.753 169.96V144.68H240.593V169.88ZM266.551 155.48C266.551 156.12 266.511 156.787 266.431 157.48H250.951C251.058 158.867 251.498 159.933 252.271 160.68C253.071 161.4 254.045 161.76 255.191 161.76C256.898 161.76 258.085 161.04 258.751 159.6H266.031C265.658 161.067 264.978 162.387 263.991 163.56C263.031 164.733 261.818 165.653 260.351 166.32C258.885 166.987 257.245 167.32 255.431 167.32C253.245 167.32 251.298 166.853 249.591 165.92C247.885 164.987 246.551 163.653 245.591 161.92C244.631 160.187 244.151 158.16 244.151 155.84C244.151 153.52 244.618 151.493 245.551 149.76C246.511 148.027 247.845 146.693 249.551 145.76C251.258 144.827 253.218 144.36 255.431 144.36C257.591 144.36 259.511 144.813 261.191 145.72C262.871 146.627 264.178 147.92 265.111 149.6C266.071 151.28 266.551 153.24 266.551 155.48ZM259.551 153.68C259.551 152.507 259.151 151.573 258.351 150.88C257.551 150.187 256.551 149.84 255.351 149.84C254.205 149.84 253.231 150.173 252.431 150.84C251.658 151.507 251.178 152.453 250.991 153.68H259.551ZM307.116 144.44C309.89 144.44 312.09 145.28 313.716 146.96C315.37 148.64 316.196 150.973 316.196 153.96V167H309.396V154.88C309.396 153.44 309.01 152.333 308.236 151.56C307.49 150.76 306.45 150.36 305.116 150.36C303.783 150.36 302.73 150.76 301.956 151.56C301.21 152.333 300.836 153.44 300.836 154.88V167H294.036V154.88C294.036 153.44 293.65 152.333 292.876 151.56C292.13 150.76 291.09 150.36 289.756 150.36C288.423 150.36 287.37 150.76 286.596 151.56C285.85 152.333 285.476 153.44 285.476 154.88V167H278.636V144.68H285.476V147.48C286.17 146.547 287.076 145.813 288.196 145.28C289.316 144.72 290.583 144.44 291.996 144.44C293.676 144.44 295.17 144.8 296.476 145.52C297.81 146.24 298.85 147.267 299.596 148.6C300.37 147.373 301.423 146.373 302.756 145.6C304.09 144.827 305.543 144.44 307.116 144.44ZM342.02 155.48C342.02 156.12 341.98 156.787 341.9 157.48H326.42C326.527 158.867 326.967 159.933 327.74 160.68C328.54 161.4 329.513 161.76 330.66 161.76C332.367 161.76 333.553 161.04 334.22 159.6H341.5C341.127 161.067 340.447 162.387 339.46 163.56C338.5 164.733 337.287 165.653 335.82 166.32C334.353 166.987 332.713 167.32 330.9 167.32C328.713 167.32 326.767 166.853 325.06 165.92C323.353 164.987 322.02 163.653 321.06 161.92C320.1 160.187 319.62 158.16 319.62 155.84C319.62 153.52 320.087 151.493 321.02 149.76C321.98 148.027 323.313 146.693 325.02 145.76C326.727 144.827 328.687 144.36 330.9 144.36C333.06 144.36 334.98 144.813 336.66 145.72C338.34 146.627 339.647 147.92 340.58 149.6C341.54 151.28 342.02 153.24 342.02 155.48ZM335.02 153.68C335.02 152.507 334.62 151.573 333.82 150.88C333.02 150.187 332.02 149.84 330.82 149.84C329.673 149.84 328.7 150.173 327.9 150.84C327.127 151.507 326.647 152.453 326.46 153.68H335.02ZM366.668 155.48C366.668 156.12 366.628 156.787 366.548 157.48H351.068C351.175 158.867 351.615 159.933 352.388 160.68C353.188 161.4 354.162 161.76 355.308 161.76C357.015 161.76 358.202 161.04 358.868 159.6H366.148C365.775 161.067 365.095 162.387 364.108 163.56C363.148 164.733 361.935 165.653 360.468 166.32C359.002 166.987 357.362 167.32 355.548 167.32C353.362 167.32 351.415 166.853 349.708 165.92C348.002 164.987 346.668 163.653 345.708 161.92C344.748 160.187 344.268 158.16 344.268 155.84C344.268 153.52 344.735 151.493 345.668 149.76C346.628 148.027 347.962 146.693 349.668 145.76C351.375 144.827 353.335 144.36 355.548 144.36C357.708 144.36 359.628 144.813 361.308 145.72C362.988 146.627 364.295 147.92 365.228 149.6C366.188 151.28 366.668 153.24 366.668 155.48ZM359.668 153.68C359.668 152.507 359.268 151.573 358.468 150.88C357.668 150.187 356.668 149.84 355.468 149.84C354.322 149.84 353.348 150.173 352.548 150.84C351.775 151.507 351.295 152.453 351.108 153.68H359.668ZM378.477 137.36C381.33 137.36 383.61 138.107 385.317 139.6C387.05 141.093 387.917 143.2 387.917 145.92C387.917 148.427 387.09 150.387 385.437 151.8C383.81 153.187 381.65 153.893 378.957 153.92L378.757 156.92H372.757L372.557 149.48H374.957C377.01 149.48 378.57 149.227 379.637 148.72C380.73 148.213 381.277 147.293 381.277 145.96C381.277 145.027 381.024 144.293 380.517 143.76C380.01 143.227 379.304 142.96 378.397 142.96C377.437 142.96 376.69 143.24 376.157 143.8C375.624 144.333 375.357 145.067 375.357 146H368.917C368.864 144.373 369.197 142.907 369.917 141.6C370.664 140.293 371.757 139.267 373.197 138.52C374.664 137.747 376.424 137.36 378.477 137.36ZM375.837 167.32C374.637 167.32 373.65 166.973 372.877 166.28C372.13 165.56 371.757 164.68 371.757 163.64C371.757 162.573 372.13 161.68 372.877 160.96C373.65 160.24 374.637 159.88 375.837 159.88C377.01 159.88 377.97 160.24 378.717 160.96C379.49 161.68 379.877 162.573 379.877 163.64C379.877 164.68 379.49 165.56 378.717 166.28C377.97 166.973 377.01 167.32 375.837 167.32Z" fill="black"/>
<path d="M67.9893 226.14C67.0693 226.14 66.2426 225.98 65.5093 225.66C64.7893 225.327 64.2226 224.873 63.8093 224.3C63.396 223.713 63.1826 223.04 63.1693 222.28H65.1093C65.176 222.933 65.4426 223.487 65.9093 223.94C66.3893 224.38 67.0826 224.6 67.9893 224.6C68.856 224.6 69.536 224.387 70.0293 223.96C70.536 223.52 70.7893 222.96 70.7893 222.28C70.7893 221.747 70.6426 221.313 70.3493 220.98C70.056 220.647 69.6893 220.393 69.2493 220.22C68.8093 220.047 68.216 219.86 67.4693 219.66C66.5493 219.42 65.8093 219.18 65.2493 218.94C64.7026 218.7 64.2293 218.327 63.8293 217.82C63.4426 217.3 63.2493 216.607 63.2493 215.74C63.2493 214.98 63.4426 214.307 63.8293 213.72C64.216 213.133 64.756 212.68 65.4493 212.36C66.156 212.04 66.9626 211.88 67.8693 211.88C69.176 211.88 70.2426 212.207 71.0693 212.86C71.9093 213.513 72.3826 214.38 72.4893 215.46H70.4893C70.4226 214.927 70.1426 214.46 69.6493 214.06C69.156 213.647 68.5026 213.44 67.6893 213.44C66.9293 213.44 66.3093 213.64 65.8293 214.04C65.3493 214.427 65.1093 214.973 65.1093 215.68C65.1093 216.187 65.2493 216.6 65.5293 216.92C65.8226 217.24 66.176 217.487 66.5893 217.66C67.016 217.82 67.6093 218.007 68.3693 218.22C69.2893 218.473 70.0293 218.727 70.5893 218.98C71.1493 219.22 71.6293 219.6 72.0293 220.12C72.4293 220.627 72.6293 221.32 72.6293 222.2C72.6293 222.88 72.4493 223.52 72.0893 224.12C71.7293 224.72 71.196 225.207 70.4893 225.58C69.7826 225.953 68.9493 226.14 67.9893 226.14ZM74.6276 220.5C74.6276 219.367 74.8542 218.38 75.3076 217.54C75.7609 216.687 76.3876 216.027 77.1876 215.56C78.0009 215.093 78.9276 214.86 79.9676 214.86C81.3142 214.86 82.4209 215.187 83.2876 215.84C84.1676 216.493 84.7476 217.4 85.0276 218.56H83.0676C82.8809 217.893 82.5142 217.367 81.9676 216.98C81.4342 216.593 80.7676 216.4 79.9676 216.4C78.9276 216.4 78.0876 216.76 77.4476 217.48C76.8076 218.187 76.4876 219.193 76.4876 220.5C76.4876 221.82 76.8076 222.84 77.4476 223.56C78.0876 224.28 78.9276 224.64 79.9676 224.64C80.7676 224.64 81.4342 224.453 81.9676 224.08C82.5009 223.707 82.8676 223.173 83.0676 222.48H85.0276C84.7342 223.6 84.1476 224.5 83.2676 225.18C82.3876 225.847 81.2876 226.18 79.9676 226.18C78.9276 226.18 78.0009 225.947 77.1876 225.48C76.3876 225.013 75.7609 224.353 75.3076 223.5C74.8542 222.647 74.6276 221.647 74.6276 220.5ZM92.896 214.84C93.7227 214.84 94.4693 215.02 95.136 215.38C95.8027 215.727 96.3227 216.253 96.696 216.96C97.0827 217.667 97.276 218.527 97.276 219.54V226H95.476V219.8C95.476 218.707 95.2027 217.873 94.656 217.3C94.1093 216.713 93.3627 216.42 92.416 216.42C91.456 216.42 90.6893 216.72 90.116 217.32C89.556 217.92 89.276 218.793 89.276 219.94V226H87.456V211.2H89.276V216.6C89.636 216.04 90.1293 215.607 90.756 215.3C91.396 214.993 92.1093 214.84 92.896 214.84ZM102.069 216.82C102.389 216.193 102.842 215.707 103.429 215.36C104.029 215.013 104.756 214.84 105.609 214.84V216.72H105.129C103.089 216.72 102.069 217.827 102.069 220.04V226H100.249V215.04H102.069V216.82ZM108.65 213.26C108.303 213.26 108.01 213.14 107.77 212.9C107.53 212.66 107.41 212.367 107.41 212.02C107.41 211.673 107.53 211.38 107.77 211.14C108.01 210.9 108.303 210.78 108.65 210.78C108.983 210.78 109.263 210.9 109.49 211.14C109.73 211.38 109.85 211.673 109.85 212.02C109.85 212.367 109.73 212.66 109.49 212.9C109.263 213.14 108.983 213.26 108.65 213.26ZM109.53 215.04V226H107.71V215.04H109.53ZM113.612 213.26C113.265 213.26 112.972 213.14 112.732 212.9C112.505 212.66 112.392 212.367 112.392 212.02C112.392 211.673 112.505 211.38 112.732 211.14C112.972 210.9 113.265 210.78 113.612 210.78C113.958 210.78 114.245 210.9 114.472 211.14C114.712 211.38 114.832 211.673 114.832 212.02C114.832 212.367 114.712 212.66 114.472 212.9C114.245 213.14 113.958 213.26 113.612 213.26ZM114.512 228.38C114.512 229.353 114.265 230.067 113.772 230.52C113.278 230.973 112.558 231.2 111.612 231.2H110.552V229.66H111.312C111.818 229.66 112.172 229.56 112.372 229.36C112.585 229.16 112.692 228.82 112.692 228.34V215.04H114.512V228.38ZM122.053 216.54H119.753V226H117.933V216.54H116.513V215.04H117.933V214.26C117.933 213.033 118.246 212.14 118.873 211.58C119.513 211.007 120.533 210.72 121.933 210.72V212.24C121.133 212.24 120.566 212.4 120.233 212.72C119.913 213.027 119.753 213.54 119.753 214.26V215.04H122.053V216.54ZM130.487 213.26C130.14 213.26 129.847 213.14 129.607 212.9C129.38 212.66 129.267 212.367 129.267 212.02C129.267 211.673 129.38 211.38 129.607 211.14C129.847 210.9 130.14 210.78 130.487 210.78C130.833 210.78 131.12 210.9 131.347 211.14C131.587 211.38 131.707 211.673 131.707 212.02C131.707 212.367 131.587 212.66 131.347 212.9C131.12 213.14 130.833 213.26 130.487 213.26ZM131.387 228.38C131.387 229.353 131.14 230.067 130.647 230.52C130.153 230.973 129.433 231.2 128.487 231.2H127.427V229.66H128.187C128.693 229.66 129.047 229.56 129.247 229.36C129.46 229.16 129.567 228.82 129.567 228.34V215.04H131.387V228.38ZM144.468 220.1C144.468 220.447 144.448 220.813 144.408 221.2H135.648C135.714 222.28 136.081 223.127 136.748 223.74C137.428 224.34 138.248 224.64 139.208 224.64C139.994 224.64 140.648 224.46 141.168 224.1C141.701 223.727 142.074 223.233 142.288 222.62H144.248C143.954 223.673 143.368 224.533 142.488 225.2C141.608 225.853 140.514 226.18 139.208 226.18C138.168 226.18 137.234 225.947 136.408 225.48C135.594 225.013 134.954 224.353 134.488 223.5C134.021 222.633 133.788 221.633 133.788 220.5C133.788 219.367 134.014 218.373 134.468 217.52C134.921 216.667 135.554 216.013 136.368 215.56C137.194 215.093 138.141 214.86 139.208 214.86C140.248 214.86 141.168 215.087 141.968 215.54C142.768 215.993 143.381 216.62 143.808 217.42C144.248 218.207 144.468 219.1 144.468 220.1ZM142.588 219.72C142.588 219.027 142.434 218.433 142.128 217.94C141.821 217.433 141.401 217.053 140.868 216.8C140.348 216.533 139.768 216.4 139.128 216.4C138.208 216.4 137.421 216.693 136.768 217.28C136.128 217.867 135.761 218.68 135.668 219.72H142.588ZM156.082 226.18C155.242 226.18 154.489 226.04 153.822 225.76C153.155 225.467 152.629 225.067 152.242 224.56C151.855 224.04 151.642 223.447 151.602 222.78H153.482C153.535 223.327 153.789 223.773 154.242 224.12C154.709 224.467 155.315 224.64 156.062 224.64C156.755 224.64 157.302 224.487 157.702 224.18C158.102 223.873 158.302 223.487 158.302 223.02C158.302 222.54 158.089 222.187 157.662 221.96C157.235 221.72 156.575 221.487 155.682 221.26C154.869 221.047 154.202 220.833 153.682 220.62C153.175 220.393 152.735 220.067 152.362 219.64C152.002 219.2 151.822 218.627 151.822 217.92C151.822 217.36 151.989 216.847 152.322 216.38C152.655 215.913 153.129 215.547 153.742 215.28C154.355 215 155.055 214.86 155.842 214.86C157.055 214.86 158.035 215.167 158.782 215.78C159.529 216.393 159.929 217.233 159.982 218.3H158.162C158.122 217.727 157.889 217.267 157.462 216.92C157.049 216.573 156.489 216.4 155.782 216.4C155.129 216.4 154.609 216.54 154.222 216.82C153.835 217.1 153.642 217.467 153.642 217.92C153.642 218.28 153.755 218.58 153.982 218.82C154.222 219.047 154.515 219.233 154.862 219.38C155.222 219.513 155.715 219.667 156.342 219.84C157.129 220.053 157.769 220.267 158.262 220.48C158.755 220.68 159.175 220.987 159.522 221.4C159.882 221.813 160.069 222.353 160.082 223.02C160.082 223.62 159.915 224.16 159.582 224.64C159.249 225.12 158.775 225.5 158.162 225.78C157.562 226.047 156.869 226.18 156.082 226.18ZM161.971 220.5C161.971 219.367 162.198 218.38 162.651 217.54C163.105 216.687 163.731 216.027 164.531 215.56C165.345 215.093 166.271 214.86 167.311 214.86C168.658 214.86 169.765 215.187 170.631 215.84C171.511 216.493 172.091 217.4 172.371 218.56H170.411C170.225 217.893 169.858 217.367 169.311 216.98C168.778 216.593 168.111 216.4 167.311 216.4C166.271 216.4 165.431 216.76 164.791 217.48C164.151 218.187 163.831 219.193 163.831 220.5C163.831 221.82 164.151 222.84 164.791 223.56C165.431 224.28 166.271 224.64 167.311 224.64C168.111 224.64 168.778 224.453 169.311 224.08C169.845 223.707 170.211 223.173 170.411 222.48H172.371C172.078 223.6 171.491 224.5 170.611 225.18C169.731 225.847 168.631 226.18 167.311 226.18C166.271 226.18 165.345 225.947 164.531 225.48C163.731 225.013 163.105 224.353 162.651 223.5C162.198 222.647 161.971 221.647 161.971 220.5ZM180.24 214.84C181.066 214.84 181.813 215.02 182.48 215.38C183.146 215.727 183.666 216.253 184.04 216.96C184.426 217.667 184.62 218.527 184.62 219.54V226H182.82V219.8C182.82 218.707 182.546 217.873 182 217.3C181.453 216.713 180.706 216.42 179.76 216.42C178.8 216.42 178.033 216.72 177.46 217.32C176.9 217.92 176.62 218.793 176.62 219.94V226H174.8V211.2H176.62V216.6C176.98 216.04 177.473 215.607 178.1 215.3C178.74 214.993 179.453 214.84 180.24 214.84ZM192.373 226.18C191.346 226.18 190.413 225.947 189.573 225.48C188.746 225.013 188.093 224.353 187.613 223.5C187.146 222.633 186.913 221.633 186.913 220.5C186.913 219.38 187.153 218.393 187.633 217.54C188.126 216.673 188.793 216.013 189.633 215.56C190.473 215.093 191.413 214.86 192.453 214.86C193.493 214.86 194.433 215.093 195.273 215.56C196.113 216.013 196.773 216.667 197.253 217.52C197.746 218.373 197.993 219.367 197.993 220.5C197.993 221.633 197.739 222.633 197.233 223.5C196.739 224.353 196.066 225.013 195.213 225.48C194.359 225.947 193.413 226.18 192.373 226.18ZM192.373 224.58C193.026 224.58 193.639 224.427 194.213 224.12C194.786 223.813 195.246 223.353 195.593 222.74C195.953 222.127 196.133 221.38 196.133 220.5C196.133 219.62 195.959 218.873 195.613 218.26C195.266 217.647 194.813 217.193 194.253 216.9C193.693 216.593 193.086 216.44 192.433 216.44C191.766 216.44 191.153 216.593 190.593 216.9C190.046 217.193 189.606 217.647 189.273 218.26C188.939 218.873 188.773 219.62 188.773 220.5C188.773 221.393 188.933 222.147 189.253 222.76C189.586 223.373 190.026 223.833 190.573 224.14C191.119 224.433 191.719 224.58 192.373 224.58ZM205.166 226.18C204.139 226.18 203.206 225.947 202.366 225.48C201.539 225.013 200.886 224.353 200.406 223.5C199.939 222.633 199.706 221.633 199.706 220.5C199.706 219.38 199.946 218.393 200.426 217.54C200.919 216.673 201.586 216.013 202.426 215.56C203.266 215.093 204.206 214.86 205.246 214.86C206.286 214.86 207.226 215.093 208.066 215.56C208.906 216.013 209.566 216.667 210.046 217.52C210.539 218.373 210.786 219.367 210.786 220.5C210.786 221.633 210.532 222.633 210.026 223.5C209.532 224.353 208.859 225.013 208.006 225.48C207.152 225.947 206.206 226.18 205.166 226.18ZM205.166 224.58C205.819 224.58 206.432 224.427 207.006 224.12C207.579 223.813 208.039 223.353 208.386 222.74C208.746 222.127 208.926 221.38 208.926 220.5C208.926 219.62 208.752 218.873 208.406 218.26C208.059 217.647 207.606 217.193 207.046 216.9C206.486 216.593 205.879 216.44 205.226 216.44C204.559 216.44 203.946 216.593 203.386 216.9C202.839 217.193 202.399 217.647 202.066 218.26C201.732 218.873 201.566 219.62 201.566 220.5C201.566 221.393 201.726 222.147 202.046 222.76C202.379 223.373 202.819 223.833 203.366 224.14C203.912 224.433 204.512 224.58 205.166 224.58ZM214.999 211.2V226H213.179V211.2H214.999ZM224.373 213.26C224.026 213.26 223.733 213.14 223.493 212.9C223.253 212.66 223.133 212.367 223.133 212.02C223.133 211.673 223.253 211.38 223.493 211.14C223.733 210.9 224.026 210.78 224.373 210.78C224.706 210.78 224.986 210.9 225.213 211.14C225.453 211.38 225.573 211.673 225.573 212.02C225.573 212.367 225.453 212.66 225.213 212.9C224.986 213.14 224.706 213.26 224.373 213.26ZM225.253 215.04V226H223.433V215.04H225.253ZM233.694 214.84C235.028 214.84 236.108 215.247 236.934 216.06C237.761 216.86 238.174 218.02 238.174 219.54V226H236.374V219.8C236.374 218.707 236.101 217.873 235.554 217.3C235.008 216.713 234.261 216.42 233.314 216.42C232.354 216.42 231.588 216.72 231.014 217.32C230.454 217.92 230.174 218.793 230.174 219.94V226H228.354V215.04H230.174V216.6C230.534 216.04 231.021 215.607 231.634 215.3C232.261 214.993 232.948 214.84 233.694 214.84ZM243.027 223.48L240.787 228.86H239.567L241.027 223.48H243.027ZM249.764 220.48C249.764 219.36 249.991 218.38 250.444 217.54C250.898 216.687 251.518 216.027 252.304 215.56C253.104 215.093 253.998 214.86 254.984 214.86C255.838 214.86 256.631 215.06 257.364 215.46C258.098 215.847 258.658 216.36 259.044 217V211.2H260.884V226H259.044V223.94C258.684 224.593 258.151 225.133 257.444 225.56C256.738 225.973 255.911 226.18 254.964 226.18C253.991 226.18 253.104 225.94 252.304 225.46C251.518 224.98 250.898 224.307 250.444 223.44C249.991 222.573 249.764 221.587 249.764 220.48ZM259.044 220.5C259.044 219.673 258.878 218.953 258.544 218.34C258.211 217.727 257.758 217.26 257.184 216.94C256.624 216.607 256.004 216.44 255.324 216.44C254.644 216.44 254.024 216.6 253.464 216.92C252.904 217.24 252.458 217.707 252.124 218.32C251.791 218.933 251.624 219.653 251.624 220.48C251.624 221.32 251.791 222.053 252.124 222.68C252.458 223.293 252.904 223.767 253.464 224.1C254.024 224.42 254.644 224.58 255.324 224.58C256.004 224.58 256.624 224.42 257.184 224.1C257.758 223.767 258.211 223.293 258.544 222.68C258.878 222.053 259.044 221.327 259.044 220.5ZM268.74 226.18C267.713 226.18 266.78 225.947 265.94 225.48C265.113 225.013 264.46 224.353 263.98 223.5C263.513 222.633 263.28 221.633 263.28 220.5C263.28 219.38 263.52 218.393 264 217.54C264.493 216.673 265.16 216.013 266 215.56C266.84 215.093 267.78 214.86 268.82 214.86C269.86 214.86 270.8 215.093 271.64 215.56C272.48 216.013 273.14 216.667 273.62 217.52C274.113 218.373 274.36 219.367 274.36 220.5C274.36 221.633 274.107 222.633 273.6 223.5C273.107 224.353 272.433 225.013 271.58 225.48C270.727 225.947 269.78 226.18 268.74 226.18ZM268.74 224.58C269.393 224.58 270.007 224.427 270.58 224.12C271.153 223.813 271.613 223.353 271.96 222.74C272.32 222.127 272.5 221.38 272.5 220.5C272.5 219.62 272.327 218.873 271.98 218.26C271.633 217.647 271.18 217.193 270.62 216.9C270.06 216.593 269.453 216.44 268.8 216.44C268.133 216.44 267.52 216.593 266.96 216.9C266.413 217.193 265.973 217.647 265.64 218.26C265.307 218.873 265.14 219.62 265.14 220.5C265.14 221.393 265.3 222.147 265.62 222.76C265.953 223.373 266.393 223.833 266.94 224.14C267.487 224.433 268.087 224.58 268.74 224.58ZM291.353 215.04L287.933 226H286.053L283.413 217.3L280.773 226H278.893L275.453 215.04H277.313L279.833 224.24L282.553 215.04H284.413L287.073 224.26L289.553 215.04H291.353ZM298.499 214.84C299.832 214.84 300.912 215.247 301.739 216.06C302.566 216.86 302.979 218.02 302.979 219.54V226H301.179V219.8C301.179 218.707 300.906 217.873 300.359 217.3C299.812 216.713 299.066 216.42 298.119 216.42C297.159 216.42 296.392 216.72 295.819 217.32C295.259 217.92 294.979 218.793 294.979 219.94V226H293.159V215.04H294.979V216.6C295.339 216.04 295.826 215.607 296.439 215.3C297.066 214.993 297.752 214.84 298.499 214.84ZM307.772 211.2V226H305.952V211.2H307.772ZM315.654 226.18C314.627 226.18 313.694 225.947 312.854 225.48C312.027 225.013 311.374 224.353 310.894 223.5C310.427 222.633 310.194 221.633 310.194 220.5C310.194 219.38 310.434 218.393 310.914 217.54C311.407 216.673 312.074 216.013 312.914 215.56C313.754 215.093 314.694 214.86 315.734 214.86C316.774 214.86 317.714 215.093 318.554 215.56C319.394 216.013 320.054 216.667 320.534 217.52C321.027 218.373 321.274 219.367 321.274 220.5C321.274 221.633 321.021 222.633 320.514 223.5C320.021 224.353 319.347 225.013 318.494 225.48C317.641 225.947 316.694 226.18 315.654 226.18ZM315.654 224.58C316.307 224.58 316.921 224.427 317.494 224.12C318.067 223.813 318.527 223.353 318.874 222.74C319.234 222.127 319.414 221.38 319.414 220.5C319.414 219.62 319.241 218.873 318.894 218.26C318.547 217.647 318.094 217.193 317.534 216.9C316.974 216.593 316.367 216.44 315.714 216.44C315.047 216.44 314.434 216.593 313.874 216.9C313.327 217.193 312.887 217.647 312.554 218.26C312.221 218.873 312.054 219.62 312.054 220.5C312.054 221.393 312.214 222.147 312.534 222.76C312.867 223.373 313.307 223.833 313.854 224.14C314.401 224.433 315.001 224.58 315.654 224.58ZM322.987 220.48C322.987 219.36 323.214 218.38 323.667 217.54C324.12 216.687 324.74 216.027 325.527 215.56C326.327 215.093 327.214 214.86 328.187 214.86C329.147 214.86 329.98 215.067 330.687 215.48C331.394 215.893 331.92 216.413 332.267 217.04V215.04H334.107V226H332.267V223.96C331.907 224.6 331.367 225.133 330.647 225.56C329.94 225.973 329.114 226.18 328.167 226.18C327.194 226.18 326.314 225.94 325.527 225.46C324.74 224.98 324.12 224.307 323.667 223.44C323.214 222.573 322.987 221.587 322.987 220.48ZM332.267 220.5C332.267 219.673 332.1 218.953 331.767 218.34C331.434 217.727 330.98 217.26 330.407 216.94C329.847 216.607 329.227 216.44 328.547 216.44C327.867 216.44 327.247 216.6 326.687 216.92C326.127 217.24 325.68 217.707 325.347 218.32C325.014 218.933 324.847 219.653 324.847 220.48C324.847 221.32 325.014 222.053 325.347 222.68C325.68 223.293 326.127 223.767 326.687 224.1C327.247 224.42 327.867 224.58 328.547 224.58C329.227 224.58 329.847 224.42 330.407 224.1C330.98 223.767 331.434 223.293 331.767 222.68C332.1 222.053 332.267 221.327 332.267 220.5ZM336.503 220.48C336.503 219.36 336.729 218.38 337.183 217.54C337.636 216.687 338.256 216.027 339.043 215.56C339.843 215.093 340.736 214.86 341.723 214.86C342.576 214.86 343.369 215.06 344.103 215.46C344.836 215.847 345.396 216.36 345.783 217V211.2H347.623V226H345.783V223.94C345.423 224.593 344.889 225.133 344.183 225.56C343.476 225.973 342.649 226.18 341.703 226.18C340.729 226.18 339.843 225.94 339.043 225.46C338.256 224.98 337.636 224.307 337.183 223.44C336.729 222.573 336.503 221.587 336.503 220.48ZM345.783 220.5C345.783 219.673 345.616 218.953 345.283 218.34C344.949 217.727 344.496 217.26 343.923 216.94C343.363 216.607 342.743 216.44 342.063 216.44C341.383 216.44 340.763 216.6 340.203 216.92C339.643 217.24 339.196 217.707 338.863 218.32C338.529 218.933 338.363 219.653 338.363 220.48C338.363 221.32 338.529 222.053 338.863 222.68C339.196 223.293 339.643 223.767 340.203 224.1C340.763 224.42 341.383 224.58 342.063 224.58C342.743 224.58 343.363 224.42 343.923 224.1C344.496 223.767 344.949 223.293 345.283 222.68C345.616 222.053 345.783 221.327 345.783 220.5ZM361.47 214.84C362.297 214.84 363.044 215.02 363.71 215.38C364.377 215.727 364.897 216.253 365.27 216.96C365.657 217.667 365.85 218.527 365.85 219.54V226H364.05V219.8C364.05 218.707 363.777 217.873 363.23 217.3C362.684 216.713 361.937 216.42 360.99 216.42C360.03 216.42 359.264 216.72 358.69 217.32C358.13 217.92 357.85 218.793 357.85 219.94V226H356.03V211.2H357.85V216.6C358.21 216.04 358.704 215.607 359.33 215.3C359.97 214.993 360.684 214.84 361.47 214.84ZM378.823 220.1C378.823 220.447 378.803 220.813 378.763 221.2H370.003C370.07 222.28 370.437 223.127 371.103 223.74C371.783 224.34 372.603 224.64 373.563 224.64C374.35 224.64 375.003 224.46 375.523 224.1C376.057 223.727 376.43 223.233 376.643 222.62H378.603C378.31 223.673 377.723 224.533 376.843 225.2C375.963 225.853 374.87 226.18 373.563 226.18C372.523 226.18 371.59 225.947 370.763 225.48C369.95 225.013 369.31 224.353 368.843 223.5C368.377 222.633 368.143 221.633 368.143 220.5C368.143 219.367 368.37 218.373 368.823 217.52C369.277 216.667 369.91 216.013 370.723 215.56C371.55 215.093 372.497 214.86 373.563 214.86C374.603 214.86 375.523 215.087 376.323 215.54C377.123 215.993 377.737 216.62 378.163 217.42C378.603 218.207 378.823 219.1 378.823 220.1ZM376.943 219.72C376.943 219.027 376.79 218.433 376.483 217.94C376.177 217.433 375.757 217.053 375.223 216.8C374.703 216.533 374.123 216.4 373.483 216.4C372.563 216.4 371.777 216.693 371.123 217.28C370.483 217.867 370.117 218.68 370.023 219.72H376.943ZM383.446 216.54V223C383.446 223.533 383.559 223.913 383.786 224.14C384.012 224.353 384.406 224.46 384.966 224.46H386.306V226H384.666C383.652 226 382.892 225.767 382.386 225.3C381.879 224.833 381.626 224.067 381.626 223V216.54H380.206V215.04H381.626V212.28H383.446V215.04H386.306V216.54H383.446ZM46.5756 244.86C47.5223 244.86 48.349 245.067 49.0556 245.48C49.7756 245.893 50.309 246.413 50.6556 247.04V245.04H52.4956V256.24C52.4956 257.24 52.2823 258.127 51.8556 258.9C51.429 259.687 50.8156 260.3 50.0156 260.74C49.229 261.18 48.309 261.4 47.2556 261.4C45.8156 261.4 44.6156 261.06 43.6556 260.38C42.6956 259.7 42.129 258.773 41.9556 257.6H43.7556C43.9556 258.267 44.369 258.8 44.9956 259.2C45.6223 259.613 46.3756 259.82 47.2556 259.82C48.2556 259.82 49.069 259.507 49.6956 258.88C50.3356 258.253 50.6556 257.373 50.6556 256.24V253.94C50.2956 254.58 49.7623 255.113 49.0556 255.54C48.349 255.967 47.5223 256.18 46.5756 256.18C45.6023 256.18 44.7156 255.94 43.9156 255.46C43.129 254.98 42.509 254.307 42.0556 253.44C41.6023 252.573 41.3756 251.587 41.3756 250.48C41.3756 249.36 41.6023 248.38 42.0556 247.54C42.509 246.687 43.129 246.027 43.9156 245.56C44.7156 245.093 45.6023 244.86 46.5756 244.86ZM50.6556 250.5C50.6556 249.673 50.489 248.953 50.1556 248.34C49.8223 247.727 49.369 247.26 48.7956 246.94C48.2356 246.607 47.6156 246.44 46.9356 246.44C46.2556 246.44 45.6356 246.6 45.0756 246.92C44.5156 247.24 44.069 247.707 43.7356 248.32C43.4023 248.933 43.2356 249.653 43.2356 250.48C43.2356 251.32 43.4023 252.053 43.7356 252.68C44.069 253.293 44.5156 253.767 45.0756 254.1C45.6356 254.42 46.2556 254.58 46.9356 254.58C47.6156 254.58 48.2356 254.42 48.7956 254.1C49.369 253.767 49.8223 253.293 50.1556 252.68C50.489 252.053 50.6556 251.327 50.6556 250.5ZM57.3913 246.82C57.7113 246.193 58.1646 245.707 58.7513 245.36C59.3513 245.013 60.0779 244.84 60.9313 244.84V246.72H60.4513C58.4113 246.72 57.3913 247.827 57.3913 250.04V256H55.5713V245.04H57.3913V246.82ZM62.3522 250.48C62.3522 249.36 62.5789 248.38 63.0322 247.54C63.4855 246.687 64.1055 246.027 64.8922 245.56C65.6922 245.093 66.5789 244.86 67.5522 244.86C68.5122 244.86 69.3455 245.067 70.0522 245.48C70.7589 245.893 71.2855 246.413 71.6322 247.04V245.04H73.4722V256H71.6322V253.96C71.2722 254.6 70.7322 255.133 70.0122 255.56C69.3055 255.973 68.4789 256.18 67.5322 256.18C66.5589 256.18 65.6789 255.94 64.8922 255.46C64.1055 254.98 63.4855 254.307 63.0322 253.44C62.5789 252.573 62.3522 251.587 62.3522 250.48ZM71.6322 250.5C71.6322 249.673 71.4655 248.953 71.1322 248.34C70.7989 247.727 70.3455 247.26 69.7722 246.94C69.2122 246.607 68.5922 246.44 67.9122 246.44C67.2322 246.44 66.6122 246.6 66.0522 246.92C65.4922 247.24 65.0455 247.707 64.7122 248.32C64.3789 248.933 64.2122 249.653 64.2122 250.48C64.2122 251.32 64.3789 252.053 64.7122 252.68C65.0455 253.293 65.4922 253.767 66.0522 254.1C66.6122 254.42 67.2322 254.58 67.9122 254.58C68.5922 254.58 69.2122 254.42 69.7722 254.1C70.3455 253.767 70.7989 253.293 71.1322 252.68C71.4655 252.053 71.6322 251.327 71.6322 250.5ZM78.7678 246.54V253C78.7678 253.533 78.8811 253.913 79.1078 254.14C79.3345 254.353 79.7278 254.46 80.2878 254.46H81.6278V256H79.9878C78.9745 256 78.2145 255.767 77.7078 255.3C77.2011 254.833 76.9478 254.067 76.9478 253V246.54H75.5278V245.04H76.9478V242.28H78.7678V245.04H81.6278V246.54H78.7678ZM84.773 243.26C84.4263 243.26 84.133 243.14 83.893 242.9C83.653 242.66 83.533 242.367 83.533 242.02C83.533 241.673 83.653 241.38 83.893 241.14C84.133 240.9 84.4263 240.78 84.773 240.78C85.1063 240.78 85.3863 240.9 85.613 241.14C85.853 241.38 85.973 241.673 85.973 242.02C85.973 242.367 85.853 242.66 85.613 242.9C85.3863 243.14 85.1063 243.26 84.773 243.26ZM85.653 245.04V256H83.833V245.04H85.653ZM92.6348 256.18C91.7948 256.18 91.0415 256.04 90.3748 255.76C89.7082 255.467 89.1815 255.067 88.7948 254.56C88.4082 254.04 88.1948 253.447 88.1548 252.78H90.0348C90.0882 253.327 90.3415 253.773 90.7948 254.12C91.2615 254.467 91.8682 254.64 92.6148 254.64C93.3082 254.64 93.8548 254.487 94.2548 254.18C94.6548 253.873 94.8548 253.487 94.8548 253.02C94.8548 252.54 94.6415 252.187 94.2148 251.96C93.7882 251.72 93.1282 251.487 92.2348 251.26C91.4215 251.047 90.7548 250.833 90.2348 250.62C89.7282 250.393 89.2882 250.067 88.9148 249.64C88.5548 249.2 88.3748 248.627 88.3748 247.92C88.3748 247.36 88.5415 246.847 88.8748 246.38C89.2082 245.913 89.6815 245.547 90.2948 245.28C90.9082 245 91.6082 244.86 92.3948 244.86C93.6082 244.86 94.5882 245.167 95.3348 245.78C96.0815 246.393 96.4815 247.233 96.5348 248.3H94.7148C94.6748 247.727 94.4415 247.267 94.0148 246.92C93.6015 246.573 93.0415 246.4 92.3348 246.4C91.6815 246.4 91.1615 246.54 90.7748 246.82C90.3882 247.1 90.1948 247.467 90.1948 247.92C90.1948 248.28 90.3082 248.58 90.5348 248.82C90.7748 249.047 91.0682 249.233 91.4148 249.38C91.7748 249.513 92.2682 249.667 92.8948 249.84C93.6815 250.053 94.3215 250.267 94.8148 250.48C95.3082 250.68 95.7282 250.987 96.0748 251.4C96.4348 251.813 96.6215 252.353 96.6348 253.02C96.6348 253.62 96.4682 254.16 96.1348 254.64C95.8015 255.12 95.3282 255.5 94.7148 255.78C94.1148 256.047 93.4215 256.18 92.6348 256.18ZM106.356 241.2V256H104.536V241.2H106.356ZM119.458 250.1C119.458 250.447 119.438 250.813 119.398 251.2H110.638C110.705 252.28 111.071 253.127 111.738 253.74C112.418 254.34 113.238 254.64 114.198 254.64C114.985 254.64 115.638 254.46 116.158 254.1C116.691 253.727 117.065 253.233 117.278 252.62H119.238C118.945 253.673 118.358 254.533 117.478 255.2C116.598 255.853 115.505 256.18 114.198 256.18C113.158 256.18 112.225 255.947 111.398 255.48C110.585 255.013 109.945 254.353 109.478 253.5C109.011 252.633 108.778 251.633 108.778 250.5C108.778 249.367 109.005 248.373 109.458 247.52C109.911 246.667 110.545 246.013 111.358 245.56C112.185 245.093 113.131 244.86 114.198 244.86C115.238 244.86 116.158 245.087 116.958 245.54C117.758 245.993 118.371 246.62 118.798 247.42C119.238 248.207 119.458 249.1 119.458 250.1ZM117.578 249.72C117.578 249.027 117.425 248.433 117.118 247.94C116.811 247.433 116.391 247.053 115.858 246.8C115.338 246.533 114.758 246.4 114.118 246.4C113.198 246.4 112.411 246.693 111.758 247.28C111.118 247.867 110.751 248.68 110.658 249.72H117.578ZM125.74 256.18C124.9 256.18 124.147 256.04 123.48 255.76C122.814 255.467 122.287 255.067 121.9 254.56C121.514 254.04 121.3 253.447 121.26 252.78H123.14C123.194 253.327 123.447 253.773 123.9 254.12C124.367 254.467 124.974 254.64 125.72 254.64C126.414 254.64 126.96 254.487 127.36 254.18C127.76 253.873 127.96 253.487 127.96 253.02C127.96 252.54 127.747 252.187 127.32 251.96C126.894 251.72 126.234 251.487 125.34 251.26C124.527 251.047 123.86 250.833 123.34 250.62C122.834 250.393 122.394 250.067 122.02 249.64C121.66 249.2 121.48 248.627 121.48 247.92C121.48 247.36 121.647 246.847 121.98 246.38C122.314 245.913 122.787 245.547 123.4 245.28C124.014 245 124.714 244.86 125.5 244.86C126.714 244.86 127.694 245.167 128.44 245.78C129.187 246.393 129.587 247.233 129.64 248.3H127.82C127.78 247.727 127.547 247.267 127.12 246.92C126.707 246.573 126.147 246.4 125.44 246.4C124.787 246.4 124.267 246.54 123.88 246.82C123.494 247.1 123.3 247.467 123.3 247.92C123.3 248.28 123.414 248.58 123.64 248.82C123.88 249.047 124.174 249.233 124.52 249.38C124.88 249.513 125.374 249.667 126 249.84C126.787 250.053 127.427 250.267 127.92 250.48C128.414 250.68 128.834 250.987 129.18 251.4C129.54 251.813 129.727 252.353 129.74 253.02C129.74 253.62 129.574 254.16 129.24 254.64C128.907 255.12 128.434 255.5 127.82 255.78C127.22 256.047 126.527 256.18 125.74 256.18ZM134.13 247.06C134.49 246.433 135.023 245.913 135.73 245.5C136.45 245.073 137.283 244.86 138.23 244.86C139.203 244.86 140.083 245.093 140.87 245.56C141.67 246.027 142.296 246.687 142.75 247.54C143.203 248.38 143.43 249.36 143.43 250.48C143.43 251.587 143.203 252.573 142.75 253.44C142.296 254.307 141.67 254.98 140.87 255.46C140.083 255.94 139.203 256.18 138.23 256.18C137.296 256.18 136.47 255.973 135.75 255.56C135.043 255.133 134.503 254.607 134.13 253.98V261.2H132.31V245.04H134.13V247.06ZM141.57 250.48C141.57 249.653 141.403 248.933 141.07 248.32C140.736 247.707 140.283 247.24 139.71 246.92C139.15 246.6 138.53 246.44 137.85 246.44C137.183 246.44 136.563 246.607 135.99 246.94C135.43 247.26 134.976 247.733 134.63 248.36C134.296 248.973 134.13 249.687 134.13 250.5C134.13 251.327 134.296 252.053 134.63 252.68C134.976 253.293 135.43 253.767 135.99 254.1C136.563 254.42 137.183 254.58 137.85 254.58C138.53 254.58 139.15 254.42 139.71 254.1C140.283 253.767 140.736 253.293 141.07 252.68C141.403 252.053 141.57 251.32 141.57 250.48ZM145.145 250.48C145.145 249.36 145.372 248.38 145.825 247.54C146.278 246.687 146.898 246.027 147.685 245.56C148.485 245.093 149.372 244.86 150.345 244.86C151.305 244.86 152.138 245.067 152.845 245.48C153.552 245.893 154.078 246.413 154.425 247.04V245.04H156.265V256H154.425V253.96C154.065 254.6 153.525 255.133 152.805 255.56C152.098 255.973 151.272 256.18 150.325 256.18C149.352 256.18 148.472 255.94 147.685 255.46C146.898 254.98 146.278 254.307 145.825 253.44C145.372 252.573 145.145 251.587 145.145 250.48ZM154.425 250.5C154.425 249.673 154.258 248.953 153.925 248.34C153.592 247.727 153.138 247.26 152.565 246.94C152.005 246.607 151.385 246.44 150.705 246.44C150.025 246.44 149.405 246.6 148.845 246.92C148.285 247.24 147.838 247.707 147.505 248.32C147.172 248.933 147.005 249.653 147.005 250.48C147.005 251.32 147.172 252.053 147.505 252.68C147.838 253.293 148.285 253.767 148.845 254.1C149.405 254.42 150.025 254.58 150.705 254.58C151.385 254.58 152.005 254.42 152.565 254.1C153.138 253.767 153.592 253.293 153.925 252.68C154.258 252.053 154.425 251.327 154.425 250.5ZM165.461 256L161.161 251.16V256H159.341V241.2H161.161V249.9L165.381 245.04H167.921L162.761 250.5L167.941 256H165.461ZM175.754 256L171.454 251.16V256H169.634V241.2H171.454V249.9L175.674 245.04H178.214L173.054 250.5L178.234 256H175.754ZM189.927 250.1C189.927 250.447 189.907 250.813 189.867 251.2H181.107C181.173 252.28 181.54 253.127 182.207 253.74C182.887 254.34 183.707 254.64 184.667 254.64C185.453 254.64 186.107 254.46 186.627 254.1C187.16 253.727 187.533 253.233 187.747 252.62H189.707C189.413 253.673 188.827 254.533 187.947 255.2C187.067 255.853 185.973 256.18 184.667 256.18C183.627 256.18 182.693 255.947 181.867 255.48C181.053 255.013 180.413 254.353 179.947 253.5C179.48 252.633 179.247 251.633 179.247 250.5C179.247 249.367 179.473 248.373 179.927 247.52C180.38 246.667 181.013 246.013 181.827 245.56C182.653 245.093 183.6 244.86 184.667 244.86C185.707 244.86 186.627 245.087 187.427 245.54C188.227 245.993 188.84 246.62 189.267 247.42C189.707 248.207 189.927 249.1 189.927 250.1ZM188.047 249.72C188.047 249.027 187.893 248.433 187.587 247.94C187.28 247.433 186.86 247.053 186.327 246.8C185.807 246.533 185.227 246.4 184.587 246.4C183.667 246.4 182.88 246.693 182.227 247.28C181.587 247.867 181.22 248.68 181.127 249.72H188.047ZM194.549 246.54V253C194.549 253.533 194.662 253.913 194.889 254.14C195.116 254.353 195.509 254.46 196.069 254.46H197.409V256H195.769C194.756 256 193.996 255.767 193.489 255.3C192.982 254.833 192.729 254.067 192.729 253V246.54H191.309V245.04H192.729V242.28H194.549V245.04H197.409V246.54H194.549ZM201.494 253.48L199.254 258.86H198.034L199.494 253.48H201.494ZM210.731 241.2V256H208.911V241.2H210.731ZM213.153 250.48C213.153 249.36 213.38 248.38 213.833 247.54C214.286 246.687 214.906 246.027 215.693 245.56C216.493 245.093 217.38 244.86 218.353 244.86C219.313 244.86 220.146 245.067 220.853 245.48C221.56 245.893 222.086 246.413 222.433 247.04V245.04H224.273V256H222.433V253.96C222.073 254.6 221.533 255.133 220.813 255.56C220.106 255.973 219.28 256.18 218.333 256.18C217.36 256.18 216.48 255.94 215.693 255.46C214.906 254.98 214.286 254.307 213.833 253.44C213.38 252.573 213.153 251.587 213.153 250.48ZM222.433 250.5C222.433 249.673 222.266 248.953 221.933 248.34C221.6 247.727 221.146 247.26 220.573 246.94C220.013 246.607 219.393 246.44 218.713 246.44C218.033 246.44 217.413 246.6 216.853 246.92C216.293 247.24 215.846 247.707 215.513 248.32C215.18 248.933 215.013 249.653 215.013 250.48C215.013 251.32 215.18 252.053 215.513 252.68C215.846 253.293 216.293 253.767 216.853 254.1C217.413 254.42 218.033 254.58 218.713 254.58C219.393 254.58 220.013 254.42 220.573 254.1C221.146 253.767 221.6 253.293 221.933 252.68C222.266 252.053 222.433 251.327 222.433 250.5ZM226.669 250.48C226.669 249.36 226.895 248.38 227.349 247.54C227.802 246.687 228.422 246.027 229.209 245.56C230.009 245.093 230.895 244.86 231.869 244.86C232.829 244.86 233.662 245.067 234.369 245.48C235.075 245.893 235.602 246.413 235.949 247.04V245.04H237.789V256H235.949V253.96C235.589 254.6 235.049 255.133 234.329 255.56C233.622 255.973 232.795 256.18 231.849 256.18C230.875 256.18 229.995 255.94 229.209 255.46C228.422 254.98 227.802 254.307 227.349 253.44C226.895 252.573 226.669 251.587 226.669 250.48ZM235.949 250.5C235.949 249.673 235.782 248.953 235.449 248.34C235.115 247.727 234.662 247.26 234.089 246.94C233.529 246.607 232.909 246.44 232.229 246.44C231.549 246.44 230.929 246.6 230.369 246.92C229.809 247.24 229.362 247.707 229.029 248.32C228.695 248.933 228.529 249.653 228.529 250.48C228.529 251.32 228.695 252.053 229.029 252.68C229.362 253.293 229.809 253.767 230.369 254.1C230.929 254.42 231.549 254.58 232.229 254.58C232.909 254.58 233.529 254.42 234.089 254.1C234.662 253.767 235.115 253.293 235.449 252.68C235.782 252.053 235.949 251.327 235.949 250.5ZM243.084 246.54V253C243.084 253.533 243.198 253.913 243.424 254.14C243.651 254.353 244.044 254.46 244.604 254.46H245.944V256H244.304C243.291 256 242.531 255.767 242.024 255.3C241.518 254.833 241.264 254.067 241.264 253V246.54H239.844V245.04H241.264V242.28H243.084V245.04H245.944V246.54H243.084ZM258.261 256.18C257.235 256.18 256.301 255.947 255.461 255.48C254.635 255.013 253.981 254.353 253.501 253.5C253.035 252.633 252.801 251.633 252.801 250.5C252.801 249.38 253.041 248.393 253.521 247.54C254.015 246.673 254.681 246.013 255.521 245.56C256.361 245.093 257.301 244.86 258.341 244.86C259.381 244.86 260.321 245.093 261.161 245.56C262.001 246.013 262.661 246.667 263.141 247.52C263.635 248.373 263.881 249.367 263.881 250.5C263.881 251.633 263.628 252.633 263.121 253.5C262.628 254.353 261.955 255.013 261.101 255.48C260.248 255.947 259.301 256.18 258.261 256.18ZM258.261 254.58C258.915 254.58 259.528 254.427 260.101 254.12C260.675 253.813 261.135 253.353 261.481 252.74C261.841 252.127 262.021 251.38 262.021 250.5C262.021 249.62 261.848 248.873 261.501 248.26C261.155 247.647 260.701 247.193 260.141 246.9C259.581 246.593 258.975 246.44 258.321 246.44C257.655 246.44 257.041 246.593 256.481 246.9C255.935 247.193 255.495 247.647 255.161 248.26C254.828 248.873 254.661 249.62 254.661 250.5C254.661 251.393 254.821 252.147 255.141 252.76C255.475 253.373 255.915 253.833 256.461 254.14C257.008 254.433 257.608 254.58 258.261 254.58ZM268.094 247.06C268.454 246.433 268.988 245.913 269.694 245.5C270.414 245.073 271.248 244.86 272.194 244.86C273.168 244.86 274.048 245.093 274.834 245.56C275.634 246.027 276.261 246.687 276.714 247.54C277.168 248.38 277.394 249.36 277.394 250.48C277.394 251.587 277.168 252.573 276.714 253.44C276.261 254.307 275.634 254.98 274.834 255.46C274.048 255.94 273.168 256.18 272.194 256.18C271.261 256.18 270.434 255.973 269.714 255.56C269.008 255.133 268.468 254.607 268.094 253.98V261.2H266.274V245.04H268.094V247.06ZM275.534 250.48C275.534 249.653 275.368 248.933 275.034 248.32C274.701 247.707 274.248 247.24 273.674 246.92C273.114 246.6 272.494 246.44 271.814 246.44C271.148 246.44 270.528 246.607 269.954 246.94C269.394 247.26 268.941 247.733 268.594 248.36C268.261 248.973 268.094 249.687 268.094 250.5C268.094 251.327 268.261 252.053 268.594 252.68C268.941 253.293 269.394 253.767 269.954 254.1C270.528 254.42 271.148 254.58 271.814 254.58C272.494 254.58 273.114 254.42 273.674 254.1C274.248 253.767 274.701 253.293 275.034 252.68C275.368 252.053 275.534 251.32 275.534 250.48ZM284.782 245.18C284.875 243.953 285.349 242.993 286.202 242.3C287.055 241.607 288.162 241.26 289.522 241.26C290.429 241.26 291.209 241.427 291.862 241.76C292.529 242.08 293.029 242.52 293.362 243.08C293.709 243.64 293.882 244.273 293.882 244.98C293.882 245.807 293.642 246.52 293.162 247.12C292.695 247.72 292.082 248.107 291.322 248.28V248.38C292.189 248.593 292.875 249.013 293.382 249.64C293.889 250.267 294.142 251.087 294.142 252.1C294.142 252.86 293.969 253.547 293.622 254.16C293.275 254.76 292.755 255.233 292.062 255.58C291.369 255.927 290.535 256.1 289.562 256.1C288.149 256.1 286.989 255.733 286.082 255C285.175 254.253 284.669 253.2 284.562 251.84H286.322C286.415 252.64 286.742 253.293 287.302 253.8C287.862 254.307 288.609 254.56 289.542 254.56C290.475 254.56 291.182 254.32 291.662 253.84C292.155 253.347 292.402 252.713 292.402 251.94C292.402 250.94 292.069 250.22 291.402 249.78C290.735 249.34 289.729 249.12 288.382 249.12H287.922V247.6H288.402C289.629 247.587 290.555 247.387 291.182 247C291.809 246.6 292.122 245.987 292.122 245.16C292.122 244.453 291.889 243.887 291.422 243.46C290.969 243.033 290.315 242.82 289.462 242.82C288.635 242.82 287.969 243.033 287.462 243.46C286.955 243.887 286.655 244.46 286.562 245.18H284.782ZM307.011 256.18C305.985 256.18 305.051 255.947 304.211 255.48C303.385 255.013 302.731 254.353 302.251 253.5C301.785 252.633 301.551 251.633 301.551 250.5C301.551 249.38 301.791 248.393 302.271 247.54C302.765 246.673 303.431 246.013 304.271 245.56C305.111 245.093 306.051 244.86 307.091 244.86C308.131 244.86 309.071 245.093 309.911 245.56C310.751 246.013 311.411 246.667 311.891 247.52C312.385 248.373 312.631 249.367 312.631 250.5C312.631 251.633 312.378 252.633 311.871 253.5C311.378 254.353 310.705 255.013 309.851 255.48C308.998 255.947 308.051 256.18 307.011 256.18ZM307.011 254.58C307.665 254.58 308.278 254.427 308.851 254.12C309.425 253.813 309.885 253.353 310.231 252.74C310.591 252.127 310.771 251.38 310.771 250.5C310.771 249.62 310.598 248.873 310.251 248.26C309.905 247.647 309.451 247.193 308.891 246.9C308.331 246.593 307.725 246.44 307.071 246.44C306.405 246.44 305.791 246.593 305.231 246.9C304.685 247.193 304.245 247.647 303.911 248.26C303.578 248.873 303.411 249.62 303.411 250.5C303.411 251.393 303.571 252.147 303.891 252.76C304.225 253.373 304.665 253.833 305.211 254.14C305.758 254.433 306.358 254.58 307.011 254.58ZM321.144 256L316.844 251.16V256H315.024V241.2H316.844V249.9L321.064 245.04H323.604L318.444 250.5L323.624 256H321.144ZM327.537 246.54V253C327.537 253.533 327.651 253.913 327.877 254.14C328.104 254.353 328.497 254.46 329.057 254.46H330.397V256H328.757C327.744 256 326.984 255.767 326.477 255.3C325.971 254.833 325.717 254.067 325.717 253V246.54H324.297V245.04H325.717V242.28H327.537V245.04H330.397V246.54H327.537ZM337.383 256.18C336.356 256.18 335.423 255.947 334.583 255.48C333.756 255.013 333.103 254.353 332.623 253.5C332.156 252.633 331.923 251.633 331.923 250.5C331.923 249.38 332.163 248.393 332.643 247.54C333.136 246.673 333.803 246.013 334.643 245.56C335.483 245.093 336.423 244.86 337.463 244.86C338.503 244.86 339.443 245.093 340.283 245.56C341.123 246.013 341.783 246.667 342.263 247.52C342.756 248.373 343.003 249.367 343.003 250.5C343.003 251.633 342.749 252.633 342.243 253.5C341.749 254.353 341.076 255.013 340.223 255.48C339.369 255.947 338.423 256.18 337.383 256.18ZM337.383 254.58C338.036 254.58 338.649 254.427 339.223 254.12C339.796 253.813 340.256 253.353 340.603 252.74C340.963 252.127 341.143 251.38 341.143 250.5C341.143 249.62 340.969 248.873 340.623 248.26C340.276 247.647 339.823 247.193 339.263 246.9C338.703 246.593 338.096 246.44 337.443 246.44C336.776 246.44 336.163 246.593 335.603 246.9C335.056 247.193 334.616 247.647 334.283 248.26C333.949 248.873 333.783 249.62 333.783 250.5C333.783 251.393 333.943 252.147 334.263 252.76C334.596 253.373 335.036 253.833 335.583 254.14C336.129 254.433 336.729 254.58 337.383 254.58ZM347.215 247.08C347.589 246.427 348.135 245.893 348.855 245.48C349.575 245.067 350.395 244.86 351.315 244.86C352.302 244.86 353.189 245.093 353.975 245.56C354.762 246.027 355.382 246.687 355.835 247.54C356.289 248.38 356.515 249.36 356.515 250.48C356.515 251.587 356.289 252.573 355.835 253.44C355.382 254.307 354.755 254.98 353.955 255.46C353.169 255.94 352.289 256.18 351.315 256.18C350.369 256.18 349.535 255.973 348.815 255.56C348.109 255.147 347.575 254.62 347.215 253.98V256H345.395V241.2H347.215V247.08ZM354.655 250.48C354.655 249.653 354.489 248.933 354.155 248.32C353.822 247.707 353.369 247.24 352.795 246.92C352.235 246.6 351.615 246.44 350.935 246.44C350.269 246.44 349.649 246.607 349.075 246.94C348.515 247.26 348.062 247.733 347.715 248.36C347.382 248.973 347.215 249.687 347.215 250.5C347.215 251.327 347.382 252.053 347.715 252.68C348.062 253.293 348.515 253.767 349.075 254.1C349.649 254.42 350.269 254.58 350.935 254.58C351.615 254.58 352.235 254.42 352.795 254.1C353.369 253.767 353.822 253.293 354.155 252.68C354.489 252.053 354.655 251.32 354.655 250.48ZM368.911 250.1C368.911 250.447 368.891 250.813 368.851 251.2H360.091C360.158 252.28 360.524 253.127 361.191 253.74C361.871 254.34 362.691 254.64 363.651 254.64C364.438 254.64 365.091 254.46 365.611 254.1C366.144 253.727 366.518 253.233 366.731 252.62H368.691C368.398 253.673 367.811 254.533 366.931 255.2C366.051 255.853 364.958 256.18 363.651 256.18C362.611 256.18 361.678 255.947 360.851 255.48C360.038 255.013 359.398 254.353 358.931 253.5C358.464 252.633 358.231 251.633 358.231 250.5C358.231 249.367 358.458 248.373 358.911 247.52C359.364 246.667 359.998 246.013 360.811 245.56C361.638 245.093 362.584 244.86 363.651 244.86C364.691 244.86 365.611 245.087 366.411 245.54C367.211 245.993 367.824 246.62 368.251 247.42C368.691 248.207 368.911 249.1 368.911 250.1ZM367.031 249.72C367.031 249.027 366.878 248.433 366.571 247.94C366.264 247.433 365.844 247.053 365.311 246.8C364.791 246.533 364.211 246.4 363.571 246.4C362.651 246.4 361.864 246.693 361.211 247.28C360.571 247.867 360.204 248.68 360.111 249.72H367.031ZM373.133 246.82C373.453 246.193 373.907 245.707 374.493 245.36C375.093 245.013 375.82 244.84 376.673 244.84V246.72H376.193C374.153 246.72 373.133 247.827 373.133 250.04V256H371.313V245.04H373.133V246.82ZM383.426 250.48C383.426 249.36 383.653 248.38 384.106 247.54C384.56 246.687 385.18 246.027 385.966 245.56C386.766 245.093 387.66 244.86 388.646 244.86C389.5 244.86 390.293 245.06 391.026 245.46C391.76 245.847 392.32 246.36 392.706 247V241.2H394.546V256H392.706V253.94C392.346 254.593 391.813 255.133 391.106 255.56C390.4 255.973 389.573 256.18 388.626 256.18C387.653 256.18 386.766 255.94 385.966 255.46C385.18 254.98 384.56 254.307 384.106 253.44C383.653 252.573 383.426 251.587 383.426 250.48ZM392.706 250.5C392.706 249.673 392.54 248.953 392.206 248.34C391.873 247.727 391.42 247.26 390.846 246.94C390.286 246.607 389.666 246.44 388.986 246.44C388.306 246.44 387.686 246.6 387.126 246.92C386.566 247.24 386.12 247.707 385.786 248.32C385.453 248.933 385.286 249.653 385.286 250.48C385.286 251.32 385.453 252.053 385.786 252.68C386.12 253.293 386.566 253.767 387.126 254.1C387.686 254.42 388.306 254.58 388.986 254.58C389.666 254.58 390.286 254.42 390.846 254.1C391.42 253.767 391.873 253.293 392.206 252.68C392.54 252.053 392.706 251.327 392.706 250.5ZM407.622 250.1C407.622 250.447 407.602 250.813 407.562 251.2H398.802C398.869 252.28 399.235 253.127 399.902 253.74C400.582 254.34 401.402 254.64 402.362 254.64C403.149 254.64 403.802 254.46 404.322 254.1C404.855 253.727 405.229 253.233 405.442 252.62H407.402C407.109 253.673 406.522 254.533 405.642 255.2C404.762 255.853 403.669 256.18 402.362 256.18C401.322 256.18 400.389 255.947 399.562 255.48C398.749 255.013 398.109 254.353 397.642 253.5C397.175 252.633 396.942 251.633 396.942 250.5C396.942 249.367 397.169 248.373 397.622 247.52C398.075 246.667 398.709 246.013 399.522 245.56C400.349 245.093 401.295 244.86 402.362 244.86C403.402 244.86 404.322 245.087 405.122 245.54C405.922 245.993 406.535 246.62 406.962 247.42C407.402 248.207 407.622 249.1 407.622 250.1ZM405.742 249.72C405.742 249.027 405.589 248.433 405.282 247.94C404.975 247.433 404.555 247.053 404.022 246.8C403.502 246.533 402.922 246.4 402.282 246.4C401.362 246.4 400.575 246.693 399.922 247.28C399.282 247.867 398.915 248.68 398.822 249.72H405.742ZM57.0006 277.08C57.374 276.427 57.9206 275.893 58.6406 275.48C59.3606 275.067 60.1806 274.86 61.1006 274.86C62.0873 274.86 62.974 275.093 63.7606 275.56C64.5473 276.027 65.1673 276.687 65.6206 277.54C66.074 278.38 66.3006 279.36 66.3006 280.48C66.3006 281.587 66.074 282.573 65.6206 283.44C65.1673 284.307 64.5406 284.98 63.7406 285.46C62.954 285.94 62.074 286.18 61.1006 286.18C60.154 286.18 59.3206 285.973 58.6006 285.56C57.894 285.147 57.3606 284.62 57.0006 283.98V286H55.1806V271.2H57.0006V277.08ZM64.4406 280.48C64.4406 279.653 64.274 278.933 63.9406 278.32C63.6073 277.707 63.154 277.24 62.5806 276.92C62.0206 276.6 61.4006 276.44 60.7206 276.44C60.054 276.44 59.434 276.607 58.8606 276.94C58.3006 277.26 57.8473 277.733 57.5006 278.36C57.1673 278.973 57.0006 279.687 57.0006 280.5C57.0006 281.327 57.1673 282.053 57.5006 282.68C57.8473 283.293 58.3006 283.767 58.8606 284.1C59.434 284.42 60.054 284.58 60.7206 284.58C61.4006 284.58 62.0206 284.42 62.5806 284.1C63.154 283.767 63.6073 283.293 63.9406 282.68C64.274 282.053 64.4406 281.32 64.4406 280.48ZM78.6963 280.1C78.6963 280.447 78.6763 280.813 78.6363 281.2H69.8763C69.9429 282.28 70.3096 283.127 70.9763 283.74C71.6563 284.34 72.4763 284.64 73.4363 284.64C74.2229 284.64 74.8763 284.46 75.3963 284.1C75.9296 283.727 76.3029 283.233 76.5163 282.62H78.4763C78.1829 283.673 77.5963 284.533 76.7163 285.2C75.8363 285.853 74.7429 286.18 73.4363 286.18C72.3963 286.18 71.4629 285.947 70.6363 285.48C69.8229 285.013 69.1829 284.353 68.7163 283.5C68.2496 282.633 68.0163 281.633 68.0163 280.5C68.0163 279.367 68.2429 278.373 68.6963 277.52C69.1496 276.667 69.7829 276.013 70.5963 275.56C71.4229 275.093 72.3696 274.86 73.4363 274.86C74.4763 274.86 75.3963 275.087 76.1963 275.54C76.9963 275.993 77.6096 276.62 78.0363 277.42C78.4763 278.207 78.6963 279.1 78.6963 280.1ZM76.8163 279.72C76.8163 279.027 76.6629 278.433 76.3563 277.94C76.0496 277.433 75.6296 277.053 75.0963 276.8C74.5763 276.533 73.9963 276.4 73.3563 276.4C72.4363 276.4 71.6496 276.693 70.9963 277.28C70.3563 277.867 69.9896 278.68 69.8963 279.72H76.8163ZM82.9186 271.2V286H81.0986V271.2H82.9186ZM93.1725 276.82C93.4925 276.193 93.9458 275.707 94.5325 275.36C95.1325 275.013 95.8592 274.84 96.7125 274.84V276.72H96.2325C94.1925 276.72 93.1725 277.827 93.1725 280.04V286H91.3525V275.04H93.1725V276.82ZM99.7534 273.26C99.4068 273.26 99.1134 273.14 98.8734 272.9C98.6334 272.66 98.5134 272.367 98.5134 272.02C98.5134 271.673 98.6334 271.38 98.8734 271.14C99.1134 270.9 99.4068 270.78 99.7534 270.78C100.087 270.78 100.367 270.9 100.593 271.14C100.833 271.38 100.953 271.673 100.953 272.02C100.953 272.367 100.833 272.66 100.593 272.9C100.367 273.14 100.087 273.26 99.7534 273.26ZM100.633 275.04V286H98.8134V275.04H100.633ZM109.075 274.84C110.409 274.84 111.489 275.247 112.315 276.06C113.142 276.86 113.555 278.02 113.555 279.54V286H111.755V279.8C111.755 278.707 111.482 277.873 110.935 277.3C110.389 276.713 109.642 276.42 108.695 276.42C107.735 276.42 106.969 276.72 106.395 277.32C105.835 277.92 105.555 278.793 105.555 279.94V286H103.735V275.04H105.555V276.6C105.915 276.04 106.402 275.607 107.015 275.3C107.642 274.993 108.329 274.84 109.075 274.84ZM122.648 286L118.348 281.16V286H116.528V271.2H118.348V279.9L122.568 275.04H125.108L119.948 280.5L125.128 286H122.648ZM136.821 280.1C136.821 280.447 136.801 280.813 136.761 281.2H128.001C128.068 282.28 128.435 283.127 129.101 283.74C129.781 284.34 130.601 284.64 131.561 284.64C132.348 284.64 133.001 284.46 133.521 284.1C134.055 283.727 134.428 283.233 134.641 282.62H136.601C136.308 283.673 135.721 284.533 134.841 285.2C133.961 285.853 132.868 286.18 131.561 286.18C130.521 286.18 129.588 285.947 128.761 285.48C127.948 285.013 127.308 284.353 126.841 283.5C126.375 282.633 126.141 281.633 126.141 280.5C126.141 279.367 126.368 278.373 126.821 277.52C127.275 276.667 127.908 276.013 128.721 275.56C129.548 275.093 130.495 274.86 131.561 274.86C132.601 274.86 133.521 275.087 134.321 275.54C135.121 275.993 135.735 276.62 136.161 277.42C136.601 278.207 136.821 279.1 136.821 280.1ZM134.941 279.72C134.941 279.027 134.788 278.433 134.481 277.94C134.175 277.433 133.755 277.053 133.221 276.8C132.701 276.533 132.121 276.4 131.481 276.4C130.561 276.4 129.775 276.693 129.121 277.28C128.481 277.867 128.115 278.68 128.021 279.72H134.941ZM141.044 271.2V286H139.224V271.2H141.044ZM154.145 280.1C154.145 280.447 154.125 280.813 154.085 281.2H145.325C145.392 282.28 145.759 283.127 146.425 283.74C147.105 284.34 147.925 284.64 148.885 284.64C149.672 284.64 150.325 284.46 150.845 284.1C151.379 283.727 151.752 283.233 151.965 282.62H153.925C153.632 283.673 153.045 284.533 152.165 285.2C151.285 285.853 150.192 286.18 148.885 286.18C147.845 286.18 146.912 285.947 146.085 285.48C145.272 285.013 144.632 284.353 144.165 283.5C143.699 282.633 143.465 281.633 143.465 280.5C143.465 279.367 143.692 278.373 144.145 277.52C144.599 276.667 145.232 276.013 146.045 275.56C146.872 275.093 147.819 274.86 148.885 274.86C149.925 274.86 150.845 275.087 151.645 275.54C152.445 275.993 153.059 276.62 153.485 277.42C153.925 278.207 154.145 279.1 154.145 280.1ZM152.265 279.72C152.265 279.027 152.112 278.433 151.805 277.94C151.499 277.433 151.079 277.053 150.545 276.8C150.025 276.533 149.445 276.4 148.805 276.4C147.885 276.4 147.099 276.693 146.445 277.28C145.805 277.867 145.439 278.68 145.345 279.72H152.265ZM161.888 274.84C163.221 274.84 164.301 275.247 165.128 276.06C165.954 276.86 166.368 278.02 166.368 279.54V286H164.568V279.8C164.568 278.707 164.294 277.873 163.748 277.3C163.201 276.713 162.454 276.42 161.508 276.42C160.548 276.42 159.781 276.72 159.208 277.32C158.648 277.92 158.368 278.793 158.368 279.94V286H156.548V275.04H158.368V276.6C158.728 276.04 159.214 275.607 159.828 275.3C160.454 274.993 161.141 274.84 161.888 274.84ZM184.673 280.1C184.673 280.447 184.653 280.813 184.613 281.2H175.853C175.919 282.28 176.286 283.127 176.953 283.74C177.633 284.34 178.453 284.64 179.413 284.64C180.199 284.64 180.853 284.46 181.373 284.1C181.906 283.727 182.279 283.233 182.493 282.62H184.453C184.159 283.673 183.573 284.533 182.693 285.2C181.813 285.853 180.719 286.18 179.413 286.18C178.373 286.18 177.439 285.947 176.613 285.48C175.799 285.013 175.159 284.353 174.693 283.5C174.226 282.633 173.993 281.633 173.993 280.5C173.993 279.367 174.219 278.373 174.673 277.52C175.126 276.667 175.759 276.013 176.573 275.56C177.399 275.093 178.346 274.86 179.413 274.86C180.453 274.86 181.373 275.087 182.173 275.54C182.973 275.993 183.586 276.62 184.013 277.42C184.453 278.207 184.673 279.1 184.673 280.1ZM182.793 279.72C182.793 279.027 182.639 278.433 182.333 277.94C182.026 277.433 181.606 277.053 181.073 276.8C180.553 276.533 179.973 276.4 179.333 276.4C178.413 276.4 177.626 276.693 176.973 277.28C176.333 277.867 175.966 278.68 175.873 279.72H182.793ZM192.415 274.84C193.748 274.84 194.828 275.247 195.655 276.06C196.482 276.86 196.895 278.02 196.895 279.54V286H195.095V279.8C195.095 278.707 194.822 277.873 194.275 277.3C193.728 276.713 192.982 276.42 192.035 276.42C191.075 276.42 190.308 276.72 189.735 277.32C189.175 277.92 188.895 278.793 188.895 279.94V286H187.075V275.04H188.895V276.6C189.255 276.04 189.742 275.607 190.355 275.3C190.982 274.993 191.668 274.84 192.415 274.84ZM204.52 280.48C204.52 279.36 204.747 278.38 205.2 277.54C205.653 276.687 206.273 276.027 207.06 275.56C207.86 275.093 208.753 274.86 209.74 274.86C210.593 274.86 211.387 275.06 212.12 275.46C212.853 275.847 213.413 276.36 213.8 277V271.2H215.64V286H213.8V283.94C213.44 284.593 212.907 285.133 212.2 285.56C211.493 285.973 210.667 286.18 209.72 286.18C208.747 286.18 207.86 285.94 207.06 285.46C206.273 284.98 205.653 284.307 205.2 283.44C204.747 282.573 204.52 281.587 204.52 280.48ZM213.8 280.5C213.8 279.673 213.633 278.953 213.3 278.34C212.967 277.727 212.513 277.26 211.94 276.94C211.38 276.607 210.76 276.44 210.08 276.44C209.4 276.44 208.78 276.6 208.22 276.92C207.66 277.24 207.213 277.707 206.88 278.32C206.547 278.933 206.38 279.653 206.38 280.48C206.38 281.32 206.547 282.053 206.88 282.68C207.213 283.293 207.66 283.767 208.22 284.1C208.78 284.42 209.4 284.58 210.08 284.58C210.76 284.58 211.38 284.42 211.94 284.1C212.513 283.767 212.967 283.293 213.3 282.68C213.633 282.053 213.8 281.327 213.8 280.5ZM228.716 280.1C228.716 280.447 228.696 280.813 228.656 281.2H219.896C219.962 282.28 220.329 283.127 220.996 283.74C221.676 284.34 222.496 284.64 223.456 284.64C224.242 284.64 224.896 284.46 225.416 284.1C225.949 283.727 226.322 283.233 226.536 282.62H228.496C228.202 283.673 227.616 284.533 226.736 285.2C225.856 285.853 224.762 286.18 223.456 286.18C222.416 286.18 221.482 285.947 220.656 285.48C219.842 285.013 219.202 284.353 218.736 283.5C218.269 282.633 218.036 281.633 218.036 280.5C218.036 279.367 218.262 278.373 218.716 277.52C219.169 276.667 219.802 276.013 220.616 275.56C221.442 275.093 222.389 274.86 223.456 274.86C224.496 274.86 225.416 275.087 226.216 275.54C227.016 275.993 227.629 276.62 228.056 277.42C228.496 278.207 228.716 279.1 228.716 280.1ZM226.836 279.72C226.836 279.027 226.682 278.433 226.376 277.94C226.069 277.433 225.649 277.053 225.116 276.8C224.596 276.533 224.016 276.4 223.376 276.4C222.456 276.4 221.669 276.693 221.016 277.28C220.376 277.867 220.009 278.68 219.916 279.72H226.836ZM241.118 280.1C241.118 280.447 241.098 280.813 241.058 281.2H232.298C232.365 282.28 232.731 283.127 233.398 283.74C234.078 284.34 234.898 284.64 235.858 284.64C236.645 284.64 237.298 284.46 237.818 284.1C238.351 283.727 238.725 283.233 238.938 282.62H240.898C240.605 283.673 240.018 284.533 239.138 285.2C238.258 285.853 237.165 286.18 235.858 286.18C234.818 286.18 233.885 285.947 233.058 285.48C232.245 285.013 231.605 284.353 231.138 283.5C230.671 282.633 230.438 281.633 230.438 280.5C230.438 279.367 230.665 278.373 231.118 277.52C231.571 276.667 232.205 276.013 233.018 275.56C233.845 275.093 234.791 274.86 235.858 274.86C236.898 274.86 237.818 275.087 238.618 275.54C239.418 275.993 240.031 276.62 240.458 277.42C240.898 278.207 241.118 279.1 241.118 280.1ZM239.238 279.72C239.238 279.027 239.085 278.433 238.778 277.94C238.471 277.433 238.051 277.053 237.518 276.8C236.998 276.533 236.418 276.4 235.778 276.4C234.858 276.4 234.071 276.693 233.418 277.28C232.778 277.867 232.411 278.68 232.318 279.72H239.238ZM245.34 271.2V286H243.52V271.2H245.34ZM254.754 273.26C254.408 273.26 254.114 273.14 253.874 272.9C253.648 272.66 253.534 272.367 253.534 272.02C253.534 271.673 253.648 271.38 253.874 271.14C254.114 270.9 254.408 270.78 254.754 270.78C255.101 270.78 255.388 270.9 255.614 271.14C255.854 271.38 255.974 271.673 255.974 272.02C255.974 272.367 255.854 272.66 255.614 272.9C255.388 273.14 255.101 273.26 254.754 273.26ZM255.654 288.38C255.654 289.353 255.408 290.067 254.914 290.52C254.421 290.973 253.701 291.2 252.754 291.2H251.694V289.66H252.454C252.961 289.66 253.314 289.56 253.514 289.36C253.728 289.16 253.834 288.82 253.834 288.34V275.04H255.654V288.38ZM268.735 280.1C268.735 280.447 268.715 280.813 268.675 281.2H259.915C259.982 282.28 260.349 283.127 261.015 283.74C261.695 284.34 262.515 284.64 263.475 284.64C264.262 284.64 264.915 284.46 265.435 284.1C265.969 283.727 266.342 283.233 266.555 282.62H268.515C268.222 283.673 267.635 284.533 266.755 285.2C265.875 285.853 264.782 286.18 263.475 286.18C262.435 286.18 261.502 285.947 260.675 285.48C259.862 285.013 259.222 284.353 258.755 283.5C258.289 282.633 258.055 281.633 258.055 280.5C258.055 279.367 258.282 278.373 258.735 277.52C259.189 276.667 259.822 276.013 260.635 275.56C261.462 275.093 262.409 274.86 263.475 274.86C264.515 274.86 265.435 275.087 266.235 275.54C267.035 275.993 267.649 276.62 268.075 277.42C268.515 278.207 268.735 279.1 268.735 280.1ZM266.855 279.72C266.855 279.027 266.702 278.433 266.395 277.94C266.089 277.433 265.669 277.053 265.135 276.8C264.615 276.533 264.035 276.4 263.395 276.4C262.475 276.4 261.689 276.693 261.035 277.28C260.395 277.867 260.029 278.68 259.935 279.72H266.855ZM275.79 280.48C275.79 279.36 276.016 278.38 276.47 277.54C276.923 276.687 277.543 276.027 278.33 275.56C279.13 275.093 280.016 274.86 280.99 274.86C281.95 274.86 282.783 275.067 283.49 275.48C284.196 275.893 284.723 276.413 285.07 277.04V275.04H286.91V286H285.07V283.96C284.71 284.6 284.17 285.133 283.45 285.56C282.743 285.973 281.916 286.18 280.97 286.18C279.996 286.18 279.116 285.94 278.33 285.46C277.543 284.98 276.923 284.307 276.47 283.44C276.016 282.573 275.79 281.587 275.79 280.48ZM285.07 280.5C285.07 279.673 284.903 278.953 284.57 278.34C284.236 277.727 283.783 277.26 283.21 276.94C282.65 276.607 282.03 276.44 281.35 276.44C280.67 276.44 280.05 276.6 279.49 276.92C278.93 277.24 278.483 277.707 278.15 278.32C277.816 278.933 277.65 279.653 277.65 280.48C277.65 281.32 277.816 282.053 278.15 282.68C278.483 283.293 278.93 283.767 279.49 284.1C280.05 284.42 280.67 284.58 281.35 284.58C282.03 284.58 282.65 284.42 283.21 284.1C283.783 283.767 284.236 283.293 284.57 282.68C284.903 282.053 285.07 281.327 285.07 280.5ZM289.305 280.5C289.305 279.367 289.532 278.38 289.985 277.54C290.439 276.687 291.065 276.027 291.865 275.56C292.679 275.093 293.605 274.86 294.645 274.86C295.992 274.86 297.099 275.187 297.965 275.84C298.845 276.493 299.425 277.4 299.705 278.56H297.745C297.559 277.893 297.192 277.367 296.645 276.98C296.112 276.593 295.445 276.4 294.645 276.4C293.605 276.4 292.765 276.76 292.125 277.48C291.485 278.187 291.165 279.193 291.165 280.5C291.165 281.82 291.485 282.84 292.125 283.56C292.765 284.28 293.605 284.64 294.645 284.64C295.445 284.64 296.112 284.453 296.645 284.08C297.179 283.707 297.545 283.173 297.745 282.48H299.705C299.412 283.6 298.825 284.5 297.945 285.18C297.065 285.847 295.965 286.18 294.645 286.18C293.605 286.18 292.679 285.947 291.865 285.48C291.065 285.013 290.439 284.353 289.985 283.5C289.532 282.647 289.305 281.647 289.305 280.5ZM304.354 276.54V283C304.354 283.533 304.467 283.913 304.694 284.14C304.92 284.353 305.314 284.46 305.874 284.46H307.214V286H305.574C304.56 286 303.8 285.767 303.294 285.3C302.787 284.833 302.534 284.067 302.534 283V276.54H301.114V275.04H302.534V272.28H304.354V275.04H307.214V276.54H304.354ZM310.359 273.26C310.012 273.26 309.719 273.14 309.479 272.9C309.239 272.66 309.119 272.367 309.119 272.02C309.119 271.673 309.239 271.38 309.479 271.14C309.719 270.9 310.012 270.78 310.359 270.78C310.692 270.78 310.972 270.9 311.199 271.14C311.439 271.38 311.559 271.673 311.559 272.02C311.559 272.367 311.439 272.66 311.199 272.9C310.972 273.14 310.692 273.26 310.359 273.26ZM311.239 275.04V286H309.419V275.04H311.239ZM324.341 280.1C324.341 280.447 324.321 280.813 324.281 281.2H315.521C315.587 282.28 315.954 283.127 316.621 283.74C317.301 284.34 318.121 284.64 319.081 284.64C319.867 284.64 320.521 284.46 321.041 284.1C321.574 283.727 321.947 283.233 322.161 282.62H324.121C323.827 283.673 323.241 284.533 322.361 285.2C321.481 285.853 320.387 286.18 319.081 286.18C318.041 286.18 317.107 285.947 316.281 285.48C315.467 285.013 314.827 284.353 314.361 283.5C313.894 282.633 313.661 281.633 313.661 280.5C313.661 279.367 313.887 278.373 314.341 277.52C314.794 276.667 315.427 276.013 316.241 275.56C317.067 275.093 318.014 274.86 319.081 274.86C320.121 274.86 321.041 275.087 321.841 275.54C322.641 275.993 323.254 276.62 323.681 277.42C324.121 278.207 324.341 279.1 324.341 280.1ZM322.461 279.72C322.461 279.027 322.307 278.433 322.001 277.94C321.694 277.433 321.274 277.053 320.741 276.8C320.221 276.533 319.641 276.4 319.001 276.4C318.081 276.4 317.294 276.693 316.641 277.28C316.001 277.867 315.634 278.68 315.541 279.72H322.461ZM336.855 286.18C335.828 286.18 334.895 285.947 334.055 285.48C333.228 285.013 332.575 284.353 332.095 283.5C331.628 282.633 331.395 281.633 331.395 280.5C331.395 279.38 331.635 278.393 332.115 277.54C332.608 276.673 333.275 276.013 334.115 275.56C334.955 275.093 335.895 274.86 336.935 274.86C337.975 274.86 338.915 275.093 339.755 275.56C340.595 276.013 341.255 276.667 341.735 277.52C342.228 278.373 342.475 279.367 342.475 280.5C342.475 281.633 342.222 282.633 341.715 283.5C341.222 284.353 340.548 285.013 339.695 285.48C338.842 285.947 337.895 286.18 336.855 286.18ZM336.855 284.58C337.508 284.58 338.122 284.427 338.695 284.12C339.268 283.813 339.728 283.353 340.075 282.74C340.435 282.127 340.615 281.38 340.615 280.5C340.615 279.62 340.442 278.873 340.095 278.26C339.748 277.647 339.295 277.193 338.735 276.9C338.175 276.593 337.568 276.44 336.915 276.44C336.248 276.44 335.635 276.593 335.075 276.9C334.528 277.193 334.088 277.647 333.755 278.26C333.422 278.873 333.255 279.62 333.255 280.5C333.255 281.393 333.415 282.147 333.735 282.76C334.068 283.373 334.508 283.833 335.055 284.14C335.602 284.433 336.202 284.58 336.855 284.58ZM350.208 274.84C351.541 274.84 352.621 275.247 353.448 276.06C354.275 276.86 354.688 278.02 354.688 279.54V286H352.888V279.8C352.888 278.707 352.615 277.873 352.068 277.3C351.521 276.713 350.775 276.42 349.828 276.42C348.868 276.42 348.101 276.72 347.528 277.32C346.968 277.92 346.688 278.793 346.688 279.94V286H344.868V275.04H346.688V276.6C347.048 276.04 347.535 275.607 348.148 275.3C348.775 274.993 349.461 274.84 350.208 274.84ZM359.481 271.2V286H357.661V271.2H359.481ZM363.523 273.26C363.176 273.26 362.883 273.14 362.643 272.9C362.403 272.66 362.283 272.367 362.283 272.02C362.283 271.673 362.403 271.38 362.643 271.14C362.883 270.9 363.176 270.78 363.523 270.78C363.856 270.78 364.136 270.9 364.363 271.14C364.603 271.38 364.723 271.673 364.723 272.02C364.723 272.367 364.603 272.66 364.363 272.9C364.136 273.14 363.856 273.26 363.523 273.26ZM364.403 275.04V286H362.583V275.04H364.403ZM372.845 274.84C374.178 274.84 375.258 275.247 376.085 276.06C376.912 276.86 377.325 278.02 377.325 279.54V286H375.525V279.8C375.525 278.707 375.252 277.873 374.705 277.3C374.158 276.713 373.412 276.42 372.465 276.42C371.505 276.42 370.738 276.72 370.165 277.32C369.605 277.92 369.325 278.793 369.325 279.94V286H367.505V275.04H369.325V276.6C369.685 276.04 370.172 275.607 370.785 275.3C371.412 274.993 372.098 274.84 372.845 274.84ZM390.298 280.1C390.298 280.447 390.278 280.813 390.238 281.2H381.478C381.544 282.28 381.911 283.127 382.578 283.74C383.258 284.34 384.078 284.64 385.038 284.64C385.824 284.64 386.478 284.46 386.998 284.1C387.531 283.727 387.904 283.233 388.118 282.62H390.078C389.784 283.673 389.198 284.533 388.318 285.2C387.438 285.853 386.344 286.18 385.038 286.18C383.998 286.18 383.064 285.947 382.238 285.48C381.424 285.013 380.784 284.353 380.318 283.5C379.851 282.633 379.618 281.633 379.618 280.5C379.618 279.367 379.844 278.373 380.298 277.52C380.751 276.667 381.384 276.013 382.198 275.56C383.024 275.093 383.971 274.86 385.038 274.86C386.078 274.86 386.998 275.087 387.798 275.54C388.598 275.993 389.211 276.62 389.638 277.42C390.078 278.207 390.298 279.1 390.298 280.1ZM388.418 279.72C388.418 279.027 388.264 278.433 387.958 277.94C387.651 277.433 387.231 277.053 386.698 276.8C386.178 276.533 385.598 276.4 384.958 276.4C384.038 276.4 383.251 276.693 382.598 277.28C381.958 277.867 381.591 278.68 381.498 279.72H388.418ZM393.28 286.12C392.933 286.12 392.64 286 392.4 285.76C392.16 285.52 392.04 285.227 392.04 284.88C392.04 284.533 392.16 284.24 392.4 284C392.64 283.76 392.933 283.64 393.28 283.64C393.613 283.64 393.893 283.76 394.12 284C394.36 284.24 394.48 284.533 394.48 284.88C394.48 285.227 394.36 285.52 394.12 285.76C393.893 286 393.613 286.12 393.28 286.12Z" fill="black"/>
</g>
<defs>
<clipPath id="clip0_317_5683">
<rect width="462" height="349" rx="20" fill="white"/>
</clipPath>
</defs>
</svg>
