<svg width="462" height="409" viewBox="0 0 462 409" fill="none" xmlns="http://www.w3.org/2000/svg">
<g clip-path="url(#clip0_317_5671)">
<path d="M0.000110063 162.95C4.96605e-05 138.281 20.2767 118.433 44.9393 118.959L435.764 127.304C446.348 127.53 454.706 136.363 454.347 146.944L447.028 362.465C446.707 371.918 439.125 379.51 429.673 379.843L25.882 394.087C11.7381 394.586 0.000649498 383.255 0.000614845 369.103L0.000110063 162.95Z" fill="#CAFFBF"/>
<path d="M164.214 164.92L156.894 193H148.614L144.134 174.52L139.494 193H131.214L124.094 164.92H131.414L135.454 185.36L140.454 164.92H147.974L152.774 185.36L156.854 164.92H164.214ZM166.284 181.8C166.284 179.507 166.711 177.493 167.564 175.76C168.444 174.027 169.631 172.693 171.124 171.76C172.617 170.827 174.284 170.36 176.124 170.36C177.697 170.36 179.071 170.68 180.244 171.32C181.444 171.96 182.364 172.8 183.004 173.84V170.68H189.844V193H183.004V189.84C182.337 190.88 181.404 191.72 180.204 192.36C179.031 193 177.657 193.32 176.084 193.32C174.271 193.32 172.617 192.853 171.124 191.92C169.631 190.96 168.444 189.613 167.564 187.88C166.711 186.12 166.284 184.093 166.284 181.8ZM183.004 181.84C183.004 180.133 182.524 178.787 181.564 177.8C180.631 176.813 179.484 176.32 178.124 176.32C176.764 176.32 175.604 176.813 174.644 177.8C173.711 178.76 173.244 180.093 173.244 181.8C173.244 183.507 173.711 184.867 174.644 185.88C175.604 186.867 176.764 187.36 178.124 187.36C179.484 187.36 180.631 186.867 181.564 185.88C182.524 184.893 183.004 183.547 183.004 181.84ZM193.433 181.8C193.433 179.507 193.859 177.493 194.713 175.76C195.593 174.027 196.779 172.693 198.273 171.76C199.766 170.827 201.433 170.36 203.273 170.36C204.846 170.36 206.219 170.68 207.393 171.32C208.593 171.96 209.513 172.8 210.153 173.84V170.68H216.993V193H210.153V189.84C209.486 190.88 208.553 191.72 207.353 192.36C206.179 193 204.806 193.32 203.233 193.32C201.419 193.32 199.766 192.853 198.273 191.92C196.779 190.96 195.593 189.613 194.713 187.88C193.859 186.12 193.433 184.093 193.433 181.8ZM210.153 181.84C210.153 180.133 209.673 178.787 208.713 177.8C207.779 176.813 206.633 176.32 205.273 176.32C203.913 176.32 202.753 176.813 201.793 177.8C200.859 178.76 200.393 180.093 200.393 181.8C200.393 183.507 200.859 184.867 201.793 185.88C202.753 186.867 203.913 187.36 205.273 187.36C206.633 187.36 207.779 186.867 208.713 185.88C209.673 184.893 210.153 183.547 210.153 181.84ZM228.781 174.4C229.581 173.173 230.581 172.213 231.781 171.52C232.981 170.8 234.314 170.44 235.781 170.44V177.68H233.901C232.194 177.68 230.914 178.053 230.061 178.8C229.208 179.52 228.781 180.8 228.781 182.64V193H221.941V170.68H228.781V174.4ZM249.21 193.32C247.024 193.32 245.05 192.853 243.29 191.92C241.557 190.987 240.184 189.653 239.17 187.92C238.184 186.187 237.69 184.16 237.69 181.84C237.69 179.547 238.197 177.533 239.21 175.8C240.224 174.04 241.61 172.693 243.37 171.76C245.13 170.827 247.104 170.36 249.29 170.36C251.477 170.36 253.45 170.827 255.21 171.76C256.97 172.693 258.357 174.04 259.37 175.8C260.384 177.533 260.89 179.547 260.89 181.84C260.89 184.133 260.37 186.16 259.33 187.92C258.317 189.653 256.917 190.987 255.13 191.92C253.37 192.853 251.397 193.32 249.21 193.32ZM249.21 187.4C250.517 187.4 251.624 186.92 252.53 185.96C253.464 185 253.93 183.627 253.93 181.84C253.93 180.053 253.477 178.68 252.57 177.72C251.69 176.76 250.597 176.28 249.29 176.28C247.957 176.28 246.85 176.76 245.97 177.72C245.09 178.653 244.65 180.027 244.65 181.84C244.65 183.627 245.077 185 245.93 185.96C246.81 186.92 247.904 187.4 249.21 187.4ZM292.999 170.44C295.772 170.44 297.972 171.28 299.599 172.96C301.252 174.64 302.079 176.973 302.079 179.96V193H295.279V180.88C295.279 179.44 294.892 178.333 294.119 177.56C293.372 176.76 292.332 176.36 290.999 176.36C289.666 176.36 288.612 176.76 287.839 177.56C287.092 178.333 286.719 179.44 286.719 180.88V193H279.919V180.88C279.919 179.44 279.532 178.333 278.759 177.56C278.012 176.76 276.972 176.36 275.639 176.36C274.306 176.36 273.252 176.76 272.479 177.56C271.732 178.333 271.359 179.44 271.359 180.88V193H264.519V170.68H271.359V173.48C272.052 172.547 272.959 171.813 274.079 171.28C275.199 170.72 276.466 170.44 277.879 170.44C279.559 170.44 281.052 170.8 282.359 171.52C283.692 172.24 284.732 173.267 285.479 174.6C286.252 173.373 287.306 172.373 288.639 171.6C289.972 170.827 291.426 170.44 292.999 170.44ZM315.063 163.36C317.916 163.36 320.196 164.107 321.903 165.6C323.636 167.093 324.503 169.2 324.503 171.92C324.503 174.427 323.676 176.387 322.023 177.8C320.396 179.187 318.236 179.893 315.543 179.92L315.343 182.92H309.343L309.143 175.48H311.543C313.596 175.48 315.156 175.227 316.223 174.72C317.316 174.213 317.863 173.293 317.863 171.96C317.863 171.027 317.609 170.293 317.103 169.76C316.596 169.227 315.889 168.96 314.983 168.96C314.023 168.96 313.276 169.24 312.743 169.8C312.209 170.333 311.943 171.067 311.943 172H305.503C305.449 170.373 305.783 168.907 306.503 167.6C307.249 166.293 308.343 165.267 309.783 164.52C311.249 163.747 313.009 163.36 315.063 163.36ZM312.423 193.32C311.223 193.32 310.236 192.973 309.463 192.28C308.716 191.56 308.343 190.68 308.343 189.64C308.343 188.573 308.716 187.68 309.463 186.96C310.236 186.24 311.223 185.88 312.423 185.88C313.596 185.88 314.556 186.24 315.303 186.96C316.076 187.68 316.463 188.573 316.463 189.64C316.463 190.68 316.076 191.56 315.303 192.28C314.556 192.973 313.596 193.32 312.423 193.32Z" fill="black"/>
<path d="M81.38 238.06C82.9 238.06 84.2133 238.347 85.32 238.92C86.44 239.48 87.2933 240.287 87.88 241.34C88.48 242.393 88.78 243.633 88.78 245.06C88.78 246.487 88.48 247.727 87.88 248.78C87.2933 249.82 86.44 250.62 85.32 251.18C84.2133 251.727 82.9 252 81.38 252H77.04V238.06H81.38ZM81.38 250.5C83.18 250.5 84.5533 250.027 85.5 249.08C86.4467 248.12 86.92 246.78 86.92 245.06C86.92 243.327 86.44 241.973 85.48 241C84.5333 240.027 83.1667 239.54 81.38 239.54H78.86V250.5H81.38ZM101.181 246.1C101.181 246.447 101.161 246.813 101.121 247.2H92.3606C92.4273 248.28 92.794 249.127 93.4606 249.74C94.1406 250.34 94.9606 250.64 95.9206 250.64C96.7073 250.64 97.3606 250.46 97.8806 250.1C98.414 249.727 98.7873 249.233 99.0006 248.62H100.961C100.667 249.673 100.081 250.533 99.2006 251.2C98.3206 251.853 97.2273 252.18 95.9206 252.18C94.8806 252.18 93.9473 251.947 93.1206 251.48C92.3073 251.013 91.6673 250.353 91.2006 249.5C90.734 248.633 90.5006 247.633 90.5006 246.5C90.5006 245.367 90.7273 244.373 91.1806 243.52C91.634 242.667 92.2673 242.013 93.0806 241.56C93.9073 241.093 94.854 240.86 95.9206 240.86C96.9606 240.86 97.8806 241.087 98.6806 241.54C99.4806 241.993 100.094 242.62 100.521 243.42C100.961 244.207 101.181 245.1 101.181 246.1ZM99.3006 245.72C99.3006 245.027 99.1473 244.433 98.8406 243.94C98.534 243.433 98.114 243.053 97.5806 242.8C97.0606 242.533 96.4806 242.4 95.8406 242.4C94.9206 242.4 94.134 242.693 93.4806 243.28C92.8406 243.867 92.474 244.68 92.3806 245.72H99.3006ZM110.735 243.08C111.108 242.427 111.655 241.893 112.375 241.48C113.095 241.067 113.915 240.86 114.835 240.86C115.822 240.86 116.708 241.093 117.495 241.56C118.282 242.027 118.902 242.687 119.355 243.54C119.808 244.38 120.035 245.36 120.035 246.48C120.035 247.587 119.808 248.573 119.355 249.44C118.902 250.307 118.275 250.98 117.475 251.46C116.688 251.94 115.808 252.18 114.835 252.18C113.888 252.18 113.055 251.973 112.335 251.56C111.628 251.147 111.095 250.62 110.735 249.98V252H108.915V237.2H110.735V243.08ZM118.175 246.48C118.175 245.653 118.008 244.933 117.675 244.32C117.342 243.707 116.888 243.24 116.315 242.92C115.755 242.6 115.135 242.44 114.455 242.44C113.788 242.44 113.168 242.607 112.595 242.94C112.035 243.26 111.582 243.733 111.235 244.36C110.902 244.973 110.735 245.687 110.735 246.5C110.735 247.327 110.902 248.053 111.235 248.68C111.582 249.293 112.035 249.767 112.595 250.1C113.168 250.42 113.788 250.58 114.455 250.58C115.135 250.58 115.755 250.42 116.315 250.1C116.888 249.767 117.342 249.293 117.675 248.68C118.008 248.053 118.175 247.32 118.175 246.48ZM132.431 246.1C132.431 246.447 132.411 246.813 132.371 247.2H123.611C123.677 248.28 124.044 249.127 124.711 249.74C125.391 250.34 126.211 250.64 127.171 250.64C127.957 250.64 128.611 250.46 129.131 250.1C129.664 249.727 130.037 249.233 130.251 248.62H132.211C131.917 249.673 131.331 250.533 130.451 251.2C129.571 251.853 128.477 252.18 127.171 252.18C126.131 252.18 125.197 251.947 124.371 251.48C123.557 251.013 122.917 250.353 122.451 249.5C121.984 248.633 121.751 247.633 121.751 246.5C121.751 245.367 121.977 244.373 122.431 243.52C122.884 242.667 123.517 242.013 124.331 241.56C125.157 241.093 126.104 240.86 127.171 240.86C128.211 240.86 129.131 241.087 129.931 241.54C130.731 241.993 131.344 242.62 131.771 243.42C132.211 244.207 132.431 245.1 132.431 246.1ZM130.551 245.72C130.551 245.027 130.397 244.433 130.091 243.94C129.784 243.433 129.364 243.053 128.831 242.8C128.311 242.533 127.731 242.4 127.091 242.4C126.171 242.4 125.384 242.693 124.731 243.28C124.091 243.867 123.724 244.68 123.631 245.72H130.551ZM136.653 237.2V252H134.833V237.2H136.653ZM147.307 242.54V249C147.307 249.533 147.42 249.913 147.647 250.14C147.874 250.353 148.267 250.46 148.827 250.46H150.167V252H148.527C147.514 252 146.754 251.767 146.247 251.3C145.74 250.833 145.487 250.067 145.487 249V242.54H144.067V241.04H145.487V238.28H147.307V241.04H150.167V242.54H147.307ZM154.192 242.82C154.512 242.193 154.965 241.707 155.552 241.36C156.152 241.013 156.879 240.84 157.732 240.84V242.72H157.252C155.212 242.72 154.192 243.827 154.192 246.04V252H152.372V241.04H154.192V242.82ZM169.833 246.1C169.833 246.447 169.813 246.813 169.773 247.2H161.013C161.08 248.28 161.446 249.127 162.113 249.74C162.793 250.34 163.613 250.64 164.573 250.64C165.36 250.64 166.013 250.46 166.533 250.1C167.066 249.727 167.44 249.233 167.653 248.62H169.613C169.32 249.673 168.733 250.533 167.853 251.2C166.973 251.853 165.88 252.18 164.573 252.18C163.533 252.18 162.6 251.947 161.773 251.48C160.96 251.013 160.32 250.353 159.853 249.5C159.386 248.633 159.153 247.633 159.153 246.5C159.153 245.367 159.38 244.373 159.833 243.52C160.286 242.667 160.92 242.013 161.733 241.56C162.56 241.093 163.506 240.86 164.573 240.86C165.613 240.86 166.533 241.087 167.333 241.54C168.133 241.993 168.746 242.62 169.173 243.42C169.613 244.207 169.833 245.1 169.833 246.1ZM167.953 245.72C167.953 245.027 167.8 244.433 167.493 243.94C167.186 243.433 166.766 243.053 166.233 242.8C165.713 242.533 165.133 242.4 164.493 242.4C163.573 242.4 162.786 242.693 162.133 243.28C161.493 243.867 161.126 244.68 161.033 245.72H167.953ZM178.355 252L174.055 247.16V252H172.235V237.2H174.055V245.9L178.275 241.04H180.815L175.655 246.5L180.835 252H178.355ZM184.748 242.54V249C184.748 249.533 184.862 249.913 185.088 250.14C185.315 250.353 185.708 250.46 186.268 250.46H187.608V252H185.968C184.955 252 184.195 251.767 183.688 251.3C183.182 250.833 182.928 250.067 182.928 249V242.54H181.508V241.04H182.928V238.28H184.748V241.04H187.608V242.54H184.748ZM194.465 246.48C194.465 245.36 194.692 244.38 195.145 243.54C195.599 242.687 196.219 242.027 197.005 241.56C197.805 241.093 198.692 240.86 199.665 240.86C200.625 240.86 201.459 241.067 202.165 241.48C202.872 241.893 203.399 242.413 203.745 243.04V241.04H205.585V252H203.745V249.96C203.385 250.6 202.845 251.133 202.125 251.56C201.419 251.973 200.592 252.18 199.645 252.18C198.672 252.18 197.792 251.94 197.005 251.46C196.219 250.98 195.599 250.307 195.145 249.44C194.692 248.573 194.465 247.587 194.465 246.48ZM203.745 246.5C203.745 245.673 203.579 244.953 203.245 244.34C202.912 243.727 202.459 243.26 201.885 242.94C201.325 242.607 200.705 242.44 200.025 242.44C199.345 242.44 198.725 242.6 198.165 242.92C197.605 243.24 197.159 243.707 196.825 244.32C196.492 244.933 196.325 245.653 196.325 246.48C196.325 247.32 196.492 248.053 196.825 248.68C197.159 249.293 197.605 249.767 198.165 250.1C198.725 250.42 199.345 250.58 200.025 250.58C200.705 250.58 201.325 250.42 201.885 250.1C202.459 249.767 202.912 249.293 203.245 248.68C203.579 248.053 203.745 247.327 203.745 246.5ZM207.981 246.48C207.981 245.36 208.208 244.38 208.661 243.54C209.114 242.687 209.734 242.027 210.521 241.56C211.321 241.093 212.208 240.86 213.181 240.86C214.141 240.86 214.974 241.067 215.681 241.48C216.388 241.893 216.914 242.413 217.261 243.04V241.04H219.101V252H217.261V249.96C216.901 250.6 216.361 251.133 215.641 251.56C214.934 251.973 214.108 252.18 213.161 252.18C212.188 252.18 211.308 251.94 210.521 251.46C209.734 250.98 209.114 250.307 208.661 249.44C208.208 248.573 207.981 247.587 207.981 246.48ZM217.261 246.5C217.261 245.673 217.094 244.953 216.761 244.34C216.428 243.727 215.974 243.26 215.401 242.94C214.841 242.607 214.221 242.44 213.541 242.44C212.861 242.44 212.241 242.6 211.681 242.92C211.121 243.24 210.674 243.707 210.341 244.32C210.008 244.933 209.841 245.653 209.841 246.48C209.841 247.32 210.008 248.053 210.341 248.68C210.674 249.293 211.121 249.767 211.681 250.1C212.241 250.42 212.861 250.58 213.541 250.58C214.221 250.58 214.841 250.42 215.401 250.1C215.974 249.767 216.428 249.293 216.761 248.68C217.094 248.053 217.261 247.327 217.261 246.5ZM227.517 240.84C228.85 240.84 229.93 241.247 230.757 242.06C231.583 242.86 231.997 244.02 231.997 245.54V252H230.197V245.8C230.197 244.707 229.923 243.873 229.377 243.3C228.83 242.713 228.083 242.42 227.137 242.42C226.177 242.42 225.41 242.72 224.837 243.32C224.277 243.92 223.997 244.793 223.997 245.94V252H222.177V241.04H223.997V242.6C224.357 242.04 224.843 241.607 225.457 241.3C226.083 240.993 226.77 240.84 227.517 240.84ZM234.29 246.48C234.29 245.36 234.516 244.38 234.97 243.54C235.423 242.687 236.043 242.027 236.83 241.56C237.63 241.093 238.523 240.86 239.51 240.86C240.363 240.86 241.156 241.06 241.89 241.46C242.623 241.847 243.183 242.36 243.57 243V237.2H245.41V252H243.57V249.94C243.21 250.593 242.676 251.133 241.97 251.56C241.263 251.973 240.436 252.18 239.49 252.18C238.516 252.18 237.63 251.94 236.83 251.46C236.043 250.98 235.423 250.307 234.97 249.44C234.516 248.573 234.29 247.587 234.29 246.48ZM243.57 246.5C243.57 245.673 243.403 244.953 243.07 244.34C242.736 243.727 242.283 243.26 241.71 242.94C241.15 242.607 240.53 242.44 239.85 242.44C239.17 242.44 238.55 242.6 237.99 242.92C237.43 243.24 236.983 243.707 236.65 244.32C236.316 244.933 236.15 245.653 236.15 246.48C236.15 247.32 236.316 248.053 236.65 248.68C236.983 249.293 237.43 249.767 237.99 250.1C238.55 250.42 239.17 250.58 239.85 250.58C240.53 250.58 241.15 250.42 241.71 250.1C242.283 249.767 242.736 249.293 243.07 248.68C243.403 248.053 243.57 247.327 243.57 246.5ZM247.805 246.48C247.805 245.36 248.032 244.38 248.485 243.54C248.939 242.687 249.559 242.027 250.345 241.56C251.145 241.093 252.032 240.86 253.005 240.86C253.965 240.86 254.799 241.067 255.505 241.48C256.212 241.893 256.739 242.413 257.085 243.04V241.04H258.925V252H257.085V249.96C256.725 250.6 256.185 251.133 255.465 251.56C254.759 251.973 253.932 252.18 252.985 252.18C252.012 252.18 251.132 251.94 250.345 251.46C249.559 250.98 248.939 250.307 248.485 249.44C248.032 248.573 247.805 247.587 247.805 246.48ZM257.085 246.5C257.085 245.673 256.919 244.953 256.585 244.34C256.252 243.727 255.799 243.26 255.225 242.94C254.665 242.607 254.045 242.44 253.365 242.44C252.685 242.44 252.065 242.6 251.505 242.92C250.945 243.24 250.499 243.707 250.165 244.32C249.832 244.933 249.665 245.653 249.665 246.48C249.665 247.32 249.832 248.053 250.165 248.68C250.499 249.293 250.945 249.767 251.505 250.1C252.065 250.42 252.685 250.58 253.365 250.58C254.045 250.58 254.665 250.42 255.225 250.1C255.799 249.767 256.252 249.293 256.585 248.68C256.919 248.053 257.085 247.327 257.085 246.5ZM261.321 246.5C261.321 245.367 261.548 244.38 262.001 243.54C262.454 242.687 263.081 242.027 263.881 241.56C264.694 241.093 265.621 240.86 266.661 240.86C268.008 240.86 269.114 241.187 269.981 241.84C270.861 242.493 271.441 243.4 271.721 244.56H269.761C269.574 243.893 269.208 243.367 268.661 242.98C268.128 242.593 267.461 242.4 266.661 242.4C265.621 242.4 264.781 242.76 264.141 243.48C263.501 244.187 263.181 245.193 263.181 246.5C263.181 247.82 263.501 248.84 264.141 249.56C264.781 250.28 265.621 250.64 266.661 250.64C267.461 250.64 268.128 250.453 268.661 250.08C269.194 249.707 269.561 249.173 269.761 248.48H271.721C271.428 249.6 270.841 250.5 269.961 251.18C269.081 251.847 267.981 252.18 266.661 252.18C265.621 252.18 264.694 251.947 263.881 251.48C263.081 251.013 262.454 250.353 262.001 249.5C261.548 248.647 261.321 247.647 261.321 246.5ZM279.589 240.84C280.416 240.84 281.163 241.02 281.829 241.38C282.496 241.727 283.016 242.253 283.389 242.96C283.776 243.667 283.969 244.527 283.969 245.54V252H282.169V245.8C282.169 244.707 281.896 243.873 281.349 243.3C280.803 242.713 280.056 242.42 279.109 242.42C278.149 242.42 277.383 242.72 276.809 243.32C276.249 243.92 275.969 244.793 275.969 245.94V252H274.149V237.2H275.969V242.6C276.329 242.04 276.823 241.607 277.449 241.3C278.089 240.993 278.803 240.84 279.589 240.84ZM289.162 242.54V249C289.162 249.533 289.276 249.913 289.502 250.14C289.729 250.353 290.122 250.46 290.682 250.46H292.022V252H290.382C289.369 252 288.609 251.767 288.102 251.3C287.596 250.833 287.342 250.067 287.342 249V242.54H285.922V241.04H287.342V238.28H289.162V241.04H292.022V242.54H289.162ZM294.808 252.12C294.461 252.12 294.168 252 293.928 251.76C293.688 251.52 293.568 251.227 293.568 250.88C293.568 250.533 293.688 250.24 293.928 250C294.168 249.76 294.461 249.64 294.808 249.64C295.141 249.64 295.421 249.76 295.648 250C295.888 250.24 296.008 250.533 296.008 250.88C296.008 251.227 295.888 251.52 295.648 251.76C295.421 252 295.141 252.12 294.808 252.12ZM294.808 243.56C294.461 243.56 294.168 243.44 293.928 243.2C293.688 242.96 293.568 242.667 293.568 242.32C293.568 241.973 293.688 241.68 293.928 241.44C294.168 241.2 294.461 241.08 294.808 241.08C295.141 241.08 295.421 241.2 295.648 241.44C295.888 241.68 296.008 241.973 296.008 242.32C296.008 242.667 295.888 242.96 295.648 243.2C295.421 243.44 295.141 243.56 294.808 243.56ZM305.177 250.5H310.557V252H303.097V250.5L308.417 242.52H303.137V241.04H310.517V242.52L305.177 250.5ZM322.919 246.1C322.919 246.447 322.899 246.813 322.859 247.2H314.099C314.166 248.28 314.532 249.127 315.199 249.74C315.879 250.34 316.699 250.64 317.659 250.64C318.446 250.64 319.099 250.46 319.619 250.1C320.152 249.727 320.526 249.233 320.739 248.62H322.699C322.406 249.673 321.819 250.533 320.939 251.2C320.059 251.853 318.966 252.18 317.659 252.18C316.619 252.18 315.686 251.947 314.859 251.48C314.046 251.013 313.406 250.353 312.939 249.5C312.472 248.633 312.239 247.633 312.239 246.5C312.239 245.367 312.466 244.373 312.919 243.52C313.372 242.667 314.006 242.013 314.819 241.56C315.646 241.093 316.592 240.86 317.659 240.86C318.699 240.86 319.619 241.087 320.419 241.54C321.219 241.993 321.832 242.62 322.259 243.42C322.699 244.207 322.919 245.1 322.919 246.1ZM321.039 245.72C321.039 245.027 320.886 244.433 320.579 243.94C320.272 243.433 319.852 243.053 319.319 242.8C318.799 242.533 318.219 242.4 317.579 242.4C316.659 242.4 315.872 242.693 315.219 243.28C314.579 243.867 314.212 244.68 314.119 245.72H321.039ZM345.253 241.04L341.833 252H339.953L337.313 243.3L334.673 252H332.793L329.353 241.04H331.213L333.733 250.24L336.453 241.04H338.313L340.973 250.26L343.453 241.04H345.253ZM357.06 246.1C357.06 246.447 357.04 246.813 357 247.2H348.24C348.306 248.28 348.673 249.127 349.34 249.74C350.02 250.34 350.84 250.64 351.8 250.64C352.586 250.64 353.24 250.46 353.76 250.1C354.293 249.727 354.666 249.233 354.88 248.62H356.84C356.546 249.673 355.96 250.533 355.08 251.2C354.2 251.853 353.106 252.18 351.8 252.18C350.76 252.18 349.826 251.947 349 251.48C348.186 251.013 347.546 250.353 347.08 249.5C346.613 248.633 346.38 247.633 346.38 246.5C346.38 245.367 346.606 244.373 347.06 243.52C347.513 242.667 348.146 242.013 348.96 241.56C349.786 241.093 350.733 240.86 351.8 240.86C352.84 240.86 353.76 241.087 354.56 241.54C355.36 241.993 355.973 242.62 356.4 243.42C356.84 244.207 357.06 245.1 357.06 246.1ZM355.18 245.72C355.18 245.027 355.026 244.433 354.72 243.94C354.413 243.433 353.993 243.053 353.46 242.8C352.94 242.533 352.36 242.4 351.72 242.4C350.8 242.4 350.013 242.693 349.36 243.28C348.72 243.867 348.353 244.68 348.26 245.72H355.18ZM365.582 252L361.282 247.16V252H359.462V237.2H361.282V245.9L365.502 241.04H368.042L362.882 246.5L368.062 252H365.582ZM371.975 242.54V249C371.975 249.533 372.088 249.913 372.315 250.14C372.542 250.353 372.935 250.46 373.495 250.46H374.835V252H373.195C372.182 252 371.422 251.767 370.915 251.3C370.408 250.833 370.155 250.067 370.155 249V242.54H368.735V241.04H370.155V238.28H371.975V241.04H374.835V242.54H371.975ZM40.9108 273.08C41.2841 272.427 41.8308 271.893 42.5508 271.48C43.2708 271.067 44.0908 270.86 45.0108 270.86C45.9974 270.86 46.8841 271.093 47.6708 271.56C48.4574 272.027 49.0774 272.687 49.5308 273.54C49.9841 274.38 50.2108 275.36 50.2108 276.48C50.2108 277.587 49.9841 278.573 49.5308 279.44C49.0774 280.307 48.4508 280.98 47.6508 281.46C46.8641 281.94 45.9841 282.18 45.0108 282.18C44.0641 282.18 43.2308 281.973 42.5108 281.56C41.8041 281.147 41.2708 280.62 40.9108 279.98V282H39.0908V267.2H40.9108V273.08ZM48.3508 276.48C48.3508 275.653 48.1841 274.933 47.8508 274.32C47.5174 273.707 47.0641 273.24 46.4908 272.92C45.9308 272.6 45.3108 272.44 44.6308 272.44C43.9641 272.44 43.3441 272.607 42.7708 272.94C42.2108 273.26 41.7574 273.733 41.4108 274.36C41.0774 274.973 40.9108 275.687 40.9108 276.5C40.9108 277.327 41.0774 278.053 41.4108 278.68C41.7574 279.293 42.2108 279.767 42.7708 280.1C43.3441 280.42 43.9641 280.58 44.6308 280.58C45.3108 280.58 45.9308 280.42 46.4908 280.1C47.0641 279.767 47.5174 279.293 47.8508 278.68C48.1841 278.053 48.3508 277.32 48.3508 276.48ZM62.6064 276.1C62.6064 276.447 62.5864 276.813 62.5464 277.2H53.7864C53.8531 278.28 54.2197 279.127 54.8864 279.74C55.5664 280.34 56.3864 280.64 57.3464 280.64C58.1331 280.64 58.7864 280.46 59.3064 280.1C59.8397 279.727 60.2131 279.233 60.4264 278.62H62.3864C62.0931 279.673 61.5064 280.533 60.6264 281.2C59.7464 281.853 58.6531 282.18 57.3464 282.18C56.3064 282.18 55.3731 281.947 54.5464 281.48C53.7331 281.013 53.0931 280.353 52.6264 279.5C52.1597 278.633 51.9264 277.633 51.9264 276.5C51.9264 275.367 52.1531 274.373 52.6064 273.52C53.0597 272.667 53.6931 272.013 54.5064 271.56C55.3331 271.093 56.2797 270.86 57.3464 270.86C58.3864 270.86 59.3064 271.087 60.1064 271.54C60.9064 271.993 61.5197 272.62 61.9464 273.42C62.3864 274.207 62.6064 275.1 62.6064 276.1ZM60.7264 275.72C60.7264 275.027 60.5731 274.433 60.2664 273.94C59.9597 273.433 59.5397 273.053 59.0064 272.8C58.4864 272.533 57.9064 272.4 57.2664 272.4C56.3464 272.4 55.5597 272.693 54.9064 273.28C54.2664 273.867 53.8997 274.68 53.8064 275.72H60.7264ZM79.6088 271.04L76.1888 282H74.3088L71.6688 273.3L69.0288 282H67.1488L63.7088 271.04H65.5688L68.0888 280.24L70.8088 271.04H72.6688L75.3288 280.26L77.8088 271.04H79.6088ZM91.135 271.04V282H89.315V280.38C88.9683 280.94 88.4817 281.38 87.855 281.7C87.2417 282.007 86.5617 282.16 85.815 282.16C84.9617 282.16 84.195 281.987 83.515 281.64C82.835 281.28 82.295 280.747 81.895 280.04C81.5083 279.333 81.315 278.473 81.315 277.46V271.04H83.115V277.22C83.115 278.3 83.3883 279.133 83.935 279.72C84.4817 280.293 85.2283 280.58 86.175 280.58C87.1483 280.58 87.915 280.28 88.475 279.68C89.035 279.08 89.315 278.207 89.315 277.06V271.04H91.135ZM98.088 282.18C97.248 282.18 96.4946 282.04 95.828 281.76C95.1613 281.467 94.6346 281.067 94.248 280.56C93.8613 280.04 93.648 279.447 93.608 278.78H95.488C95.5413 279.327 95.7946 279.773 96.248 280.12C96.7146 280.467 97.3213 280.64 98.068 280.64C98.7613 280.64 99.308 280.487 99.708 280.18C100.108 279.873 100.308 279.487 100.308 279.02C100.308 278.54 100.095 278.187 99.668 277.96C99.2413 277.72 98.5813 277.487 97.688 277.26C96.8746 277.047 96.208 276.833 95.688 276.62C95.1813 276.393 94.7413 276.067 94.368 275.64C94.008 275.2 93.828 274.627 93.828 273.92C93.828 273.36 93.9946 272.847 94.328 272.38C94.6613 271.913 95.1346 271.547 95.748 271.28C96.3613 271 97.0613 270.86 97.848 270.86C99.0613 270.86 100.041 271.167 100.788 271.78C101.535 272.393 101.935 273.233 101.988 274.3H100.168C100.128 273.727 99.8946 273.267 99.468 272.92C99.0546 272.573 98.4946 272.4 97.788 272.4C97.1346 272.4 96.6146 272.54 96.228 272.82C95.8413 273.1 95.648 273.467 95.648 273.92C95.648 274.28 95.7613 274.58 95.988 274.82C96.228 275.047 96.5213 275.233 96.868 275.38C97.228 275.513 97.7213 275.667 98.348 275.84C99.1346 276.053 99.7746 276.267 100.268 276.48C100.761 276.68 101.181 276.987 101.528 277.4C101.888 277.813 102.075 278.353 102.088 279.02C102.088 279.62 101.921 280.16 101.588 280.64C101.255 281.12 100.781 281.5 100.168 281.78C99.568 282.047 98.8746 282.18 98.088 282.18ZM106.877 272.54V279C106.877 279.533 106.991 279.913 107.217 280.14C107.444 280.353 107.837 280.46 108.397 280.46H109.737V282H108.097C107.084 282 106.324 281.767 105.817 281.3C105.311 280.833 105.057 280.067 105.057 279V272.54H103.637V271.04H105.057V268.28H106.877V271.04H109.737V272.54H106.877ZM113.302 280.5H118.682V282H111.222V280.5L116.542 272.52H111.262V271.04H118.642V272.52L113.302 280.5ZM121.984 269.26C121.637 269.26 121.344 269.14 121.104 268.9C120.864 268.66 120.744 268.367 120.744 268.02C120.744 267.673 120.864 267.38 121.104 267.14C121.344 266.9 121.637 266.78 121.984 266.78C122.317 266.78 122.597 266.9 122.824 267.14C123.064 267.38 123.184 267.673 123.184 268.02C123.184 268.367 123.064 268.66 122.824 268.9C122.597 269.14 122.317 269.26 121.984 269.26ZM122.864 271.04V282H121.044V271.04H122.864ZM126.946 269.26C126.599 269.26 126.306 269.14 126.066 268.9C125.839 268.66 125.726 268.367 125.726 268.02C125.726 267.673 125.839 267.38 126.066 267.14C126.306 266.9 126.599 266.78 126.946 266.78C127.292 266.78 127.579 266.9 127.806 267.14C128.046 267.38 128.166 267.673 128.166 268.02C128.166 268.367 128.046 268.66 127.806 268.9C127.579 269.14 127.292 269.26 126.946 269.26ZM127.846 284.38C127.846 285.353 127.599 286.067 127.106 286.52C126.612 286.973 125.892 287.2 124.946 287.2H123.886V285.66H124.646C125.152 285.66 125.506 285.56 125.706 285.36C125.919 285.16 126.026 284.82 126.026 284.34V271.04H127.846V284.38ZM136.267 270.84C137.6 270.84 138.68 271.247 139.507 272.06C140.333 272.86 140.747 274.02 140.747 275.54V282H138.947V275.8C138.947 274.707 138.673 273.873 138.127 273.3C137.58 272.713 136.833 272.42 135.887 272.42C134.927 272.42 134.16 272.72 133.587 273.32C133.027 273.92 132.747 274.793 132.747 275.94V282H130.927V271.04H132.747V272.6C133.107 272.04 133.593 271.607 134.207 271.3C134.833 270.993 135.52 270.84 136.267 270.84ZM159.052 276.1C159.052 276.447 159.032 276.813 158.992 277.2H150.232C150.298 278.28 150.665 279.127 151.332 279.74C152.012 280.34 152.832 280.64 153.792 280.64C154.578 280.64 155.232 280.46 155.752 280.1C156.285 279.727 156.658 279.233 156.872 278.62H158.832C158.538 279.673 157.952 280.533 157.072 281.2C156.192 281.853 155.098 282.18 153.792 282.18C152.752 282.18 151.818 281.947 150.992 281.48C150.178 281.013 149.538 280.353 149.072 279.5C148.605 278.633 148.372 277.633 148.372 276.5C148.372 275.367 148.598 274.373 149.052 273.52C149.505 272.667 150.138 272.013 150.952 271.56C151.778 271.093 152.725 270.86 153.792 270.86C154.832 270.86 155.752 271.087 156.552 271.54C157.352 271.993 157.965 272.62 158.392 273.42C158.832 274.207 159.052 275.1 159.052 276.1ZM157.172 275.72C157.172 275.027 157.018 274.433 156.712 273.94C156.405 273.433 155.985 273.053 155.452 272.8C154.932 272.533 154.352 272.4 153.712 272.4C152.792 272.4 152.005 272.693 151.352 273.28C150.712 273.867 150.345 274.68 150.252 275.72H157.172ZM166.794 270.84C168.127 270.84 169.207 271.247 170.034 272.06C170.861 272.86 171.274 274.02 171.274 275.54V282H169.474V275.8C169.474 274.707 169.201 273.873 168.654 273.3C168.107 272.713 167.361 272.42 166.414 272.42C165.454 272.42 164.687 272.72 164.114 273.32C163.554 273.92 163.274 274.793 163.274 275.94V282H161.454V271.04H163.274V272.6C163.634 272.04 164.121 271.607 164.734 271.3C165.361 270.993 166.047 270.84 166.794 270.84ZM184.099 270.86C185.046 270.86 185.872 271.067 186.579 271.48C187.299 271.893 187.832 272.413 188.179 273.04V271.04H190.019V282.24C190.019 283.24 189.806 284.127 189.379 284.9C188.952 285.687 188.339 286.3 187.539 286.74C186.752 287.18 185.832 287.4 184.779 287.4C183.339 287.4 182.139 287.06 181.179 286.38C180.219 285.7 179.652 284.773 179.479 283.6H181.279C181.479 284.267 181.892 284.8 182.519 285.2C183.146 285.613 183.899 285.82 184.779 285.82C185.779 285.82 186.592 285.507 187.219 284.88C187.859 284.253 188.179 283.373 188.179 282.24V279.94C187.819 280.58 187.286 281.113 186.579 281.54C185.872 281.967 185.046 282.18 184.099 282.18C183.126 282.18 182.239 281.94 181.439 281.46C180.652 280.98 180.032 280.307 179.579 279.44C179.126 278.573 178.899 277.587 178.899 276.48C178.899 275.36 179.126 274.38 179.579 273.54C180.032 272.687 180.652 272.027 181.439 271.56C182.239 271.093 183.126 270.86 184.099 270.86ZM188.179 276.5C188.179 275.673 188.012 274.953 187.679 274.34C187.346 273.727 186.892 273.26 186.319 272.94C185.759 272.607 185.139 272.44 184.459 272.44C183.779 272.44 183.159 272.6 182.599 272.92C182.039 273.24 181.592 273.707 181.259 274.32C180.926 274.933 180.759 275.653 180.759 276.48C180.759 277.32 180.926 278.053 181.259 278.68C181.592 279.293 182.039 279.767 182.599 280.1C183.159 280.42 183.779 280.58 184.459 280.58C185.139 280.58 185.759 280.42 186.319 280.1C186.892 279.767 187.346 279.293 187.679 278.68C188.012 278.053 188.179 277.327 188.179 276.5ZM203.095 276.1C203.095 276.447 203.075 276.813 203.035 277.2H194.275C194.341 278.28 194.708 279.127 195.375 279.74C196.055 280.34 196.875 280.64 197.835 280.64C198.621 280.64 199.275 280.46 199.795 280.1C200.328 279.727 200.701 279.233 200.915 278.62H202.875C202.581 279.673 201.995 280.533 201.115 281.2C200.235 281.853 199.141 282.18 197.835 282.18C196.795 282.18 195.861 281.947 195.035 281.48C194.221 281.013 193.581 280.353 193.115 279.5C192.648 278.633 192.415 277.633 192.415 276.5C192.415 275.367 192.641 274.373 193.095 273.52C193.548 272.667 194.181 272.013 194.995 271.56C195.821 271.093 196.768 270.86 197.835 270.86C198.875 270.86 199.795 271.087 200.595 271.54C201.395 271.993 202.008 272.62 202.435 273.42C202.875 274.207 203.095 275.1 203.095 276.1ZM201.215 275.72C201.215 275.027 201.061 274.433 200.755 273.94C200.448 273.433 200.028 273.053 199.495 272.8C198.975 272.533 198.395 272.4 197.755 272.4C196.835 272.4 196.048 272.693 195.395 273.28C194.755 273.867 194.388 274.68 194.295 275.72H201.215ZM215.497 276.1C215.497 276.447 215.477 276.813 215.437 277.2H206.677C206.744 278.28 207.11 279.127 207.777 279.74C208.457 280.34 209.277 280.64 210.237 280.64C211.024 280.64 211.677 280.46 212.197 280.1C212.73 279.727 213.104 279.233 213.317 278.62H215.277C214.984 279.673 214.397 280.533 213.517 281.2C212.637 281.853 211.544 282.18 210.237 282.18C209.197 282.18 208.264 281.947 207.437 281.48C206.624 281.013 205.984 280.353 205.517 279.5C205.05 278.633 204.817 277.633 204.817 276.5C204.817 275.367 205.044 274.373 205.497 273.52C205.95 272.667 206.584 272.013 207.397 271.56C208.224 271.093 209.17 270.86 210.237 270.86C211.277 270.86 212.197 271.087 212.997 271.54C213.797 271.993 214.41 272.62 214.837 273.42C215.277 274.207 215.497 275.1 215.497 276.1ZM213.617 275.72C213.617 275.027 213.464 274.433 213.157 273.94C212.85 273.433 212.43 273.053 211.897 272.8C211.377 272.533 210.797 272.4 210.157 272.4C209.237 272.4 208.45 272.693 207.797 273.28C207.157 273.867 206.79 274.68 206.697 275.72H213.617ZM222.359 272.54H220.059V282H218.239V272.54H216.819V271.04H218.239V270.26C218.239 269.033 218.553 268.14 219.179 267.58C219.819 267.007 220.839 266.72 222.239 266.72V268.24C221.439 268.24 220.873 268.4 220.539 268.72C220.219 269.027 220.059 269.54 220.059 270.26V271.04H222.359V272.54ZM226.701 272.54V279C226.701 279.533 226.815 279.913 227.041 280.14C227.268 280.353 227.661 280.46 228.221 280.46H229.561V282H227.921C226.908 282 226.148 281.767 225.641 281.3C225.135 280.833 224.881 280.067 224.881 279V272.54H223.461V271.04H224.881V268.28H226.701V271.04H229.561V272.54H226.701ZM247.099 276.1C247.099 276.447 247.079 276.813 247.039 277.2H238.279C238.345 278.28 238.712 279.127 239.379 279.74C240.059 280.34 240.879 280.64 241.839 280.64C242.625 280.64 243.279 280.46 243.799 280.1C244.332 279.727 244.705 279.233 244.919 278.62H246.879C246.585 279.673 245.999 280.533 245.119 281.2C244.239 281.853 243.145 282.18 241.839 282.18C240.799 282.18 239.865 281.947 239.039 281.48C238.225 281.013 237.585 280.353 237.119 279.5C236.652 278.633 236.419 277.633 236.419 276.5C236.419 275.367 236.645 274.373 237.099 273.52C237.552 272.667 238.185 272.013 238.999 271.56C239.825 271.093 240.772 270.86 241.839 270.86C242.879 270.86 243.799 271.087 244.599 271.54C245.399 271.993 246.012 272.62 246.439 273.42C246.879 274.207 247.099 275.1 247.099 276.1ZM245.219 275.72C245.219 275.027 245.065 274.433 244.759 273.94C244.452 273.433 244.032 273.053 243.499 272.8C242.979 272.533 242.399 272.4 241.759 272.4C240.839 272.4 240.052 272.693 239.399 273.28C238.759 273.867 238.392 274.68 238.299 275.72H245.219ZM259.501 276.1C259.501 276.447 259.481 276.813 259.441 277.2H250.681C250.748 278.28 251.114 279.127 251.781 279.74C252.461 280.34 253.281 280.64 254.241 280.64C255.028 280.64 255.681 280.46 256.201 280.1C256.734 279.727 257.108 279.233 257.321 278.62H259.281C258.988 279.673 258.401 280.533 257.521 281.2C256.641 281.853 255.548 282.18 254.241 282.18C253.201 282.18 252.268 281.947 251.441 281.48C250.628 281.013 249.988 280.353 249.521 279.5C249.054 278.633 248.821 277.633 248.821 276.5C248.821 275.367 249.048 274.373 249.501 273.52C249.954 272.667 250.588 272.013 251.401 271.56C252.228 271.093 253.174 270.86 254.241 270.86C255.281 270.86 256.201 271.087 257.001 271.54C257.801 271.993 258.414 272.62 258.841 273.42C259.281 274.207 259.501 275.1 259.501 276.1ZM257.621 275.72C257.621 275.027 257.468 274.433 257.161 273.94C256.854 273.433 256.434 273.053 255.901 272.8C255.381 272.533 254.801 272.4 254.161 272.4C253.241 272.4 252.454 272.693 251.801 273.28C251.161 273.867 250.794 274.68 250.701 275.72H257.621ZM267.243 270.84C268.577 270.84 269.657 271.247 270.483 272.06C271.31 272.86 271.723 274.02 271.723 275.54V282H269.923V275.8C269.923 274.707 269.65 273.873 269.103 273.3C268.557 272.713 267.81 272.42 266.863 272.42C265.903 272.42 265.137 272.72 264.563 273.32C264.003 273.92 263.723 274.793 263.723 275.94V282H261.903V271.04H263.723V272.6C264.083 272.04 264.57 271.607 265.183 271.3C265.81 270.993 266.497 270.84 267.243 270.84ZM283.908 282.18C283.068 282.18 282.315 282.04 281.648 281.76C280.982 281.467 280.455 281.067 280.068 280.56C279.682 280.04 279.468 279.447 279.428 278.78H281.308C281.362 279.327 281.615 279.773 282.068 280.12C282.535 280.467 283.142 280.64 283.888 280.64C284.582 280.64 285.128 280.487 285.528 280.18C285.928 279.873 286.128 279.487 286.128 279.02C286.128 278.54 285.915 278.187 285.488 277.96C285.062 277.72 284.402 277.487 283.508 277.26C282.695 277.047 282.028 276.833 281.508 276.62C281.002 276.393 280.562 276.067 280.188 275.64C279.828 275.2 279.648 274.627 279.648 273.92C279.648 273.36 279.815 272.847 280.148 272.38C280.482 271.913 280.955 271.547 281.568 271.28C282.182 271 282.882 270.86 283.668 270.86C284.882 270.86 285.862 271.167 286.608 271.78C287.355 272.393 287.755 273.233 287.808 274.3H285.988C285.948 273.727 285.715 273.267 285.288 272.92C284.875 272.573 284.315 272.4 283.608 272.4C282.955 272.4 282.435 272.54 282.048 272.82C281.662 273.1 281.468 273.467 281.468 273.92C281.468 274.28 281.582 274.58 281.808 274.82C282.048 275.047 282.342 275.233 282.688 275.38C283.048 275.513 283.542 275.667 284.168 275.84C284.955 276.053 285.595 276.267 286.088 276.48C286.582 276.68 287.002 276.987 287.348 277.4C287.708 277.813 287.895 278.353 287.908 279.02C287.908 279.62 287.742 280.16 287.408 280.64C287.075 281.12 286.602 281.5 285.988 281.78C285.388 282.047 284.695 282.18 283.908 282.18ZM292.698 272.54V279C292.698 279.533 292.811 279.913 293.038 280.14C293.264 280.353 293.658 280.46 294.217 280.46H295.558V282H293.918C292.904 282 292.144 281.767 291.638 281.3C291.131 280.833 290.878 280.067 290.878 279V272.54H289.458V271.04H290.878V268.28H292.698V271.04H295.558V272.54H292.698ZM307.763 276.1C307.763 276.447 307.743 276.813 307.703 277.2H298.943C299.009 278.28 299.376 279.127 300.043 279.74C300.723 280.34 301.543 280.64 302.503 280.64C303.289 280.64 303.943 280.46 304.463 280.1C304.996 279.727 305.369 279.233 305.583 278.62H307.543C307.249 279.673 306.663 280.533 305.783 281.2C304.903 281.853 303.809 282.18 302.503 282.18C301.463 282.18 300.529 281.947 299.703 281.48C298.889 281.013 298.249 280.353 297.783 279.5C297.316 278.633 297.083 277.633 297.083 276.5C297.083 275.367 297.309 274.373 297.763 273.52C298.216 272.667 298.849 272.013 299.663 271.56C300.489 271.093 301.436 270.86 302.503 270.86C303.543 270.86 304.463 271.087 305.263 271.54C306.063 271.993 306.676 272.62 307.103 273.42C307.543 274.207 307.763 275.1 307.763 276.1ZM305.883 275.72C305.883 275.027 305.729 274.433 305.423 273.94C305.116 273.433 304.696 273.053 304.163 272.8C303.643 272.533 303.063 272.4 302.423 272.4C301.503 272.4 300.716 272.693 300.063 273.28C299.423 273.867 299.056 274.68 298.963 275.72H305.883ZM323.345 270.84C324.198 270.84 324.958 271.02 325.625 271.38C326.292 271.727 326.818 272.253 327.205 272.96C327.592 273.667 327.785 274.527 327.785 275.54V282H325.985V275.8C325.985 274.707 325.712 273.873 325.165 273.3C324.632 272.713 323.905 272.42 322.985 272.42C322.038 272.42 321.285 272.727 320.725 273.34C320.165 273.94 319.885 274.813 319.885 275.96V282H318.085V275.8C318.085 274.707 317.812 273.873 317.265 273.3C316.732 272.713 316.005 272.42 315.085 272.42C314.138 272.42 313.385 272.727 312.825 273.34C312.265 273.94 311.985 274.813 311.985 275.96V282H310.165V271.04H311.985V272.62C312.345 272.047 312.825 271.607 313.425 271.3C314.038 270.993 314.712 270.84 315.445 270.84C316.365 270.84 317.178 271.047 317.885 271.46C318.592 271.873 319.118 272.48 319.465 273.28C319.772 272.507 320.278 271.907 320.985 271.48C321.692 271.053 322.478 270.84 323.345 270.84ZM335.423 276.48C335.423 275.36 335.649 274.38 336.103 273.54C336.556 272.687 337.176 272.027 337.963 271.56C338.763 271.093 339.649 270.86 340.623 270.86C341.583 270.86 342.416 271.067 343.123 271.48C343.829 271.893 344.356 272.413 344.703 273.04V271.04H346.543V282H344.703V279.96C344.343 280.6 343.803 281.133 343.083 281.56C342.376 281.973 341.549 282.18 340.603 282.18C339.629 282.18 338.749 281.94 337.963 281.46C337.176 280.98 336.556 280.307 336.103 279.44C335.649 278.573 335.423 277.587 335.423 276.48ZM344.703 276.5C344.703 275.673 344.536 274.953 344.203 274.34C343.869 273.727 343.416 273.26 342.843 272.94C342.283 272.607 341.663 272.44 340.983 272.44C340.303 272.44 339.683 272.6 339.123 272.92C338.563 273.24 338.116 273.707 337.783 274.32C337.449 274.933 337.283 275.653 337.283 276.48C337.283 277.32 337.449 278.053 337.783 278.68C338.116 279.293 338.563 279.767 339.123 280.1C339.683 280.42 340.303 280.58 340.983 280.58C341.663 280.58 342.283 280.42 342.843 280.1C343.416 279.767 343.869 279.293 344.203 278.68C344.536 278.053 344.703 277.327 344.703 276.5ZM348.938 276.48C348.938 275.36 349.165 274.38 349.618 273.54C350.071 272.687 350.691 272.027 351.478 271.56C352.278 271.093 353.165 270.86 354.138 270.86C355.098 270.86 355.931 271.067 356.638 271.48C357.345 271.893 357.871 272.413 358.218 273.04V271.04H360.058V282H358.218V279.96C357.858 280.6 357.318 281.133 356.598 281.56C355.891 281.973 355.065 282.18 354.118 282.18C353.145 282.18 352.265 281.94 351.478 281.46C350.691 280.98 350.071 280.307 349.618 279.44C349.165 278.573 348.938 277.587 348.938 276.48ZM358.218 276.5C358.218 275.673 358.051 274.953 357.718 274.34C357.385 273.727 356.931 273.26 356.358 272.94C355.798 272.607 355.178 272.44 354.498 272.44C353.818 272.44 353.198 272.6 352.638 272.92C352.078 273.24 351.631 273.707 351.298 274.32C350.965 274.933 350.798 275.653 350.798 276.48C350.798 277.32 350.965 278.053 351.298 278.68C351.631 279.293 352.078 279.767 352.638 280.1C353.198 280.42 353.818 280.58 354.498 280.58C355.178 280.58 355.798 280.42 356.358 280.1C356.931 279.767 357.385 279.293 357.718 278.68C358.051 278.053 358.218 277.327 358.218 276.5ZM368.474 270.84C369.807 270.84 370.887 271.247 371.714 272.06C372.54 272.86 372.954 274.02 372.954 275.54V282H371.154V275.8C371.154 274.707 370.88 273.873 370.334 273.3C369.787 272.713 369.04 272.42 368.094 272.42C367.134 272.42 366.367 272.72 365.794 273.32C365.234 273.92 364.954 274.793 364.954 275.94V282H363.134V271.04H364.954V272.6C365.314 272.04 365.8 271.607 366.414 271.3C367.04 270.993 367.727 270.84 368.474 270.84ZM395.859 271.04L392.439 282H390.559L387.919 273.3L385.279 282H383.399L379.959 271.04H381.819L384.339 280.24L387.059 271.04H388.919L391.579 280.26L394.059 271.04H395.859ZM398.605 269.26C398.258 269.26 397.965 269.14 397.725 268.9C397.485 268.66 397.365 268.367 397.365 268.02C397.365 267.673 397.485 267.38 397.725 267.14C397.965 266.9 398.258 266.78 398.605 266.78C398.938 266.78 399.218 266.9 399.445 267.14C399.685 267.38 399.805 267.673 399.805 268.02C399.805 268.367 399.685 268.66 399.445 268.9C399.218 269.14 398.938 269.26 398.605 269.26ZM399.485 271.04V282H397.665V271.04H399.485ZM412.587 276.1C412.587 276.447 412.567 276.813 412.527 277.2H403.767C403.834 278.28 404.2 279.127 404.867 279.74C405.547 280.34 406.367 280.64 407.327 280.64C408.114 280.64 408.767 280.46 409.287 280.1C409.82 279.727 410.194 279.233 410.407 278.62H412.367C412.074 279.673 411.487 280.533 410.607 281.2C409.727 281.853 408.634 282.18 407.327 282.18C406.287 282.18 405.354 281.947 404.527 281.48C403.714 281.013 403.074 280.353 402.607 279.5C402.14 278.633 401.907 277.633 401.907 276.5C401.907 275.367 402.134 274.373 402.587 273.52C403.04 272.667 403.674 272.013 404.487 271.56C405.314 271.093 406.26 270.86 407.327 270.86C408.367 270.86 409.287 271.087 410.087 271.54C410.887 271.993 411.5 272.62 411.927 273.42C412.367 274.207 412.587 275.1 412.587 276.1ZM410.707 275.72C410.707 275.027 410.554 274.433 410.247 273.94C409.94 273.433 409.52 273.053 408.987 272.8C408.467 272.533 407.887 272.4 407.247 272.4C406.327 272.4 405.54 272.693 404.887 273.28C404.247 273.867 403.88 274.68 403.787 275.72H410.707ZM49.5284 300.84C50.8618 300.84 51.9418 301.247 52.7684 302.06C53.5951 302.86 54.0084 304.02 54.0084 305.54V312H52.2084V305.8C52.2084 304.707 51.9351 303.873 51.3884 303.3C50.8418 302.713 50.0951 302.42 49.1484 302.42C48.1884 302.42 47.4218 302.72 46.8484 303.32C46.2884 303.92 46.0084 304.793 46.0084 305.94V312H44.1884V301.04H46.0084V302.6C46.3684 302.04 46.8551 301.607 47.4684 301.3C48.0951 300.993 48.7818 300.84 49.5284 300.84ZM57.9214 299.26C57.5747 299.26 57.2814 299.14 57.0414 298.9C56.8014 298.66 56.6814 298.367 56.6814 298.02C56.6814 297.673 56.8014 297.38 57.0414 297.14C57.2814 296.9 57.5747 296.78 57.9214 296.78C58.2547 296.78 58.5347 296.9 58.7614 297.14C59.0014 297.38 59.1214 297.673 59.1214 298.02C59.1214 298.367 59.0014 298.66 58.7614 298.9C58.5347 299.14 58.2547 299.26 57.9214 299.26ZM58.8014 301.04V312H56.9814V301.04H58.8014ZM71.9033 306.1C71.9033 306.447 71.8833 306.813 71.8433 307.2H63.0833C63.1499 308.28 63.5166 309.127 64.1833 309.74C64.8633 310.34 65.6833 310.64 66.6433 310.64C67.4299 310.64 68.0833 310.46 68.6033 310.1C69.1366 309.727 69.5099 309.233 69.7233 308.62H71.6833C71.3899 309.673 70.8033 310.533 69.9233 311.2C69.0433 311.853 67.9499 312.18 66.6433 312.18C65.6033 312.18 64.6699 311.947 63.8433 311.48C63.0299 311.013 62.3899 310.353 61.9233 309.5C61.4566 308.633 61.2233 307.633 61.2233 306.5C61.2233 305.367 61.4499 304.373 61.9033 303.52C62.3566 302.667 62.9899 302.013 63.8033 301.56C64.6299 301.093 65.5766 300.86 66.6433 300.86C67.6833 300.86 68.6033 301.087 69.4033 301.54C70.2033 301.993 70.8166 302.62 71.2433 303.42C71.6833 304.207 71.9033 305.1 71.9033 306.1ZM70.0233 305.72C70.0233 305.027 69.8699 304.433 69.5633 303.94C69.2566 303.433 68.8366 303.053 68.3033 302.8C67.7833 302.533 67.2033 302.4 66.5633 302.4C65.6433 302.4 64.8566 302.693 64.2033 303.28C63.5633 303.867 63.1966 304.68 63.1033 305.72H70.0233ZM76.5256 302.54V309C76.5256 309.533 76.639 309.913 76.8656 310.14C77.0923 310.353 77.4856 310.46 78.0456 310.46H79.3856V312H77.7456C76.7323 312 75.9723 311.767 75.4656 311.3C74.959 310.833 74.7056 310.067 74.7056 309V302.54H73.2856V301.04H74.7056V298.28H76.5256V301.04H79.3856V302.54H76.5256ZM91.4428 300.86C92.3895 300.86 93.2161 301.067 93.9228 301.48C94.6428 301.893 95.1761 302.413 95.5228 303.04V301.04H97.3628V312.24C97.3628 313.24 97.1495 314.127 96.7228 314.9C96.2961 315.687 95.6828 316.3 94.8828 316.74C94.0961 317.18 93.1761 317.4 92.1228 317.4C90.6828 317.4 89.4828 317.06 88.5228 316.38C87.5628 315.7 86.9961 314.773 86.8228 313.6H88.6228C88.8228 314.267 89.2361 314.8 89.8628 315.2C90.4895 315.613 91.2428 315.82 92.1228 315.82C93.1228 315.82 93.9361 315.507 94.5628 314.88C95.2028 314.253 95.5228 313.373 95.5228 312.24V309.94C95.1628 310.58 94.6295 311.113 93.9228 311.54C93.2161 311.967 92.3895 312.18 91.4428 312.18C90.4695 312.18 89.5828 311.94 88.7828 311.46C87.9961 310.98 87.3761 310.307 86.9228 309.44C86.4695 308.573 86.2428 307.587 86.2428 306.48C86.2428 305.36 86.4695 304.38 86.9228 303.54C87.3761 302.687 87.9961 302.027 88.7828 301.56C89.5828 301.093 90.4695 300.86 91.4428 300.86ZM95.5228 306.5C95.5228 305.673 95.3561 304.953 95.0228 304.34C94.6895 303.727 94.2361 303.26 93.6628 302.94C93.1028 302.607 92.4828 302.44 91.8028 302.44C91.1228 302.44 90.5028 302.6 89.9428 302.92C89.3828 303.24 88.9361 303.707 88.6028 304.32C88.2695 304.933 88.1028 305.653 88.1028 306.48C88.1028 307.32 88.2695 308.053 88.6028 308.68C88.9361 309.293 89.3828 309.767 89.9428 310.1C90.5028 310.42 91.1228 310.58 91.8028 310.58C92.4828 310.58 93.1028 310.42 93.6628 310.1C94.2361 309.767 94.6895 309.293 95.0228 308.68C95.3561 308.053 95.5228 307.327 95.5228 306.5ZM110.438 306.1C110.438 306.447 110.418 306.813 110.378 307.2H101.618C101.685 308.28 102.052 309.127 102.718 309.74C103.398 310.34 104.218 310.64 105.178 310.64C105.965 310.64 106.618 310.46 107.138 310.1C107.672 309.727 108.045 309.233 108.258 308.62H110.218C109.925 309.673 109.338 310.533 108.458 311.2C107.578 311.853 106.485 312.18 105.178 312.18C104.138 312.18 103.205 311.947 102.378 311.48C101.565 311.013 100.925 310.353 100.458 309.5C99.9918 308.633 99.7584 307.633 99.7584 306.5C99.7584 305.367 99.9851 304.373 100.438 303.52C100.892 302.667 101.525 302.013 102.338 301.56C103.165 301.093 104.112 300.86 105.178 300.86C106.218 300.86 107.138 301.087 107.938 301.54C108.738 301.993 109.352 302.62 109.778 303.42C110.218 304.207 110.438 305.1 110.438 306.1ZM108.558 305.72C108.558 305.027 108.405 304.433 108.098 303.94C107.792 303.433 107.372 303.053 106.838 302.8C106.318 302.533 105.738 302.4 105.098 302.4C104.178 302.4 103.392 302.693 102.738 303.28C102.098 303.867 101.732 304.68 101.638 305.72H108.558ZM118.281 300.84C119.107 300.84 119.854 301.02 120.521 301.38C121.187 301.727 121.707 302.253 122.081 302.96C122.467 303.667 122.661 304.527 122.661 305.54V312H120.861V305.8C120.861 304.707 120.587 303.873 120.041 303.3C119.494 302.713 118.747 302.42 117.801 302.42C116.841 302.42 116.074 302.72 115.501 303.32C114.941 303.92 114.661 304.793 114.661 305.94V312H112.841V297.2H114.661V302.6C115.021 302.04 115.514 301.607 116.141 301.3C116.781 300.993 117.494 300.84 118.281 300.84ZM130.414 312.18C129.387 312.18 128.454 311.947 127.614 311.48C126.787 311.013 126.134 310.353 125.654 309.5C125.187 308.633 124.954 307.633 124.954 306.5C124.954 305.38 125.194 304.393 125.674 303.54C126.167 302.673 126.834 302.013 127.674 301.56C128.514 301.093 129.454 300.86 130.494 300.86C131.534 300.86 132.474 301.093 133.314 301.56C134.154 302.013 134.814 302.667 135.294 303.52C135.787 304.373 136.034 305.367 136.034 306.5C136.034 307.633 135.78 308.633 135.274 309.5C134.78 310.353 134.107 311.013 133.254 311.48C132.4 311.947 131.454 312.18 130.414 312.18ZM130.414 310.58C131.067 310.58 131.68 310.427 132.254 310.12C132.827 309.813 133.287 309.353 133.634 308.74C133.994 308.127 134.174 307.38 134.174 306.5C134.174 305.62 134 304.873 133.654 304.26C133.307 303.647 132.854 303.193 132.294 302.9C131.734 302.593 131.127 302.44 130.474 302.44C129.807 302.44 129.194 302.593 128.634 302.9C128.087 303.193 127.647 303.647 127.314 304.26C126.98 304.873 126.814 305.62 126.814 306.5C126.814 307.393 126.974 308.147 127.294 308.76C127.627 309.373 128.067 309.833 128.614 310.14C129.16 310.433 129.76 310.58 130.414 310.58ZM143.207 312.18C142.18 312.18 141.247 311.947 140.407 311.48C139.58 311.013 138.927 310.353 138.447 309.5C137.98 308.633 137.747 307.633 137.747 306.5C137.747 305.38 137.987 304.393 138.467 303.54C138.96 302.673 139.627 302.013 140.467 301.56C141.307 301.093 142.247 300.86 143.287 300.86C144.327 300.86 145.267 301.093 146.107 301.56C146.947 302.013 147.607 302.667 148.087 303.52C148.58 304.373 148.827 305.367 148.827 306.5C148.827 307.633 148.573 308.633 148.067 309.5C147.573 310.353 146.9 311.013 146.047 311.48C145.193 311.947 144.247 312.18 143.207 312.18ZM143.207 310.58C143.86 310.58 144.473 310.427 145.047 310.12C145.62 309.813 146.08 309.353 146.427 308.74C146.787 308.127 146.967 307.38 146.967 306.5C146.967 305.62 146.793 304.873 146.447 304.26C146.1 303.647 145.647 303.193 145.087 302.9C144.527 302.593 143.92 302.44 143.267 302.44C142.6 302.44 141.987 302.593 141.427 302.9C140.88 303.193 140.44 303.647 140.107 304.26C139.773 304.873 139.607 305.62 139.607 306.5C139.607 307.393 139.767 308.147 140.087 308.76C140.42 309.373 140.86 309.833 141.407 310.14C141.953 310.433 142.553 310.58 143.207 310.58ZM153.04 302.82C153.36 302.193 153.813 301.707 154.4 301.36C155 301.013 155.726 300.84 156.58 300.84V302.72H156.1C154.06 302.72 153.04 303.827 153.04 306.04V312H151.22V301.04H153.04V302.82ZM158.001 306.48C158.001 305.36 158.227 304.38 158.681 303.54C159.134 302.687 159.754 302.027 160.541 301.56C161.341 301.093 162.234 300.86 163.221 300.86C164.074 300.86 164.867 301.06 165.601 301.46C166.334 301.847 166.894 302.36 167.281 303V297.2H169.121V312H167.281V309.94C166.921 310.593 166.387 311.133 165.681 311.56C164.974 311.973 164.147 312.18 163.201 312.18C162.227 312.18 161.341 311.94 160.541 311.46C159.754 310.98 159.134 310.307 158.681 309.44C158.227 308.573 158.001 307.587 158.001 306.48ZM167.281 306.5C167.281 305.673 167.114 304.953 166.781 304.34C166.447 303.727 165.994 303.26 165.421 302.94C164.861 302.607 164.241 302.44 163.561 302.44C162.881 302.44 162.261 302.6 161.701 302.92C161.141 303.24 160.694 303.707 160.361 304.32C160.027 304.933 159.861 305.653 159.861 306.48C159.861 307.32 160.027 308.053 160.361 308.68C160.694 309.293 161.141 309.767 161.701 310.1C162.261 310.42 162.881 310.58 163.561 310.58C164.241 310.58 164.861 310.42 165.421 310.1C165.994 309.767 166.447 309.293 166.781 308.68C167.114 308.053 167.281 307.327 167.281 306.5ZM192.128 301.04L188.708 312H186.828L184.188 303.3L181.548 312H179.668L176.228 301.04H178.088L180.608 310.24L183.328 301.04H185.188L187.848 310.26L190.328 301.04H192.128ZM198.715 312.18C197.688 312.18 196.755 311.947 195.915 311.48C195.088 311.013 194.435 310.353 193.955 309.5C193.488 308.633 193.255 307.633 193.255 306.5C193.255 305.38 193.495 304.393 193.975 303.54C194.468 302.673 195.135 302.013 195.975 301.56C196.815 301.093 197.755 300.86 198.795 300.86C199.835 300.86 200.775 301.093 201.615 301.56C202.455 302.013 203.115 302.667 203.595 303.52C204.088 304.373 204.335 305.367 204.335 306.5C204.335 307.633 204.081 308.633 203.575 309.5C203.081 310.353 202.408 311.013 201.555 311.48C200.701 311.947 199.755 312.18 198.715 312.18ZM198.715 310.58C199.368 310.58 199.981 310.427 200.555 310.12C201.128 309.813 201.588 309.353 201.935 308.74C202.295 308.127 202.475 307.38 202.475 306.5C202.475 305.62 202.301 304.873 201.955 304.26C201.608 303.647 201.155 303.193 200.595 302.9C200.035 302.593 199.428 302.44 198.775 302.44C198.108 302.44 197.495 302.593 196.935 302.9C196.388 303.193 195.948 303.647 195.615 304.26C195.281 304.873 195.115 305.62 195.115 306.5C195.115 307.393 195.275 308.147 195.595 308.76C195.928 309.373 196.368 309.833 196.915 310.14C197.461 310.433 198.061 310.58 198.715 310.58ZM208.548 302.82C208.868 302.193 209.321 301.707 209.908 301.36C210.508 301.013 211.234 300.84 212.088 300.84V302.72H211.608C209.568 302.72 208.548 303.827 208.548 306.04V312H206.728V301.04H208.548V302.82ZM213.508 306.48C213.508 305.36 213.735 304.38 214.188 303.54C214.642 302.687 215.262 302.027 216.048 301.56C216.848 301.093 217.742 300.86 218.728 300.86C219.582 300.86 220.375 301.06 221.108 301.46C221.842 301.847 222.402 302.36 222.788 303V297.2H224.628V312H222.788V309.94C222.428 310.593 221.895 311.133 221.188 311.56C220.482 311.973 219.655 312.18 218.708 312.18C217.735 312.18 216.848 311.94 216.048 311.46C215.262 310.98 214.642 310.307 214.188 309.44C213.735 308.573 213.508 307.587 213.508 306.48ZM222.788 306.5C222.788 305.673 222.622 304.953 222.288 304.34C221.955 303.727 221.502 303.26 220.928 302.94C220.368 302.607 219.748 302.44 219.068 302.44C218.388 302.44 217.768 302.6 217.208 302.92C216.648 303.24 216.202 303.707 215.868 304.32C215.535 304.933 215.368 305.653 215.368 306.48C215.368 307.32 215.535 308.053 215.868 308.68C216.202 309.293 216.648 309.767 217.208 310.1C217.768 310.42 218.388 310.58 219.068 310.58C219.748 310.58 220.368 310.42 220.928 310.1C221.502 309.767 221.955 309.293 222.288 308.68C222.622 308.053 222.788 307.327 222.788 306.5ZM229.924 302.54V309C229.924 309.533 230.037 309.913 230.264 310.14C230.491 310.353 230.884 310.46 231.444 310.46H232.784V312H231.144C230.131 312 229.371 311.767 228.864 311.3C228.357 310.833 228.104 310.067 228.104 309V302.54H226.684V301.04H228.104V298.28H229.924V301.04H232.784V302.54H229.924ZM235.569 312.12C235.223 312.12 234.929 312 234.689 311.76C234.449 311.52 234.329 311.227 234.329 310.88C234.329 310.533 234.449 310.24 234.689 310C234.929 309.76 235.223 309.64 235.569 309.64C235.903 309.64 236.183 309.76 236.409 310C236.649 310.24 236.769 310.533 236.769 310.88C236.769 311.227 236.649 311.52 236.409 311.76C236.183 312 235.903 312.12 235.569 312.12ZM246.34 299.54V304.2H251.42V305.7H246.34V310.5H252.02V312H244.52V298.04H252.02V299.54H246.34ZM264.774 306.1C264.774 306.447 264.754 306.813 264.714 307.2H255.954C256.021 308.28 256.388 309.127 257.054 309.74C257.734 310.34 258.554 310.64 259.514 310.64C260.301 310.64 260.954 310.46 261.474 310.1C262.008 309.727 262.381 309.233 262.594 308.62H264.554C264.261 309.673 263.674 310.533 262.794 311.2C261.914 311.853 260.821 312.18 259.514 312.18C258.474 312.18 257.541 311.947 256.714 311.48C255.901 311.013 255.261 310.353 254.794 309.5C254.328 308.633 254.094 307.633 254.094 306.5C254.094 305.367 254.321 304.373 254.774 303.52C255.228 302.667 255.861 302.013 256.674 301.56C257.501 301.093 258.448 300.86 259.514 300.86C260.554 300.86 261.474 301.087 262.274 301.54C263.074 301.993 263.688 302.62 264.114 303.42C264.554 304.207 264.774 305.1 264.774 306.1ZM262.894 305.72C262.894 305.027 262.741 304.433 262.434 303.94C262.128 303.433 261.708 303.053 261.174 302.8C260.654 302.533 260.074 302.4 259.434 302.4C258.514 302.4 257.728 302.693 257.074 303.28C256.434 303.867 256.068 304.68 255.974 305.72H262.894ZM272.517 300.84C273.85 300.84 274.93 301.247 275.757 302.06C276.583 302.86 276.997 304.02 276.997 305.54V312H275.197V305.8C275.197 304.707 274.923 303.873 274.377 303.3C273.83 302.713 273.083 302.42 272.137 302.42C271.177 302.42 270.41 302.72 269.837 303.32C269.277 303.92 268.997 304.793 268.997 305.94V312H267.177V301.04H268.997V302.6C269.357 302.04 269.843 301.607 270.457 301.3C271.083 300.993 271.77 300.84 272.517 300.84ZM291.422 312L287.122 307.16V312H285.302V297.2H287.122V305.9L291.342 301.04H293.882L288.722 306.5L293.902 312H291.422ZM297.415 297.2V312H295.595V297.2H297.415ZM310.517 306.1C310.517 306.447 310.497 306.813 310.457 307.2H301.697C301.763 308.28 302.13 309.127 302.797 309.74C303.477 310.34 304.297 310.64 305.257 310.64C306.043 310.64 306.697 310.46 307.217 310.1C307.75 309.727 308.123 309.233 308.337 308.62H310.297C310.003 309.673 309.417 310.533 308.537 311.2C307.657 311.853 306.563 312.18 305.257 312.18C304.217 312.18 303.283 311.947 302.457 311.48C301.643 311.013 301.003 310.353 300.537 309.5C300.07 308.633 299.837 307.633 299.837 306.5C299.837 305.367 300.063 304.373 300.517 303.52C300.97 302.667 301.603 302.013 302.417 301.56C303.243 301.093 304.19 300.86 305.257 300.86C306.297 300.86 307.217 301.087 308.017 301.54C308.817 301.993 309.43 302.62 309.857 303.42C310.297 304.207 310.517 305.1 310.517 306.1ZM308.637 305.72C308.637 305.027 308.483 304.433 308.177 303.94C307.87 303.433 307.45 303.053 306.917 302.8C306.397 302.533 305.817 302.4 305.177 302.4C304.257 302.4 303.47 302.693 302.817 303.28C302.177 303.867 301.81 304.68 301.717 305.72H308.637ZM313.859 299.26C313.512 299.26 313.219 299.14 312.979 298.9C312.739 298.66 312.619 298.367 312.619 298.02C312.619 297.673 312.739 297.38 312.979 297.14C313.219 296.9 313.512 296.78 313.859 296.78C314.192 296.78 314.472 296.9 314.699 297.14C314.939 297.38 315.059 297.673 315.059 298.02C315.059 298.367 314.939 298.66 314.699 298.9C314.472 299.14 314.192 299.26 313.859 299.26ZM314.739 301.04V312H312.919V301.04H314.739ZM323.181 300.84C324.514 300.84 325.594 301.247 326.421 302.06C327.247 302.86 327.661 304.02 327.661 305.54V312H325.861V305.8C325.861 304.707 325.587 303.873 325.041 303.3C324.494 302.713 323.747 302.42 322.801 302.42C321.841 302.42 321.074 302.72 320.501 303.32C319.941 303.92 319.661 304.793 319.661 305.94V312H317.841V301.04H319.661V302.6C320.021 302.04 320.507 301.607 321.121 301.3C321.747 300.993 322.434 300.84 323.181 300.84ZM340.486 300.86C341.432 300.86 342.259 301.067 342.966 301.48C343.686 301.893 344.219 302.413 344.566 303.04V301.04H346.406V312.24C346.406 313.24 346.192 314.127 345.766 314.9C345.339 315.687 344.726 316.3 343.926 316.74C343.139 317.18 342.219 317.4 341.166 317.4C339.726 317.4 338.526 317.06 337.566 316.38C336.606 315.7 336.039 314.773 335.866 313.6H337.666C337.866 314.267 338.279 314.8 338.906 315.2C339.532 315.613 340.286 315.82 341.166 315.82C342.166 315.82 342.979 315.507 343.606 314.88C344.246 314.253 344.566 313.373 344.566 312.24V309.94C344.206 310.58 343.672 311.113 342.966 311.54C342.259 311.967 341.432 312.18 340.486 312.18C339.512 312.18 338.626 311.94 337.826 311.46C337.039 310.98 336.419 310.307 335.966 309.44C335.512 308.573 335.286 307.587 335.286 306.48C335.286 305.36 335.512 304.38 335.966 303.54C336.419 302.687 337.039 302.027 337.826 301.56C338.626 301.093 339.512 300.86 340.486 300.86ZM344.566 306.5C344.566 305.673 344.399 304.953 344.066 304.34C343.732 303.727 343.279 303.26 342.706 302.94C342.146 302.607 341.526 302.44 340.846 302.44C340.166 302.44 339.546 302.6 338.986 302.92C338.426 303.24 337.979 303.707 337.646 304.32C337.312 304.933 337.146 305.653 337.146 306.48C337.146 307.32 337.312 308.053 337.646 308.68C337.979 309.293 338.426 309.767 338.986 310.1C339.546 310.42 340.166 310.58 340.846 310.58C341.526 310.58 342.146 310.42 342.706 310.1C343.279 309.767 343.732 309.293 344.066 308.68C344.399 308.053 344.566 307.327 344.566 306.5ZM359.481 306.1C359.481 306.447 359.461 306.813 359.421 307.2H350.661C350.728 308.28 351.095 309.127 351.761 309.74C352.441 310.34 353.261 310.64 354.221 310.64C355.008 310.64 355.661 310.46 356.181 310.1C356.715 309.727 357.088 309.233 357.301 308.62H359.261C358.968 309.673 358.381 310.533 357.501 311.2C356.621 311.853 355.528 312.18 354.221 312.18C353.181 312.18 352.248 311.947 351.421 311.48C350.608 311.013 349.968 310.353 349.501 309.5C349.035 308.633 348.801 307.633 348.801 306.5C348.801 305.367 349.028 304.373 349.481 303.52C349.935 302.667 350.568 302.013 351.381 301.56C352.208 301.093 353.155 300.86 354.221 300.86C355.261 300.86 356.181 301.087 356.981 301.54C357.781 301.993 358.395 302.62 358.821 303.42C359.261 304.207 359.481 305.1 359.481 306.1ZM357.601 305.72C357.601 305.027 357.448 304.433 357.141 303.94C356.835 303.433 356.415 303.053 355.881 302.8C355.361 302.533 354.781 302.4 354.141 302.4C353.221 302.4 352.435 302.693 351.781 303.28C351.141 303.867 350.775 304.68 350.681 305.72H357.601ZM363.704 303.08C364.077 302.427 364.624 301.893 365.344 301.48C366.064 301.067 366.884 300.86 367.804 300.86C368.79 300.86 369.677 301.093 370.464 301.56C371.25 302.027 371.87 302.687 372.324 303.54C372.777 304.38 373.004 305.36 373.004 306.48C373.004 307.587 372.777 308.573 372.324 309.44C371.87 310.307 371.244 310.98 370.444 311.46C369.657 311.94 368.777 312.18 367.804 312.18C366.857 312.18 366.024 311.973 365.304 311.56C364.597 311.147 364.064 310.62 363.704 309.98V312H361.884V297.2H363.704V303.08ZM371.144 306.48C371.144 305.653 370.977 304.933 370.644 304.32C370.31 303.707 369.857 303.24 369.284 302.92C368.724 302.6 368.104 302.44 367.424 302.44C366.757 302.44 366.137 302.607 365.564 302.94C365.004 303.26 364.55 303.733 364.204 304.36C363.87 304.973 363.704 305.687 363.704 306.5C363.704 307.327 363.87 308.053 364.204 308.68C364.55 309.293 365.004 309.767 365.564 310.1C366.137 310.42 366.757 310.58 367.424 310.58C368.104 310.58 368.724 310.42 369.284 310.1C369.857 309.767 370.31 309.293 370.644 308.68C370.977 308.053 371.144 307.32 371.144 306.48ZM374.719 306.48C374.719 305.36 374.946 304.38 375.399 303.54C375.853 302.687 376.473 302.027 377.259 301.56C378.059 301.093 378.946 300.86 379.919 300.86C380.879 300.86 381.713 301.067 382.419 301.48C383.126 301.893 383.653 302.413 383.999 303.04V301.04H385.839V312H383.999V309.96C383.639 310.6 383.099 311.133 382.379 311.56C381.673 311.973 380.846 312.18 379.899 312.18C378.926 312.18 378.046 311.94 377.259 311.46C376.473 310.98 375.853 310.307 375.399 309.44C374.946 308.573 374.719 307.587 374.719 306.48ZM383.999 306.5C383.999 305.673 383.833 304.953 383.499 304.34C383.166 303.727 382.713 303.26 382.139 302.94C381.579 302.607 380.959 302.44 380.279 302.44C379.599 302.44 378.979 302.6 378.419 302.92C377.859 303.24 377.413 303.707 377.079 304.32C376.746 304.933 376.579 305.653 376.579 306.48C376.579 307.32 376.746 308.053 377.079 308.68C377.413 309.293 377.859 309.767 378.419 310.1C378.979 310.42 379.599 310.58 380.279 310.58C380.959 310.58 381.579 310.42 382.139 310.1C382.713 309.767 383.166 309.293 383.499 308.68C383.833 308.053 383.999 307.327 383.999 306.5ZM388.235 306.48C388.235 305.36 388.462 304.38 388.915 303.54C389.368 302.687 389.988 302.027 390.775 301.56C391.575 301.093 392.462 300.86 393.435 300.86C394.395 300.86 395.228 301.067 395.935 301.48C396.642 301.893 397.168 302.413 397.515 303.04V301.04H399.355V312H397.515V309.96C397.155 310.6 396.615 311.133 395.895 311.56C395.188 311.973 394.362 312.18 393.415 312.18C392.442 312.18 391.562 311.94 390.775 311.46C389.988 310.98 389.368 310.307 388.915 309.44C388.462 308.573 388.235 307.587 388.235 306.48ZM397.515 306.5C397.515 305.673 397.348 304.953 397.015 304.34C396.682 303.727 396.228 303.26 395.655 302.94C395.095 302.607 394.475 302.44 393.795 302.44C393.115 302.44 392.495 302.6 391.935 302.92C391.375 303.24 390.928 303.707 390.595 304.32C390.262 304.933 390.095 305.653 390.095 306.48C390.095 307.32 390.262 308.053 390.595 308.68C390.928 309.293 391.375 309.767 391.935 310.1C392.495 310.42 393.115 310.58 393.795 310.58C394.475 310.58 395.095 310.42 395.655 310.1C396.228 309.767 396.682 309.293 397.015 308.68C397.348 308.053 397.515 307.327 397.515 306.5ZM404.251 302.82C404.571 302.193 405.024 301.707 405.611 301.36C406.211 301.013 406.937 300.84 407.791 300.84V302.72H407.311C405.271 302.72 404.251 303.827 404.251 306.04V312H402.431V301.04H404.251V302.82ZM103.511 330.84C104.364 330.84 105.124 331.02 105.791 331.38C106.458 331.727 106.984 332.253 107.371 332.96C107.758 333.667 107.951 334.527 107.951 335.54V342H106.151V335.8C106.151 334.707 105.878 333.873 105.331 333.3C104.798 332.713 104.071 332.42 103.151 332.42C102.204 332.42 101.451 332.727 100.891 333.34C100.331 333.94 100.051 334.813 100.051 335.96V342H98.251V335.8C98.251 334.707 97.9777 333.873 97.431 333.3C96.8977 332.713 96.171 332.42 95.251 332.42C94.3043 332.42 93.551 332.727 92.991 333.34C92.431 333.94 92.151 334.813 92.151 335.96V342H90.331V331.04H92.151V332.62C92.511 332.047 92.991 331.607 93.591 331.3C94.2043 330.993 94.8777 330.84 95.611 330.84C96.531 330.84 97.3443 331.047 98.051 331.46C98.7577 331.873 99.2843 332.48 99.631 333.28C99.9377 332.507 100.444 331.907 101.151 331.48C101.858 331.053 102.644 330.84 103.511 330.84ZM120.936 336.1C120.936 336.447 120.916 336.813 120.876 337.2H112.116C112.183 338.28 112.55 339.127 113.216 339.74C113.896 340.34 114.716 340.64 115.676 340.64C116.463 340.64 117.116 340.46 117.636 340.1C118.17 339.727 118.543 339.233 118.756 338.62H120.716C120.423 339.673 119.836 340.533 118.956 341.2C118.076 341.853 116.983 342.18 115.676 342.18C114.636 342.18 113.703 341.947 112.876 341.48C112.063 341.013 111.423 340.353 110.956 339.5C110.49 338.633 110.256 337.633 110.256 336.5C110.256 335.367 110.483 334.373 110.936 333.52C111.39 332.667 112.023 332.013 112.836 331.56C113.663 331.093 114.61 330.86 115.676 330.86C116.716 330.86 117.636 331.087 118.436 331.54C119.236 331.993 119.85 332.62 120.276 333.42C120.716 334.207 120.936 335.1 120.936 336.1ZM119.056 335.72C119.056 335.027 118.903 334.433 118.596 333.94C118.29 333.433 117.87 333.053 117.336 332.8C116.816 332.533 116.236 332.4 115.596 332.4C114.676 332.4 113.89 332.693 113.236 333.28C112.596 333.867 112.23 334.68 112.136 335.72H119.056ZM125.559 332.54V339C125.559 339.533 125.672 339.913 125.899 340.14C126.125 340.353 126.519 340.46 127.079 340.46H128.419V342H126.779C125.765 342 125.005 341.767 124.499 341.3C123.992 340.833 123.739 340.067 123.739 339V332.54H122.319V331.04H123.739V328.28H125.559V331.04H128.419V332.54H125.559ZM145.956 336.1C145.956 336.447 145.936 336.813 145.896 337.2H137.136C137.203 338.28 137.569 339.127 138.236 339.74C138.916 340.34 139.736 340.64 140.696 340.64C141.483 340.64 142.136 340.46 142.656 340.1C143.189 339.727 143.563 339.233 143.776 338.62H145.736C145.443 339.673 144.856 340.533 143.976 341.2C143.096 341.853 142.003 342.18 140.696 342.18C139.656 342.18 138.723 341.947 137.896 341.48C137.083 341.013 136.443 340.353 135.976 339.5C135.509 338.633 135.276 337.633 135.276 336.5C135.276 335.367 135.503 334.373 135.956 333.52C136.409 332.667 137.043 332.013 137.856 331.56C138.683 331.093 139.629 330.86 140.696 330.86C141.736 330.86 142.656 331.087 143.456 331.54C144.256 331.993 144.869 332.62 145.296 333.42C145.736 334.207 145.956 335.1 145.956 336.1ZM144.076 335.72C144.076 335.027 143.923 334.433 143.616 333.94C143.309 333.433 142.889 333.053 142.356 332.8C141.836 332.533 141.256 332.4 140.616 332.4C139.696 332.4 138.909 332.693 138.256 333.28C137.616 333.867 137.249 334.68 137.156 335.72H144.076ZM158.358 336.1C158.358 336.447 158.338 336.813 158.298 337.2H149.538C149.605 338.28 149.972 339.127 150.638 339.74C151.318 340.34 152.138 340.64 153.098 340.64C153.885 340.64 154.538 340.46 155.058 340.1C155.592 339.727 155.965 339.233 156.178 338.62H158.138C157.845 339.673 157.258 340.533 156.378 341.2C155.498 341.853 154.405 342.18 153.098 342.18C152.058 342.18 151.125 341.947 150.298 341.48C149.485 341.013 148.845 340.353 148.378 339.5C147.912 338.633 147.678 337.633 147.678 336.5C147.678 335.367 147.905 334.373 148.358 333.52C148.812 332.667 149.445 332.013 150.258 331.56C151.085 331.093 152.032 330.86 153.098 330.86C154.138 330.86 155.058 331.087 155.858 331.54C156.658 331.993 157.272 332.62 157.698 333.42C158.138 334.207 158.358 335.1 158.358 336.1ZM156.478 335.72C156.478 335.027 156.325 334.433 156.018 333.94C155.712 333.433 155.292 333.053 154.758 332.8C154.238 332.533 153.658 332.4 153.018 332.4C152.098 332.4 151.312 332.693 150.658 333.28C150.018 333.867 149.652 334.68 149.558 335.72H156.478ZM166.101 330.84C167.434 330.84 168.514 331.247 169.341 332.06C170.167 332.86 170.581 334.02 170.581 335.54V342H168.781V335.8C168.781 334.707 168.507 333.873 167.961 333.3C167.414 332.713 166.667 332.42 165.721 332.42C164.761 332.42 163.994 332.72 163.421 333.32C162.861 333.92 162.581 334.793 162.581 335.94V342H160.761V331.04H162.581V332.6C162.941 332.04 163.427 331.607 164.041 331.3C164.667 330.993 165.354 330.84 166.101 330.84ZM182.766 342.18C181.926 342.18 181.172 342.04 180.506 341.76C179.839 341.467 179.312 341.067 178.926 340.56C178.539 340.04 178.326 339.447 178.286 338.78H180.166C180.219 339.327 180.472 339.773 180.926 340.12C181.392 340.467 181.999 340.64 182.746 340.64C183.439 340.64 183.986 340.487 184.386 340.18C184.786 339.873 184.986 339.487 184.986 339.02C184.986 338.54 184.772 338.187 184.346 337.96C183.919 337.72 183.259 337.487 182.366 337.26C181.552 337.047 180.886 336.833 180.366 336.62C179.859 336.393 179.419 336.067 179.046 335.64C178.686 335.2 178.506 334.627 178.506 333.92C178.506 333.36 178.672 332.847 179.006 332.38C179.339 331.913 179.812 331.547 180.426 331.28C181.039 331 181.739 330.86 182.526 330.86C183.739 330.86 184.719 331.167 185.466 331.78C186.212 332.393 186.612 333.233 186.666 334.3H184.846C184.806 333.727 184.572 333.267 184.146 332.92C183.732 332.573 183.172 332.4 182.466 332.4C181.812 332.4 181.292 332.54 180.906 332.82C180.519 333.1 180.326 333.467 180.326 333.92C180.326 334.28 180.439 334.58 180.666 334.82C180.906 335.047 181.199 335.233 181.546 335.38C181.906 335.513 182.399 335.667 183.026 335.84C183.812 336.053 184.452 336.267 184.946 336.48C185.439 336.68 185.859 336.987 186.206 337.4C186.566 337.813 186.752 338.353 186.766 339.02C186.766 339.62 186.599 340.16 186.266 340.64C185.932 341.12 185.459 341.5 184.846 341.78C184.246 342.047 183.552 342.18 182.766 342.18ZM191.555 332.54V339C191.555 339.533 191.668 339.913 191.895 340.14C192.122 340.353 192.515 340.46 193.075 340.46H194.415V342H192.775C191.762 342 191.002 341.767 190.495 341.3C189.988 340.833 189.735 340.067 189.735 339V332.54H188.315V331.04H189.735V328.28H191.555V331.04H194.415V332.54H191.555ZM206.62 336.1C206.62 336.447 206.6 336.813 206.56 337.2H197.8C197.867 338.28 198.233 339.127 198.9 339.74C199.58 340.34 200.4 340.64 201.36 340.64C202.147 340.64 202.8 340.46 203.32 340.1C203.853 339.727 204.227 339.233 204.44 338.62H206.4C206.107 339.673 205.52 340.533 204.64 341.2C203.76 341.853 202.667 342.18 201.36 342.18C200.32 342.18 199.387 341.947 198.56 341.48C197.747 341.013 197.107 340.353 196.64 339.5C196.173 338.633 195.94 337.633 195.94 336.5C195.94 335.367 196.167 334.373 196.62 333.52C197.073 332.667 197.707 332.013 198.52 331.56C199.347 331.093 200.293 330.86 201.36 330.86C202.4 330.86 203.32 331.087 204.12 331.54C204.92 331.993 205.533 332.62 205.96 333.42C206.4 334.207 206.62 335.1 206.62 336.1ZM204.74 335.72C204.74 335.027 204.587 334.433 204.28 333.94C203.973 333.433 203.553 333.053 203.02 332.8C202.5 332.533 201.92 332.4 201.28 332.4C200.36 332.4 199.573 332.693 198.92 333.28C198.28 333.867 197.913 334.68 197.82 335.72H204.74ZM210.842 332.82C211.162 332.193 211.616 331.707 212.202 331.36C212.802 331.013 213.529 330.84 214.382 330.84V332.72H213.902C211.862 332.72 210.842 333.827 210.842 336.04V342H209.022V331.04H210.842V332.82ZM222.603 342L218.303 337.16V342H216.483V327.2H218.303V335.9L222.523 331.04H225.063L219.903 336.5L225.083 342H222.603ZM236.776 336.1C236.776 336.447 236.756 336.813 236.716 337.2H227.956C228.023 338.28 228.39 339.127 229.056 339.74C229.736 340.34 230.556 340.64 231.516 340.64C232.303 340.64 232.956 340.46 233.476 340.1C234.01 339.727 234.383 339.233 234.596 338.62H236.556C236.263 339.673 235.676 340.533 234.796 341.2C233.916 341.853 232.823 342.18 231.516 342.18C230.476 342.18 229.543 341.947 228.716 341.48C227.903 341.013 227.263 340.353 226.796 339.5C226.33 338.633 226.096 337.633 226.096 336.5C226.096 335.367 226.323 334.373 226.776 333.52C227.23 332.667 227.863 332.013 228.676 331.56C229.503 331.093 230.45 330.86 231.516 330.86C232.556 330.86 233.476 331.087 234.276 331.54C235.076 331.993 235.69 332.62 236.116 333.42C236.556 334.207 236.776 335.1 236.776 336.1ZM234.896 335.72C234.896 335.027 234.743 334.433 234.436 333.94C234.13 333.433 233.71 333.053 233.176 332.8C232.656 332.533 232.076 332.4 231.436 332.4C230.516 332.4 229.73 332.693 229.076 333.28C228.436 333.867 228.07 334.68 227.976 335.72H234.896ZM246.331 333.08C246.704 332.427 247.251 331.893 247.971 331.48C248.691 331.067 249.511 330.86 250.431 330.86C251.417 330.86 252.304 331.093 253.091 331.56C253.877 332.027 254.497 332.687 254.951 333.54C255.404 334.38 255.631 335.36 255.631 336.48C255.631 337.587 255.404 338.573 254.951 339.44C254.497 340.307 253.871 340.98 253.071 341.46C252.284 341.94 251.404 342.18 250.431 342.18C249.484 342.18 248.651 341.973 247.931 341.56C247.224 341.147 246.691 340.62 246.331 339.98V342H244.511V327.2H246.331V333.08ZM253.771 336.48C253.771 335.653 253.604 334.933 253.271 334.32C252.937 333.707 252.484 333.24 251.911 332.92C251.351 332.6 250.731 332.44 250.051 332.44C249.384 332.44 248.764 332.607 248.191 332.94C247.631 333.26 247.177 333.733 246.831 334.36C246.497 334.973 246.331 335.687 246.331 336.5C246.331 337.327 246.497 338.053 246.831 338.68C247.177 339.293 247.631 339.767 248.191 340.1C248.764 340.42 249.384 340.58 250.051 340.58C250.731 340.58 251.351 340.42 251.911 340.1C252.484 339.767 252.937 339.293 253.271 338.68C253.604 338.053 253.771 337.32 253.771 336.48ZM262.806 342.18C261.78 342.18 260.846 341.947 260.006 341.48C259.18 341.013 258.526 340.353 258.046 339.5C257.58 338.633 257.346 337.633 257.346 336.5C257.346 335.38 257.586 334.393 258.066 333.54C258.56 332.673 259.226 332.013 260.066 331.56C260.906 331.093 261.846 330.86 262.886 330.86C263.926 330.86 264.866 331.093 265.706 331.56C266.546 332.013 267.206 332.667 267.686 333.52C268.18 334.373 268.426 335.367 268.426 336.5C268.426 337.633 268.173 338.633 267.666 339.5C267.173 340.353 266.5 341.013 265.646 341.48C264.793 341.947 263.846 342.18 262.806 342.18ZM262.806 340.58C263.46 340.58 264.073 340.427 264.646 340.12C265.22 339.813 265.68 339.353 266.026 338.74C266.386 338.127 266.566 337.38 266.566 336.5C266.566 335.62 266.393 334.873 266.046 334.26C265.7 333.647 265.246 333.193 264.686 332.9C264.126 332.593 263.52 332.44 262.866 332.44C262.2 332.44 261.586 332.593 261.026 332.9C260.48 333.193 260.04 333.647 259.706 334.26C259.373 334.873 259.206 335.62 259.206 336.5C259.206 337.393 259.366 338.147 259.686 338.76C260.02 339.373 260.46 339.833 261.006 340.14C261.553 340.433 262.153 340.58 262.806 340.58ZM275.599 342.18C274.573 342.18 273.639 341.947 272.799 341.48C271.973 341.013 271.319 340.353 270.839 339.5C270.373 338.633 270.139 337.633 270.139 336.5C270.139 335.38 270.379 334.393 270.859 333.54C271.353 332.673 272.019 332.013 272.859 331.56C273.699 331.093 274.639 330.86 275.679 330.86C276.719 330.86 277.659 331.093 278.499 331.56C279.339 332.013 279.999 332.667 280.479 333.52C280.973 334.373 281.219 335.367 281.219 336.5C281.219 337.633 280.966 338.633 280.459 339.5C279.966 340.353 279.293 341.013 278.439 341.48C277.586 341.947 276.639 342.18 275.599 342.18ZM275.599 340.58C276.253 340.58 276.866 340.427 277.439 340.12C278.013 339.813 278.473 339.353 278.819 338.74C279.179 338.127 279.359 337.38 279.359 336.5C279.359 335.62 279.186 334.873 278.839 334.26C278.493 333.647 278.039 333.193 277.479 332.9C276.919 332.593 276.313 332.44 275.659 332.44C274.993 332.44 274.379 332.593 273.819 332.9C273.273 333.193 272.833 333.647 272.499 334.26C272.166 334.873 271.999 335.62 271.999 336.5C271.999 337.393 272.159 338.147 272.479 338.76C272.813 339.373 273.253 339.833 273.799 340.14C274.346 340.433 274.946 340.58 275.599 340.58ZM282.932 336.48C282.932 335.36 283.159 334.38 283.612 333.54C284.066 332.687 284.686 332.027 285.472 331.56C286.272 331.093 287.166 330.86 288.152 330.86C289.006 330.86 289.799 331.06 290.532 331.46C291.266 331.847 291.826 332.36 292.212 333V327.2H294.052V342H292.212V339.94C291.852 340.593 291.319 341.133 290.612 341.56C289.906 341.973 289.079 342.18 288.132 342.18C287.159 342.18 286.272 341.94 285.472 341.46C284.686 340.98 284.066 340.307 283.612 339.44C283.159 338.573 282.932 337.587 282.932 336.48ZM292.212 336.5C292.212 335.673 292.046 334.953 291.712 334.34C291.379 333.727 290.926 333.26 290.352 332.94C289.792 332.607 289.172 332.44 288.492 332.44C287.812 332.44 287.192 332.6 286.632 332.92C286.072 333.24 285.626 333.707 285.292 334.32C284.959 334.933 284.792 335.653 284.792 336.48C284.792 337.32 284.959 338.053 285.292 338.68C285.626 339.293 286.072 339.767 286.632 340.1C287.192 340.42 287.812 340.58 288.492 340.58C289.172 340.58 289.792 340.42 290.352 340.1C290.926 339.767 291.379 339.293 291.712 338.68C292.046 338.053 292.212 337.327 292.212 336.5ZM301.008 342.18C300.168 342.18 299.415 342.04 298.748 341.76C298.081 341.467 297.555 341.067 297.168 340.56C296.781 340.04 296.568 339.447 296.528 338.78H298.408C298.461 339.327 298.715 339.773 299.168 340.12C299.635 340.467 300.241 340.64 300.988 340.64C301.681 340.64 302.228 340.487 302.628 340.18C303.028 339.873 303.228 339.487 303.228 339.02C303.228 338.54 303.015 338.187 302.588 337.96C302.161 337.72 301.501 337.487 300.608 337.26C299.795 337.047 299.128 336.833 298.608 336.62C298.101 336.393 297.661 336.067 297.288 335.64C296.928 335.2 296.748 334.627 296.748 333.92C296.748 333.36 296.915 332.847 297.248 332.38C297.581 331.913 298.055 331.547 298.668 331.28C299.281 331 299.981 330.86 300.768 330.86C301.981 330.86 302.961 331.167 303.708 331.78C304.455 332.393 304.855 333.233 304.908 334.3H303.088C303.048 333.727 302.815 333.267 302.388 332.92C301.975 332.573 301.415 332.4 300.708 332.4C300.055 332.4 299.535 332.54 299.148 332.82C298.761 333.1 298.568 333.467 298.568 333.92C298.568 334.28 298.681 334.58 298.908 334.82C299.148 335.047 299.441 335.233 299.788 335.38C300.148 335.513 300.641 335.667 301.268 335.84C302.055 336.053 302.695 336.267 303.188 336.48C303.681 336.68 304.101 336.987 304.448 337.4C304.808 337.813 304.995 338.353 305.008 339.02C305.008 339.62 304.841 340.16 304.508 340.64C304.175 341.12 303.701 341.5 303.088 341.78C302.488 342.047 301.795 342.18 301.008 342.18ZM306.897 336.5C306.897 335.367 307.124 334.38 307.577 333.54C308.03 332.687 308.657 332.027 309.457 331.56C310.27 331.093 311.197 330.86 312.237 330.86C313.584 330.86 314.69 331.187 315.557 331.84C316.437 332.493 317.017 333.4 317.297 334.56H315.337C315.15 333.893 314.784 333.367 314.237 332.98C313.704 332.593 313.037 332.4 312.237 332.4C311.197 332.4 310.357 332.76 309.717 333.48C309.077 334.187 308.757 335.193 308.757 336.5C308.757 337.82 309.077 338.84 309.717 339.56C310.357 340.28 311.197 340.64 312.237 340.64C313.037 340.64 313.704 340.453 314.237 340.08C314.77 339.707 315.137 339.173 315.337 338.48H317.297C317.004 339.6 316.417 340.5 315.537 341.18C314.657 341.847 313.557 342.18 312.237 342.18C311.197 342.18 310.27 341.947 309.457 341.48C308.657 341.013 308.03 340.353 307.577 339.5C307.124 338.647 306.897 337.647 306.897 336.5ZM325.166 330.84C325.992 330.84 326.739 331.02 327.406 331.38C328.072 331.727 328.592 332.253 328.966 332.96C329.352 333.667 329.546 334.527 329.546 335.54V342H327.746V335.8C327.746 334.707 327.472 333.873 326.926 333.3C326.379 332.713 325.632 332.42 324.686 332.42C323.726 332.42 322.959 332.72 322.386 333.32C321.826 333.92 321.546 334.793 321.546 335.94V342H319.726V327.2H321.546V332.6C321.906 332.04 322.399 331.607 323.026 331.3C323.666 330.993 324.379 330.84 325.166 330.84ZM331.839 336.48C331.839 335.36 332.065 334.38 332.519 333.54C332.972 332.687 333.592 332.027 334.379 331.56C335.179 331.093 336.065 330.86 337.039 330.86C337.999 330.86 338.832 331.067 339.539 331.48C340.245 331.893 340.772 332.413 341.119 333.04V331.04H342.959V342H341.119V339.96C340.759 340.6 340.219 341.133 339.499 341.56C338.792 341.973 337.965 342.18 337.019 342.18C336.045 342.18 335.165 341.94 334.379 341.46C333.592 340.98 332.972 340.307 332.519 339.44C332.065 338.573 331.839 337.587 331.839 336.48ZM341.119 336.5C341.119 335.673 340.952 334.953 340.619 334.34C340.285 333.727 339.832 333.26 339.259 332.94C338.699 332.607 338.079 332.44 337.399 332.44C336.719 332.44 336.099 332.6 335.539 332.92C334.979 333.24 334.532 333.707 334.199 334.32C333.865 334.933 333.699 335.653 333.699 336.48C333.699 337.32 333.865 338.053 334.199 338.68C334.532 339.293 334.979 339.767 335.539 340.1C336.099 340.42 336.719 340.58 337.399 340.58C338.079 340.58 338.699 340.42 339.259 340.1C339.832 339.767 340.285 339.293 340.619 338.68C340.952 338.053 341.119 337.327 341.119 336.5ZM347.854 333.06C348.214 332.433 348.747 331.913 349.454 331.5C350.174 331.073 351.007 330.86 351.954 330.86C352.927 330.86 353.807 331.093 354.594 331.56C355.394 332.027 356.021 332.687 356.474 333.54C356.927 334.38 357.154 335.36 357.154 336.48C357.154 337.587 356.927 338.573 356.474 339.44C356.021 340.307 355.394 340.98 354.594 341.46C353.807 341.94 352.927 342.18 351.954 342.18C351.021 342.18 350.194 341.973 349.474 341.56C348.767 341.133 348.227 340.607 347.854 339.98V347.2H346.034V331.04H347.854V333.06ZM355.294 336.48C355.294 335.653 355.127 334.933 354.794 334.32C354.461 333.707 354.007 333.24 353.434 332.92C352.874 332.6 352.254 332.44 351.574 332.44C350.907 332.44 350.287 332.607 349.714 332.94C349.154 333.26 348.701 333.733 348.354 334.36C348.021 334.973 347.854 335.687 347.854 336.5C347.854 337.327 348.021 338.053 348.354 338.68C348.701 339.293 349.154 339.767 349.714 340.1C350.287 340.42 350.907 340.58 351.574 340.58C352.254 340.58 352.874 340.42 353.434 340.1C354.007 339.767 354.461 339.293 354.794 338.68C355.127 338.053 355.294 337.32 355.294 336.48ZM360.13 342.12C359.783 342.12 359.49 342 359.25 341.76C359.01 341.52 358.89 341.227 358.89 340.88C358.89 340.533 359.01 340.24 359.25 340C359.49 339.76 359.783 339.64 360.13 339.64C360.463 339.64 360.743 339.76 360.97 340C361.21 340.24 361.33 340.533 361.33 340.88C361.33 341.227 361.21 341.52 360.97 341.76C360.743 342 360.463 342.12 360.13 342.12Z" fill="black"/>
</g>
<defs>
<clipPath id="clip0_317_5671">
<rect width="462" height="409" rx="20" fill="white"/>
</clipPath>
</defs>
</svg>
