<svg width="462" height="383" viewBox="0 0 462 383" fill="none" xmlns="http://www.w3.org/2000/svg">
<g clip-path="url(#clip0_317_5693)">
<path d="M16 154.111C16 130.141 35.1865 110.581 59.1521 110.119L410.507 103.347C420.608 103.153 429.094 110.896 429.824 120.972L446.603 352.7C447.357 363.126 439.103 372 428.65 372H41C27.1929 372 16 360.807 16 347V154.111Z" fill="#F7A6A6"/>
<path d="M151.671 156.92L144.351 185H136.071L131.591 166.52L126.951 185H118.671L111.551 156.92H118.871L122.911 177.36L127.911 156.92H135.431L140.231 177.36L144.311 156.92H151.671ZM153.741 173.8C153.741 171.507 154.168 169.493 155.021 167.76C155.901 166.027 157.088 164.693 158.581 163.76C160.074 162.827 161.741 162.36 163.581 162.36C165.154 162.36 166.528 162.68 167.701 163.32C168.901 163.96 169.821 164.8 170.461 165.84V162.68H177.301V185H170.461V181.84C169.794 182.88 168.861 183.72 167.661 184.36C166.488 185 165.114 185.32 163.541 185.32C161.728 185.32 160.074 184.853 158.581 183.92C157.088 182.96 155.901 181.613 155.021 179.88C154.168 178.12 153.741 176.093 153.741 173.8ZM170.461 173.84C170.461 172.133 169.981 170.787 169.021 169.8C168.088 168.813 166.941 168.32 165.581 168.32C164.221 168.32 163.061 168.813 162.101 169.8C161.168 170.76 160.701 172.093 160.701 173.8C160.701 175.507 161.168 176.867 162.101 177.88C163.061 178.867 164.221 179.36 165.581 179.36C166.941 179.36 168.088 178.867 169.021 177.88C169.981 176.893 170.461 175.547 170.461 173.84ZM194.69 179.2V185H191.21C188.73 185 186.796 184.4 185.41 183.2C184.023 181.973 183.33 179.987 183.33 177.24V168.36H180.61V162.68H183.33V157.24H190.17V162.68H194.65V168.36H190.17V177.32C190.17 177.987 190.33 178.467 190.65 178.76C190.97 179.053 191.503 179.2 192.25 179.2H194.69ZM210.416 160.36C209.216 160.36 208.229 160.013 207.456 159.32C206.709 158.6 206.336 157.72 206.336 156.68C206.336 155.613 206.709 154.733 207.456 154.04C208.229 153.32 209.216 152.96 210.416 152.96C211.589 152.96 212.549 153.32 213.296 154.04C214.069 154.733 214.456 155.613 214.456 156.68C214.456 157.72 214.069 158.6 213.296 159.32C212.549 160.013 211.589 160.36 210.416 160.36ZM213.816 162.68V185H206.976V162.68H213.816ZM227.853 185.32C225.906 185.32 224.173 184.987 222.653 184.32C221.133 183.653 219.933 182.747 219.053 181.6C218.173 180.427 217.68 179.12 217.573 177.68H224.333C224.413 178.453 224.773 179.08 225.413 179.56C226.053 180.04 226.84 180.28 227.773 180.28C228.626 180.28 229.28 180.12 229.733 179.8C230.213 179.453 230.453 179.013 230.453 178.48C230.453 177.84 230.12 177.373 229.453 177.08C228.786 176.76 227.706 176.413 226.213 176.04C224.613 175.667 223.28 175.28 222.213 174.88C221.146 174.453 220.226 173.8 219.453 172.92C218.68 172.013 218.293 170.8 218.293 169.28C218.293 168 218.64 166.84 219.333 165.8C220.053 164.733 221.093 163.893 222.453 163.28C223.84 162.667 225.48 162.36 227.373 162.36C230.173 162.36 232.373 163.053 233.973 164.44C235.6 165.827 236.533 167.667 236.773 169.96H230.453C230.346 169.187 230 168.573 229.413 168.12C228.853 167.667 228.106 167.44 227.173 167.44C226.373 167.44 225.76 167.6 225.333 167.92C224.906 168.213 224.693 168.627 224.693 169.16C224.693 169.8 225.026 170.28 225.693 170.6C226.386 170.92 227.453 171.24 228.893 171.56C230.546 171.987 231.893 172.413 232.933 172.84C233.973 173.24 234.88 173.907 235.653 174.84C236.453 175.747 236.866 176.973 236.893 178.52C236.893 179.827 236.52 181 235.773 182.04C235.053 183.053 234 183.853 232.613 184.44C231.253 185.027 229.666 185.32 227.853 185.32ZM263.274 162.44C265.834 162.44 267.888 163.293 269.434 165C270.981 166.68 271.754 169 271.754 171.96V185H264.954V172.88C264.954 171.387 264.568 170.227 263.794 169.4C263.021 168.573 261.981 168.16 260.674 168.16C259.368 168.16 258.328 168.573 257.554 169.4C256.781 170.227 256.394 171.387 256.394 172.88V185H249.554V155.4H256.394V165.68C257.088 164.693 258.034 163.907 259.234 163.32C260.434 162.733 261.781 162.44 263.274 162.44ZM297.547 173.48C297.547 174.12 297.507 174.787 297.427 175.48H281.947C282.054 176.867 282.494 177.933 283.267 178.68C284.067 179.4 285.041 179.76 286.187 179.76C287.894 179.76 289.081 179.04 289.747 177.6H297.027C296.654 179.067 295.974 180.387 294.987 181.56C294.027 182.733 292.814 183.653 291.347 184.32C289.881 184.987 288.241 185.32 286.427 185.32C284.241 185.32 282.294 184.853 280.587 183.92C278.881 182.987 277.547 181.653 276.587 179.92C275.627 178.187 275.147 176.16 275.147 173.84C275.147 171.52 275.614 169.493 276.547 167.76C277.507 166.027 278.841 164.693 280.547 163.76C282.254 162.827 284.214 162.36 286.427 162.36C288.587 162.36 290.507 162.813 292.187 163.72C293.867 164.627 295.174 165.92 296.107 167.6C297.067 169.28 297.547 171.24 297.547 173.48ZM290.547 171.68C290.547 170.507 290.147 169.573 289.347 168.88C288.547 168.187 287.547 167.84 286.347 167.84C285.201 167.84 284.227 168.173 283.427 168.84C282.654 169.507 282.174 170.453 281.987 171.68H290.547ZM313.596 179.2V185H310.116C307.636 185 305.702 184.4 304.316 183.2C302.929 181.973 302.236 179.987 302.236 177.24V168.36H299.516V162.68H302.236V157.24H309.076V162.68H313.556V168.36H309.076V177.32C309.076 177.987 309.236 178.467 309.556 178.76C309.876 179.053 310.409 179.2 311.156 179.2H313.596ZM325.606 155.36C328.459 155.36 330.739 156.107 332.446 157.6C334.179 159.093 335.046 161.2 335.046 163.92C335.046 166.427 334.219 168.387 332.566 169.8C330.939 171.187 328.779 171.893 326.086 171.92L325.886 174.92H319.886L319.686 167.48H322.086C324.139 167.48 325.699 167.227 326.766 166.72C327.859 166.213 328.406 165.293 328.406 163.96C328.406 163.027 328.152 162.293 327.646 161.76C327.139 161.227 326.432 160.96 325.526 160.96C324.566 160.96 323.819 161.24 323.286 161.8C322.752 162.333 322.486 163.067 322.486 164H316.046C315.992 162.373 316.326 160.907 317.046 159.6C317.792 158.293 318.886 157.267 320.326 156.52C321.792 155.747 323.552 155.36 325.606 155.36ZM322.966 185.32C321.766 185.32 320.779 184.973 320.006 184.28C319.259 183.56 318.886 182.68 318.886 181.64C318.886 180.573 319.259 179.68 320.006 178.96C320.779 178.24 321.766 177.88 322.966 177.88C324.139 177.88 325.099 178.24 325.846 178.96C326.619 179.68 327.006 180.573 327.006 181.64C327.006 182.68 326.619 183.56 325.846 184.28C325.099 184.973 324.139 185.32 322.966 185.32Z" fill="black"/>
<path d="M36.102 234.6H34.062L35.982 230.06H37.282L36.102 234.6ZM39.342 234.6H37.302L39.222 230.06H40.522L39.342 234.6ZM47.1397 244.14C46.2197 244.14 45.393 243.98 44.6597 243.66C43.9397 243.327 43.373 242.873 42.9597 242.3C42.5464 241.713 42.333 241.04 42.3197 240.28H44.2597C44.3264 240.933 44.593 241.487 45.0597 241.94C45.5397 242.38 46.233 242.6 47.1397 242.6C48.0064 242.6 48.6864 242.387 49.1797 241.96C49.6864 241.52 49.9397 240.96 49.9397 240.28C49.9397 239.747 49.793 239.313 49.4997 238.98C49.2064 238.647 48.8397 238.393 48.3997 238.22C47.9597 238.047 47.3664 237.86 46.6197 237.66C45.6997 237.42 44.9597 237.18 44.3997 236.94C43.853 236.7 43.3797 236.327 42.9797 235.82C42.593 235.3 42.3997 234.607 42.3997 233.74C42.3997 232.98 42.593 232.307 42.9797 231.72C43.3664 231.133 43.9064 230.68 44.5997 230.36C45.3064 230.04 46.113 229.88 47.0197 229.88C48.3264 229.88 49.393 230.207 50.2197 230.86C51.0597 231.513 51.533 232.38 51.6397 233.46H49.6397C49.573 232.927 49.293 232.46 48.7997 232.06C48.3064 231.647 47.653 231.44 46.8397 231.44C46.0797 231.44 45.4597 231.64 44.9797 232.04C44.4997 232.427 44.2597 232.973 44.2597 233.68C44.2597 234.187 44.3997 234.6 44.6797 234.92C44.973 235.24 45.3264 235.487 45.7397 235.66C46.1664 235.82 46.7597 236.007 47.5197 236.22C48.4397 236.473 49.1797 236.727 49.7397 236.98C50.2997 237.22 50.7797 237.6 51.1797 238.12C51.5797 238.627 51.7797 239.32 51.7797 240.2C51.7797 240.88 51.5997 241.52 51.2397 242.12C50.8797 242.72 50.3464 243.207 49.6397 243.58C48.933 243.953 48.0997 244.14 47.1397 244.14ZM53.778 238.48C53.778 237.36 54.0046 236.38 54.458 235.54C54.9113 234.687 55.5313 234.027 56.318 233.56C57.118 233.093 58.0046 232.86 58.978 232.86C59.938 232.86 60.7713 233.067 61.478 233.48C62.1846 233.893 62.7113 234.413 63.058 235.04V233.04H64.898V244H63.058V241.96C62.698 242.6 62.158 243.133 61.438 243.56C60.7313 243.973 59.9046 244.18 58.958 244.18C57.9846 244.18 57.1046 243.94 56.318 243.46C55.5313 242.98 54.9113 242.307 54.458 241.44C54.0046 240.573 53.778 239.587 53.778 238.48ZM63.058 238.5C63.058 237.673 62.8913 236.953 62.558 236.34C62.2246 235.727 61.7713 235.26 61.198 234.94C60.638 234.607 60.018 234.44 59.338 234.44C58.658 234.44 58.038 234.6 57.478 234.92C56.918 235.24 56.4713 235.707 56.138 236.32C55.8046 236.933 55.638 237.653 55.638 238.48C55.638 239.32 55.8046 240.053 56.138 240.68C56.4713 241.293 56.918 241.767 57.478 242.1C58.038 242.42 58.658 242.58 59.338 242.58C60.018 242.58 60.638 242.42 61.198 242.1C61.7713 241.767 62.2246 241.293 62.558 240.68C62.8913 240.053 63.058 239.327 63.058 238.5ZM72.0536 242.32L75.4536 233.04H77.3936L73.0936 244H70.9736L66.6736 233.04H68.6336L72.0536 242.32ZM89.1845 238.1C89.1845 238.447 89.1645 238.813 89.1245 239.2H80.3645C80.4312 240.28 80.7979 241.127 81.4645 241.74C82.1445 242.34 82.9645 242.64 83.9245 242.64C84.7112 242.64 85.3645 242.46 85.8845 242.1C86.4179 241.727 86.7912 241.233 87.0045 240.62H88.9645C88.6712 241.673 88.0845 242.533 87.2045 243.2C86.3245 243.853 85.2312 244.18 83.9245 244.18C82.8845 244.18 81.9512 243.947 81.1245 243.48C80.3112 243.013 79.6712 242.353 79.2045 241.5C78.7379 240.633 78.5045 239.633 78.5045 238.5C78.5045 237.367 78.7312 236.373 79.1845 235.52C79.6379 234.667 80.2712 234.013 81.0845 233.56C81.9112 233.093 82.8579 232.86 83.9245 232.86C84.9645 232.86 85.8845 233.087 86.6845 233.54C87.4845 233.993 88.0979 234.62 88.5245 235.42C88.9645 236.207 89.1845 237.1 89.1845 238.1ZM87.3045 237.72C87.3045 237.027 87.1512 236.433 86.8445 235.94C86.5379 235.433 86.1179 235.053 85.5845 234.8C85.0645 234.533 84.4845 234.4 83.8445 234.4C82.9245 234.4 82.1379 234.693 81.4845 235.28C80.8445 235.867 80.4779 236.68 80.3845 237.72H87.3045ZM90.9069 238.48C90.9069 237.36 91.1335 236.38 91.5869 235.54C92.0402 234.687 92.6602 234.027 93.4469 233.56C94.2469 233.093 95.1402 232.86 96.1269 232.86C96.9802 232.86 97.7735 233.06 98.5069 233.46C99.2402 233.847 99.8002 234.36 100.187 235V229.2H102.027V244H100.187V241.94C99.8269 242.593 99.2935 243.133 98.5869 243.56C97.8802 243.973 97.0535 244.18 96.1069 244.18C95.1335 244.18 94.2469 243.94 93.4469 243.46C92.6602 242.98 92.0402 242.307 91.5869 241.44C91.1335 240.573 90.9069 239.587 90.9069 238.48ZM100.187 238.5C100.187 237.673 100.02 236.953 99.6869 236.34C99.3535 235.727 98.9002 235.26 98.3269 234.94C97.7669 234.607 97.1469 234.44 96.4669 234.44C95.7869 234.44 95.1669 234.6 94.6069 234.92C94.0469 235.24 93.6002 235.707 93.2669 236.32C92.9335 236.933 92.7669 237.653 92.7669 238.48C92.7669 239.32 92.9335 240.053 93.2669 240.68C93.6002 241.293 94.0469 241.767 94.6069 242.1C95.1669 242.42 95.7869 242.58 96.4669 242.58C97.1469 242.58 97.7669 242.42 98.3269 242.1C98.9002 241.767 99.3535 241.293 99.6869 240.68C100.02 240.053 100.187 239.327 100.187 238.5ZM112.255 235.08C112.628 234.427 113.175 233.893 113.895 233.48C114.615 233.067 115.435 232.86 116.355 232.86C117.341 232.86 118.228 233.093 119.015 233.56C119.801 234.027 120.421 234.687 120.875 235.54C121.328 236.38 121.555 237.36 121.555 238.48C121.555 239.587 121.328 240.573 120.875 241.44C120.421 242.307 119.795 242.98 118.995 243.46C118.208 243.94 117.328 244.18 116.355 244.18C115.408 244.18 114.575 243.973 113.855 243.56C113.148 243.147 112.615 242.62 112.255 241.98V244H110.435V229.2H112.255V235.08ZM119.695 238.48C119.695 237.653 119.528 236.933 119.195 236.32C118.861 235.707 118.408 235.24 117.835 234.92C117.275 234.6 116.655 234.44 115.975 234.44C115.308 234.44 114.688 234.607 114.115 234.94C113.555 235.26 113.101 235.733 112.755 236.36C112.421 236.973 112.255 237.687 112.255 238.5C112.255 239.327 112.421 240.053 112.755 240.68C113.101 241.293 113.555 241.767 114.115 242.1C114.688 242.42 115.308 242.58 115.975 242.58C116.655 242.58 117.275 242.42 117.835 242.1C118.408 241.767 118.861 241.293 119.195 240.68C119.528 240.053 119.695 239.32 119.695 238.48ZM133.39 233.04L126.79 249.16H124.91L127.07 243.88L122.65 233.04H124.67L128.11 241.92L131.51 233.04H133.39ZM142.772 234.54V241C142.772 241.533 142.885 241.913 143.112 242.14C143.338 242.353 143.732 242.46 144.292 242.46H145.632V244H143.992C142.978 244 142.218 243.767 141.712 243.3C141.205 242.833 140.952 242.067 140.952 241V234.54H139.532V233.04H140.952V230.28H142.772V233.04H145.632V234.54H142.772ZM153.277 232.84C154.104 232.84 154.85 233.02 155.517 233.38C156.184 233.727 156.704 234.253 157.077 234.96C157.464 235.667 157.657 236.527 157.657 237.54V244H155.857V237.8C155.857 236.707 155.584 235.873 155.037 235.3C154.49 234.713 153.744 234.42 152.797 234.42C151.837 234.42 151.07 234.72 150.497 235.32C149.937 235.92 149.657 236.793 149.657 237.94V244H147.837V229.2H149.657V234.6C150.017 234.04 150.51 233.607 151.137 233.3C151.777 232.993 152.49 232.84 153.277 232.84ZM170.63 238.1C170.63 238.447 170.61 238.813 170.57 239.2H161.81C161.877 240.28 162.243 241.127 162.91 241.74C163.59 242.34 164.41 242.64 165.37 242.64C166.157 242.64 166.81 242.46 167.33 242.1C167.863 241.727 168.237 241.233 168.45 240.62H170.41C170.117 241.673 169.53 242.533 168.65 243.2C167.77 243.853 166.677 244.18 165.37 244.18C164.33 244.18 163.397 243.947 162.57 243.48C161.757 243.013 161.117 242.353 160.65 241.5C160.183 240.633 159.95 239.633 159.95 238.5C159.95 237.367 160.177 236.373 160.63 235.52C161.083 234.667 161.717 234.013 162.53 233.56C163.357 233.093 164.303 232.86 165.37 232.86C166.41 232.86 167.33 233.087 168.13 233.54C168.93 233.993 169.543 234.62 169.97 235.42C170.41 236.207 170.63 237.1 170.63 238.1ZM168.75 237.72C168.75 237.027 168.597 236.433 168.29 235.94C167.983 235.433 167.563 235.053 167.03 234.8C166.51 234.533 165.93 234.4 165.29 234.4C164.37 234.4 163.583 234.693 162.93 235.28C162.29 235.867 161.923 236.68 161.83 237.72H168.75ZM180.184 235.08C180.558 234.427 181.104 233.893 181.824 233.48C182.544 233.067 183.364 232.86 184.284 232.86C185.271 232.86 186.158 233.093 186.944 233.56C187.731 234.027 188.351 234.687 188.804 235.54C189.258 236.38 189.484 237.36 189.484 238.48C189.484 239.587 189.258 240.573 188.804 241.44C188.351 242.307 187.724 242.98 186.924 243.46C186.138 243.94 185.258 244.18 184.284 244.18C183.338 244.18 182.504 243.973 181.784 243.56C181.078 243.147 180.544 242.62 180.184 241.98V244H178.364V229.2H180.184V235.08ZM187.624 238.48C187.624 237.653 187.458 236.933 187.124 236.32C186.791 235.707 186.338 235.24 185.764 234.92C185.204 234.6 184.584 234.44 183.904 234.44C183.238 234.44 182.618 234.607 182.044 234.94C181.484 235.26 181.031 235.733 180.684 236.36C180.351 236.973 180.184 237.687 180.184 238.5C180.184 239.327 180.351 240.053 180.684 240.68C181.031 241.293 181.484 241.767 182.044 242.1C182.618 242.42 183.238 242.58 183.904 242.58C184.584 242.58 185.204 242.42 185.764 242.1C186.338 241.767 186.791 241.293 187.124 240.68C187.458 240.053 187.624 239.32 187.624 238.48ZM201.88 238.1C201.88 238.447 201.86 238.813 201.82 239.2H193.06C193.127 240.28 193.493 241.127 194.16 241.74C194.84 242.34 195.66 242.64 196.62 242.64C197.407 242.64 198.06 242.46 198.58 242.1C199.113 241.727 199.487 241.233 199.7 240.62H201.66C201.367 241.673 200.78 242.533 199.9 243.2C199.02 243.853 197.927 244.18 196.62 244.18C195.58 244.18 194.647 243.947 193.82 243.48C193.007 243.013 192.367 242.353 191.9 241.5C191.433 240.633 191.2 239.633 191.2 238.5C191.2 237.367 191.427 236.373 191.88 235.52C192.333 234.667 192.967 234.013 193.78 233.56C194.607 233.093 195.553 232.86 196.62 232.86C197.66 232.86 198.58 233.087 199.38 233.54C200.18 233.993 200.793 234.62 201.22 235.42C201.66 236.207 201.88 237.1 201.88 238.1ZM200 237.72C200 237.027 199.847 236.433 199.54 235.94C199.233 235.433 198.813 235.053 198.28 234.8C197.76 234.533 197.18 234.4 196.54 234.4C195.62 234.4 194.833 234.693 194.18 235.28C193.54 235.867 193.173 236.68 193.08 237.72H200ZM206.102 229.2V244H204.282V229.2H206.102ZM211.024 229.2V244H209.204V229.2H211.024ZM214.406 230.06H216.426L214.506 234.6H213.226L214.406 230.06ZM217.646 230.06H219.666L217.746 234.6H216.446L217.646 230.06ZM227.996 231.26C227.649 231.26 227.356 231.14 227.116 230.9C226.876 230.66 226.756 230.367 226.756 230.02C226.756 229.673 226.876 229.38 227.116 229.14C227.356 228.9 227.649 228.78 227.996 228.78C228.329 228.78 228.609 228.9 228.836 229.14C229.076 229.38 229.196 229.673 229.196 230.02C229.196 230.367 229.076 230.66 228.836 230.9C228.609 231.14 228.329 231.26 227.996 231.26ZM228.876 233.04V244H227.056V233.04H228.876ZM235.858 244.18C235.018 244.18 234.264 244.04 233.598 243.76C232.931 243.467 232.404 243.067 232.018 242.56C231.631 242.04 231.418 241.447 231.378 240.78H233.258C233.311 241.327 233.564 241.773 234.018 242.12C234.484 242.467 235.091 242.64 235.838 242.64C236.531 242.64 237.078 242.487 237.478 242.18C237.878 241.873 238.078 241.487 238.078 241.02C238.078 240.54 237.864 240.187 237.438 239.96C237.011 239.72 236.351 239.487 235.458 239.26C234.644 239.047 233.978 238.833 233.458 238.62C232.951 238.393 232.511 238.067 232.138 237.64C231.778 237.2 231.598 236.627 231.598 235.92C231.598 235.36 231.764 234.847 232.098 234.38C232.431 233.913 232.904 233.547 233.518 233.28C234.131 233 234.831 232.86 235.618 232.86C236.831 232.86 237.811 233.167 238.558 233.78C239.304 234.393 239.704 235.233 239.758 236.3H237.938C237.898 235.727 237.664 235.267 237.238 234.92C236.824 234.573 236.264 234.4 235.558 234.4C234.904 234.4 234.384 234.54 233.998 234.82C233.611 235.1 233.418 235.467 233.418 235.92C233.418 236.28 233.531 236.58 233.758 236.82C233.998 237.047 234.291 237.233 234.638 237.38C234.998 237.513 235.491 237.667 236.118 237.84C236.904 238.053 237.544 238.267 238.038 238.48C238.531 238.68 238.951 238.987 239.298 239.4C239.658 239.813 239.844 240.353 239.858 241.02C239.858 241.62 239.691 242.16 239.358 242.64C239.024 243.12 238.551 243.5 237.938 243.78C237.338 244.047 236.644 244.18 235.858 244.18ZM257.759 238.1C257.759 238.447 257.739 238.813 257.699 239.2H248.939C249.005 240.28 249.372 241.127 250.039 241.74C250.719 242.34 251.539 242.64 252.499 242.64C253.285 242.64 253.939 242.46 254.459 242.1C254.992 241.727 255.365 241.233 255.579 240.62H257.539C257.245 241.673 256.659 242.533 255.779 243.2C254.899 243.853 253.805 244.18 252.499 244.18C251.459 244.18 250.525 243.947 249.699 243.48C248.885 243.013 248.245 242.353 247.779 241.5C247.312 240.633 247.079 239.633 247.079 238.5C247.079 237.367 247.305 236.373 247.759 235.52C248.212 234.667 248.845 234.013 249.659 233.56C250.485 233.093 251.432 232.86 252.499 232.86C253.539 232.86 254.459 233.087 255.259 233.54C256.059 233.993 256.672 234.62 257.099 235.42C257.539 236.207 257.759 237.1 257.759 238.1ZM255.879 237.72C255.879 237.027 255.725 236.433 255.419 235.94C255.112 235.433 254.692 235.053 254.159 234.8C253.639 234.533 253.059 234.4 252.419 234.4C251.499 234.4 250.712 234.693 250.059 235.28C249.419 235.867 249.052 236.68 248.959 237.72H255.879ZM270.161 238.1C270.161 238.447 270.141 238.813 270.101 239.2H261.341C261.408 240.28 261.774 241.127 262.441 241.74C263.121 242.34 263.941 242.64 264.901 242.64C265.688 242.64 266.341 242.46 266.861 242.1C267.394 241.727 267.768 241.233 267.981 240.62H269.941C269.648 241.673 269.061 242.533 268.181 243.2C267.301 243.853 266.208 244.18 264.901 244.18C263.861 244.18 262.928 243.947 262.101 243.48C261.288 243.013 260.648 242.353 260.181 241.5C259.714 240.633 259.481 239.633 259.481 238.5C259.481 237.367 259.708 236.373 260.161 235.52C260.614 234.667 261.248 234.013 262.061 233.56C262.888 233.093 263.834 232.86 264.901 232.86C265.941 232.86 266.861 233.087 267.661 233.54C268.461 233.993 269.074 234.62 269.501 235.42C269.941 236.207 270.161 237.1 270.161 238.1ZM268.281 237.72C268.281 237.027 268.128 236.433 267.821 235.94C267.514 235.433 267.094 235.053 266.561 234.8C266.041 234.533 265.461 234.4 264.821 234.4C263.901 234.4 263.114 234.693 262.461 235.28C261.821 235.867 261.454 236.68 261.361 237.72H268.281ZM277.903 232.84C279.237 232.84 280.317 233.247 281.143 234.06C281.97 234.86 282.383 236.02 282.383 237.54V244H280.583V237.8C280.583 236.707 280.31 235.873 279.763 235.3C279.217 234.713 278.47 234.42 277.523 234.42C276.563 234.42 275.797 234.72 275.223 235.32C274.663 235.92 274.383 236.793 274.383 237.94V244H272.563V233.04H274.383V234.6C274.743 234.04 275.23 233.607 275.843 233.3C276.47 232.993 277.157 232.84 277.903 232.84ZM294.568 244.18C293.728 244.18 292.975 244.04 292.308 243.76C291.642 243.467 291.115 243.067 290.728 242.56C290.342 242.04 290.128 241.447 290.088 240.78H291.968C292.022 241.327 292.275 241.773 292.728 242.12C293.195 242.467 293.802 242.64 294.548 242.64C295.242 242.64 295.788 242.487 296.188 242.18C296.588 241.873 296.788 241.487 296.788 241.02C296.788 240.54 296.575 240.187 296.148 239.96C295.722 239.72 295.062 239.487 294.168 239.26C293.355 239.047 292.688 238.833 292.168 238.62C291.662 238.393 291.222 238.067 290.848 237.64C290.488 237.2 290.308 236.627 290.308 235.92C290.308 235.36 290.475 234.847 290.808 234.38C291.142 233.913 291.615 233.547 292.228 233.28C292.842 233 293.542 232.86 294.328 232.86C295.542 232.86 296.522 233.167 297.268 233.78C298.015 234.393 298.415 235.233 298.468 236.3H296.648C296.608 235.727 296.375 235.267 295.948 234.92C295.535 234.573 294.975 234.4 294.268 234.4C293.615 234.4 293.095 234.54 292.708 234.82C292.322 235.1 292.128 235.467 292.128 235.92C292.128 236.28 292.242 236.58 292.468 236.82C292.708 237.047 293.002 237.233 293.348 237.38C293.708 237.513 294.202 237.667 294.828 237.84C295.615 238.053 296.255 238.267 296.748 238.48C297.242 238.68 297.662 238.987 298.008 239.4C298.368 239.813 298.555 240.353 298.568 241.02C298.568 241.62 298.402 242.16 298.068 242.64C297.735 243.12 297.262 243.5 296.648 243.78C296.048 244.047 295.355 244.18 294.568 244.18ZM310.578 233.04L303.978 249.16H302.098L304.258 243.88L299.838 233.04H301.858L305.298 241.92L308.698 233.04H310.578ZM325.587 232.84C326.441 232.84 327.201 233.02 327.867 233.38C328.534 233.727 329.061 234.253 329.447 234.96C329.834 235.667 330.027 236.527 330.027 237.54V244H328.227V237.8C328.227 236.707 327.954 235.873 327.407 235.3C326.874 234.713 326.147 234.42 325.227 234.42C324.281 234.42 323.527 234.727 322.967 235.34C322.407 235.94 322.127 236.813 322.127 237.96V244H320.327V237.8C320.327 236.707 320.054 235.873 319.507 235.3C318.974 234.713 318.247 234.42 317.327 234.42C316.381 234.42 315.627 234.727 315.067 235.34C314.507 235.94 314.227 236.813 314.227 237.96V244H312.407V233.04H314.227V234.62C314.587 234.047 315.067 233.607 315.667 233.3C316.281 232.993 316.954 232.84 317.687 232.84C318.607 232.84 319.421 233.047 320.127 233.46C320.834 233.873 321.361 234.48 321.707 235.28C322.014 234.507 322.521 233.907 323.227 233.48C323.934 233.053 324.721 232.84 325.587 232.84ZM334.833 235.08C335.206 234.427 335.753 233.893 336.473 233.48C337.193 233.067 338.013 232.86 338.933 232.86C339.919 232.86 340.806 233.093 341.593 233.56C342.379 234.027 342.999 234.687 343.453 235.54C343.906 236.38 344.133 237.36 344.133 238.48C344.133 239.587 343.906 240.573 343.453 241.44C342.999 242.307 342.373 242.98 341.573 243.46C340.786 243.94 339.906 244.18 338.933 244.18C337.986 244.18 337.153 243.973 336.433 243.56C335.726 243.147 335.193 242.62 334.833 241.98V244H333.013V229.2H334.833V235.08ZM342.273 238.48C342.273 237.653 342.106 236.933 341.773 236.32C341.439 235.707 340.986 235.24 340.413 234.92C339.853 234.6 339.233 234.44 338.553 234.44C337.886 234.44 337.266 234.607 336.693 234.94C336.133 235.26 335.679 235.733 335.333 236.36C334.999 236.973 334.833 237.687 334.833 238.5C334.833 239.327 334.999 240.053 335.333 240.68C335.679 241.293 336.133 241.767 336.693 242.1C337.266 242.42 337.886 242.58 338.553 242.58C339.233 242.58 339.853 242.42 340.413 242.1C340.986 241.767 341.439 241.293 341.773 240.68C342.106 240.053 342.273 239.32 342.273 238.48ZM351.308 244.18C350.282 244.18 349.348 243.947 348.508 243.48C347.682 243.013 347.028 242.353 346.548 241.5C346.082 240.633 345.848 239.633 345.848 238.5C345.848 237.38 346.088 236.393 346.568 235.54C347.062 234.673 347.728 234.013 348.568 233.56C349.408 233.093 350.348 232.86 351.388 232.86C352.428 232.86 353.368 233.093 354.208 233.56C355.048 234.013 355.708 234.667 356.188 235.52C356.682 236.373 356.928 237.367 356.928 238.5C356.928 239.633 356.675 240.633 356.168 241.5C355.675 242.353 355.002 243.013 354.148 243.48C353.295 243.947 352.348 244.18 351.308 244.18ZM351.308 242.58C351.962 242.58 352.575 242.427 353.148 242.12C353.722 241.813 354.182 241.353 354.528 240.74C354.888 240.127 355.068 239.38 355.068 238.5C355.068 237.62 354.895 236.873 354.548 236.26C354.202 235.647 353.748 235.193 353.188 234.9C352.628 234.593 352.022 234.44 351.368 234.44C350.702 234.44 350.088 234.593 349.528 234.9C348.982 235.193 348.542 235.647 348.208 236.26C347.875 236.873 347.708 237.62 347.708 238.5C347.708 239.393 347.868 240.147 348.188 240.76C348.522 241.373 348.962 241.833 349.508 242.14C350.055 242.433 350.655 242.58 351.308 242.58ZM361.141 229.2V244H359.321V229.2H361.141ZM365.183 231.26C364.836 231.26 364.543 231.14 364.303 230.9C364.063 230.66 363.943 230.367 363.943 230.02C363.943 229.673 364.063 229.38 364.303 229.14C364.543 228.9 364.836 228.78 365.183 228.78C365.516 228.78 365.796 228.9 366.023 229.14C366.263 229.38 366.383 229.673 366.383 230.02C366.383 230.367 366.263 230.66 366.023 230.9C365.796 231.14 365.516 231.26 365.183 231.26ZM366.063 233.04V244H364.243V233.04H366.063ZM373.045 244.18C372.205 244.18 371.452 244.04 370.785 243.76C370.118 243.467 369.592 243.067 369.205 242.56C368.818 242.04 368.605 241.447 368.565 240.78H370.445C370.498 241.327 370.752 241.773 371.205 242.12C371.672 242.467 372.278 242.64 373.025 242.64C373.718 242.64 374.265 242.487 374.665 242.18C375.065 241.873 375.265 241.487 375.265 241.02C375.265 240.54 375.052 240.187 374.625 239.96C374.198 239.72 373.538 239.487 372.645 239.26C371.832 239.047 371.165 238.833 370.645 238.62C370.138 238.393 369.698 238.067 369.325 237.64C368.965 237.2 368.785 236.627 368.785 235.92C368.785 235.36 368.952 234.847 369.285 234.38C369.618 233.913 370.092 233.547 370.705 233.28C371.318 233 372.018 232.86 372.805 232.86C374.018 232.86 374.998 233.167 375.745 233.78C376.492 234.393 376.892 235.233 376.945 236.3H375.125C375.085 235.727 374.852 235.267 374.425 234.92C374.012 234.573 373.452 234.4 372.745 234.4C372.092 234.4 371.572 234.54 371.185 234.82C370.798 235.1 370.605 235.467 370.605 235.92C370.605 236.28 370.718 236.58 370.945 236.82C371.185 237.047 371.478 237.233 371.825 237.38C372.185 237.513 372.678 237.667 373.305 237.84C374.092 238.053 374.732 238.267 375.225 238.48C375.718 238.68 376.138 238.987 376.485 239.4C376.845 239.813 377.032 240.353 377.045 241.02C377.045 241.62 376.878 242.16 376.545 242.64C376.212 243.12 375.738 243.5 375.125 243.78C374.525 244.047 373.832 244.18 373.045 244.18ZM378.934 238.5C378.934 237.367 379.161 236.38 379.614 235.54C380.068 234.687 380.694 234.027 381.494 233.56C382.308 233.093 383.234 232.86 384.274 232.86C385.621 232.86 386.728 233.187 387.594 233.84C388.474 234.493 389.054 235.4 389.334 236.56H387.374C387.188 235.893 386.821 235.367 386.274 234.98C385.741 234.593 385.074 234.4 384.274 234.4C383.234 234.4 382.394 234.76 381.754 235.48C381.114 236.187 380.794 237.193 380.794 238.5C380.794 239.82 381.114 240.84 381.754 241.56C382.394 242.28 383.234 242.64 384.274 242.64C385.074 242.64 385.741 242.453 386.274 242.08C386.808 241.707 387.174 241.173 387.374 240.48H389.334C389.041 241.6 388.454 242.5 387.574 243.18C386.694 243.847 385.594 244.18 384.274 244.18C383.234 244.18 382.308 243.947 381.494 243.48C380.694 243.013 380.068 242.353 379.614 241.5C379.161 240.647 378.934 239.647 378.934 238.5ZM397.203 232.84C398.029 232.84 398.776 233.02 399.443 233.38C400.109 233.727 400.629 234.253 401.003 234.96C401.389 235.667 401.583 236.527 401.583 237.54V244H399.783V237.8C399.783 236.707 399.509 235.873 398.963 235.3C398.416 234.713 397.669 234.42 396.723 234.42C395.763 234.42 394.996 234.72 394.423 235.32C393.863 235.92 393.583 236.793 393.583 237.94V244H391.763V229.2H393.583V234.6C393.943 234.04 394.436 233.607 395.063 233.3C395.703 232.993 396.416 232.84 397.203 232.84ZM414.556 238.1C414.556 238.447 414.536 238.813 414.496 239.2H405.736C405.802 240.28 406.169 241.127 406.836 241.74C407.516 242.34 408.336 242.64 409.296 242.64C410.082 242.64 410.736 242.46 411.256 242.1C411.789 241.727 412.162 241.233 412.376 240.62H414.336C414.042 241.673 413.456 242.533 412.576 243.2C411.696 243.853 410.602 244.18 409.296 244.18C408.256 244.18 407.322 243.947 406.496 243.48C405.682 243.013 405.042 242.353 404.576 241.5C404.109 240.633 403.876 239.633 403.876 238.5C403.876 237.367 404.102 236.373 404.556 235.52C405.009 234.667 405.642 234.013 406.456 233.56C407.282 233.093 408.229 232.86 409.296 232.86C410.336 232.86 411.256 233.087 412.056 233.54C412.856 233.993 413.469 234.62 413.896 235.42C414.336 236.207 414.556 237.1 414.556 238.1ZM412.676 237.72C412.676 237.027 412.522 236.433 412.216 235.94C411.909 235.433 411.489 235.053 410.956 234.8C410.436 234.533 409.856 234.4 409.216 234.4C408.296 234.4 407.509 234.693 406.856 235.28C406.216 235.867 405.849 236.68 405.756 237.72H412.676ZM50.526 268.48C50.526 267.36 50.7527 266.38 51.206 265.54C51.6593 264.687 52.2793 264.027 53.066 263.56C53.866 263.093 54.7527 262.86 55.726 262.86C56.686 262.86 57.5193 263.067 58.226 263.48C58.9327 263.893 59.4593 264.413 59.806 265.04V263.04H61.646V274H59.806V271.96C59.446 272.6 58.906 273.133 58.186 273.56C57.4793 273.973 56.6527 274.18 55.706 274.18C54.7327 274.18 53.8527 273.94 53.066 273.46C52.2793 272.98 51.6593 272.307 51.206 271.44C50.7527 270.573 50.526 269.587 50.526 268.48ZM59.806 268.5C59.806 267.673 59.6393 266.953 59.306 266.34C58.9727 265.727 58.5193 265.26 57.946 264.94C57.386 264.607 56.766 264.44 56.086 264.44C55.406 264.44 54.786 264.6 54.226 264.92C53.666 265.24 53.2193 265.707 52.886 266.32C52.5527 266.933 52.386 267.653 52.386 268.48C52.386 269.32 52.5527 270.053 52.886 270.68C53.2193 271.293 53.666 271.767 54.226 272.1C54.786 272.42 55.406 272.58 56.086 272.58C56.766 272.58 57.386 272.42 57.946 272.1C58.5193 271.767 58.9727 271.293 59.306 270.68C59.6393 270.053 59.806 269.327 59.806 268.5ZM64.0416 268.5C64.0416 267.367 64.2683 266.38 64.7216 265.54C65.175 264.687 65.8016 264.027 66.6016 263.56C67.415 263.093 68.3416 262.86 69.3816 262.86C70.7283 262.86 71.835 263.187 72.7016 263.84C73.5816 264.493 74.1616 265.4 74.4416 266.56H72.4816C72.295 265.893 71.9283 265.367 71.3816 264.98C70.8483 264.593 70.1816 264.4 69.3816 264.4C68.3416 264.4 67.5016 264.76 66.8616 265.48C66.2216 266.187 65.9016 267.193 65.9016 268.5C65.9016 269.82 66.2216 270.84 66.8616 271.56C67.5016 272.28 68.3416 272.64 69.3816 272.64C70.1816 272.64 70.8483 272.453 71.3816 272.08C71.915 271.707 72.2816 271.173 72.4816 270.48H74.4416C74.1483 271.6 73.5616 272.5 72.6816 273.18C71.8016 273.847 70.7016 274.18 69.3816 274.18C68.3416 274.18 67.415 273.947 66.6016 273.48C65.8016 273.013 65.175 272.353 64.7216 271.5C64.2683 270.647 64.0416 269.647 64.0416 268.5ZM79.0901 264.54V271C79.0901 271.533 79.2034 271.913 79.4301 272.14C79.6567 272.353 80.0501 272.46 80.6101 272.46H81.9501V274H80.3101C79.2967 274 78.5367 273.767 78.0301 273.3C77.5234 272.833 77.2701 272.067 77.2701 271V264.54H75.8501V263.04H77.2701V260.28H79.0901V263.04H81.9501V264.54H79.0901ZM85.0952 261.26C84.7486 261.26 84.4552 261.14 84.2152 260.9C83.9752 260.66 83.8552 260.367 83.8552 260.02C83.8552 259.673 83.9752 259.38 84.2152 259.14C84.4552 258.9 84.7486 258.78 85.0952 258.78C85.4286 258.78 85.7086 258.9 85.9352 259.14C86.1752 259.38 86.2952 259.673 86.2952 260.02C86.2952 260.367 86.1752 260.66 85.9352 260.9C85.7086 261.14 85.4286 261.26 85.0952 261.26ZM85.9752 263.04V274H84.1552V263.04H85.9752ZM99.0771 268.1C99.0771 268.447 99.0571 268.813 99.0171 269.2H90.2571C90.3238 270.28 90.6904 271.127 91.3571 271.74C92.0371 272.34 92.8571 272.64 93.8171 272.64C94.6038 272.64 95.2571 272.46 95.7771 272.1C96.3104 271.727 96.6838 271.233 96.8971 270.62H98.8571C98.5638 271.673 97.9771 272.533 97.0971 273.2C96.2171 273.853 95.1238 274.18 93.8171 274.18C92.7771 274.18 91.8438 273.947 91.0171 273.48C90.2038 273.013 89.5638 272.353 89.0971 271.5C88.6304 270.633 88.3971 269.633 88.3971 268.5C88.3971 267.367 88.6238 266.373 89.0771 265.52C89.5304 264.667 90.1638 264.013 90.9771 263.56C91.8038 263.093 92.7504 262.86 93.8171 262.86C94.8571 262.86 95.7771 263.087 96.5771 263.54C97.3771 263.993 97.9904 264.62 98.4171 265.42C98.8571 266.207 99.0771 267.1 99.0771 268.1ZM97.1971 267.72C97.1971 267.027 97.0438 266.433 96.7371 265.94C96.4304 265.433 96.0104 265.053 95.4771 264.8C94.9571 264.533 94.3771 264.4 93.7371 264.4C92.8171 264.4 92.0304 264.693 91.3771 265.28C90.7371 265.867 90.3704 266.68 90.2771 267.72H97.1971ZM121.411 263.04L117.991 274H116.111L113.471 265.3L110.831 274H108.951L105.511 263.04H107.371L109.891 272.24L112.611 263.04H114.471L117.131 272.26L119.611 263.04H121.411ZM122.538 268.48C122.538 267.36 122.764 266.38 123.218 265.54C123.671 264.687 124.291 264.027 125.078 263.56C125.878 263.093 126.764 262.86 127.738 262.86C128.698 262.86 129.531 263.067 130.238 263.48C130.944 263.893 131.471 264.413 131.818 265.04V263.04H133.658V274H131.818V271.96C131.458 272.6 130.918 273.133 130.198 273.56C129.491 273.973 128.664 274.18 127.718 274.18C126.744 274.18 125.864 273.94 125.078 273.46C124.291 272.98 123.671 272.307 123.218 271.44C122.764 270.573 122.538 269.587 122.538 268.48ZM131.818 268.5C131.818 267.673 131.651 266.953 131.318 266.34C130.984 265.727 130.531 265.26 129.958 264.94C129.398 264.607 128.778 264.44 128.098 264.44C127.418 264.44 126.798 264.6 126.238 264.92C125.678 265.24 125.231 265.707 124.898 266.32C124.564 266.933 124.398 267.653 124.398 268.48C124.398 269.32 124.564 270.053 124.898 270.68C125.231 271.293 125.678 271.767 126.238 272.1C126.798 272.42 127.418 272.58 128.098 272.58C128.778 272.58 129.398 272.42 129.958 272.1C130.531 271.767 130.984 271.293 131.318 270.68C131.651 270.053 131.818 269.327 131.818 268.5ZM136.053 268.48C136.053 267.36 136.28 266.38 136.733 265.54C137.187 264.687 137.807 264.027 138.593 263.56C139.393 263.093 140.28 262.86 141.253 262.86C142.213 262.86 143.047 263.067 143.753 263.48C144.46 263.893 144.987 264.413 145.333 265.04V263.04H147.173V274H145.333V271.96C144.973 272.6 144.433 273.133 143.713 273.56C143.007 273.973 142.18 274.18 141.233 274.18C140.26 274.18 139.38 273.94 138.593 273.46C137.807 272.98 137.187 272.307 136.733 271.44C136.28 270.573 136.053 269.587 136.053 268.48ZM145.333 268.5C145.333 267.673 145.167 266.953 144.833 266.34C144.5 265.727 144.047 265.26 143.473 264.94C142.913 264.607 142.293 264.44 141.613 264.44C140.933 264.44 140.313 264.6 139.753 264.92C139.193 265.24 138.747 265.707 138.413 266.32C138.08 266.933 137.913 267.653 137.913 268.48C137.913 269.32 138.08 270.053 138.413 270.68C138.747 271.293 139.193 271.767 139.753 272.1C140.313 272.42 140.933 272.58 141.613 272.58C142.293 272.58 142.913 272.42 143.473 272.1C144.047 271.767 144.5 271.293 144.833 270.68C145.167 270.053 145.333 269.327 145.333 268.5ZM152.069 264.82C152.389 264.193 152.842 263.707 153.429 263.36C154.029 263.013 154.756 262.84 155.609 262.84V264.72H155.129C153.089 264.72 152.069 265.827 152.069 268.04V274H150.249V263.04H152.069V264.82ZM159.53 265.08C159.903 264.427 160.45 263.893 161.17 263.48C161.89 263.067 162.71 262.86 163.63 262.86C164.617 262.86 165.503 263.093 166.29 263.56C167.077 264.027 167.697 264.687 168.15 265.54C168.603 266.38 168.83 267.36 168.83 268.48C168.83 269.587 168.603 270.573 168.15 271.44C167.697 272.307 167.07 272.98 166.27 273.46C165.483 273.94 164.603 274.18 163.63 274.18C162.683 274.18 161.85 273.973 161.13 273.56C160.423 273.147 159.89 272.62 159.53 271.98V274H157.71V259.2H159.53V265.08ZM166.97 268.48C166.97 267.653 166.803 266.933 166.47 266.32C166.137 265.707 165.683 265.24 165.11 264.92C164.55 264.6 163.93 264.44 163.25 264.44C162.583 264.44 161.963 264.607 161.39 264.94C160.83 265.26 160.377 265.733 160.03 266.36C159.697 266.973 159.53 267.687 159.53 268.5C159.53 269.327 159.697 270.053 160.03 270.68C160.377 271.293 160.83 271.767 161.39 272.1C161.963 272.42 162.583 272.58 163.25 272.58C163.93 272.58 164.55 272.42 165.11 272.1C165.683 271.767 166.137 271.293 166.47 270.68C166.803 270.053 166.97 269.32 166.97 268.48ZM172.166 261.26C171.819 261.26 171.526 261.14 171.286 260.9C171.046 260.66 170.926 260.367 170.926 260.02C170.926 259.673 171.046 259.38 171.286 259.14C171.526 258.9 171.819 258.78 172.166 258.78C172.499 258.78 172.779 258.9 173.006 259.14C173.246 259.38 173.366 259.673 173.366 260.02C173.366 260.367 173.246 260.66 173.006 260.9C172.779 261.14 172.499 261.26 172.166 261.26ZM173.046 263.04V274H171.226V263.04H173.046ZM177.127 261.26C176.781 261.26 176.487 261.14 176.247 260.9C176.021 260.66 175.907 260.367 175.907 260.02C175.907 259.673 176.021 259.38 176.247 259.14C176.487 258.9 176.781 258.78 177.127 258.78C177.474 258.78 177.761 258.9 177.987 259.14C178.227 259.38 178.347 259.673 178.347 260.02C178.347 260.367 178.227 260.66 177.987 260.9C177.761 261.14 177.474 261.26 177.127 261.26ZM178.027 276.38C178.027 277.353 177.781 278.067 177.287 278.52C176.794 278.973 176.074 279.2 175.127 279.2H174.067V277.66H174.827C175.334 277.66 175.687 277.56 175.887 277.36C176.101 277.16 176.207 276.82 176.207 276.34V263.04H178.027V276.38ZM190.32 274.18C189.48 274.18 188.727 274.04 188.06 273.76C187.394 273.467 186.867 273.067 186.48 272.56C186.094 272.04 185.88 271.447 185.84 270.78H187.72C187.774 271.327 188.027 271.773 188.48 272.12C188.947 272.467 189.554 272.64 190.3 272.64C190.994 272.64 191.54 272.487 191.94 272.18C192.34 271.873 192.54 271.487 192.54 271.02C192.54 270.54 192.327 270.187 191.9 269.96C191.474 269.72 190.814 269.487 189.92 269.26C189.107 269.047 188.44 268.833 187.92 268.62C187.414 268.393 186.974 268.067 186.6 267.64C186.24 267.2 186.06 266.627 186.06 265.92C186.06 265.36 186.227 264.847 186.56 264.38C186.894 263.913 187.367 263.547 187.98 263.28C188.594 263 189.294 262.86 190.08 262.86C191.294 262.86 192.274 263.167 193.02 263.78C193.767 264.393 194.167 265.233 194.22 266.3H192.4C192.36 265.727 192.127 265.267 191.7 264.92C191.287 264.573 190.727 264.4 190.02 264.4C189.367 264.4 188.847 264.54 188.46 264.82C188.074 265.1 187.88 265.467 187.88 265.92C187.88 266.28 187.994 266.58 188.22 266.82C188.46 267.047 188.754 267.233 189.1 267.38C189.46 267.513 189.954 267.667 190.58 267.84C191.367 268.053 192.007 268.267 192.5 268.48C192.994 268.68 193.414 268.987 193.76 269.4C194.12 269.813 194.307 270.353 194.32 271.02C194.32 271.62 194.154 272.16 193.82 272.64C193.487 273.12 193.014 273.5 192.4 273.78C191.8 274.047 191.107 274.18 190.32 274.18ZM196.21 268.5C196.21 267.367 196.436 266.38 196.89 265.54C197.343 264.687 197.97 264.027 198.77 263.56C199.583 263.093 200.51 262.86 201.55 262.86C202.896 262.86 204.003 263.187 204.87 263.84C205.75 264.493 206.33 265.4 206.61 266.56H204.65C204.463 265.893 204.096 265.367 203.55 264.98C203.016 264.593 202.35 264.4 201.55 264.4C200.51 264.4 199.67 264.76 199.03 265.48C198.39 266.187 198.07 267.193 198.07 268.5C198.07 269.82 198.39 270.84 199.03 271.56C199.67 272.28 200.51 272.64 201.55 272.64C202.35 272.64 203.016 272.453 203.55 272.08C204.083 271.707 204.45 271.173 204.65 270.48H206.61C206.316 271.6 205.73 272.5 204.85 273.18C203.97 273.847 202.87 274.18 201.55 274.18C200.51 274.18 199.583 273.947 198.77 273.48C197.97 273.013 197.343 272.353 196.89 271.5C196.436 270.647 196.21 269.647 196.21 268.5ZM214.478 262.84C215.305 262.84 216.051 263.02 216.718 263.38C217.385 263.727 217.905 264.253 218.278 264.96C218.665 265.667 218.858 266.527 218.858 267.54V274H217.058V267.8C217.058 266.707 216.785 265.873 216.238 265.3C215.691 264.713 214.945 264.42 213.998 264.42C213.038 264.42 212.271 264.72 211.698 265.32C211.138 265.92 210.858 266.793 210.858 267.94V274H209.038V259.2H210.858V264.6C211.218 264.04 211.711 263.607 212.338 263.3C212.978 262.993 213.691 262.84 214.478 262.84ZM226.611 274.18C225.584 274.18 224.651 273.947 223.811 273.48C222.984 273.013 222.331 272.353 221.851 271.5C221.384 270.633 221.151 269.633 221.151 268.5C221.151 267.38 221.391 266.393 221.871 265.54C222.364 264.673 223.031 264.013 223.871 263.56C224.711 263.093 225.651 262.86 226.691 262.86C227.731 262.86 228.671 263.093 229.511 263.56C230.351 264.013 231.011 264.667 231.491 265.52C231.984 266.373 232.231 267.367 232.231 268.5C232.231 269.633 231.978 270.633 231.471 271.5C230.978 272.353 230.304 273.013 229.451 273.48C228.598 273.947 227.651 274.18 226.611 274.18ZM226.611 272.58C227.264 272.58 227.878 272.427 228.451 272.12C229.024 271.813 229.484 271.353 229.831 270.74C230.191 270.127 230.371 269.38 230.371 268.5C230.371 267.62 230.198 266.873 229.851 266.26C229.504 265.647 229.051 265.193 228.491 264.9C227.931 264.593 227.324 264.44 226.671 264.44C226.004 264.44 225.391 264.593 224.831 264.9C224.284 265.193 223.844 265.647 223.511 266.26C223.178 266.873 223.011 267.62 223.011 268.5C223.011 269.393 223.171 270.147 223.491 270.76C223.824 271.373 224.264 271.833 224.811 272.14C225.358 272.433 225.958 272.58 226.611 272.58ZM236.444 259.2V274H234.624V259.2H236.444ZM249.546 268.1C249.546 268.447 249.526 268.813 249.486 269.2H240.726C240.793 270.28 241.159 271.127 241.826 271.74C242.506 272.34 243.326 272.64 244.286 272.64C245.073 272.64 245.726 272.46 246.246 272.1C246.779 271.727 247.153 271.233 247.366 270.62H249.326C249.033 271.673 248.446 272.533 247.566 273.2C246.686 273.853 245.593 274.18 244.286 274.18C243.246 274.18 242.313 273.947 241.486 273.48C240.673 273.013 240.033 272.353 239.566 271.5C239.099 270.633 238.866 269.633 238.866 268.5C238.866 267.367 239.093 266.373 239.546 265.52C239.999 264.667 240.633 264.013 241.446 263.56C242.273 263.093 243.219 262.86 244.286 262.86C245.326 262.86 246.246 263.087 247.046 263.54C247.846 263.993 248.459 264.62 248.886 265.42C249.326 266.207 249.546 267.1 249.546 268.1ZM247.666 267.72C247.666 267.027 247.513 266.433 247.206 265.94C246.899 265.433 246.479 265.053 245.946 264.8C245.426 264.533 244.846 264.4 244.206 264.4C243.286 264.4 242.499 264.693 241.846 265.28C241.206 265.867 240.839 266.68 240.746 267.72H247.666ZM257.288 262.84C258.622 262.84 259.702 263.247 260.528 264.06C261.355 264.86 261.768 266.02 261.768 267.54V274H259.968V267.8C259.968 266.707 259.695 265.873 259.148 265.3C258.602 264.713 257.855 264.42 256.908 264.42C255.948 264.42 255.182 264.72 254.608 265.32C254.048 265.92 253.768 266.793 253.768 267.94V274H251.948V263.04H253.768V264.6C254.128 264.04 254.615 263.607 255.228 263.3C255.855 262.993 256.542 262.84 257.288 262.84ZM275.513 262.84C276.34 262.84 277.087 263.02 277.753 263.38C278.42 263.727 278.94 264.253 279.313 264.96C279.7 265.667 279.893 266.527 279.893 267.54V274H278.093V267.8C278.093 266.707 277.82 265.873 277.273 265.3C276.727 264.713 275.98 264.42 275.033 264.42C274.073 264.42 273.307 264.72 272.733 265.32C272.173 265.92 271.893 266.793 271.893 267.94V274H270.073V259.2H271.893V264.6C272.253 264.04 272.747 263.607 273.373 263.3C274.013 262.993 274.727 262.84 275.513 262.84ZM292.586 263.04V274H290.766V272.38C290.42 272.94 289.933 273.38 289.306 273.7C288.693 274.007 288.013 274.16 287.266 274.16C286.413 274.16 285.646 273.987 284.966 273.64C284.286 273.28 283.746 272.747 283.346 272.04C282.96 271.333 282.766 270.473 282.766 269.46V263.04H284.566V269.22C284.566 270.3 284.84 271.133 285.386 271.72C285.933 272.293 286.68 272.58 287.626 272.58C288.6 272.58 289.366 272.28 289.926 271.68C290.486 271.08 290.766 270.207 290.766 269.06V263.04H292.586ZM300.999 262.84C302.332 262.84 303.412 263.247 304.239 264.06C305.066 264.86 305.479 266.02 305.479 267.54V274H303.679V267.8C303.679 266.707 303.406 265.873 302.859 265.3C302.312 264.713 301.566 264.42 300.619 264.42C299.659 264.42 298.892 264.72 298.319 265.32C297.759 265.92 297.479 266.793 297.479 267.94V274H295.659V263.04H297.479V264.6C297.839 264.04 298.326 263.607 298.939 263.3C299.566 262.993 300.252 262.84 300.999 262.84ZM315.604 265.08C315.977 264.427 316.524 263.893 317.244 263.48C317.964 263.067 318.784 262.86 319.704 262.86C320.691 262.86 321.577 263.093 322.364 263.56C323.151 264.027 323.771 264.687 324.224 265.54C324.677 266.38 324.904 267.36 324.904 268.48C324.904 269.587 324.677 270.573 324.224 271.44C323.771 272.307 323.144 272.98 322.344 273.46C321.557 273.94 320.677 274.18 319.704 274.18C318.757 274.18 317.924 273.973 317.204 273.56C316.497 273.147 315.964 272.62 315.604 271.98V274H313.784V259.2H315.604V265.08ZM323.044 268.48C323.044 267.653 322.877 266.933 322.544 266.32C322.211 265.707 321.757 265.24 321.184 264.92C320.624 264.6 320.004 264.44 319.324 264.44C318.657 264.44 318.037 264.607 317.464 264.94C316.904 265.26 316.451 265.733 316.104 266.36C315.771 266.973 315.604 267.687 315.604 268.5C315.604 269.327 315.771 270.053 316.104 270.68C316.451 271.293 316.904 271.767 317.464 272.1C318.037 272.42 318.657 272.58 319.324 272.58C320.004 272.58 320.624 272.42 321.184 272.1C321.757 271.767 322.211 271.293 322.544 270.68C322.877 270.053 323.044 269.32 323.044 268.48ZM337.3 268.1C337.3 268.447 337.28 268.813 337.24 269.2H328.48C328.546 270.28 328.913 271.127 329.58 271.74C330.26 272.34 331.08 272.64 332.04 272.64C332.826 272.64 333.48 272.46 334 272.1C334.533 271.727 334.906 271.233 335.12 270.62H337.08C336.786 271.673 336.2 272.533 335.32 273.2C334.44 273.853 333.346 274.18 332.04 274.18C331 274.18 330.066 273.947 329.24 273.48C328.426 273.013 327.786 272.353 327.32 271.5C326.853 270.633 326.62 269.633 326.62 268.5C326.62 267.367 326.846 266.373 327.3 265.52C327.753 264.667 328.386 264.013 329.2 263.56C330.026 263.093 330.973 262.86 332.04 262.86C333.08 262.86 334 263.087 334.8 263.54C335.6 263.993 336.213 264.62 336.64 265.42C337.08 266.207 337.3 267.1 337.3 268.1ZM335.42 267.72C335.42 267.027 335.266 266.433 334.96 265.94C334.653 265.433 334.233 265.053 333.7 264.8C333.18 264.533 332.6 264.4 331.96 264.4C331.04 264.4 330.253 264.693 329.6 265.28C328.96 265.867 328.593 266.68 328.5 267.72H335.42ZM341.522 259.2V274H339.702V259.2H341.522ZM351.776 259.2V274H349.956V259.2H351.776ZM354.198 268.48C354.198 267.36 354.425 266.38 354.878 265.54C355.331 264.687 355.951 264.027 356.738 263.56C357.538 263.093 358.425 262.86 359.398 262.86C360.358 262.86 361.191 263.067 361.898 263.48C362.605 263.893 363.131 264.413 363.478 265.04V263.04H365.318V274H363.478V271.96C363.118 272.6 362.578 273.133 361.858 273.56C361.151 273.973 360.325 274.18 359.378 274.18C358.405 274.18 357.525 273.94 356.738 273.46C355.951 272.98 355.331 272.307 354.878 271.44C354.425 270.573 354.198 269.587 354.198 268.48ZM363.478 268.5C363.478 267.673 363.311 266.953 362.978 266.34C362.645 265.727 362.191 265.26 361.618 264.94C361.058 264.607 360.438 264.44 359.758 264.44C359.078 264.44 358.458 264.6 357.898 264.92C357.338 265.24 356.891 265.707 356.558 266.32C356.225 266.933 356.058 267.653 356.058 268.48C356.058 269.32 356.225 270.053 356.558 270.68C356.891 271.293 357.338 271.767 357.898 272.1C358.458 272.42 359.078 272.58 359.758 272.58C360.438 272.58 361.058 272.42 361.618 272.1C362.191 271.767 362.645 271.293 362.978 270.68C363.311 270.053 363.478 269.327 363.478 268.5ZM370.614 264.54V271C370.614 271.533 370.727 271.913 370.954 272.14C371.18 272.353 371.574 272.46 372.134 272.46H373.474V274H371.834C370.82 274 370.06 273.767 369.554 273.3C369.047 272.833 368.794 272.067 368.794 271V264.54H367.374V263.04H368.794V260.28H370.614V263.04H373.474V264.54H370.614ZM385.679 268.1C385.679 268.447 385.659 268.813 385.619 269.2H376.859C376.925 270.28 377.292 271.127 377.959 271.74C378.639 272.34 379.459 272.64 380.419 272.64C381.205 272.64 381.859 272.46 382.379 272.1C382.912 271.727 383.285 271.233 383.499 270.62H385.459C385.165 271.673 384.579 272.533 383.699 273.2C382.819 273.853 381.725 274.18 380.419 274.18C379.379 274.18 378.445 273.947 377.619 273.48C376.805 273.013 376.165 272.353 375.699 271.5C375.232 270.633 374.999 269.633 374.999 268.5C374.999 267.367 375.225 266.373 375.679 265.52C376.132 264.667 376.765 264.013 377.579 263.56C378.405 263.093 379.352 262.86 380.419 262.86C381.459 262.86 382.379 263.087 383.179 263.54C383.979 263.993 384.592 264.62 385.019 265.42C385.459 266.207 385.679 267.1 385.679 268.1ZM383.799 267.72C383.799 267.027 383.645 266.433 383.339 265.94C383.032 265.433 382.612 265.053 382.079 264.8C381.559 264.533 380.979 264.4 380.339 264.4C379.419 264.4 378.632 264.693 377.979 265.28C377.339 265.867 376.972 266.68 376.879 267.72H383.799ZM393.421 262.84C394.754 262.84 395.834 263.247 396.661 264.06C397.488 264.86 397.901 266.02 397.901 267.54V274H396.101V267.8C396.101 266.707 395.828 265.873 395.281 265.3C394.734 264.713 393.988 264.42 393.041 264.42C392.081 264.42 391.314 264.72 390.741 265.32C390.181 265.92 389.901 266.793 389.901 267.94V274H388.081V263.04H389.901V264.6C390.261 264.04 390.748 263.607 391.361 263.3C391.988 262.993 392.674 262.84 393.421 262.84ZM50.1159 294.82C50.4359 294.193 50.8892 293.707 51.4759 293.36C52.0759 293.013 52.8025 292.84 53.6559 292.84V294.72H53.1759C51.1359 294.72 50.1159 295.827 50.1159 298.04V304H48.2959V293.04H50.1159V294.82ZM56.6968 291.26C56.3501 291.26 56.0568 291.14 55.8168 290.9C55.5768 290.66 55.4568 290.367 55.4568 290.02C55.4568 289.673 55.5768 289.38 55.8168 289.14C56.0568 288.9 56.3501 288.78 56.6968 288.78C57.0301 288.78 57.3101 288.9 57.5368 289.14C57.7768 289.38 57.8968 289.673 57.8968 290.02C57.8968 290.367 57.7768 290.66 57.5368 290.9C57.3101 291.14 57.0301 291.26 56.6968 291.26ZM57.5768 293.04V304H55.7568V293.04H57.5768ZM66.0187 292.84C67.352 292.84 68.432 293.247 69.2587 294.06C70.0853 294.86 70.4987 296.02 70.4987 297.54V304H68.6987V297.8C68.6987 296.707 68.4253 295.873 67.8787 295.3C67.332 294.713 66.5853 294.42 65.6387 294.42C64.6787 294.42 63.912 294.72 63.3387 295.32C62.7787 295.92 62.4987 296.793 62.4987 297.94V304H60.6787V293.04H62.4987V294.6C62.8587 294.04 63.3453 293.607 63.9587 293.3C64.5853 292.993 65.272 292.84 66.0187 292.84ZM79.5916 304L75.2916 299.16V304H73.4716V289.2H75.2916V297.9L79.5116 293.04H82.0516L76.8916 298.5L82.0716 304H79.5916ZM93.7646 298.1C93.7646 298.447 93.7446 298.813 93.7046 299.2H84.9446C85.0113 300.28 85.3779 301.127 86.0446 301.74C86.7246 302.34 87.5446 302.64 88.5046 302.64C89.2913 302.64 89.9446 302.46 90.4646 302.1C90.9979 301.727 91.3713 301.233 91.5846 300.62H93.5446C93.2513 301.673 92.6646 302.533 91.7846 303.2C90.9046 303.853 89.8113 304.18 88.5046 304.18C87.4646 304.18 86.5313 303.947 85.7046 303.48C84.8913 303.013 84.2513 302.353 83.7846 301.5C83.3179 300.633 83.0846 299.633 83.0846 298.5C83.0846 297.367 83.3113 296.373 83.7646 295.52C84.2179 294.667 84.8513 294.013 85.6646 293.56C86.4913 293.093 87.4379 292.86 88.5046 292.86C89.5446 292.86 90.4646 293.087 91.2646 293.54C92.0646 293.993 92.6779 294.62 93.1046 295.42C93.5446 296.207 93.7646 297.1 93.7646 298.1ZM91.8846 297.72C91.8846 297.027 91.7313 296.433 91.4246 295.94C91.1179 295.433 90.6979 295.053 90.1646 294.8C89.6446 294.533 89.0646 294.4 88.4246 294.4C87.5046 294.4 86.7179 294.693 86.0646 295.28C85.4246 295.867 85.0579 296.68 84.9646 297.72H91.8846ZM97.987 289.2V304H96.167V289.2H97.987ZM111.089 298.1C111.089 298.447 111.069 298.813 111.029 299.2H102.269C102.335 300.28 102.702 301.127 103.369 301.74C104.049 302.34 104.869 302.64 105.829 302.64C106.615 302.64 107.269 302.46 107.789 302.1C108.322 301.727 108.695 301.233 108.909 300.62H110.869C110.575 301.673 109.989 302.533 109.109 303.2C108.229 303.853 107.135 304.18 105.829 304.18C104.789 304.18 103.855 303.947 103.029 303.48C102.215 303.013 101.575 302.353 101.109 301.5C100.642 300.633 100.409 299.633 100.409 298.5C100.409 297.367 100.635 296.373 101.089 295.52C101.542 294.667 102.175 294.013 102.989 293.56C103.815 293.093 104.762 292.86 105.829 292.86C106.869 292.86 107.789 293.087 108.589 293.54C109.389 293.993 110.002 294.62 110.429 295.42C110.869 296.207 111.089 297.1 111.089 298.1ZM109.209 297.72C109.209 297.027 109.055 296.433 108.749 295.94C108.442 295.433 108.022 295.053 107.489 294.8C106.969 294.533 106.389 294.4 105.749 294.4C104.829 294.4 104.042 294.693 103.389 295.28C102.749 295.867 102.382 296.68 102.289 297.72H109.209ZM118.831 292.84C120.165 292.84 121.245 293.247 122.071 294.06C122.898 294.86 123.311 296.02 123.311 297.54V304H121.511V297.8C121.511 296.707 121.238 295.873 120.691 295.3C120.145 294.713 119.398 294.42 118.451 294.42C117.491 294.42 116.725 294.72 116.151 295.32C115.591 295.92 115.311 296.793 115.311 297.94V304H113.491V293.04H115.311V294.6C115.671 294.04 116.158 293.607 116.771 293.3C117.398 292.993 118.085 292.84 118.831 292.84ZM135.696 302.32L139.096 293.04H141.036L136.736 304H134.616L130.316 293.04H132.276L135.696 302.32ZM147.607 304.18C146.58 304.18 145.647 303.947 144.807 303.48C143.98 303.013 143.327 302.353 142.847 301.5C142.38 300.633 142.147 299.633 142.147 298.5C142.147 297.38 142.387 296.393 142.867 295.54C143.36 294.673 144.027 294.013 144.867 293.56C145.707 293.093 146.647 292.86 147.687 292.86C148.727 292.86 149.667 293.093 150.507 293.56C151.347 294.013 152.007 294.667 152.487 295.52C152.98 296.373 153.227 297.367 153.227 298.5C153.227 299.633 152.974 300.633 152.467 301.5C151.974 302.353 151.3 303.013 150.447 303.48C149.594 303.947 148.647 304.18 147.607 304.18ZM147.607 302.58C148.26 302.58 148.874 302.427 149.447 302.12C150.02 301.813 150.48 301.353 150.827 300.74C151.187 300.127 151.367 299.38 151.367 298.5C151.367 297.62 151.194 296.873 150.847 296.26C150.5 295.647 150.047 295.193 149.487 294.9C148.927 294.593 148.32 294.44 147.667 294.44C147 294.44 146.387 294.593 145.827 294.9C145.28 295.193 144.84 295.647 144.507 296.26C144.174 296.873 144.007 297.62 144.007 298.5C144.007 299.393 144.167 300.147 144.487 300.76C144.82 301.373 145.26 301.833 145.807 302.14C146.354 302.433 146.954 302.58 147.607 302.58ZM160.4 304.18C159.373 304.18 158.44 303.947 157.6 303.48C156.773 303.013 156.12 302.353 155.64 301.5C155.173 300.633 154.94 299.633 154.94 298.5C154.94 297.38 155.18 296.393 155.66 295.54C156.153 294.673 156.82 294.013 157.66 293.56C158.5 293.093 159.44 292.86 160.48 292.86C161.52 292.86 162.46 293.093 163.3 293.56C164.14 294.013 164.8 294.667 165.28 295.52C165.773 296.373 166.02 297.367 166.02 298.5C166.02 299.633 165.767 300.633 165.26 301.5C164.767 302.353 164.093 303.013 163.24 303.48C162.387 303.947 161.44 304.18 160.4 304.18ZM160.4 302.58C161.053 302.58 161.667 302.427 162.24 302.12C162.813 301.813 163.273 301.353 163.62 300.74C163.98 300.127 164.16 299.38 164.16 298.5C164.16 297.62 163.987 296.873 163.64 296.26C163.293 295.647 162.84 295.193 162.28 294.9C161.72 294.593 161.113 294.44 160.46 294.44C159.793 294.44 159.18 294.593 158.62 294.9C158.073 295.193 157.633 295.647 157.3 296.26C156.967 296.873 156.8 297.62 156.8 298.5C156.8 299.393 156.96 300.147 157.28 300.76C157.613 301.373 158.053 301.833 158.6 302.14C159.147 302.433 159.747 302.58 160.4 302.58ZM170.233 294.82C170.553 294.193 171.006 293.707 171.593 293.36C172.193 293.013 172.92 292.84 173.773 292.84V294.72H173.293C171.253 294.72 170.233 295.827 170.233 298.04V304H168.413V293.04H170.233V294.82ZM186.646 292.84C187.473 292.84 188.219 293.02 188.886 293.38C189.553 293.727 190.073 294.253 190.446 294.96C190.833 295.667 191.026 296.527 191.026 297.54V304H189.226V297.8C189.226 296.707 188.953 295.873 188.406 295.3C187.859 294.713 187.113 294.42 186.166 294.42C185.206 294.42 184.439 294.72 183.866 295.32C183.306 295.92 183.026 296.793 183.026 297.94V304H181.206V289.2H183.026V294.6C183.386 294.04 183.879 293.607 184.506 293.3C185.146 292.993 185.859 292.84 186.646 292.84ZM203.999 298.1C203.999 298.447 203.979 298.813 203.939 299.2H195.179C195.246 300.28 195.612 301.127 196.279 301.74C196.959 302.34 197.779 302.64 198.739 302.64C199.526 302.64 200.179 302.46 200.699 302.1C201.232 301.727 201.606 301.233 201.819 300.62H203.779C203.486 301.673 202.899 302.533 202.019 303.2C201.139 303.853 200.046 304.18 198.739 304.18C197.699 304.18 196.766 303.947 195.939 303.48C195.126 303.013 194.486 302.353 194.019 301.5C193.552 300.633 193.319 299.633 193.319 298.5C193.319 297.367 193.546 296.373 193.999 295.52C194.452 294.667 195.086 294.013 195.899 293.56C196.726 293.093 197.672 292.86 198.739 292.86C199.779 292.86 200.699 293.087 201.499 293.54C202.299 293.993 202.912 294.62 203.339 295.42C203.779 296.207 203.999 297.1 203.999 298.1ZM202.119 297.72C202.119 297.027 201.966 296.433 201.659 295.94C201.352 295.433 200.932 295.053 200.399 294.8C199.879 294.533 199.299 294.4 198.659 294.4C197.739 294.4 196.952 294.693 196.299 295.28C195.659 295.867 195.292 296.68 195.199 297.72H202.119ZM208.621 294.54V301C208.621 301.533 208.735 301.913 208.961 302.14C209.188 302.353 209.581 302.46 210.141 302.46H211.481V304H209.841C208.828 304 208.068 303.767 207.561 303.3C207.055 302.833 206.801 302.067 206.801 301V294.54H205.381V293.04H206.801V290.28H208.621V293.04H211.481V294.54H208.621ZM220.839 294.82C221.159 294.193 221.612 293.707 222.199 293.36C222.799 293.013 223.525 292.84 224.379 292.84V294.72H223.899C221.859 294.72 220.839 295.827 220.839 298.04V304H219.019V293.04H220.839V294.82ZM236.479 298.1C236.479 298.447 236.459 298.813 236.419 299.2H227.659C227.726 300.28 228.093 301.127 228.759 301.74C229.439 302.34 230.259 302.64 231.219 302.64C232.006 302.64 232.659 302.46 233.179 302.1C233.713 301.727 234.086 301.233 234.299 300.62H236.259C235.966 301.673 235.379 302.533 234.499 303.2C233.619 303.853 232.526 304.18 231.219 304.18C230.179 304.18 229.246 303.947 228.419 303.48C227.606 303.013 226.966 302.353 226.499 301.5C226.033 300.633 225.799 299.633 225.799 298.5C225.799 297.367 226.026 296.373 226.479 295.52C226.933 294.667 227.566 294.013 228.379 293.56C229.206 293.093 230.153 292.86 231.219 292.86C232.259 292.86 233.179 293.087 233.979 293.54C234.779 293.993 235.393 294.62 235.819 295.42C236.259 296.207 236.479 297.1 236.479 298.1ZM234.599 297.72C234.599 297.027 234.446 296.433 234.139 295.94C233.833 295.433 233.413 295.053 232.879 294.8C232.359 294.533 231.779 294.4 231.139 294.4C230.219 294.4 229.433 294.693 228.779 295.28C228.139 295.867 227.773 296.68 227.679 297.72H234.599ZM238.202 298.5C238.202 297.367 238.428 296.38 238.882 295.54C239.335 294.687 239.962 294.027 240.762 293.56C241.575 293.093 242.502 292.86 243.542 292.86C244.888 292.86 245.995 293.187 246.862 293.84C247.742 294.493 248.322 295.4 248.602 296.56H246.642C246.455 295.893 246.088 295.367 245.542 294.98C245.008 294.593 244.342 294.4 243.542 294.4C242.502 294.4 241.662 294.76 241.022 295.48C240.382 296.187 240.062 297.193 240.062 298.5C240.062 299.82 240.382 300.84 241.022 301.56C241.662 302.28 242.502 302.64 243.542 302.64C244.342 302.64 245.008 302.453 245.542 302.08C246.075 301.707 246.442 301.173 246.642 300.48H248.602C248.308 301.6 247.722 302.5 246.842 303.18C245.962 303.847 244.862 304.18 243.542 304.18C242.502 304.18 241.575 303.947 240.762 303.48C239.962 303.013 239.335 302.353 238.882 301.5C238.428 300.647 238.202 299.647 238.202 298.5ZM256.47 292.84C257.297 292.84 258.044 293.02 258.71 293.38C259.377 293.727 259.897 294.253 260.27 294.96C260.657 295.667 260.85 296.527 260.85 297.54V304H259.05V297.8C259.05 296.707 258.777 295.873 258.23 295.3C257.684 294.713 256.937 294.42 255.99 294.42C255.03 294.42 254.264 294.72 253.69 295.32C253.13 295.92 252.85 296.793 252.85 297.94V304H251.03V289.2H252.85V294.6C253.21 294.04 253.704 293.607 254.33 293.3C254.97 292.993 255.684 292.84 256.47 292.84ZM266.043 294.54V301C266.043 301.533 266.157 301.913 266.383 302.14C266.61 302.353 267.003 302.46 267.563 302.46H268.903V304H267.263C266.25 304 265.49 303.767 264.983 303.3C264.477 302.833 264.223 302.067 264.223 301V294.54H262.803V293.04H264.223V290.28H266.043V293.04H268.903V294.54H266.043ZM281.22 304.18C280.194 304.18 279.26 303.947 278.42 303.48C277.594 303.013 276.94 302.353 276.46 301.5C275.994 300.633 275.76 299.633 275.76 298.5C275.76 297.38 276 296.393 276.48 295.54C276.974 294.673 277.64 294.013 278.48 293.56C279.32 293.093 280.26 292.86 281.3 292.86C282.34 292.86 283.28 293.093 284.12 293.56C284.96 294.013 285.62 294.667 286.1 295.52C286.594 296.373 286.84 297.367 286.84 298.5C286.84 299.633 286.587 300.633 286.08 301.5C285.587 302.353 284.914 303.013 284.06 303.48C283.207 303.947 282.26 304.18 281.22 304.18ZM281.22 302.58C281.874 302.58 282.487 302.427 283.06 302.12C283.634 301.813 284.094 301.353 284.44 300.74C284.8 300.127 284.98 299.38 284.98 298.5C284.98 297.62 284.807 296.873 284.46 296.26C284.114 295.647 283.66 295.193 283.1 294.9C282.54 294.593 281.934 294.44 281.28 294.44C280.614 294.44 280 294.593 279.44 294.9C278.894 295.193 278.454 295.647 278.12 296.26C277.787 296.873 277.62 297.62 277.62 298.5C277.62 299.393 277.78 300.147 278.1 300.76C278.434 301.373 278.874 301.833 279.42 302.14C279.967 302.433 280.567 302.58 281.22 302.58ZM291.053 295.06C291.413 294.433 291.947 293.913 292.653 293.5C293.373 293.073 294.207 292.86 295.153 292.86C296.127 292.86 297.007 293.093 297.793 293.56C298.593 294.027 299.22 294.687 299.673 295.54C300.127 296.38 300.353 297.36 300.353 298.48C300.353 299.587 300.127 300.573 299.673 301.44C299.22 302.307 298.593 302.98 297.793 303.46C297.007 303.94 296.127 304.18 295.153 304.18C294.22 304.18 293.393 303.973 292.673 303.56C291.967 303.133 291.427 302.607 291.053 301.98V309.2H289.233V293.04H291.053V295.06ZM298.493 298.48C298.493 297.653 298.327 296.933 297.993 296.32C297.66 295.707 297.207 295.24 296.633 294.92C296.073 294.6 295.453 294.44 294.773 294.44C294.107 294.44 293.487 294.607 292.913 294.94C292.353 295.26 291.9 295.733 291.553 296.36C291.22 296.973 291.053 297.687 291.053 298.5C291.053 299.327 291.22 300.053 291.553 300.68C291.9 301.293 292.353 301.767 292.913 302.1C293.487 302.42 294.107 302.58 294.773 302.58C295.453 302.58 296.073 302.42 296.633 302.1C297.207 301.767 297.66 301.293 297.993 300.68C298.327 300.053 298.493 299.32 298.493 298.48ZM312.861 304.18C311.834 304.18 310.901 303.947 310.061 303.48C309.234 303.013 308.581 302.353 308.101 301.5C307.634 300.633 307.401 299.633 307.401 298.5C307.401 297.38 307.641 296.393 308.121 295.54C308.614 294.673 309.281 294.013 310.121 293.56C310.961 293.093 311.901 292.86 312.941 292.86C313.981 292.86 314.921 293.093 315.761 293.56C316.601 294.013 317.261 294.667 317.741 295.52C318.234 296.373 318.481 297.367 318.481 298.5C318.481 299.633 318.228 300.633 317.721 301.5C317.228 302.353 316.554 303.013 315.701 303.48C314.848 303.947 313.901 304.18 312.861 304.18ZM312.861 302.58C313.514 302.58 314.128 302.427 314.701 302.12C315.274 301.813 315.734 301.353 316.081 300.74C316.441 300.127 316.621 299.38 316.621 298.5C316.621 297.62 316.448 296.873 316.101 296.26C315.754 295.647 315.301 295.193 314.741 294.9C314.181 294.593 313.574 294.44 312.921 294.44C312.254 294.44 311.641 294.593 311.081 294.9C310.534 295.193 310.094 295.647 309.761 296.26C309.428 296.873 309.261 297.62 309.261 298.5C309.261 299.393 309.421 300.147 309.741 300.76C310.074 301.373 310.514 301.833 311.061 302.14C311.608 302.433 312.208 302.58 312.861 302.58ZM326.214 292.84C327.547 292.84 328.627 293.247 329.454 294.06C330.281 294.86 330.694 296.02 330.694 297.54V304H328.894V297.8C328.894 296.707 328.621 295.873 328.074 295.3C327.527 294.713 326.781 294.42 325.834 294.42C324.874 294.42 324.107 294.72 323.534 295.32C322.974 295.92 322.694 296.793 322.694 297.94V304H320.874V293.04H322.694V294.6C323.054 294.04 323.541 293.607 324.154 293.3C324.781 292.993 325.467 292.84 326.214 292.84ZM332.987 298.48C332.987 297.36 333.214 296.38 333.667 295.54C334.12 294.687 334.74 294.027 335.527 293.56C336.327 293.093 337.22 292.86 338.207 292.86C339.06 292.86 339.854 293.06 340.587 293.46C341.32 293.847 341.88 294.36 342.267 295V289.2H344.107V304H342.267V301.94C341.907 302.593 341.374 303.133 340.667 303.56C339.96 303.973 339.134 304.18 338.187 304.18C337.214 304.18 336.327 303.94 335.527 303.46C334.74 302.98 334.12 302.307 333.667 301.44C333.214 300.573 332.987 299.587 332.987 298.48ZM342.267 298.5C342.267 297.673 342.1 296.953 341.767 296.34C341.434 295.727 340.98 295.26 340.407 294.94C339.847 294.607 339.227 294.44 338.547 294.44C337.867 294.44 337.247 294.6 336.687 294.92C336.127 295.24 335.68 295.707 335.347 296.32C335.014 296.933 334.847 297.653 334.847 298.48C334.847 299.32 335.014 300.053 335.347 300.68C335.68 301.293 336.127 301.767 336.687 302.1C337.247 302.42 337.867 302.58 338.547 302.58C339.227 302.58 339.847 302.42 340.407 302.1C340.98 301.767 341.434 301.293 341.767 300.68C342.1 300.053 342.267 299.327 342.267 298.5ZM357.183 298.1C357.183 298.447 357.163 298.813 357.123 299.2H348.363C348.429 300.28 348.796 301.127 349.463 301.74C350.143 302.34 350.963 302.64 351.923 302.64C352.709 302.64 353.363 302.46 353.883 302.1C354.416 301.727 354.789 301.233 355.003 300.62H356.963C356.669 301.673 356.083 302.533 355.203 303.2C354.323 303.853 353.229 304.18 351.923 304.18C350.883 304.18 349.949 303.947 349.123 303.48C348.309 303.013 347.669 302.353 347.203 301.5C346.736 300.633 346.503 299.633 346.503 298.5C346.503 297.367 346.729 296.373 347.183 295.52C347.636 294.667 348.269 294.013 349.083 293.56C349.909 293.093 350.856 292.86 351.923 292.86C352.963 292.86 353.883 293.087 354.683 293.54C355.483 293.993 356.096 294.62 356.523 295.42C356.963 296.207 357.183 297.1 357.183 298.1ZM355.303 297.72C355.303 297.027 355.149 296.433 354.843 295.94C354.536 295.433 354.116 295.053 353.583 294.8C353.063 294.533 352.483 294.4 351.843 294.4C350.923 294.4 350.136 294.693 349.483 295.28C348.843 295.867 348.476 296.68 348.383 297.72H355.303ZM361.405 294.82C361.725 294.193 362.178 293.707 362.765 293.36C363.365 293.013 364.092 292.84 364.945 292.84V294.72H364.465C362.425 294.72 361.405 295.827 361.405 298.04V304H359.585V293.04H361.405V294.82ZM381.646 293.04L378.226 304H376.346L373.706 295.3L371.066 304H369.186L365.746 293.04H367.606L370.126 302.24L372.846 293.04H374.706L377.366 302.26L379.846 293.04H381.646ZM384.392 291.26C384.045 291.26 383.752 291.14 383.512 290.9C383.272 290.66 383.152 290.367 383.152 290.02C383.152 289.673 383.272 289.38 383.512 289.14C383.752 288.9 384.045 288.78 384.392 288.78C384.725 288.78 385.005 288.9 385.232 289.14C385.472 289.38 385.592 289.673 385.592 290.02C385.592 290.367 385.472 290.66 385.232 290.9C385.005 291.14 384.725 291.26 384.392 291.26ZM385.272 293.04V304H383.452V293.04H385.272ZM389.354 291.26C389.007 291.26 388.714 291.14 388.474 290.9C388.247 290.66 388.134 290.367 388.134 290.02C388.134 289.673 388.247 289.38 388.474 289.14C388.714 288.9 389.007 288.78 389.354 288.78C389.701 288.78 389.987 288.9 390.214 289.14C390.454 289.38 390.574 289.673 390.574 290.02C390.574 290.367 390.454 290.66 390.214 290.9C389.987 291.14 389.701 291.26 389.354 291.26ZM390.254 306.38C390.254 307.353 390.007 308.067 389.514 308.52C389.021 308.973 388.301 309.2 387.354 309.2H386.294V307.66H387.054C387.561 307.66 387.914 307.56 388.114 307.36C388.327 307.16 388.434 306.82 388.434 306.34V293.04H390.254V306.38ZM397.215 304.18C396.375 304.18 395.622 304.04 394.955 303.76C394.288 303.467 393.762 303.067 393.375 302.56C392.988 302.04 392.775 301.447 392.735 300.78H394.615C394.668 301.327 394.922 301.773 395.375 302.12C395.842 302.467 396.448 302.64 397.195 302.64C397.888 302.64 398.435 302.487 398.835 302.18C399.235 301.873 399.435 301.487 399.435 301.02C399.435 300.54 399.222 300.187 398.795 299.96C398.368 299.72 397.708 299.487 396.815 299.26C396.002 299.047 395.335 298.833 394.815 298.62C394.308 298.393 393.868 298.067 393.495 297.64C393.135 297.2 392.955 296.627 392.955 295.92C392.955 295.36 393.122 294.847 393.455 294.38C393.788 293.913 394.262 293.547 394.875 293.28C395.488 293 396.188 292.86 396.975 292.86C398.188 292.86 399.168 293.167 399.915 293.78C400.662 294.393 401.062 295.233 401.115 296.3H399.295C399.255 295.727 399.022 295.267 398.595 294.92C398.182 294.573 397.622 294.4 396.915 294.4C396.262 294.4 395.742 294.54 395.355 294.82C394.968 295.1 394.775 295.467 394.775 295.92C394.775 296.28 394.888 296.58 395.115 296.82C395.355 297.047 395.648 297.233 395.995 297.38C396.355 297.513 396.848 297.667 397.475 297.84C398.262 298.053 398.902 298.267 399.395 298.48C399.888 298.68 400.308 298.987 400.655 299.4C401.015 299.813 401.202 300.353 401.215 301.02C401.215 301.62 401.048 302.16 400.715 302.64C400.382 303.12 399.908 303.5 399.295 303.78C398.695 304.047 398.002 304.18 397.215 304.18ZM185.083 323.04L181.663 334H179.783L177.143 325.3L174.503 334H172.623L169.183 323.04H171.043L173.563 332.24L176.283 323.04H178.143L180.803 332.26L183.283 323.04H185.083ZM196.89 328.1C196.89 328.447 196.87 328.813 196.83 329.2H188.07C188.136 330.28 188.503 331.127 189.17 331.74C189.85 332.34 190.67 332.64 191.63 332.64C192.416 332.64 193.07 332.46 193.59 332.1C194.123 331.727 194.496 331.233 194.71 330.62H196.67C196.376 331.673 195.79 332.533 194.91 333.2C194.03 333.853 192.936 334.18 191.63 334.18C190.59 334.18 189.656 333.947 188.83 333.48C188.016 333.013 187.376 332.353 186.91 331.5C186.443 330.633 186.21 329.633 186.21 328.5C186.21 327.367 186.436 326.373 186.89 325.52C187.343 324.667 187.976 324.013 188.79 323.56C189.616 323.093 190.563 322.86 191.63 322.86C192.67 322.86 193.59 323.087 194.39 323.54C195.19 323.993 195.803 324.62 196.23 325.42C196.67 326.207 196.89 327.1 196.89 328.1ZM195.01 327.72C195.01 327.027 194.856 326.433 194.55 325.94C194.243 325.433 193.823 325.053 193.29 324.8C192.77 324.533 192.19 324.4 191.55 324.4C190.63 324.4 189.843 324.693 189.19 325.28C188.55 325.867 188.183 326.68 188.09 327.72H195.01ZM201.112 324.82C201.432 324.193 201.885 323.707 202.472 323.36C203.072 323.013 203.799 322.84 204.652 322.84V324.72H204.172C202.132 324.72 201.112 325.827 201.112 328.04V334H199.292V323.04H201.112V324.82ZM216.753 328.1C216.753 328.447 216.733 328.813 216.693 329.2H207.933C208 330.28 208.366 331.127 209.033 331.74C209.713 332.34 210.533 332.64 211.493 332.64C212.28 332.64 212.933 332.46 213.453 332.1C213.986 331.727 214.36 331.233 214.573 330.62H216.533C216.24 331.673 215.653 332.533 214.773 333.2C213.893 333.853 212.8 334.18 211.493 334.18C210.453 334.18 209.52 333.947 208.693 333.48C207.88 333.013 207.24 332.353 206.773 331.5C206.306 330.633 206.073 329.633 206.073 328.5C206.073 327.367 206.3 326.373 206.753 325.52C207.206 324.667 207.84 324.013 208.653 323.56C209.48 323.093 210.426 322.86 211.493 322.86C212.533 322.86 213.453 323.087 214.253 323.54C215.053 323.993 215.666 324.62 216.093 325.42C216.533 326.207 216.753 327.1 216.753 328.1ZM214.873 327.72C214.873 327.027 214.72 326.433 214.413 325.94C214.106 325.433 213.686 325.053 213.153 324.8C212.633 324.533 212.053 324.4 211.413 324.4C210.493 324.4 209.706 324.693 209.053 325.28C208.413 325.867 208.046 326.68 207.953 327.72H214.873ZM220.975 319.2V334H219.155V319.2H220.975ZM223.397 328.48C223.397 327.36 223.624 326.38 224.077 325.54C224.53 324.687 225.15 324.027 225.937 323.56C226.737 323.093 227.63 322.86 228.617 322.86C229.47 322.86 230.264 323.06 230.997 323.46C231.73 323.847 232.29 324.36 232.677 325V319.2H234.517V334H232.677V331.94C232.317 332.593 231.784 333.133 231.077 333.56C230.37 333.973 229.544 334.18 228.597 334.18C227.624 334.18 226.737 333.94 225.937 333.46C225.15 332.98 224.53 332.307 224.077 331.44C223.624 330.573 223.397 329.587 223.397 328.48ZM232.677 328.5C232.677 327.673 232.51 326.953 232.177 326.34C231.844 325.727 231.39 325.26 230.817 324.94C230.257 324.607 229.637 324.44 228.957 324.44C228.277 324.44 227.657 324.6 227.097 324.92C226.537 325.24 226.09 325.707 225.757 326.32C225.424 326.933 225.257 327.653 225.257 328.48C225.257 329.32 225.424 330.053 225.757 330.68C226.09 331.293 226.537 331.767 227.097 332.1C227.657 332.42 228.277 332.58 228.957 332.58C229.637 332.58 230.257 332.42 230.817 332.1C231.39 331.767 231.844 331.293 232.177 330.68C232.51 330.053 232.677 329.327 232.677 328.5ZM252.193 323.04L248.773 334H246.893L244.253 325.3L241.613 334H239.733L236.293 323.04H238.153L240.673 332.24L243.393 323.04H245.253L247.913 332.26L250.393 323.04H252.193ZM254.939 321.26C254.592 321.26 254.299 321.14 254.059 320.9C253.819 320.66 253.699 320.367 253.699 320.02C253.699 319.673 253.819 319.38 254.059 319.14C254.299 318.9 254.592 318.78 254.939 318.78C255.272 318.78 255.552 318.9 255.779 319.14C256.019 319.38 256.139 319.673 256.139 320.02C256.139 320.367 256.019 320.66 255.779 320.9C255.552 321.14 255.272 321.26 254.939 321.26ZM255.819 323.04V334H253.999V323.04H255.819ZM259.901 321.26C259.554 321.26 259.261 321.14 259.021 320.9C258.794 320.66 258.681 320.367 258.681 320.02C258.681 319.673 258.794 319.38 259.021 319.14C259.261 318.9 259.554 318.78 259.901 318.78C260.248 318.78 260.534 318.9 260.761 319.14C261.001 319.38 261.121 319.673 261.121 320.02C261.121 320.367 261.001 320.66 260.761 320.9C260.534 321.14 260.248 321.26 259.901 321.26ZM260.801 336.38C260.801 337.353 260.554 338.067 260.061 338.52C259.568 338.973 258.848 339.2 257.901 339.2H256.841V337.66H257.601C258.108 337.66 258.461 337.56 258.661 337.36C258.874 337.16 258.981 336.82 258.981 336.34V323.04H260.801V336.38ZM263.202 328.48C263.202 327.36 263.428 326.38 263.882 325.54C264.335 324.687 264.955 324.027 265.742 323.56C266.542 323.093 267.435 322.86 268.422 322.86C269.275 322.86 270.068 323.06 270.802 323.46C271.535 323.847 272.095 324.36 272.482 325V319.2H274.322V334H272.482V331.94C272.122 332.593 271.588 333.133 270.882 333.56C270.175 333.973 269.348 334.18 268.402 334.18C267.428 334.18 266.542 333.94 265.742 333.46C264.955 332.98 264.335 332.307 263.882 331.44C263.428 330.573 263.202 329.587 263.202 328.48ZM272.482 328.5C272.482 327.673 272.315 326.953 271.982 326.34C271.648 325.727 271.195 325.26 270.622 324.94C270.062 324.607 269.442 324.44 268.762 324.44C268.082 324.44 267.462 324.6 266.902 324.92C266.342 325.24 265.895 325.707 265.562 326.32C265.228 326.933 265.062 327.653 265.062 328.48C265.062 329.32 265.228 330.053 265.562 330.68C265.895 331.293 266.342 331.767 266.902 332.1C267.462 332.42 268.082 332.58 268.762 332.58C269.442 332.58 270.062 332.42 270.622 332.1C271.195 331.767 271.648 331.293 271.982 330.68C272.315 330.053 272.482 329.327 272.482 328.5ZM277.977 334.12C277.631 334.12 277.337 334 277.097 333.76C276.857 333.52 276.737 333.227 276.737 332.88C276.737 332.533 276.857 332.24 277.097 332C277.337 331.76 277.631 331.64 277.977 331.64C278.311 331.64 278.591 331.76 278.817 332C279.057 332.24 279.177 332.533 279.177 332.88C279.177 333.227 279.057 333.52 278.817 333.76C278.591 334 278.311 334.12 277.977 334.12Z" fill="black"/>
</g>
<defs>
<clipPath id="clip0_317_5693">
<rect width="462" height="383" rx="20" fill="white"/>
</clipPath>
</defs>
</svg>
