<svg width="91" height="56" viewBox="0 0 91 56" fill="none" xmlns="http://www.w3.org/2000/svg">
<path d="M3.90846 24.165V24.8917H4.1567L3.79345 26.3796L3.0593 24.165H2.33281L1.60632 26.3796L1.23541 24.8917H1.49802V24.165H0V24.8917H0.369953L1.17407 27.5216H1.88427L2.64909 25.2686L3.42254 27.5216H4.1404L4.9359 24.8917H5.31448V24.165H3.90846Z" fill="black"/>
<path d="M7.7135 25.5118C7.69698 25.1189 7.48016 24.8633 6.99695 24.8633C6.53129 24.8633 6.30724 25.155 6.24839 25.5118H7.7135ZM6.24839 26.014C6.29795 26.4151 6.51477 26.7791 7.11362 26.7791C7.4306 26.7791 7.70524 26.677 7.82191 26.4955L8.53744 26.7131C8.31235 27.1937 7.84669 27.5216 7.0145 27.5216C5.95722 27.5216 5.31604 26.9796 5.31604 25.7737C5.31604 24.7106 5.982 24.165 6.99695 24.165C8.07178 24.165 8.63759 24.6673 8.63759 25.7737V26.014H6.24839Z" fill="black"/>
<path d="M9.68675 27.516V24.9398H9.29858V24.2267H10.3458L10.3593 24.7171C10.5635 24.3831 10.8158 24.165 11.1964 24.165C11.8292 24.165 11.9558 24.5331 11.9558 25.2857H11.3027C11.3027 24.9959 11.2276 24.9177 10.9491 24.9177C10.8511 24.9174 10.754 24.9389 10.6639 24.981C10.5738 25.0231 10.4925 25.0848 10.4251 25.1624V27.5216L9.68675 27.516Z" fill="black"/>
<path d="M14.8857 27.5218C14.4534 27.5218 14.1464 27.3492 13.9847 26.9982L13.2581 25.4353L14.3408 24.0508H15.2781L14.1437 25.4353L14.655 26.5018C14.6877 26.5786 14.742 26.6425 14.8104 26.6846C14.8789 26.7267 14.9579 26.7448 15.0365 26.7365H15.2181V27.5189L14.8857 27.5218ZM12.3743 27.5218V22.9028H11.9565V22.1514H13.1718V27.5218H12.3743Z" fill="black"/>
<path d="M20.0301 26.0345C19.8811 26.0064 19.729 25.994 19.5768 25.9974C19.1314 25.9974 18.8123 26.0996 18.8123 26.4135C18.8123 26.6758 19.004 26.8142 19.4049 26.8142C19.7704 26.8142 19.9136 26.7418 20.0331 26.6387L20.0301 26.0345ZM21.0899 27.4635C20.5961 27.4635 20.286 27.3243 20.1506 27.0475C20.0254 27.1973 19.8637 27.3183 19.6783 27.4006C19.4929 27.4829 19.289 27.5242 19.083 27.5214C18.359 27.5214 17.9363 27.1063 17.9363 26.5265C17.9363 25.7831 18.4696 25.5054 19.2983 25.5054C19.5466 25.5051 19.7944 25.5272 20.038 25.5714V25.3236C20.038 25.0026 19.8405 24.8569 19.4968 24.8569C19.1709 24.8569 19.0277 24.9148 18.8054 25.1283L18.1052 24.6761C18.4469 24.3143 18.8854 24.165 19.5936 24.165C20.5092 24.165 20.9151 24.544 20.9151 25.3245V26.5636C20.9117 26.5858 20.9138 26.6084 20.9213 26.6296C20.9288 26.6509 20.9416 26.6704 20.9585 26.6865C20.9754 26.7026 20.9962 26.715 21.0191 26.7227C21.042 26.7304 21.0666 26.7332 21.0909 26.7309H21.2578V27.4608L21.0899 27.4635Z" fill="black"/>
<path d="M23.35 26.0345C23.2006 26.0064 23.0481 25.994 22.8957 25.9974C22.4502 25.9974 22.1312 26.0996 22.1312 26.4135C22.1312 26.6758 22.3228 26.8141 22.7238 26.8141C23.0902 26.8141 23.2334 26.7418 23.3529 26.6387L23.35 26.0345ZM24.4088 27.4635C23.9149 27.4635 23.6048 27.3243 23.4685 27.0475C23.3436 27.1974 23.182 27.3183 22.9967 27.4006C22.8115 27.4829 22.6077 27.5243 22.4018 27.5214C21.6779 27.5214 21.2551 27.1063 21.2551 26.5265C21.2551 25.7831 21.7885 25.5054 22.6171 25.5054C22.8658 25.5051 23.1139 25.5272 23.3579 25.5714V25.3236C23.3579 25.0026 23.1604 24.8569 22.8157 24.8569C22.4897 24.8569 22.3465 24.9148 22.1243 25.1283L21.424 24.6761C21.7658 24.3143 22.2043 24.165 22.9124 24.165C23.828 24.165 24.234 24.544 24.234 25.3245V26.5636C24.2307 26.5857 24.233 26.6082 24.2406 26.6295C24.2482 26.6507 24.2609 26.67 24.2778 26.6861C24.2947 26.7022 24.3153 26.7146 24.3382 26.7223C24.361 26.7301 24.3855 26.733 24.4098 26.7309H24.5767V27.4608L24.4088 27.4635Z" fill="black"/>
<path d="M28.4108 27.5179C27.8048 27.5179 27.4966 27.2058 27.4966 26.6046C27.4966 26.2705 27.5243 25.9519 27.5243 25.5137C27.5243 25.2173 27.4057 24.9126 27.0049 24.9126C26.7808 24.9077 26.5635 24.9954 26.399 25.1575V27.5179H25.6389V24.9402H25.2407V24.2267H26.3159L26.3289 24.7174C26.4336 24.5474 26.5765 24.4078 26.7448 24.3113C26.913 24.2149 27.1012 24.1646 27.2923 24.165C27.8438 24.165 28.2766 24.5885 28.2766 25.4115C28.2766 25.8939 28.2558 26.2502 28.2558 26.6083C28.2558 26.7197 28.3043 26.7786 28.409 26.7786H28.5623V27.5216L28.4108 27.5179Z" fill="black"/>
<path d="M33.3715 24.8786C33.1838 24.7757 32.973 24.7227 32.7592 24.7248C32.3463 24.7248 32.0634 25.0019 32.0634 25.7415C32.0634 26.4047 32.315 26.7736 32.7896 26.7736C32.9998 26.7702 33.2035 26.7 33.3715 26.5729V24.8786ZM34.374 27.4444C33.9069 27.4444 33.6089 27.3135 33.4788 27.0048C33.3475 27.1672 33.1817 27.2979 32.9936 27.3874C32.8055 27.4768 32.5999 27.5227 32.3919 27.5218C31.7568 27.5218 31.2205 27.0201 31.2205 25.7645C31.2205 24.4629 31.9096 23.9699 32.445 23.9699C32.7863 23.9623 33.1177 24.086 33.3715 24.3158V22.892H32.8893V22.1514H34.206V26.4964C34.2027 26.5198 34.2047 26.5435 34.2119 26.5659C34.2191 26.5884 34.2312 26.6088 34.2474 26.6259C34.2636 26.6429 34.2833 26.656 34.3053 26.6642C34.3272 26.6724 34.3507 26.6755 34.374 26.6732H34.542V27.4444H34.374Z" fill="black"/>
<path d="M36.9366 25.5118C36.9201 25.1189 36.7033 24.8633 36.2201 24.8633C35.7544 24.8633 35.5304 25.155 35.4715 25.5118H36.9366ZM35.4715 26.014C35.5211 26.4151 35.7379 26.7791 36.3378 26.7791C36.6537 26.7791 36.9284 26.677 37.0451 26.4955L37.7606 26.7131C37.5355 27.1937 37.0698 27.5216 36.2376 27.5216C35.1804 27.5216 34.5392 26.9796 34.5392 25.7737C34.5392 24.7106 35.2051 24.165 36.2201 24.165C37.2949 24.165 37.8607 24.6673 37.8607 25.7737V26.014H35.4715Z" fill="black"/>
<path d="M43.9412 27.5216L43.168 25.2695L42.4035 27.5216H41.6935L40.8897 24.8917H40.5189V24.165H42.0174V24.8917H41.7548L42.1256 26.3796L42.8518 24.165H43.5781L44.312 26.3796L44.6751 24.8917H44.4269V24.165H45.8334V24.8917H45.455L44.6588 27.5216H43.9412Z" fill="black"/>
<path d="M48.2266 25.5118C48.209 25.1189 47.9932 24.8633 47.51 24.8633C47.0443 24.8633 46.8203 25.155 46.7614 25.5118H48.2266ZM46.7614 26.014C46.811 26.4151 47.0278 26.7791 47.6277 26.7791C47.9437 26.7791 48.2183 26.677 48.335 26.4955L49.0505 26.7131C48.8254 27.1937 48.3598 27.5216 47.5276 27.5216C46.4692 27.5216 45.8291 26.9796 45.8291 25.7737C45.8291 24.7106 46.4951 24.165 47.51 24.165C48.5838 24.165 49.1506 24.6673 49.1506 25.7737V26.014H46.7614Z" fill="black"/>
<path d="M49.6369 27.516V24.9398H49.1538V24.2267H50.4628L50.4797 24.7171C50.7349 24.3831 51.0503 24.165 51.526 24.165C52.3171 24.165 52.4754 24.5331 52.4754 25.2857H51.6589C51.6589 24.9959 51.5651 24.9177 51.217 24.9177C51.0944 24.9174 50.9731 24.9389 50.8605 24.981C50.7478 25.0231 50.6462 25.0848 50.562 25.1624V27.5216L49.6369 27.516Z" fill="black"/>
<path d="M54.8737 25.5118C54.8561 25.1189 54.6403 24.8633 54.1569 24.8633C53.6911 24.8633 53.4659 25.155 53.4081 25.5118H54.8737ZM53.4081 26.014C53.4577 26.4151 53.6746 26.7791 54.2736 26.7791C54.5907 26.7791 54.8644 26.677 54.9811 26.4955L55.6979 26.7131C55.4727 27.1937 55.0059 27.5216 54.1745 27.5216C53.1158 27.5216 52.4755 26.9796 52.4755 25.7737C52.4755 24.7106 53.1416 24.165 54.1569 24.165C55.231 24.165 55.797 24.6673 55.797 25.7737V26.014H53.4081Z" fill="black"/>
<path d="M56.9813 27.5218C56.4343 27.5218 56.156 27.1931 56.156 26.56V22.9028H55.7973V22.1514H56.843V26.56C56.8403 26.5837 56.842 26.6078 56.8479 26.6305C56.8538 26.6533 56.8638 26.674 56.8771 26.6913C56.8904 26.7086 56.9067 26.7219 56.9248 26.7302C56.9428 26.7385 56.9622 26.7417 56.9813 26.7394H57.1259V27.5218H56.9813Z" fill="black"/>
<path d="M59.9338 24.8786C59.7462 24.7754 59.5353 24.7225 59.3215 24.7248C58.9086 24.7248 58.6257 25.0019 58.6257 25.7415C58.6257 26.4047 58.8782 26.7736 59.3519 26.7736C59.5621 26.7704 59.7659 26.7002 59.9338 26.5729V24.8786ZM60.9382 27.4444C60.4721 27.4444 60.173 27.3135 60.043 27.0048C59.9116 27.1672 59.7458 27.2979 59.5577 27.3874C59.3697 27.4768 59.1641 27.5227 58.9561 27.5218C58.321 27.5218 57.7856 27.0201 57.7856 25.7645C57.7856 24.4629 58.4738 23.9699 59.0102 23.9699C59.3512 23.9622 59.6823 24.086 59.9357 24.3158V22.892H59.4535V22.1514H60.7701V26.4964C60.7669 26.5198 60.7689 26.5435 60.7761 26.5659C60.7832 26.5884 60.7954 26.6088 60.8115 26.6259C60.8277 26.6429 60.8475 26.656 60.8694 26.6642C60.8914 26.6724 60.9149 26.6755 60.9382 26.6732H61.1071V27.4444H60.9382Z" fill="black"/>
<path d="M64.1292 22.1514H64.8126V23.031H64.1292V22.1514ZM64.9494 27.5218C64.4052 27.5218 64.1284 27.1697 64.1284 26.4915V24.6086H63.7654V23.8037H64.8118V26.4915C64.8091 26.5169 64.8108 26.5427 64.8167 26.5671C64.8225 26.5914 64.8325 26.6137 64.8457 26.6322C64.859 26.6507 64.8752 26.6649 64.8931 26.6739C64.9111 26.6828 64.9303 26.6861 64.9494 26.6837H65.094V27.5218H64.9494Z" fill="black"/>
<path d="M68.8937 27.5179C68.1665 27.5179 67.7967 27.2058 67.7967 26.6046C67.7967 26.2705 67.8299 25.9519 67.8299 25.5137C67.8299 25.2173 67.6876 24.9126 67.2067 24.9126C66.9376 24.9077 66.677 24.9954 66.4795 25.1575V27.5179H65.5674V24.9402H65.0958V24.2267H66.385L66.4016 24.7174C66.5272 24.5474 66.6988 24.4078 66.9007 24.3113C67.1026 24.2149 67.3284 24.1646 67.5578 24.165C68.2195 24.165 68.7389 24.5885 68.7389 25.4115C68.7389 25.8939 68.714 26.2502 68.714 26.6083C68.714 26.7197 68.7721 26.7786 68.8978 26.7786H69.0817V27.5216L68.8937 27.5179Z" fill="black"/>
<path d="M71.6586 22.1514H72.3982V23.0308H71.6586V22.1514ZM71.0697 29.5348V28.6927H71.5038C71.525 28.6968 71.5467 28.6946 71.5671 28.6864C71.5875 28.6782 71.606 28.6642 71.6212 28.6455C71.6363 28.6267 71.6477 28.6039 71.6544 28.5787C71.661 28.5535 71.6628 28.5268 71.6595 28.5006V24.608H71.2388V23.8033H72.3982V28.4996C72.3982 29.1863 72.0998 29.5296 71.503 29.5296L71.0697 29.5348Z" fill="black"/>
<path d="M75.4614 25.5118C75.4448 25.1189 75.2291 24.8633 74.7458 24.8633C74.2792 24.8633 74.0551 25.155 73.9963 25.5118H75.4614ZM73.9963 26.014C74.0468 26.4151 74.2626 26.7791 74.8625 26.7791C75.1785 26.7791 75.4531 26.677 75.5698 26.4955L76.2853 26.7131C76.0602 27.1937 75.5946 27.5216 74.7624 27.5216C73.7051 27.5216 73.0639 26.9796 73.0639 25.7737C73.0639 24.7106 73.7299 24.165 74.7458 24.165C75.8196 24.165 76.3855 24.6673 76.3855 25.7737V26.014H73.9963Z" fill="black"/>
<path d="M81.8919 27.5218C81.3745 27.5218 81.0052 27.3492 80.8124 26.9982L79.9409 25.4353L81.2416 24.0508H82.3657L81.0041 25.4353L81.6185 26.5018C81.6574 26.5785 81.7224 26.6424 81.8043 26.6845C81.8862 26.7266 81.9808 26.7447 82.0749 26.7365H82.2928V27.5189L81.8919 27.5218ZM78.8799 27.5218V22.9028H78.3799V22.1514H79.8429V27.5218H78.8799Z" fill="black"/>
<path d="M83.5495 27.5218C83.0028 27.5218 82.7247 27.1931 82.7247 26.56V22.9028H82.3654V22.1514H83.4105V26.56C83.4079 26.5837 83.4097 26.6078 83.4157 26.6306C83.4217 26.6533 83.4318 26.6741 83.4452 26.6913C83.4585 26.7086 83.4749 26.7218 83.4929 26.7301C83.511 26.7385 83.5303 26.7416 83.5495 26.7394H83.694V27.5218H83.5495Z" fill="black"/>
<path d="M86.4476 26.0345C86.2986 26.0064 86.1464 25.994 85.9943 25.9974C85.5488 25.9974 85.2298 26.0996 85.2298 26.4135C85.2298 26.6758 85.4214 26.8142 85.8224 26.8142C86.1879 26.8142 86.3321 26.7418 86.4506 26.6387L86.4476 26.0345ZM87.5074 27.4635C87.0136 27.4635 86.7034 27.3243 86.5681 27.0475C86.4429 27.1973 86.2811 27.3183 86.0957 27.4006C85.9103 27.4829 85.7065 27.5242 85.5004 27.5214C84.7765 27.5214 84.3538 27.1063 84.3538 26.5265C84.3538 25.7831 84.8871 25.5054 85.7158 25.5054C85.9641 25.5051 86.2119 25.5272 86.4555 25.5714V25.3236C86.4555 25.0026 86.258 24.8569 85.9143 24.8569C85.5884 24.8569 85.4451 24.9148 85.2229 25.1283L84.5226 24.6761C84.8644 24.3143 85.3029 24.165 86.0111 24.165C86.9267 24.165 87.3326 24.544 87.3326 25.3245V26.5636C87.3292 26.5858 87.3313 26.6084 87.3388 26.6296C87.3463 26.6509 87.359 26.6704 87.376 26.6865C87.3929 26.7026 87.4136 26.715 87.4366 26.7227C87.4595 26.7304 87.4841 26.7332 87.5084 26.7309H87.6753V27.4608L87.5074 27.4635Z" fill="black"/>
<path d="M87.6785 27.4601V26.4392L88.501 26.403C88.5683 26.7304 88.9333 26.8913 89.3992 26.8913C89.7642 26.8913 90.0303 26.7747 90.0303 26.498C90.0246 26.4336 89.9978 26.372 89.9529 26.3203C89.908 26.2686 89.8469 26.2289 89.7768 26.2059C89.2845 25.9943 87.7784 26.0251 87.7784 25.0982C87.7784 24.5728 88.2275 24.165 89.05 24.165C89.6011 24.165 89.9398 24.3332 90.0839 24.4417L90.127 24.2084H90.9495V25.2257L90.0934 25.2691C90.0429 24.8613 89.618 24.7953 89.2961 24.7953C88.9743 24.7953 88.7197 24.9119 88.7197 25.0946C88.7197 25.2917 89.0163 25.3785 89.3214 25.4292C89.6382 25.4822 89.95 25.5554 90.2543 25.648C90.593 25.7502 91 25.9835 91 26.479C91 27.0333 90.5677 27.5216 89.6096 27.5216C89.1352 27.5216 88.7103 27.347 88.5494 27.2087L88.4989 27.4565L87.6785 27.4601Z" fill="black"/>
<path d="M21.6625 17.2933C22.1263 17.2933 22.3582 17.064 22.3582 16.6053V16.1683C22.3582 15.7097 22.1263 15.4803 21.6625 15.4803H20.3398C19.9243 15.4887 19.5114 15.4132 19.1263 15.2586C18.7413 15.104 18.3921 14.8735 18.1 14.5811L17.4298 13.927C16.8798 13.3895 16.6052 12.7112 16.6058 11.8921V10.2031C16.6058 9.30388 16.8648 8.6091 17.3828 8.11878C17.9008 7.62847 18.6147 7.38363 19.5246 7.38428H25.1378C25.6016 7.38428 25.8335 7.61361 25.8335 8.07227V10.2293C25.8335 10.6873 25.6016 10.9163 25.1378 10.9163H21.5959C21.1315 10.9163 20.8996 11.1456 20.9002 11.6043V11.8591C20.9002 12.3178 21.1321 12.5471 21.5959 12.5471H22.7031C23.5267 12.5471 24.1907 12.7393 24.695 13.1237L25.1065 13.4386C25.6395 13.8456 25.9057 14.4793 25.905 15.3398V18.0908C25.905 18.9397 25.5817 19.6047 24.935 20.086C24.2791 20.5705 23.4784 20.8245 22.6599 20.8079H16.9595C16.7257 20.8079 16.6084 20.692 16.6078 20.46V17.6412C16.6078 17.4086 16.7254 17.2933 16.9595 17.2933H21.6625Z" fill="black"/>
<path d="M31.4379 20.156C31.413 20.5899 31.1899 20.8072 30.7685 20.8078H28.9517C28.5118 20.8078 28.2887 20.5841 28.2823 20.1366L28.1245 6.25169C28.1178 5.9929 27.9907 5.86254 27.742 5.86254H25.3295C24.8278 5.86254 24.5769 5.60732 24.5769 5.09689V1.19469C24.5769 0.696578 24.8214 0.435199 25.3103 0.410553L34.8048 0H34.8421C35.0837 0 35.2045 0.129717 35.2045 0.38915V5.51231C35.2045 5.77174 35.0805 5.90146 34.8325 5.90146H34.823L32.2689 5.88297H32.2593C32.0241 5.88297 31.9001 6.00588 31.8873 6.25169L31.4379 20.156Z" fill="black"/>
<path d="M37.7266 15.4243C37.7266 15.827 37.932 16.0687 38.3428 16.1495L39.6405 16.4045C39.7245 16.422 39.81 16.4314 39.8959 16.4327C40.2625 16.4327 40.4519 16.2316 40.4643 15.8296L40.8338 5.0673C40.8397 4.82296 40.9693 4.69983 41.2238 4.69983H43.7791C44.0316 4.69983 44.1613 4.82296 44.1691 5.0673L44.5006 17.4168V17.5205C44.5006 18.4688 44.1405 19.2286 43.4203 19.8L43.278 19.9134C42.5324 20.5081 41.6012 20.8247 40.6456 20.8083H36.5616C36.1071 20.8188 35.6564 20.7237 35.2454 20.5306C34.8343 20.3376 34.4741 20.0519 34.1934 19.6962L34.1086 19.5925C33.5272 18.915 33.2081 18.0534 33.2087 17.1627V17.0493L33.5217 8.75168C33.5347 8.26172 33.7901 8.01674 34.288 8.01674H36.9594C37.4715 8.01674 37.7273 8.2711 37.7266 8.7798V15.4243Z" fill="black"/>
<path d="M52.081 15.8861V7.37819C52.081 6.94228 51.863 6.65574 51.427 6.51856L50.1862 6.12624C50.1439 6.11318 50.0998 6.10702 50.0556 6.10797C49.8136 6.10797 49.6916 6.2349 49.6916 6.49259V6.51182L49.8414 16.5043C49.8472 16.7659 49.9592 16.8967 50.1775 16.8967C50.2181 16.8965 50.2585 16.8933 50.2986 16.887L51.474 16.6726C51.8786 16.5938 52.081 16.3316 52.081 15.8861ZM56.4563 16.287C56.4636 16.7467 56.3762 17.2029 56.1995 17.6273C56.0229 18.0516 55.7608 18.435 55.4297 18.7534L54.3944 19.7813C54.075 20.111 53.6918 20.3722 53.2683 20.5489C52.8449 20.7256 52.3899 20.8142 51.9311 20.8092H46.678C46.1121 20.8092 45.8291 20.5256 45.8291 19.9583V3.20214C45.8291 2.71688 46.0778 2.45533 46.5753 2.41751L51.9868 2.02519C52.0742 2.01846 52.1645 2.01558 52.2577 2.01558C52.6704 2.00952 53.08 2.08948 53.4602 2.25038C53.8405 2.41128 54.1831 2.64961 54.4665 2.95021L55.4095 3.91177C56.1061 4.6214 56.4544 5.44033 56.4544 6.36855L56.4563 16.287Z" fill="black"/>
<path d="M57.7856 5.87682V5.85732C57.7856 5.34635 58.0329 5.15034 58.543 5.08988L61.6873 4.69983C62.1859 4.69983 62.4352 4.93971 62.4352 5.41948V5.48579L61.8182 20.0602C61.7932 20.5595 61.5366 20.8091 61.0483 20.8091H58.7115C58.2129 20.8091 57.9604 20.5533 57.954 20.0417L57.7856 5.87682Z" fill="black"/>
<path d="M71.0108 16.2249V10.2099C71.0108 9.71349 70.7787 9.44274 70.3145 9.39762L68.6629 9.22343C68.6259 9.21715 68.5886 9.21382 68.5511 9.21347C68.1238 9.21347 67.898 9.46166 67.8739 9.95802L67.614 16.1184V16.2249C67.614 16.8056 67.877 17.0956 68.403 17.0949C68.4465 17.0949 68.4899 17.0919 68.533 17.0859L70.3794 16.9118C70.7997 16.8792 71.0102 16.6503 71.0108 16.2249ZM75.0572 16.0408C75.0521 17.02 74.7923 17.9794 74.3055 18.8169L73.9062 19.5226C73.4235 20.3793 72.6965 20.808 71.7254 20.8087H67.3494C66.4579 20.8087 65.6567 20.4381 64.9461 19.6968L64.8505 19.5973C64.2137 18.9337 63.8889 18.0568 63.8762 16.9665L63.7654 8.78546V8.73669C63.7654 7.80766 64.1335 7.01467 64.8696 6.35772L64.9346 6.29999C65.6281 5.68086 66.4821 5.3713 67.4965 5.3713H71.0729C71.5313 5.36172 71.9865 5.45134 72.4099 5.6345C72.8333 5.81765 73.2156 6.09035 73.5327 6.43536L74.0342 6.96789C74.3614 7.30111 74.6206 7.69988 74.7961 8.14019C74.9715 8.5805 75.0597 9.05325 75.0553 9.53L75.0572 16.0408Z" fill="black"/>
<path d="M20.8159 45.7616H20.8975C21.1491 45.7616 21.2772 45.592 21.2858 45.2539L21.3104 43.3153L20.646 43.1448C20.4049 43.0794 20.2879 42.9046 20.2948 42.6204L20.3897 38.2287C20.3973 37.9236 20.5302 37.771 20.7884 37.771H25.2001C25.6702 37.771 25.905 38.0494 25.9043 38.606V43.4084C25.9043 44.6825 25.5522 46.5623 24.8441 47.5335L23.8855 48.8527C23.161 49.8439 22.2624 50.3401 21.1899 50.3414H17.1901C16.0929 50.3414 15.1754 49.8962 14.4376 49.0056L14.3113 48.8527C13.5596 47.9465 13.2205 46.8605 13.2939 45.5949L13.8548 34.8651C13.9004 33.7485 14.3006 32.6784 14.9938 31.82L15.2605 31.4897C15.9543 30.6312 16.7877 30.2048 17.7672 30.2048H25.2238C25.6747 30.2048 25.9006 30.4606 25.9006 30.9762V34.8082C25.9006 35.3453 25.669 35.6139 25.2058 35.6139H19.9332C18.8834 35.6139 18.3367 36.2274 18.2931 37.4652L18.0748 44.4238C18.0529 45.0549 18.3026 45.4097 18.8236 45.4842L20.8159 45.7616Z" fill="black"/>
<path d="M31.5105 30.2048C31.8273 30.2048 31.9946 30.3669 32.0124 30.691L32.6853 48.6516H36.8676C37.5292 48.6516 37.8597 48.9899 37.859 49.6666V54.6962C37.859 55.3729 37.5286 55.7112 36.8676 55.7112H28.8642C28.2185 55.7112 27.8956 55.3897 27.8956 54.7467V54.6709L28.6437 30.6968C28.6513 30.3727 28.8186 30.2107 29.1456 30.2107L31.5105 30.2048Z" fill="black"/>
<path d="M42.918 41.3777V35.4944C42.918 34.9068 42.637 34.5862 42.075 34.5327L39.7678 34.326C39.7233 34.3191 39.6783 34.3155 39.6332 34.3152C39.116 34.3152 38.8421 34.6091 38.8123 35.1967L38.4979 41.2513V41.3777C38.4979 42.0639 38.8164 42.4073 39.4535 42.408C39.5059 42.4079 39.5583 42.404 39.6101 42.3962L42.1499 42.1906C42.6626 42.152 42.919 41.8811 42.919 41.3777M47.8217 42.0123C47.8158 43.1714 47.5012 44.307 46.9113 45.2982L46.4307 46.1346C45.8462 47.1492 44.966 47.6566 43.7899 47.6566H37.5462C36.4676 47.6566 35.4973 47.2178 34.6353 46.3403L34.5229 46.2257C33.7538 45.4422 33.3606 44.404 33.3433 43.1112L33.2087 34.2418V34.1899C33.2087 33.091 33.6545 32.1521 34.5459 31.3731L34.6248 31.3046C35.4643 30.572 36.498 30.2057 37.726 30.2057H42.9969C43.552 30.194 44.1035 30.2999 44.6165 30.5165C45.1294 30.7331 45.5927 31.0558 45.9769 31.4642L46.5835 32.095C47.4071 32.949 47.8191 33.961 47.8198 35.1311L47.8217 42.0123Z" fill="black"/>
<path d="M58.4715 36.231V34.7004C58.4715 34.1983 58.2123 33.9472 57.6939 33.9472H54.8623C54.6249 33.9472 54.4973 34.0649 54.4795 34.2985L54.2757 37.3967C54.2675 37.4466 54.2632 37.497 54.2628 37.5475C54.2628 37.9575 54.4415 38.1622 54.799 38.1615C54.8991 38.1605 54.9987 38.1481 55.0958 38.1245L57.2645 37.6477C58.0718 37.4726 58.4754 37.0003 58.4754 36.231M58.2588 43.0784C58.2672 43.0161 58.2715 42.9534 58.2716 42.8906C58.2716 42.1549 57.8634 41.7871 57.0468 41.7871H54.2123C53.9571 41.7871 53.8295 41.9169 53.8295 42.1763V45.438C53.8295 45.6638 53.9571 45.7883 54.2123 45.8136L56.4809 46.0131C56.5799 46.0219 56.664 46.0258 56.749 46.0258C57.5821 46.0258 58.0325 45.6365 58.1005 44.8581L58.2588 43.0784ZM64.4303 45.2424C64.4303 46.5146 63.9756 47.631 63.066 48.5917L62.0975 49.6202C61.2209 50.5485 60.1455 51.0127 58.8712 51.0127H58.7564L50.3143 50.8239C49.5406 50.8077 49.1538 50.4233 49.1538 49.6708V31.4591C49.1538 30.6223 49.5825 30.2042 50.44 30.2048L58.0787 30.2292C59.5073 30.2292 61.4623 30.4763 62.415 30.9697C63.622 31.5963 64.2255 32.5454 64.2255 33.8168V35.7104C64.2255 36.9987 63.7586 38.8543 62.8226 39.7748L62.2112 40.3762L63.0027 41.1167C63.4627 41.5345 63.8277 42.0433 64.0737 42.6096C64.3197 43.1759 64.4413 43.787 64.4303 44.4027V45.2424Z" fill="black"/>
<path d="M69.5826 35.0172V43.058C69.5826 43.6592 69.877 43.9877 70.4659 44.0433L71.8982 44.2544C71.9449 44.2625 71.9923 44.2664 72.0398 44.2659C72.5811 44.2659 72.8675 43.965 72.899 43.3631L73.2294 35.1458V35.0172C73.2294 34.3137 72.8955 33.9619 72.2276 33.9619C72.1725 33.9619 72.1175 33.9657 72.0629 33.9734L70.383 34.1845C69.8494 34.2241 69.5826 34.502 69.5826 35.0182M65.0958 35.9891C65.102 34.8013 65.4315 33.6375 66.0494 32.6216L66.5571 31.7648C67.1697 30.7248 68.0921 30.2048 69.3244 30.2048H73.1687C74.2995 30.2048 75.3167 30.6548 76.2202 31.5547L76.3377 31.6718C77.1468 32.4764 77.5591 33.54 77.5745 34.8627L77.7161 45.5285V45.587C77.7161 46.7133 77.249 47.6753 76.3146 48.4729L76.2318 48.5439C75.352 49.2941 74.2681 49.6696 72.9799 49.6702H70.1499C68.9163 49.6702 67.8757 49.2398 67.0281 48.3789L66.3914 47.7351C65.5283 46.8595 65.0965 45.823 65.0958 44.6257V35.9891Z" fill="black"/>
</svg>
