<svg width="216" height="157" viewBox="0 0 216 157" fill="none" xmlns="http://www.w3.org/2000/svg">
<path d="M9.27619 68.2118V70.2506H9.86533L9.00322 74.4254L7.26081 68.2118H5.5366L3.81238 74.4254L2.93208 70.2506H3.55534V68.2118H0V70.2506H0.878031L2.7865 77.6296H4.47204L6.28724 71.3081L8.12292 77.6296H9.82666L11.7147 70.2506H12.6132V68.2118H9.27619Z" fill="black"/>
<path d="M18.303 71.9906C18.2638 70.8881 17.7492 70.1709 16.6024 70.1709C15.4972 70.1709 14.9655 70.9895 14.8258 71.9906H18.303ZM14.8258 73.3997C14.9434 74.525 15.458 75.5463 16.8793 75.5463C17.6316 75.5463 18.2834 75.26 18.5603 74.7505L20.2585 75.3613C19.7243 76.7096 18.6192 77.6296 16.6441 77.6296C14.1348 77.6296 12.613 76.109 12.613 72.7256C12.613 69.7426 14.1936 68.2118 16.6024 68.2118C19.1534 68.2118 20.4962 69.6209 20.4962 72.7256V73.3997H14.8258Z" fill="black"/>
<path d="M22.9943 77.6141V70.3855H22.073V68.3848H24.5584L24.5904 69.7608C25.0751 68.8236 25.6739 68.2118 26.5771 68.2118C28.0792 68.2118 28.3796 69.2444 28.3796 71.3562H26.8295C26.8295 70.543 26.6512 70.3236 25.9903 70.3236C25.7577 70.3227 25.5273 70.3831 25.3134 70.5012C25.0995 70.6193 24.9067 70.7926 24.7466 71.0103V77.6296L22.9943 77.6141Z" fill="black"/>
<path d="M35.3313 77.6291C34.3052 77.6291 33.5766 77.1448 33.1929 76.16L31.4683 71.7747L34.0379 67.8899H36.2625L33.5701 71.7747L34.7837 74.7672C34.8612 74.9825 34.9902 75.1619 35.1526 75.2799C35.315 75.398 35.5026 75.4489 35.6891 75.4255H36.1202V77.6209L35.3313 77.6291ZM29.3709 77.6291V64.6689H28.3793V62.5605H31.2635V77.6291H29.3709Z" fill="black"/>
<path d="M47.539 73.4572C47.1851 73.3784 46.8242 73.3435 46.463 73.3532C45.4058 73.3532 44.6487 73.64 44.6487 74.5205C44.6487 75.2565 45.1034 75.6447 46.0551 75.6447C46.9225 75.6447 47.2624 75.4417 47.546 75.1524L47.539 73.4572ZM50.0542 77.4668C48.8821 77.4668 48.1461 77.076 47.8249 76.2995C47.5278 76.7199 47.1438 77.0592 46.7038 77.2901C46.2638 77.521 45.7799 77.6371 45.291 77.6292C43.5727 77.6292 42.5695 76.4644 42.5695 74.8378C42.5695 72.7518 43.8353 71.9727 45.802 71.9727C46.3914 71.9717 46.9795 72.0337 47.5577 72.1579V71.4626C47.5577 70.5617 47.0889 70.1531 46.2731 70.1531C45.4996 70.1531 45.1597 70.3156 44.6323 70.9145L42.9703 69.6456C43.7814 68.6305 44.8221 68.2118 46.5029 68.2118C48.6759 68.2118 49.6393 69.2751 49.6393 71.4651V74.9418C49.6312 75.004 49.6362 75.0673 49.654 75.127C49.6719 75.1868 49.7021 75.2413 49.7423 75.2866C49.7825 75.3318 49.8317 75.3666 49.8861 75.3882C49.9406 75.4098 49.9989 75.4177 50.0565 75.4113H50.4527V77.4592L50.0542 77.4668Z" fill="black"/>
<path d="M55.4242 73.4572C55.0696 73.3784 54.7078 73.3435 54.3459 73.3532C53.2887 73.3532 52.5316 73.6399 52.5316 74.5205C52.5316 75.2565 52.9864 75.6447 53.9381 75.6447C54.8077 75.6447 55.1476 75.4417 55.4312 75.1524L55.4242 73.4572ZM57.9371 77.4668C56.765 77.4668 56.029 77.076 55.7055 76.2994C55.409 76.72 55.0255 77.0594 54.5858 77.2903C54.1461 77.5212 53.6625 77.6373 53.1739 77.6292C51.4557 77.6292 50.4524 76.4644 50.4524 74.8377C50.4524 72.7517 51.7182 71.9727 53.6849 71.9727C54.2751 71.9718 54.864 72.0339 55.443 72.1579V71.4626C55.443 70.5617 54.9741 70.1531 54.1561 70.1531C53.3825 70.1531 53.0426 70.3156 52.5152 70.9145L50.8532 69.6456C51.6643 68.6305 52.7051 68.2118 54.3858 68.2118C56.5588 68.2118 57.5222 69.2751 57.5222 71.4651V74.9418C57.5145 75.0039 57.5199 75.067 57.5379 75.1265C57.5559 75.186 57.5861 75.2404 57.6262 75.2855C57.6663 75.3306 57.7153 75.3654 57.7695 75.3871C57.8238 75.4089 57.8818 75.4172 57.9394 75.4113H58.3356V77.4592L57.9371 77.4668Z" fill="black"/>
<path d="M67.4359 77.6193C65.9978 77.6193 65.2663 76.7436 65.2663 75.0569C65.2663 74.1192 65.3321 73.2255 65.3321 71.996C65.3321 71.1642 65.0506 70.3092 64.0994 70.3092C63.5673 70.2954 63.0517 70.5418 62.6612 70.9963V77.6193H60.8573V70.3867H59.9122V68.3849H62.464L62.4948 69.7616C62.7433 69.2845 63.0826 68.8929 63.4819 68.6223C63.8812 68.3517 64.3279 68.2106 64.7815 68.2118C66.0902 68.2118 67.1175 69.4 67.1175 71.7092C67.1175 73.0628 67.0682 74.0624 67.0682 75.0672C67.0682 75.3798 67.1832 75.5451 67.4318 75.5451H67.7955V77.6296L67.4359 77.6193Z" fill="black"/>
<path d="M79.2078 70.2128C78.7622 69.9239 78.262 69.7753 77.7546 69.7811C76.7746 69.7811 76.1032 70.5586 76.1032 72.6339C76.1032 74.4947 76.7002 75.5296 77.8267 75.5296C78.3255 75.5203 78.809 75.3232 79.2078 74.9666V70.2128ZM81.5869 77.4118C80.4785 77.4118 79.771 77.0445 79.4624 76.1785C79.1506 76.6341 78.7571 77.0008 78.3107 77.2518C77.8644 77.5028 77.3764 77.6317 76.8827 77.629C75.3755 77.629 74.1025 76.2214 74.1025 72.6983C74.1025 69.0464 75.7382 67.6629 77.0089 67.6629C77.8189 67.6416 78.6053 67.9888 79.2078 68.6335V64.6385H78.0633V62.5605H81.1882V74.7521C81.1804 74.8175 81.1852 74.8842 81.2023 74.9471C81.2193 75.01 81.2481 75.0674 81.2865 75.1152C81.3248 75.1629 81.3718 75.1997 81.4239 75.2227C81.4759 75.2457 81.5317 75.2544 81.5869 75.2481H81.9857V77.4118H81.5869Z" fill="black"/>
<path d="M87.6754 71.9906C87.6361 70.8881 87.1215 70.1709 85.9747 70.1709C84.8696 70.1709 84.3378 70.9895 84.1981 71.9906H87.6754ZM84.1981 73.3997C84.3158 74.525 84.8304 75.5463 86.2541 75.5463C87.0039 75.5463 87.6558 75.26 87.9327 74.7505L89.6308 75.3613C89.0966 76.7096 87.9915 77.6296 86.0164 77.6296C83.5071 77.6296 81.9854 76.109 81.9854 72.7256C81.9854 69.7426 83.5659 68.2118 85.9747 68.2118C88.5257 68.2118 89.8685 69.6209 89.8685 72.7256V73.3997H84.1981Z" fill="black"/>
<path d="M104.297 77.6296L102.462 71.3107L100.648 77.6296H98.9627L97.0549 70.2506H96.1749V68.2118H99.7313V70.2506H99.1082L99.9882 74.4254L101.712 68.2118H103.435L105.177 74.4254L106.039 70.2506H105.45V68.2118H108.788V70.2506H107.89L106 77.6296H104.297Z" fill="black"/>
<path d="M114.479 71.9906C114.437 70.8881 113.925 70.1709 112.778 70.1709C111.673 70.1709 111.141 70.9895 111.001 71.9906H114.479ZM111.001 73.3997C111.119 74.525 111.634 75.5463 113.057 75.5463C113.807 75.5463 114.459 75.26 114.736 74.7505L116.434 75.3613C115.9 76.7096 114.795 77.6296 112.82 77.6296C110.308 77.6296 108.789 76.109 108.789 72.7256C108.789 69.7426 110.369 68.2118 112.778 68.2118C115.326 68.2118 116.672 69.6209 116.672 72.7256V73.3997H111.001Z" fill="black"/>
<path d="M117.818 77.6141V70.3855H116.671V68.3848H119.778L119.818 69.7608C120.424 68.8236 121.173 68.2118 122.302 68.2118C124.179 68.2118 124.555 69.2444 124.555 71.3562H122.617C122.617 70.543 122.394 70.3236 121.568 70.3236C121.277 70.3227 120.989 70.3831 120.722 70.5012C120.455 70.6193 120.213 70.7926 120.013 71.0103V77.6296L117.818 77.6141Z" fill="black"/>
<path d="M130.247 71.9906C130.205 70.8881 129.693 70.1709 128.545 70.1709C127.44 70.1709 126.905 70.9895 126.768 71.9906H130.247ZM126.768 73.3997C126.886 74.525 127.401 75.5463 128.822 75.5463C129.575 75.5463 130.224 75.26 130.501 74.7505L132.203 75.3613C131.668 76.7096 130.56 77.6296 128.587 77.6296C126.074 77.6296 124.555 76.109 124.555 72.7256C124.555 69.7426 126.136 68.2118 128.545 68.2118C131.095 68.2118 132.438 69.6209 132.438 72.7256V73.3997H126.768Z" fill="black"/>
<path d="M135.248 77.6291C133.95 77.6291 133.29 76.7068 133.29 74.9304V64.6689H132.438V62.5605H134.92V74.9304C134.914 74.9968 134.918 75.0644 134.932 75.1282C134.946 75.1921 134.969 75.2504 135.001 75.2988C135.032 75.3473 135.071 75.3846 135.114 75.4079C135.157 75.4313 135.203 75.4401 135.248 75.4337H135.591V77.6291H135.248Z" fill="black"/>
<path d="M142.266 70.2128C141.821 69.9232 141.321 69.7746 140.813 69.7811C139.833 69.7811 139.162 70.5586 139.162 72.6339C139.162 74.4947 139.761 75.5296 140.885 75.5296C141.384 75.5208 141.868 75.3237 142.266 74.9666V70.2128ZM144.65 77.4118C143.544 77.4118 142.834 77.0445 142.525 76.1785C142.214 76.6341 141.82 77.0008 141.374 77.2518C140.927 77.5028 140.439 77.6317 139.946 77.629C138.439 77.629 137.168 76.2214 137.168 72.6983C137.168 69.0464 138.801 67.6629 140.074 67.6629C140.884 67.6415 141.669 67.9887 142.271 68.6335V64.6385H141.126V62.5605H144.251V74.7521C144.244 74.8175 144.248 74.8842 144.265 74.9471C144.282 75.01 144.311 75.0674 144.35 75.1152C144.388 75.1629 144.435 75.1997 144.487 75.2227C144.539 75.2457 144.595 75.2544 144.65 75.2481H145.051V77.4118H144.65Z" fill="black"/>
<path d="M152.221 62.5605H153.843V65.0287H152.221V62.5605ZM154.168 77.6291C152.876 77.6291 152.219 76.6412 152.219 74.7383V69.4552H151.357V67.1968H153.841V74.7383C153.835 74.8094 153.839 74.8819 153.853 74.9503C153.866 75.0186 153.89 75.0811 153.921 75.133C153.953 75.1849 153.991 75.2248 154.034 75.2499C154.077 75.2749 154.122 75.2843 154.168 75.2774H154.511V77.6291H154.168Z" fill="black"/>
<path d="M163.525 77.6193C161.799 77.6193 160.921 76.7436 160.921 75.0569C160.921 74.1192 161 73.2255 161 71.996C161 71.1642 160.662 70.3092 159.521 70.3092C158.882 70.2954 158.264 70.5418 157.795 70.9963V77.6193H155.631V70.3867H154.511V68.3849H157.571L157.61 69.7616C157.908 69.2845 158.316 68.8929 158.795 68.6223C159.274 68.3517 159.81 68.2106 160.354 68.2118C161.925 68.2118 163.157 69.4 163.157 71.7092C163.157 73.0628 163.098 74.0624 163.098 75.0672C163.098 75.3798 163.236 75.5451 163.535 75.5451H163.971V77.6296L163.525 77.6193Z" fill="black"/>
<path d="M170.099 62.5605H171.854V65.0284H170.099V62.5605ZM168.701 83.2798V80.9168H169.731C169.782 80.9282 169.833 80.9221 169.881 80.8991C169.93 80.876 169.974 80.8367 170.01 80.7841C170.046 80.7316 170.073 80.6674 170.089 80.5968C170.104 80.5262 170.109 80.4511 170.101 80.3777V69.4543H169.102V67.1962H171.854V80.3748C171.854 82.3017 171.146 83.2652 169.729 83.2652L168.701 83.2798Z" fill="black"/>
<path d="M179.121 71.9906C179.081 70.8881 178.569 70.1709 177.422 70.1709C176.315 70.1709 175.783 70.9895 175.643 71.9906H179.121ZM175.643 73.3997C175.763 74.525 176.276 75.5463 177.699 75.5463C178.449 75.5463 179.101 75.26 179.378 74.7505L181.076 75.3613C180.542 76.7096 179.437 77.6296 177.462 77.6296C174.952 77.6296 173.431 76.109 173.431 72.7256C173.431 69.7426 175.011 68.2118 177.422 68.2118C179.971 68.2118 181.314 69.6209 181.314 72.7256V73.3997H175.643Z" fill="black"/>
<path d="M194.379 77.6291C193.151 77.6291 192.274 77.1448 191.817 76.16L189.748 71.7747L192.835 67.8899H195.503L192.272 71.7747L193.73 74.7672C193.822 74.9823 193.977 75.1615 194.171 75.2796C194.365 75.3977 194.59 75.4487 194.813 75.4255H195.33V77.6209L194.379 77.6291ZM187.23 77.6291V64.6689H186.044V62.5605H189.516V77.6291H187.23Z" fill="black"/>
<path d="M198.314 77.6291C197.016 77.6291 196.356 76.7068 196.356 74.9304V64.6689H195.504V62.5605H197.984V74.9304C197.978 74.9969 197.982 75.0646 197.996 75.1284C198.011 75.1922 198.034 75.2505 198.066 75.2988C198.098 75.3472 198.137 75.3845 198.18 75.4078C198.222 75.4311 198.268 75.44 198.314 75.4337H198.657V77.6291H198.314Z" fill="black"/>
<path d="M205.203 73.4572C204.849 73.3784 204.488 73.3435 204.127 73.3532C203.07 73.3532 202.313 73.64 202.313 74.5205C202.313 75.2565 202.768 75.6447 203.719 75.6447C204.587 75.6447 204.929 75.4417 205.21 75.1524L205.203 73.4572ZM207.719 77.4668C206.547 77.4668 205.81 77.076 205.489 76.2995C205.192 76.7199 204.808 77.0592 204.368 77.2901C203.928 77.521 203.444 77.6371 202.955 77.6292C201.237 77.6292 200.234 76.4644 200.234 74.8378C200.234 72.7518 201.5 71.9727 203.466 71.9727C204.056 71.9717 204.644 72.0337 205.222 72.1579V71.4626C205.222 70.5617 204.753 70.1531 203.937 70.1531C203.164 70.1531 202.824 70.3156 202.297 70.9145L200.635 69.6456C201.446 68.6305 202.486 68.2118 204.167 68.2118C206.34 68.2118 207.304 69.2751 207.304 71.4651V74.9418C207.296 75.004 207.301 75.0673 207.318 75.127C207.336 75.1868 207.366 75.2413 207.407 75.2866C207.447 75.3318 207.496 75.3666 207.55 75.3882C207.605 75.4098 207.663 75.4177 207.721 75.4113H208.117V77.4592L207.719 77.4668Z" fill="black"/>
<path d="M208.117 77.4571V74.5927L210.069 74.4912C210.228 75.4096 211.095 75.8612 212.201 75.8612C213.067 75.8612 213.698 75.5339 213.698 74.7576C213.685 74.577 213.621 74.4041 213.515 74.259C213.408 74.1139 213.263 74.0026 213.097 73.9381C211.928 73.3444 208.354 73.4307 208.354 70.8301C208.354 69.356 209.42 68.2118 211.372 68.2118C212.68 68.2118 213.484 68.6837 213.826 68.9882L213.928 68.3336H215.88V71.1878L213.848 71.3096C213.728 70.1654 212.72 69.9802 211.956 69.9802C211.192 69.9802 210.588 70.3075 210.588 70.82C210.588 71.373 211.292 71.6166 212.016 71.7587C212.768 71.9076 213.508 72.1128 214.23 72.3727C215.034 72.6594 216 73.314 216 74.7043C216 76.2596 214.974 77.6296 212.7 77.6296C211.574 77.6296 210.565 77.1399 210.184 76.7518L210.064 77.4469L208.117 77.4571Z" fill="black"/>
<path d="M51.4186 48.9287C52.5194 48.9287 53.0698 48.2851 53.0698 46.9981V45.7717C53.0698 44.4846 52.5194 43.8411 51.4186 43.8411H48.2789C47.2927 43.8645 46.3126 43.6528 45.3986 43.219C44.4846 42.7851 43.6557 42.1382 42.9624 41.3176L41.3717 39.4822C40.0662 37.9739 39.4142 36.0705 39.4158 33.7718V29.0323C39.4158 26.5088 40.0305 24.5592 41.26 23.1833C42.4895 21.8073 44.1842 21.1203 46.344 21.1221H59.6678C60.7686 21.1221 61.319 21.7656 61.319 23.0527V29.1057C61.319 30.391 60.7686 31.0336 59.6678 31.0336H51.2604C50.1581 31.0336 49.6077 31.6771 49.6092 32.9642V33.6794C49.6092 34.9665 50.1596 35.61 51.2604 35.61H53.8885C55.8436 35.61 57.4196 36.1493 58.6166 37.2279L59.5933 38.1117C60.8585 39.2538 61.4903 41.0321 61.4888 43.4468V51.1666C61.4888 53.5486 60.7213 55.4149 59.1863 56.7654C57.6294 58.1249 55.7289 58.8378 53.7861 58.7912H40.2553C39.7003 58.7912 39.422 58.4658 39.4204 57.815V49.9049C39.4204 49.2523 39.6995 48.9287 40.2553 48.9287H51.4186Z" fill="black"/>
<path d="M74.6213 56.9644C74.5623 58.182 74.0327 58.7917 73.0325 58.7936H68.7199C67.6758 58.7936 67.1462 58.1656 67.1311 56.9098L66.7566 17.9464C66.7407 17.2202 66.4388 16.8544 65.8486 16.8544H60.122C58.9311 16.8544 58.3357 16.1382 58.3357 14.7059V3.75559C58.3357 2.3578 58.916 1.62432 60.0766 1.55516L82.6132 0.403076H82.7017C83.2752 0.403076 83.562 0.767084 83.562 1.4951V15.8716C83.562 16.5996 83.2676 16.9636 82.679 16.9636H82.6563L76.5937 16.9117H76.571C76.0127 16.9117 75.7184 17.2566 75.6881 17.9464L74.6213 56.9644Z" fill="black"/>
<path d="M89.5561 43.6823C89.5561 44.8123 90.0436 45.4907 91.0187 45.7174L94.0988 46.433C94.2983 46.4821 94.5014 46.5085 94.7052 46.5119C95.5753 46.5119 96.025 45.9478 96.0543 44.8196L96.9314 14.6187C96.9453 13.9331 97.2531 13.5875 97.8571 13.5875H103.923C104.522 13.5875 104.83 13.9331 104.848 14.6187L105.635 49.2735V49.5647C105.635 52.2256 104.78 54.3578 103.071 55.9613L102.733 56.2796C100.963 57.9483 98.753 58.8367 96.4848 58.7909H86.7906C85.7119 58.8201 84.6421 58.5533 83.6664 58.0115C82.6906 57.4698 81.8357 56.6681 81.1695 55.6701L80.9681 55.379C79.5881 53.4779 78.8306 51.06 78.8322 48.5607V48.2423L79.575 24.9577C79.6059 23.5828 80.2122 22.8954 81.394 22.8954H87.7348C88.9505 22.8954 89.5576 23.6091 89.5561 25.0366V43.6823Z" fill="black"/>
<path d="M123.628 44.9781V21.1035C123.628 19.8802 123.111 19.0762 122.076 18.6912L119.131 17.5903C119.03 17.5536 118.926 17.5363 118.821 17.539C118.246 17.539 117.957 17.8952 117.957 18.6183V18.6723L118.312 46.7131C118.326 47.447 118.592 47.814 119.11 47.814C119.206 47.8136 119.302 47.8045 119.397 47.787L122.188 47.1853C123.148 46.964 123.628 46.2283 123.628 44.9781ZM134.014 46.1033C134.031 47.3932 133.824 48.6735 133.404 49.8642C132.985 51.055 132.363 52.1308 131.577 53.0244L129.12 55.9089C128.361 56.8341 127.452 57.5669 126.447 58.0628C125.442 58.5587 124.362 58.8073 123.273 58.7934H110.804C109.46 58.7934 108.789 57.9974 108.789 56.4054V9.38474C108.789 8.023 109.379 7.28906 110.56 7.18293L123.405 6.08202C123.612 6.06313 123.827 6.05504 124.048 6.05504C125.028 6.03803 126 6.26241 126.902 6.71393C127.805 7.16545 128.618 7.83423 129.291 8.67779L131.529 11.3761C133.183 13.3674 134.009 15.6655 134.009 18.2703L134.014 46.1033Z" fill="black"/>
<path d="M137.168 16.8904V16.8356C137.168 15.4018 137.755 14.8517 138.966 14.6821L146.429 13.5875C147.613 13.5875 148.204 14.2607 148.204 15.607V15.7931L146.74 56.6915C146.681 58.0925 146.071 58.7931 144.912 58.7931H139.366C138.182 58.7931 137.583 58.0752 137.568 56.6395L137.168 16.8904Z" fill="black"/>
<path d="M168.556 45.9301V29.0507C168.556 27.6578 168.005 26.898 166.903 26.7714L162.982 26.2826C162.895 26.265 162.806 26.2556 162.717 26.2547C161.703 26.2547 161.167 26.9511 161.11 28.344L160.493 45.6312V45.9301C160.493 47.5595 161.117 48.3732 162.366 48.3714C162.469 48.3712 162.572 48.3628 162.674 48.3462L167.057 47.8574C168.055 47.7662 168.554 47.1237 168.556 45.9301ZM178.16 45.4133C178.148 48.1611 177.532 50.8534 176.376 53.2036L175.428 55.184C174.282 57.5881 172.557 58.791 170.252 58.7929H159.865C157.748 58.7929 155.847 57.7529 154.16 55.6728L153.933 55.3935C152.422 53.5314 151.651 51.0706 151.62 48.011L151.357 25.0536V24.9167C151.357 22.3097 152.231 20.0844 153.979 18.2409L154.133 18.0789C155.779 16.3415 157.806 15.4728 160.214 15.4728H168.703C169.791 15.446 170.872 15.6975 171.877 16.2114C172.881 16.7254 173.789 17.4906 174.542 18.4588L175.732 19.9532C176.509 20.8882 177.124 22.0072 177.54 23.2428C177.957 24.4784 178.166 25.8051 178.156 27.1429L178.16 45.4133Z" fill="black"/>
<path d="M49.411 128.818H49.6048C50.2018 128.818 50.506 128.342 50.5262 127.393L50.5848 121.953L49.0077 121.475C48.4355 121.292 48.1576 120.801 48.1741 120.003L48.3994 107.68C48.4174 106.823 48.7329 106.395 49.3457 106.395H59.8175C60.9335 106.395 61.4907 107.176 61.4892 108.738V122.215C61.4892 125.79 60.6533 131.065 58.9726 133.791L56.6971 137.492C54.9773 140.274 52.8445 141.666 50.2987 141.67H40.8047C38.2002 141.67 36.0223 140.421 34.271 137.921L33.9714 137.492C32.187 134.949 31.382 131.902 31.5562 128.351L32.8877 98.2406C32.9959 95.1072 33.946 92.1043 35.5913 89.6956L36.2244 88.7687C37.8713 86.3595 39.8494 85.1631 42.1745 85.1631H59.8738C60.944 85.1631 61.4802 85.8809 61.4802 87.3276V98.0811C61.4802 99.5883 60.9305 100.342 59.831 100.342H47.3157C44.824 100.342 43.5262 102.063 43.4226 105.537L42.9044 125.064C42.8526 126.835 43.4451 127.831 44.682 128.04L49.411 128.818Z" fill="black"/>
<path d="M74.7994 85.1631C75.5515 85.1631 75.9486 85.6178 75.9907 86.5273L77.5881 136.928H87.5154C89.0857 136.928 89.8702 137.878 89.8686 139.776V153.89C89.8686 155.789 89.0842 156.739 87.5154 156.739H68.5181C66.9854 156.739 66.219 155.836 66.219 154.032V153.819L67.9946 86.5437C68.0127 85.6342 68.4098 85.1795 69.1859 85.1795L74.7994 85.1631Z" fill="black"/>
<path d="M101.879 116.516V100.007C101.879 98.3577 101.212 97.458 99.8775 97.3078L94.4011 96.7279C94.2954 96.7084 94.1886 96.6983 94.0816 96.6977C92.854 96.6977 92.2037 97.5222 92.133 99.1712L91.3868 116.162V116.516C91.3868 118.442 92.1429 119.405 93.6549 119.407C93.7794 119.407 93.9037 119.396 94.0269 119.374L100.055 118.797C101.272 118.689 101.881 117.929 101.881 116.516M113.518 118.297C113.504 121.55 112.757 124.736 111.357 127.518L110.217 129.865C108.829 132.712 106.74 134.136 103.948 134.136H89.1278C86.5676 134.136 84.2644 132.905 82.2184 130.442L81.9514 130.12C80.1259 127.922 79.1927 125.008 79.1516 121.381L78.8322 96.4915V96.3459C78.8322 93.2622 79.8902 90.6275 82.0062 88.4416L82.1933 88.2492C84.1861 86.1934 86.6398 85.1656 89.5545 85.1656H102.066C103.384 85.1328 104.693 85.4298 105.91 86.0377C107.128 86.6456 108.227 87.5512 109.139 88.6972L110.579 90.4671C112.534 92.8637 113.512 95.7037 113.514 98.987L113.518 118.297Z" fill="black"/>
<path d="M138.788 102.074V97.7784C138.788 96.3694 138.173 95.6649 136.943 95.6649H130.221C129.658 95.6649 129.355 95.9953 129.313 96.6506L128.829 105.345C128.809 105.485 128.799 105.626 128.798 105.768C128.798 106.918 129.223 107.493 130.071 107.491C130.309 107.488 130.545 107.453 130.776 107.387L135.923 106.049C137.84 105.558 138.798 104.233 138.798 102.074M138.283 121.289C138.303 121.114 138.314 120.938 138.314 120.762C138.314 118.697 137.345 117.665 135.407 117.665H128.679C128.073 117.665 127.77 118.029 127.77 118.757V127.91C127.77 128.544 128.073 128.893 128.679 128.964L134.063 129.524C134.298 129.549 134.498 129.559 134.7 129.559C136.677 129.559 137.746 128.467 137.908 126.283L138.283 121.289ZM152.933 127.361C152.933 130.931 151.853 134.064 149.694 136.76L147.395 139.646C145.314 142.251 142.762 143.554 139.737 143.554H139.465L119.426 143.024C117.59 142.978 116.671 141.9 116.671 139.788V88.6828C116.671 86.3345 117.689 85.1613 119.724 85.1631L137.856 85.2314C141.247 85.2314 145.887 85.925 148.149 87.3094C151.014 89.0678 152.446 91.7311 152.446 95.299V100.613C152.446 104.228 151.338 109.435 149.116 112.018L147.665 113.706L149.544 115.784C150.636 116.956 151.502 118.384 152.086 119.973C152.67 121.562 152.959 123.277 152.933 125.005V127.361Z" fill="black"/>
<path d="M165.161 98.6675V121.231C165.161 122.919 165.86 123.84 167.258 123.996L170.658 124.589C170.769 124.611 170.881 124.622 170.994 124.621C172.279 124.621 172.959 123.776 173.033 122.088L173.817 99.0283V98.6675C173.817 96.6932 173.025 95.706 171.44 95.706C171.309 95.7061 171.178 95.7169 171.049 95.7383L167.061 96.3306C165.795 96.4419 165.161 97.2218 165.161 98.6702M154.511 101.395C154.526 98.0617 155.308 94.7957 156.775 91.9449L157.98 89.5407C159.434 86.6223 161.623 85.1631 164.548 85.1631H173.673C176.358 85.1631 178.772 86.4258 180.917 88.9511L181.196 89.2796C183.116 91.5375 184.095 94.5223 184.131 98.2341L184.467 128.164V128.328C184.467 131.489 183.359 134.188 181.141 136.427L180.944 136.626C178.856 138.731 176.283 139.785 173.225 139.786H166.508C163.58 139.786 161.11 138.579 159.098 136.163L157.586 134.356C155.538 131.899 154.513 128.991 154.511 125.631V101.395Z" fill="black"/>
</svg>
